ISO-10303-21;
HEADER;
/* Generated by software containing ST-Developer
 * from STEP Tools, Inc. (www.steptools.com) 
 */
/* OPTION: using custom renumber hook */

FILE_DESCRIPTION(
/* description */ ('STEP AP242 Edition 2',
'CAx-IF Rec.Pracs.---Representation and Presentation of Product Manufa
cturing Information (PMI)---4.0---2014-10-13',
'CAx-IF Rec.Pracs.---3D Tessellated Geometry---0.4---2014-09-14','2;1',
'CAx-IF Rec.Pracs.---User Defined Attributes---1.5---2016-08-15'),
/* implementation_level */ '2;1');

FILE_NAME(
/* name */ 'Part Studio 1 - Part 1',
/* time_stamp */ '2026-09-03T18:10:18Z',
/* author */ (''),
/* organization */ (''),
/* preprocessor_version */ 'ST-DEVELOPER v20',
/* originating_system */ 'ONSHAPE BY PTC INC, 1.220',
/* authorisation */ '  ');

FILE_SCHEMA (('AP242_MANAGED_MODEL_BASED_3D_ENGINEERING_MIM_LF { 1 0 10303 442 3 1 4 }'));
ENDSEC;

DATA;
#10=SHAPE_REPRESENTATION_RELATIONSHIP('','',#279,#11);
#11=ADVANCED_BREP_SHAPE_REPRESENTATION('',(#277),#445);
#12=CYLINDRICAL_SURFACE('',#285,0.005);
#13=CYLINDRICAL_SURFACE('',#287,0.005);
#14=CIRCLE('',#282,0.005);
#15=CIRCLE('',#283,0.005);
#16=CIRCLE('',#286,0.005);
#17=CIRCLE('',#288,0.005);
#18=ORIENTED_EDGE('',*,*,#90,.T.);
#19=ORIENTED_EDGE('',*,*,#91,.T.);
#20=ORIENTED_EDGE('',*,*,#92,.T.);
#21=ORIENTED_EDGE('',*,*,#93,.T.);
#22=ORIENTED_EDGE('',*,*,#94,.F.);
#23=ORIENTED_EDGE('',*,*,#95,.T.);
#24=ORIENTED_EDGE('',*,*,#96,.F.);
#25=ORIENTED_EDGE('',*,*,#97,.T.);
#26=ORIENTED_EDGE('',*,*,#98,.F.);
#27=ORIENTED_EDGE('',*,*,#99,.F.);
#28=ORIENTED_EDGE('',*,*,#100,.T.);
#29=ORIENTED_EDGE('',*,*,#101,.T.);
#30=ORIENTED_EDGE('',*,*,#102,.F.);
#31=ORIENTED_EDGE('',*,*,#103,.T.);
#32=ORIENTED_EDGE('',*,*,#104,.F.);
#33=ORIENTED_EDGE('',*,*,#105,.F.);
#34=ORIENTED_EDGE('',*,*,#106,.F.);
#35=ORIENTED_EDGE('',*,*,#95,.F.);
#36=ORIENTED_EDGE('',*,*,#107,.F.);
#37=ORIENTED_EDGE('',*,*,#93,.F.);
#38=ORIENTED_EDGE('',*,*,#108,.F.);
#39=ORIENTED_EDGE('',*,*,#109,.F.);
#40=ORIENTED_EDGE('',*,*,#96,.T.);
#41=ORIENTED_EDGE('',*,*,#106,.T.);
#42=ORIENTED_EDGE('',*,*,#110,.F.);
#43=ORIENTED_EDGE('',*,*,#111,.F.);
#44=ORIENTED_EDGE('',*,*,#112,.T.);
#45=ORIENTED_EDGE('',*,*,#109,.T.);
#46=ORIENTED_EDGE('',*,*,#113,.F.);
#47=ORIENTED_EDGE('',*,*,#114,.F.);
#48=ORIENTED_EDGE('',*,*,#110,.T.);
#49=ORIENTED_EDGE('',*,*,#105,.T.);
#50=ORIENTED_EDGE('',*,*,#113,.T.);
#51=ORIENTED_EDGE('',*,*,#108,.T.);
#52=ORIENTED_EDGE('',*,*,#92,.F.);
#53=ORIENTED_EDGE('',*,*,#115,.T.);
#54=ORIENTED_EDGE('',*,*,#116,.F.);
#55=ORIENTED_EDGE('',*,*,#117,.T.);
#56=ORIENTED_EDGE('',*,*,#118,.T.);
#57=ORIENTED_EDGE('',*,*,#97,.F.);
#58=ORIENTED_EDGE('',*,*,#111,.T.);
#59=ORIENTED_EDGE('',*,*,#114,.T.);
#60=ORIENTED_EDGE('',*,*,#115,.F.);
#61=ORIENTED_EDGE('',*,*,#91,.F.);
#62=ORIENTED_EDGE('',*,*,#94,.T.);
#63=ORIENTED_EDGE('',*,*,#107,.T.);
#64=ORIENTED_EDGE('',*,*,#112,.F.);
#65=ORIENTED_EDGE('',*,*,#104,.T.);
#66=ORIENTED_EDGE('',*,*,#116,.T.);
#67=ORIENTED_EDGE('',*,*,#90,.F.);
#68=ORIENTED_EDGE('',*,*,#119,.F.);
#69=ORIENTED_EDGE('',*,*,#102,.T.);
#70=ORIENTED_EDGE('',*,*,#120,.F.);
#71=ORIENTED_EDGE('',*,*,#121,.T.);
#72=ORIENTED_EDGE('',*,*,#99,.T.);
#73=ORIENTED_EDGE('',*,*,#122,.F.);
#74=ORIENTED_EDGE('',*,*,#103,.F.);
#75=ORIENTED_EDGE('',*,*,#119,.T.);
#76=ORIENTED_EDGE('',*,*,#98,.T.);
#77=ORIENTED_EDGE('',*,*,#118,.F.);
#78=ORIENTED_EDGE('',*,*,#123,.F.);
#79=ORIENTED_EDGE('',*,*,#124,.T.);
#80=ORIENTED_EDGE('',*,*,#100,.F.);
#81=ORIENTED_EDGE('',*,*,#122,.T.);
#82=ORIENTED_EDGE('',*,*,#117,.F.);
#83=ORIENTED_EDGE('',*,*,#121,.F.);
#84=ORIENTED_EDGE('',*,*,#125,.T.);
#85=ORIENTED_EDGE('',*,*,#123,.T.);
#86=ORIENTED_EDGE('',*,*,#124,.F.);
#87=ORIENTED_EDGE('',*,*,#125,.F.);
#88=ORIENTED_EDGE('',*,*,#120,.T.);
#89=ORIENTED_EDGE('',*,*,#101,.F.);
#90=EDGE_CURVE('',#126,#127,#150,.T.);
#91=EDGE_CURVE('',#127,#128,#151,.T.);
#92=EDGE_CURVE('',#128,#129,#152,.T.);
#93=EDGE_CURVE('',#129,#130,#14,.T.);
#94=EDGE_CURVE('',#131,#130,#153,.T.);
#95=EDGE_CURVE('',#131,#132,#15,.T.);
#96=EDGE_CURVE('',#133,#132,#154,.T.);
#97=EDGE_CURVE('',#133,#134,#155,.T.);
#98=EDGE_CURVE('',#135,#134,#156,.T.);
#99=EDGE_CURVE('',#126,#135,#157,.T.);
#100=EDGE_CURVE('',#136,#137,#158,.T.);
#101=EDGE_CURVE('',#137,#138,#159,.T.);
#102=EDGE_CURVE('',#139,#138,#160,.T.);
#103=EDGE_CURVE('',#139,#136,#161,.T.);
#104=EDGE_CURVE('',#140,#131,#162,.T.);
#105=EDGE_CURVE('',#141,#140,#16,.F.);
#106=EDGE_CURVE('',#132,#141,#163,.F.);
#107=EDGE_CURVE('',#130,#142,#164,.T.);
#108=EDGE_CURVE('',#143,#129,#165,.F.);
#109=EDGE_CURVE('',#142,#143,#17,.F.);
#110=EDGE_CURVE('',#144,#141,#166,.T.);
#111=EDGE_CURVE('',#133,#144,#167,.T.);
#112=EDGE_CURVE('',#140,#142,#168,.T.);
#113=EDGE_CURVE('',#145,#143,#169,.T.);
#114=EDGE_CURVE('',#144,#145,#170,.T.);
#115=EDGE_CURVE('',#128,#145,#171,.T.);
#116=EDGE_CURVE('',#146,#127,#172,.T.);
#117=EDGE_CURVE('',#146,#147,#173,.T.);
#118=EDGE_CURVE('',#147,#134,#174,.T.);
#119=EDGE_CURVE('',#139,#126,#175,.T.);
#120=EDGE_CURVE('',#148,#138,#176,.T.);
#121=EDGE_CURVE('',#148,#146,#177,.T.);
#122=EDGE_CURVE('',#136,#135,#178,.T.);
#123=EDGE_CURVE('',#149,#147,#179,.T.);
#124=EDGE_CURVE('',#149,#137,#180,.T.);
#125=EDGE_CURVE('',#148,#149,#181,.T.);
#126=VERTEX_POINT('',#372);
#127=VERTEX_POINT('',#373);
#128=VERTEX_POINT('',#375);
#129=VERTEX_POINT('',#377);
#130=VERTEX_POINT('',#379);
#131=VERTEX_POINT('',#381);
#132=VERTEX_POINT('',#383);
#133=VERTEX_POINT('',#385);
#134=VERTEX_POINT('',#387);
#135=VERTEX_POINT('',#389);
#136=VERTEX_POINT('',#393);
#137=VERTEX_POINT('',#394);
#138=VERTEX_POINT('',#396);
#139=VERTEX_POINT('',#398);
#140=VERTEX_POINT('',#402);
#141=VERTEX_POINT('',#404);
#142=VERTEX_POINT('',#408);
#143=VERTEX_POINT('',#410);
#144=VERTEX_POINT('',#414);
#145=VERTEX_POINT('',#419);
#146=VERTEX_POINT('',#425);
#147=VERTEX_POINT('',#427);
#148=VERTEX_POINT('',#433);
#149=VERTEX_POINT('',#439);
#150=LINE('',#371,#182);
#151=LINE('',#374,#183);
#152=LINE('',#376,#184);
#153=LINE('',#380,#185);
#154=LINE('',#384,#186);
#155=LINE('',#386,#187);
#156=LINE('',#388,#188);
#157=LINE('',#390,#189);
#158=LINE('',#392,#190);
#159=LINE('',#395,#191);
#160=LINE('',#397,#192);
#161=LINE('',#399,#193);
#162=LINE('',#401,#194);
#163=LINE('',#405,#195);
#164=LINE('',#407,#196);
#165=LINE('',#409,#197);
#166=LINE('',#413,#198);
#167=LINE('',#415,#199);
#168=LINE('',#417,#200);
#169=LINE('',#418,#201);
#170=LINE('',#420,#202);
#171=LINE('',#422,#203);
#172=LINE('',#424,#204);
#173=LINE('',#426,#205);
#174=LINE('',#428,#206);
#175=LINE('',#431,#207);
#176=LINE('',#432,#208);
#177=LINE('',#434,#209);
#178=LINE('',#436,#210);
#179=LINE('',#438,#211);
#180=LINE('',#440,#212);
#181=LINE('',#442,#213);
#182=VECTOR('',#303,1.);
#183=VECTOR('',#304,1.);
#184=VECTOR('',#305,1.);
#185=VECTOR('',#308,1.);
#186=VECTOR('',#311,1.);
#187=VECTOR('',#312,1.);
#188=VECTOR('',#313,1.);
#189=VECTOR('',#314,1.);
#190=VECTOR('',#317,1.);
#191=VECTOR('',#318,1.);
#192=VECTOR('',#319,1.);
#193=VECTOR('',#320,1.);
#194=VECTOR('',#323,1.);
#195=VECTOR('',#326,1.);
#196=VECTOR('',#329,1.);
#197=VECTOR('',#330,1.);
#198=VECTOR('',#335,1.);
#199=VECTOR('',#336,1.);
#200=VECTOR('',#339,1.);
#201=VECTOR('',#340,1.);
#202=VECTOR('',#341,1.);
#203=VECTOR('',#344,1.);
#204=VECTOR('',#347,1.);
#205=VECTOR('',#348,1.);
#206=VECTOR('',#349,1.);
#207=VECTOR('',#354,1.);
#208=VECTOR('',#355,1.);
#209=VECTOR('',#356,1.);
#210=VECTOR('',#359,1.);
#211=VECTOR('',#362,1.);
#212=VECTOR('',#363,1.);
#213=VECTOR('',#366,1.);
#214=EDGE_LOOP('',(#18,#19,#20,#21,#22,#23,#24,#25,#26,#27));
#215=EDGE_LOOP('',(#28,#29,#30,#31));
#216=EDGE_LOOP('',(#32,#33,#34,#35));
#217=EDGE_LOOP('',(#36,#37,#38,#39));
#218=EDGE_LOOP('',(#40,#41,#42,#43));
#219=EDGE_LOOP('',(#44,#45,#46,#47,#48,#49));
#220=EDGE_LOOP('',(#50,#51,#52,#53));
#221=EDGE_LOOP('',(#54,#55,#56,#57,#58,#59,#60,#61));
#222=EDGE_LOOP('',(#62,#63,#64,#65));
#223=EDGE_LOOP('',(#66,#67,#68,#69,#70,#71));
#224=EDGE_LOOP('',(#72,#73,#74,#75));
#225=EDGE_LOOP('',(#76,#77,#78,#79,#80,#81));
#226=EDGE_LOOP('',(#82,#83,#84,#85));
#227=EDGE_LOOP('',(#86,#87,#88,#89));
#228=FACE_BOUND('',#214,.T.);
#229=FACE_BOUND('',#215,.T.);
#230=FACE_BOUND('',#216,.T.);
#231=FACE_BOUND('',#217,.T.);
#232=FACE_BOUND('',#218,.T.);
#233=FACE_BOUND('',#219,.T.);
#234=FACE_BOUND('',#220,.T.);
#235=FACE_BOUND('',#221,.T.);
#236=FACE_BOUND('',#222,.T.);
#237=FACE_BOUND('',#223,.T.);
#238=FACE_BOUND('',#224,.T.);
#239=FACE_BOUND('',#225,.T.);
#240=FACE_BOUND('',#226,.T.);
#241=FACE_BOUND('',#227,.T.);
#242=PLANE('',#281);
#243=PLANE('',#284);
#244=PLANE('',#289);
#245=PLANE('',#290);
#246=PLANE('',#291);
#247=PLANE('',#292);
#248=PLANE('',#293);
#249=PLANE('',#294);
#250=PLANE('',#295);
#251=PLANE('',#296);
#252=PLANE('',#297);
#253=PLANE('',#298);
#254=ADVANCED_FACE('',(#228),#242,.T.);
#255=ADVANCED_FACE('',(#229),#243,.T.);
#256=ADVANCED_FACE('',(#230),#12,.T.);
#257=ADVANCED_FACE('',(#231),#13,.T.);
#258=ADVANCED_FACE('',(#232),#244,.F.);
#259=ADVANCED_FACE('',(#233),#245,.F.);
#260=ADVANCED_FACE('',(#234),#246,.T.);
#261=ADVANCED_FACE('',(#235),#247,.T.);
#262=ADVANCED_FACE('',(#236),#248,.F.);
#263=ADVANCED_FACE('',(#237),#249,.T.);
#264=ADVANCED_FACE('',(#238),#250,.F.);
#265=ADVANCED_FACE('',(#239),#251,.F.);
#266=ADVANCED_FACE('',(#240),#252,.T.);
#267=ADVANCED_FACE('',(#241),#253,.T.);
#268=CLOSED_SHELL('',(#254,#255,#256,#257,#258,#259,#260,#261,#262,#263,
#264,#265,#266,#267));
#269=STYLED_ITEM('',(#270),#277);
#270=PRESENTATION_STYLE_ASSIGNMENT((#271));
#271=SURFACE_STYLE_USAGE(.BOTH.,#272);
#272=SURFACE_SIDE_STYLE('',(#273));
#273=SURFACE_STYLE_FILL_AREA(#274);
#274=FILL_AREA_STYLE('',(#275));
#275=FILL_AREA_STYLE_COLOUR('',#276);
#276=COLOUR_RGB('',0.615686274509804,0.811764705882353,0.929411764705882);
#277=MANIFOLD_SOLID_BREP('Part 1',#268);
#278=SHAPE_DEFINITION_REPRESENTATION(#450,#279);
#279=SHAPE_REPRESENTATION('Part 1',(#280),#445);
#280=AXIS2_PLACEMENT_3D('',#369,#299,#300);
#281=AXIS2_PLACEMENT_3D('',#370,#301,#302);
#282=AXIS2_PLACEMENT_3D('',#378,#306,#307);
#283=AXIS2_PLACEMENT_3D('',#382,#309,#310);
#284=AXIS2_PLACEMENT_3D('',#391,#315,#316);
#285=AXIS2_PLACEMENT_3D('',#400,#321,#322);
#286=AXIS2_PLACEMENT_3D('',#403,#324,#325);
#287=AXIS2_PLACEMENT_3D('',#406,#327,#328);
#288=AXIS2_PLACEMENT_3D('',#411,#331,#332);
#289=AXIS2_PLACEMENT_3D('',#412,#333,#334);
#290=AXIS2_PLACEMENT_3D('',#416,#337,#338);
#291=AXIS2_PLACEMENT_3D('',#421,#342,#343);
#292=AXIS2_PLACEMENT_3D('',#423,#345,#346);
#293=AXIS2_PLACEMENT_3D('',#429,#350,#351);
#294=AXIS2_PLACEMENT_3D('',#430,#352,#353);
#295=AXIS2_PLACEMENT_3D('',#435,#357,#358);
#296=AXIS2_PLACEMENT_3D('',#437,#360,#361);
#297=AXIS2_PLACEMENT_3D('',#441,#364,#365);
#298=AXIS2_PLACEMENT_3D('',#443,#367,#368);
#299=DIRECTION('',(0.,0.,1.));
#300=DIRECTION('',(1.,0.,0.));
#301=DIRECTION('',(0.,0.,1.));
#302=DIRECTION('',(1.,0.,0.));
#303=DIRECTION('',(3.01347784242442E-16,-1.,0.));
#304=DIRECTION('',(1.,0.,0.));
#305=DIRECTION('',(0.,1.,0.));
#306=DIRECTION('',(0.,0.,1.));
#307=DIRECTION('',(1.,0.,0.));
#308=DIRECTION('',(1.,0.,0.));
#309=DIRECTION('',(0.,0.,1.));
#310=DIRECTION('',(1.,0.,0.));
#311=DIRECTION('',(0.,1.,0.));
#312=DIRECTION('',(1.,0.,0.));
#313=DIRECTION('',(0.,-1.,0.));
#314=DIRECTION('',(-1.,0.,0.));
#315=DIRECTION('',(0.,0.,1.));
#316=DIRECTION('',(1.,0.,0.));
#317=DIRECTION('',(0.,-1.,0.));
#318=DIRECTION('',(1.,0.,0.));
#319=DIRECTION('',(3.01347784242442E-16,-1.,0.));
#320=DIRECTION('',(-1.,0.,0.));
#321=DIRECTION('',(0.,0.,1.));
#322=DIRECTION('',(1.,0.,0.));
#323=DIRECTION('',(0.,0.,1.));
#324=DIRECTION('',(0.,0.,1.));
#325=DIRECTION('',(1.,0.,0.));
#326=DIRECTION('',(0.,0.,1.));
#327=DIRECTION('',(-4.62592926927149E-17,0.,1.));
#328=DIRECTION('',(1.,0.,4.62592926927149E-17));
#329=DIRECTION('',(4.62592926927149E-17,0.,-1.));
#330=DIRECTION('',(4.62592926927149E-17,0.,-1.));
#331=DIRECTION('',(0.,0.,1.));
#332=DIRECTION('',(1.,0.,0.));
#333=DIRECTION('',(1.,0.,0.));
#334=DIRECTION('',(0.,0.,-1.));
#335=DIRECTION('',(0.,1.,0.));
#336=DIRECTION('',(0.,0.,-1.));
#337=DIRECTION('',(0.,0.,1.));
#338=DIRECTION('',(1.,0.,0.));
#339=DIRECTION('',(1.,0.,0.));
#340=DIRECTION('',(0.,1.,0.));
#341=DIRECTION('',(1.,0.,0.));
#342=DIRECTION('',(1.,0.,4.62592926927149E-17));
#343=DIRECTION('',(4.62592926927149E-17,0.,-1.));
#344=DIRECTION('',(4.62592926927149E-17,0.,-1.));
#345=DIRECTION('',(0.,-1.,0.));
#346=DIRECTION('',(1.,0.,0.));
#347=DIRECTION('',(0.,0.,1.));
#348=DIRECTION('',(-1.,0.,0.));
#349=DIRECTION('',(0.,0.,1.));
#350=DIRECTION('',(0.,-1.,0.));
#351=DIRECTION('',(1.,0.,0.));
#352=DIRECTION('',(-1.,-3.01347784242442E-16,0.));
#353=DIRECTION('',(3.01347784242442E-16,-1.,0.));
#354=DIRECTION('',(0.,0.,1.));
#355=DIRECTION('',(0.,0.,1.));
#356=DIRECTION('',(0.,-1.,0.));
#357=DIRECTION('',(0.,1.,0.));
#358=DIRECTION('',(0.,0.,1.));
#359=DIRECTION('',(0.,0.,1.));
#360=DIRECTION('',(-1.,0.,0.));
#361=DIRECTION('',(0.,0.,1.));
#362=DIRECTION('',(0.,-1.,0.));
#363=DIRECTION('',(0.,0.,1.));
#364=DIRECTION('',(0.,0.,1.));
#365=DIRECTION('',(1.,0.,0.));
#366=DIRECTION('',(-1.,0.,0.));
#367=DIRECTION('',(0.,-1.,0.));
#368=DIRECTION('',(1.,0.,0.));
#369=CARTESIAN_POINT('',(0.,0.,0.));
#370=CARTESIAN_POINT('',(-0.0357678325474262,-0.12,0.15));
#371=CARTESIAN_POINT('',(-0.0267678325474262,-0.0606145104393363,0.15));
#372=CARTESIAN_POINT('',(-0.0267678325474263,-0.00304901413619518,0.15));
#373=CARTESIAN_POINT('',(-0.0267678325474263,-0.12,0.15));
#374=CARTESIAN_POINT('',(-0.0357678325474262,-0.12,0.15));
#375=CARTESIAN_POINT('',(-0.0257678325474263,-0.12,0.15));
#376=CARTESIAN_POINT('',(-0.0257678325474263,-0.12,0.15));
#377=CARTESIAN_POINT('',(-0.0257678325474263,-0.005,0.15));
#378=CARTESIAN_POINT('',(-0.0307678325474263,-0.005,0.15));
#379=CARTESIAN_POINT('',(-0.0307678325474263,0.,0.15));
#380=CARTESIAN_POINT('',(-0.0357678325474262,0.,0.15));
#381=CARTESIAN_POINT('',(-0.0407678325474262,0.,0.15));
#382=CARTESIAN_POINT('',(-0.0407678325474262,-0.005,0.15));
#383=CARTESIAN_POINT('',(-0.0457678325474262,-0.005,0.15));
#384=CARTESIAN_POINT('',(-0.0457678325474262,-0.12,0.15));
#385=CARTESIAN_POINT('',(-0.0457678325474262,-0.12,0.15));
#386=CARTESIAN_POINT('',(-0.0357678325474262,-0.12,0.15));
#387=CARTESIAN_POINT('',(-0.0447678325474263,-0.12,0.15));
#388=CARTESIAN_POINT('',(-0.0447678325474263,-0.0606145104393363,0.15));
#389=CARTESIAN_POINT('',(-0.0447678325474263,-0.00304901413619518,0.15));
#390=CARTESIAN_POINT('',(-0.0357678325474262,-0.00304901413619518,0.15));
#391=CARTESIAN_POINT('',(-0.0357678325474262,-0.06,0.1475));
#392=CARTESIAN_POINT('',(-0.0447678325474263,-0.0606145104393363,0.1475));
#393=CARTESIAN_POINT('',(-0.0447678325474263,-0.00304901413619518,0.1475));
#394=CARTESIAN_POINT('',(-0.0447678325474263,-0.1175,0.1475));
#395=CARTESIAN_POINT('',(-0.0357678325474262,-0.1175,0.1475));
#396=CARTESIAN_POINT('',(-0.0267678325474262,-0.1175,0.1475));
#397=CARTESIAN_POINT('',(-0.0267678325474262,-0.0606145104393363,0.1475));
#398=CARTESIAN_POINT('',(-0.0267678325474263,-0.00304901413619518,0.1475));
#399=CARTESIAN_POINT('',(-0.0357678325474262,-0.00304901413619518,0.1475));
#400=CARTESIAN_POINT('',(-0.0407678325474262,-0.005,0.075));
#401=CARTESIAN_POINT('',(-0.0407678325474262,0.,0.075));
#402=CARTESIAN_POINT('',(-0.0407678325474262,0.,0.));
#403=CARTESIAN_POINT('',(-0.0407678325474262,-0.005,0.));
#404=CARTESIAN_POINT('',(-0.0457678325474262,-0.005,0.));
#405=CARTESIAN_POINT('',(-0.0457678325474262,-0.005,0.075));
#406=CARTESIAN_POINT('',(-0.0307678325474263,-0.005,0.075));
#407=CARTESIAN_POINT('',(-0.0307678325474263,0.,0.075));
#408=CARTESIAN_POINT('',(-0.0307678325474263,0.,0.));
#409=CARTESIAN_POINT('',(-0.0257678325474263,-0.005,0.075));
#410=CARTESIAN_POINT('',(-0.0257678325474263,-0.005,0.));
#411=CARTESIAN_POINT('',(-0.0307678325474263,-0.005,0.));
#412=CARTESIAN_POINT('',(-0.0457678325474262,-0.12,0.075));
#413=CARTESIAN_POINT('',(-0.0457678325474262,-0.12,0.));
#414=CARTESIAN_POINT('',(-0.0457678325474262,-0.12,0.));
#415=CARTESIAN_POINT('',(-0.0457678325474262,-0.12,0.075));
#416=CARTESIAN_POINT('',(-0.0357678325474262,-0.12,0.));
#417=CARTESIAN_POINT('',(-0.0357678325474262,0.,0.));
#418=CARTESIAN_POINT('',(-0.0257678325474263,-0.12,0.));
#419=CARTESIAN_POINT('',(-0.0257678325474263,-0.12,0.));
#420=CARTESIAN_POINT('',(-0.0357678325474262,-0.12,0.));
#421=CARTESIAN_POINT('',(-0.0257678325474263,-0.12,0.075));
#422=CARTESIAN_POINT('',(-0.0257678325474263,-0.12,0.075));
#423=CARTESIAN_POINT('',(-0.0357678325474262,-0.12,0.075));
#424=CARTESIAN_POINT('',(-0.0267678325474263,-0.12,0.075));
#425=CARTESIAN_POINT('',(-0.0267678325474263,-0.12,0.001));
#426=CARTESIAN_POINT('',(-0.0357678325474262,-0.12,0.001));
#427=CARTESIAN_POINT('',(-0.0447678325474263,-0.12,0.001));
#428=CARTESIAN_POINT('',(-0.0447678325474263,-0.12,0.075));
#429=CARTESIAN_POINT('',(-0.0357678325474262,0.,0.075));
#430=CARTESIAN_POINT('',(-0.0267678325474262,-0.0606145104393363,0.1475));
#431=CARTESIAN_POINT('',(-0.0267678325474263,-0.00304901413619518,0.1475));
#432=CARTESIAN_POINT('',(-0.0267678325474263,-0.1175,0.075));
#433=CARTESIAN_POINT('',(-0.0267678325474263,-0.1175,0.001));
#434=CARTESIAN_POINT('',(-0.0267678325474263,-0.1175,0.001));
#435=CARTESIAN_POINT('',(-0.0357678325474262,-0.00304901413619518,0.1475));
#436=CARTESIAN_POINT('',(-0.0447678325474263,-0.00304901413619518,0.1475));
#437=CARTESIAN_POINT('',(-0.0447678325474263,-0.0606145104393363,0.1475));
#438=CARTESIAN_POINT('',(-0.0447678325474263,-0.1175,0.001));
#439=CARTESIAN_POINT('',(-0.0447678325474263,-0.1175,0.001));
#440=CARTESIAN_POINT('',(-0.0447678325474263,-0.1175,0.075));
#441=CARTESIAN_POINT('',(-0.0357678325474262,-0.1175,0.001));
#442=CARTESIAN_POINT('',(-0.0357678325474262,-0.1175,0.001));
#443=CARTESIAN_POINT('',(-0.0357678325474262,-0.1175,0.075));
#444=MECHANICAL_DESIGN_GEOMETRIC_PRESENTATION_REPRESENTATION('',(#269),
#445);
#445=(
GEOMETRIC_REPRESENTATION_CONTEXT(3)
GLOBAL_UNCERTAINTY_ASSIGNED_CONTEXT((#446))
GLOBAL_UNIT_ASSIGNED_CONTEXT((#449,#448,#447))
REPRESENTATION_CONTEXT('Part 1','TOP_LEVEL_ASSEMBLY_PART')
);
#446=UNCERTAINTY_MEASURE_WITH_UNIT(LENGTH_MEASURE(1.E-8),#449,
'DISTANCE_ACCURACY_VALUE','Maximum Tolerance applied to model');
#447=(
NAMED_UNIT(*)
SI_UNIT($,.STERADIAN.)
SOLID_ANGLE_UNIT()
);
#448=(
NAMED_UNIT(*)
PLANE_ANGLE_UNIT()
SI_UNIT($,.RADIAN.)
);
#449=(
LENGTH_UNIT()
NAMED_UNIT(*)
SI_UNIT($,.METRE.)
);
#450=PRODUCT_DEFINITION_SHAPE('','',#451);
#451=PRODUCT_DEFINITION('','',#453,#452);
#452=PRODUCT_DEFINITION_CONTEXT('',#459,'design');
#453=PRODUCT_DEFINITION_FORMATION_WITH_SPECIFIED_SOURCE('','',#455,
 .NOT_KNOWN.);
#454=PRODUCT_RELATED_PRODUCT_CATEGORY('','',(#455));
#455=PRODUCT('Part 1','Part 1','Part 1',(#457));
#456=PRODUCT_CATEGORY('','');
#457=PRODUCT_CONTEXT('',#459,'mechanical');
#458=APPLICATION_PROTOCOL_DEFINITION('international standard',
'ap242_managed_model_based_3d_engineering',2020,#459);
#459=APPLICATION_CONTEXT('managed model based 3d engineering');
ENDSEC;
END-ISO-10303-21;
