ISO-10303-21;
HEADER;
/* Generated by software containing ST-Developer
 * from STEP Tools, Inc. (www.steptools.com) 
 */
/* OPTION: using custom renumber hook */

FILE_DESCRIPTION(
/* description */ ('STEP AP242 Edition 2',
'CAx-IF Rec.Pracs.---Representation and Presentation of Product Manufa
cturing Information (PMI)---4.0---2014-10-13',
'CAx-IF Rec.Pracs.---3D Tessellated Geometry---0.4---2014-09-14','2;1',
'CAx-IF Rec.Pracs.---User Defined Attributes---1.5---2016-08-15'),
/* implementation_level */ '2;1');

FILE_NAME(
/* name */ 'Part Studio 1 - Part 1',
/* time_stamp */ '2026-09-03T18:10:41Z',
/* author */ (''),
/* organization */ (''),
/* preprocessor_version */ 'ST-DEVELOPER v20',
/* originating_system */ 'ONSHAPE BY PTC INC, 1.220',
/* authorisation */ '  ');

FILE_SCHEMA (('AP242_MANAGED_MODEL_BASED_3D_ENGINEERING_MIM_LF { 1 0 10303 442 3 1 4 }'));
ENDSEC;

DATA;
#10=SHAPE_REPRESENTATION_RELATIONSHIP('','',#975,#11);
#11=ADVANCED_BREP_SHAPE_REPRESENTATION('',(#973),#1541);
#12=CYLINDRICAL_SURFACE('',#985,0.01);
#13=CYLINDRICAL_SURFACE('',#987,0.01);
#14=CIRCLE('',#982,0.01);
#15=CIRCLE('',#983,0.01);
#16=CIRCLE('',#986,0.01);
#17=CIRCLE('',#988,0.01);
#18=ORIENTED_EDGE('',*,*,#286,.T.);
#19=ORIENTED_EDGE('',*,*,#287,.F.);
#20=ORIENTED_EDGE('',*,*,#288,.F.);
#21=ORIENTED_EDGE('',*,*,#289,.T.);
#22=ORIENTED_EDGE('',*,*,#290,.F.);
#23=ORIENTED_EDGE('',*,*,#291,.F.);
#24=ORIENTED_EDGE('',*,*,#292,.F.);
#25=ORIENTED_EDGE('',*,*,#293,.T.);
#26=ORIENTED_EDGE('',*,*,#294,.F.);
#27=ORIENTED_EDGE('',*,*,#295,.F.);
#28=ORIENTED_EDGE('',*,*,#296,.F.);
#29=ORIENTED_EDGE('',*,*,#297,.T.);
#30=ORIENTED_EDGE('',*,*,#298,.T.);
#31=ORIENTED_EDGE('',*,*,#299,.T.);
#32=ORIENTED_EDGE('',*,*,#300,.T.);
#33=ORIENTED_EDGE('',*,*,#301,.F.);
#34=ORIENTED_EDGE('',*,*,#302,.F.);
#35=ORIENTED_EDGE('',*,*,#303,.T.);
#36=ORIENTED_EDGE('',*,*,#304,.T.);
#37=ORIENTED_EDGE('',*,*,#305,.T.);
#38=ORIENTED_EDGE('',*,*,#306,.F.);
#39=ORIENTED_EDGE('',*,*,#307,.T.);
#40=ORIENTED_EDGE('',*,*,#301,.T.);
#41=ORIENTED_EDGE('',*,*,#308,.T.);
#42=ORIENTED_EDGE('',*,*,#298,.F.);
#43=ORIENTED_EDGE('',*,*,#309,.F.);
#44=ORIENTED_EDGE('',*,*,#310,.F.);
#45=ORIENTED_EDGE('',*,*,#311,.T.);
#46=ORIENTED_EDGE('',*,*,#312,.F.);
#47=ORIENTED_EDGE('',*,*,#313,.T.);
#48=ORIENTED_EDGE('',*,*,#314,.T.);
#49=ORIENTED_EDGE('',*,*,#315,.T.);
#50=ORIENTED_EDGE('',*,*,#316,.T.);
#51=ORIENTED_EDGE('',*,*,#317,.T.);
#52=ORIENTED_EDGE('',*,*,#318,.F.);
#53=ORIENTED_EDGE('',*,*,#319,.F.);
#54=ORIENTED_EDGE('',*,*,#320,.F.);
#55=ORIENTED_EDGE('',*,*,#321,.F.);
#56=ORIENTED_EDGE('',*,*,#322,.F.);
#57=ORIENTED_EDGE('',*,*,#323,.T.);
#58=ORIENTED_EDGE('',*,*,#324,.F.);
#59=ORIENTED_EDGE('',*,*,#313,.F.);
#60=ORIENTED_EDGE('',*,*,#325,.F.);
#61=ORIENTED_EDGE('',*,*,#326,.F.);
#62=ORIENTED_EDGE('',*,*,#327,.F.);
#63=ORIENTED_EDGE('',*,*,#328,.F.);
#64=ORIENTED_EDGE('',*,*,#329,.F.);
#65=ORIENTED_EDGE('',*,*,#311,.F.);
#66=ORIENTED_EDGE('',*,*,#314,.F.);
#67=ORIENTED_EDGE('',*,*,#324,.T.);
#68=ORIENTED_EDGE('',*,*,#330,.T.);
#69=ORIENTED_EDGE('',*,*,#331,.F.);
#70=ORIENTED_EDGE('',*,*,#332,.F.);
#71=ORIENTED_EDGE('',*,*,#327,.T.);
#72=ORIENTED_EDGE('',*,*,#310,.T.);
#73=ORIENTED_EDGE('',*,*,#333,.T.);
#74=ORIENTED_EDGE('',*,*,#334,.T.);
#75=ORIENTED_EDGE('',*,*,#328,.T.);
#76=ORIENTED_EDGE('',*,*,#332,.T.);
#77=ORIENTED_EDGE('',*,*,#335,.F.);
#78=ORIENTED_EDGE('',*,*,#330,.F.);
#79=ORIENTED_EDGE('',*,*,#326,.T.);
#80=ORIENTED_EDGE('',*,*,#312,.T.);
#81=ORIENTED_EDGE('',*,*,#329,.T.);
#82=ORIENTED_EDGE('',*,*,#334,.F.);
#83=ORIENTED_EDGE('',*,*,#325,.T.);
#84=ORIENTED_EDGE('',*,*,#331,.T.);
#85=ORIENTED_EDGE('',*,*,#335,.T.);
#86=ORIENTED_EDGE('',*,*,#333,.F.);
#87=ORIENTED_EDGE('',*,*,#315,.F.);
#88=ORIENTED_EDGE('',*,*,#291,.T.);
#89=ORIENTED_EDGE('',*,*,#336,.T.);
#90=ORIENTED_EDGE('',*,*,#337,.F.);
#91=ORIENTED_EDGE('',*,*,#338,.F.);
#92=ORIENTED_EDGE('',*,*,#339,.F.);
#93=ORIENTED_EDGE('',*,*,#293,.F.);
#94=ORIENTED_EDGE('',*,*,#340,.T.);
#95=ORIENTED_EDGE('',*,*,#341,.T.);
#96=ORIENTED_EDGE('',*,*,#292,.T.);
#97=ORIENTED_EDGE('',*,*,#338,.T.);
#98=ORIENTED_EDGE('',*,*,#342,.F.);
#99=ORIENTED_EDGE('',*,*,#340,.F.);
#100=ORIENTED_EDGE('',*,*,#295,.T.);
#101=ORIENTED_EDGE('',*,*,#343,.T.);
#102=ORIENTED_EDGE('',*,*,#344,.F.);
#103=ORIENTED_EDGE('',*,*,#345,.F.);
#104=ORIENTED_EDGE('',*,*,#296,.T.);
#105=ORIENTED_EDGE('',*,*,#345,.T.);
#106=ORIENTED_EDGE('',*,*,#346,.F.);
#107=ORIENTED_EDGE('',*,*,#347,.F.);
#108=ORIENTED_EDGE('',*,*,#348,.F.);
#109=ORIENTED_EDGE('',*,*,#349,.F.);
#110=ORIENTED_EDGE('',*,*,#350,.T.);
#111=ORIENTED_EDGE('',*,*,#351,.T.);
#112=ORIENTED_EDGE('',*,*,#352,.T.);
#113=ORIENTED_EDGE('',*,*,#353,.T.);
#114=ORIENTED_EDGE('',*,*,#354,.F.);
#115=ORIENTED_EDGE('',*,*,#355,.F.);
#116=ORIENTED_EDGE('',*,*,#350,.F.);
#117=ORIENTED_EDGE('',*,*,#356,.T.);
#118=ORIENTED_EDGE('',*,*,#355,.T.);
#119=ORIENTED_EDGE('',*,*,#357,.F.);
#120=ORIENTED_EDGE('',*,*,#358,.F.);
#121=ORIENTED_EDGE('',*,*,#359,.F.);
#122=ORIENTED_EDGE('',*,*,#360,.T.);
#123=ORIENTED_EDGE('',*,*,#361,.T.);
#124=ORIENTED_EDGE('',*,*,#321,.T.);
#125=ORIENTED_EDGE('',*,*,#362,.T.);
#126=ORIENTED_EDGE('',*,*,#363,.F.);
#127=ORIENTED_EDGE('',*,*,#364,.F.);
#128=ORIENTED_EDGE('',*,*,#359,.T.);
#129=ORIENTED_EDGE('',*,*,#365,.F.);
#130=ORIENTED_EDGE('',*,*,#352,.F.);
#131=ORIENTED_EDGE('',*,*,#356,.F.);
#132=ORIENTED_EDGE('',*,*,#349,.T.);
#133=ORIENTED_EDGE('',*,*,#317,.F.);
#134=ORIENTED_EDGE('',*,*,#366,.F.);
#135=ORIENTED_EDGE('',*,*,#346,.T.);
#136=ORIENTED_EDGE('',*,*,#344,.T.);
#137=ORIENTED_EDGE('',*,*,#367,.T.);
#138=ORIENTED_EDGE('',*,*,#341,.F.);
#139=ORIENTED_EDGE('',*,*,#342,.T.);
#140=ORIENTED_EDGE('',*,*,#337,.T.);
#141=ORIENTED_EDGE('',*,*,#368,.T.);
#142=ORIENTED_EDGE('',*,*,#286,.F.);
#143=ORIENTED_EDGE('',*,*,#369,.T.);
#144=ORIENTED_EDGE('',*,*,#370,.T.);
#145=ORIENTED_EDGE('',*,*,#371,.T.);
#146=ORIENTED_EDGE('',*,*,#351,.F.);
#147=ORIENTED_EDGE('',*,*,#357,.T.);
#148=ORIENTED_EDGE('',*,*,#354,.T.);
#149=ORIENTED_EDGE('',*,*,#372,.T.);
#150=ORIENTED_EDGE('',*,*,#361,.F.);
#151=ORIENTED_EDGE('',*,*,#373,.T.);
#152=ORIENTED_EDGE('',*,*,#374,.T.);
#153=ORIENTED_EDGE('',*,*,#360,.F.);
#154=ORIENTED_EDGE('',*,*,#364,.T.);
#155=ORIENTED_EDGE('',*,*,#375,.T.);
#156=ORIENTED_EDGE('',*,*,#373,.F.);
#157=ORIENTED_EDGE('',*,*,#318,.T.);
#158=ORIENTED_EDGE('',*,*,#374,.F.);
#159=ORIENTED_EDGE('',*,*,#375,.F.);
#160=ORIENTED_EDGE('',*,*,#363,.T.);
#161=ORIENTED_EDGE('',*,*,#376,.F.);
#162=ORIENTED_EDGE('',*,*,#377,.F.);
#163=ORIENTED_EDGE('',*,*,#378,.F.);
#164=ORIENTED_EDGE('',*,*,#379,.T.);
#165=ORIENTED_EDGE('',*,*,#380,.F.);
#166=ORIENTED_EDGE('',*,*,#381,.F.);
#167=ORIENTED_EDGE('',*,*,#382,.T.);
#168=ORIENTED_EDGE('',*,*,#383,.T.);
#169=ORIENTED_EDGE('',*,*,#384,.T.);
#170=ORIENTED_EDGE('',*,*,#378,.T.);
#171=ORIENTED_EDGE('',*,*,#385,.F.);
#172=ORIENTED_EDGE('',*,*,#382,.F.);
#173=ORIENTED_EDGE('',*,*,#386,.F.);
#174=ORIENTED_EDGE('',*,*,#387,.F.);
#175=ORIENTED_EDGE('',*,*,#388,.T.);
#176=ORIENTED_EDGE('',*,*,#389,.T.);
#177=ORIENTED_EDGE('',*,*,#390,.T.);
#178=ORIENTED_EDGE('',*,*,#391,.T.);
#179=ORIENTED_EDGE('',*,*,#392,.F.);
#180=ORIENTED_EDGE('',*,*,#393,.F.);
#181=ORIENTED_EDGE('',*,*,#388,.F.);
#182=ORIENTED_EDGE('',*,*,#394,.T.);
#183=ORIENTED_EDGE('',*,*,#393,.T.);
#184=ORIENTED_EDGE('',*,*,#395,.F.);
#185=ORIENTED_EDGE('',*,*,#396,.T.);
#186=ORIENTED_EDGE('',*,*,#370,.F.);
#187=ORIENTED_EDGE('',*,*,#397,.F.);
#188=ORIENTED_EDGE('',*,*,#398,.T.);
#189=ORIENTED_EDGE('',*,*,#289,.F.);
#190=ORIENTED_EDGE('',*,*,#399,.T.);
#191=ORIENTED_EDGE('',*,*,#397,.T.);
#192=ORIENTED_EDGE('',*,*,#369,.F.);
#193=ORIENTED_EDGE('',*,*,#400,.F.);
#194=ORIENTED_EDGE('',*,*,#401,.F.);
#195=ORIENTED_EDGE('',*,*,#402,.T.);
#196=ORIENTED_EDGE('',*,*,#306,.T.);
#197=ORIENTED_EDGE('',*,*,#403,.T.);
#198=ORIENTED_EDGE('',*,*,#404,.T.);
#199=ORIENTED_EDGE('',*,*,#299,.F.);
#200=ORIENTED_EDGE('',*,*,#405,.F.);
#201=ORIENTED_EDGE('',*,*,#402,.F.);
#202=ORIENTED_EDGE('',*,*,#406,.T.);
#203=ORIENTED_EDGE('',*,*,#405,.T.);
#204=ORIENTED_EDGE('',*,*,#307,.F.);
#205=ORIENTED_EDGE('',*,*,#316,.F.);
#206=ORIENTED_EDGE('',*,*,#407,.F.);
#207=ORIENTED_EDGE('',*,*,#408,.T.);
#208=ORIENTED_EDGE('',*,*,#302,.T.);
#209=ORIENTED_EDGE('',*,*,#309,.T.);
#210=ORIENTED_EDGE('',*,*,#297,.F.);
#211=ORIENTED_EDGE('',*,*,#347,.T.);
#212=ORIENTED_EDGE('',*,*,#366,.T.);
#213=ORIENTED_EDGE('',*,*,#409,.F.);
#214=ORIENTED_EDGE('',*,*,#398,.F.);
#215=ORIENTED_EDGE('',*,*,#399,.F.);
#216=ORIENTED_EDGE('',*,*,#288,.T.);
#217=ORIENTED_EDGE('',*,*,#410,.F.);
#218=ORIENTED_EDGE('',*,*,#403,.F.);
#219=ORIENTED_EDGE('',*,*,#406,.F.);
#220=ORIENTED_EDGE('',*,*,#401,.T.);
#221=ORIENTED_EDGE('',*,*,#411,.F.);
#222=ORIENTED_EDGE('',*,*,#412,.F.);
#223=ORIENTED_EDGE('',*,*,#413,.F.);
#224=ORIENTED_EDGE('',*,*,#407,.T.);
#225=ORIENTED_EDGE('',*,*,#319,.T.);
#226=ORIENTED_EDGE('',*,*,#379,.F.);
#227=ORIENTED_EDGE('',*,*,#384,.F.);
#228=ORIENTED_EDGE('',*,*,#381,.T.);
#229=ORIENTED_EDGE('',*,*,#414,.F.);
#230=ORIENTED_EDGE('',*,*,#390,.F.);
#231=ORIENTED_EDGE('',*,*,#394,.F.);
#232=ORIENTED_EDGE('',*,*,#387,.T.);
#233=ORIENTED_EDGE('',*,*,#412,.T.);
#234=ORIENTED_EDGE('',*,*,#415,.T.);
#235=ORIENTED_EDGE('',*,*,#304,.F.);
#236=ORIENTED_EDGE('',*,*,#416,.F.);
#237=ORIENTED_EDGE('',*,*,#417,.F.);
#238=ORIENTED_EDGE('',*,*,#323,.F.);
#239=ORIENTED_EDGE('',*,*,#389,.F.);
#240=ORIENTED_EDGE('',*,*,#395,.T.);
#241=ORIENTED_EDGE('',*,*,#392,.T.);
#242=ORIENTED_EDGE('',*,*,#418,.T.);
#243=ORIENTED_EDGE('',*,*,#383,.F.);
#244=ORIENTED_EDGE('',*,*,#385,.T.);
#245=ORIENTED_EDGE('',*,*,#377,.T.);
#246=ORIENTED_EDGE('',*,*,#408,.F.);
#247=ORIENTED_EDGE('',*,*,#413,.T.);
#248=ORIENTED_EDGE('',*,*,#416,.T.);
#249=ORIENTED_EDGE('',*,*,#303,.F.);
#250=ORIENTED_EDGE('',*,*,#415,.F.);
#251=ORIENTED_EDGE('',*,*,#411,.T.);
#252=ORIENTED_EDGE('',*,*,#400,.T.);
#253=ORIENTED_EDGE('',*,*,#305,.F.);
#254=ORIENTED_EDGE('',*,*,#404,.F.);
#255=ORIENTED_EDGE('',*,*,#410,.T.);
#256=ORIENTED_EDGE('',*,*,#287,.T.);
#257=ORIENTED_EDGE('',*,*,#368,.F.);
#258=ORIENTED_EDGE('',*,*,#336,.F.);
#259=ORIENTED_EDGE('',*,*,#419,.F.);
#260=ORIENTED_EDGE('',*,*,#396,.F.);
#261=ORIENTED_EDGE('',*,*,#409,.T.);
#262=ORIENTED_EDGE('',*,*,#386,.T.);
#263=ORIENTED_EDGE('',*,*,#322,.T.);
#264=ORIENTED_EDGE('',*,*,#348,.T.);
#265=ORIENTED_EDGE('',*,*,#371,.F.);
#266=ORIENTED_EDGE('',*,*,#414,.T.);
#267=ORIENTED_EDGE('',*,*,#380,.T.);
#268=ORIENTED_EDGE('',*,*,#418,.F.);
#269=ORIENTED_EDGE('',*,*,#391,.F.);
#270=ORIENTED_EDGE('',*,*,#372,.F.);
#271=ORIENTED_EDGE('',*,*,#353,.F.);
#272=ORIENTED_EDGE('',*,*,#365,.T.);
#273=ORIENTED_EDGE('',*,*,#358,.T.);
#274=ORIENTED_EDGE('',*,*,#343,.F.);
#275=ORIENTED_EDGE('',*,*,#294,.T.);
#276=ORIENTED_EDGE('',*,*,#339,.T.);
#277=ORIENTED_EDGE('',*,*,#367,.F.);
#278=ORIENTED_EDGE('',*,*,#320,.T.);
#279=ORIENTED_EDGE('',*,*,#417,.T.);
#280=ORIENTED_EDGE('',*,*,#376,.T.);
#281=ORIENTED_EDGE('',*,*,#362,.F.);
#282=ORIENTED_EDGE('',*,*,#308,.F.);
#283=ORIENTED_EDGE('',*,*,#300,.F.);
#284=ORIENTED_EDGE('',*,*,#419,.T.);
#285=ORIENTED_EDGE('',*,*,#290,.T.);
#286=EDGE_CURVE('',#420,#421,#508,.T.);
#287=EDGE_CURVE('',#422,#421,#509,.T.);
#288=EDGE_CURVE('',#423,#422,#510,.T.);
#289=EDGE_CURVE('',#423,#420,#511,.T.);
#290=EDGE_CURVE('',#424,#425,#512,.T.);
#291=EDGE_CURVE('',#426,#424,#513,.T.);
#292=EDGE_CURVE('',#427,#426,#514,.T.);
#293=EDGE_CURVE('',#427,#428,#515,.T.);
#294=EDGE_CURVE('',#429,#428,#516,.T.);
#295=EDGE_CURVE('',#430,#429,#517,.T.);
#296=EDGE_CURVE('',#431,#430,#518,.T.);
#297=EDGE_CURVE('',#431,#432,#519,.T.);
#298=EDGE_CURVE('',#432,#425,#520,.T.);
#299=EDGE_CURVE('',#433,#434,#521,.T.);
#300=EDGE_CURVE('',#434,#435,#522,.T.);
#301=EDGE_CURVE('',#436,#435,#523,.T.);
#302=EDGE_CURVE('',#437,#436,#524,.T.);
#303=EDGE_CURVE('',#437,#438,#525,.T.);
#304=EDGE_CURVE('',#438,#439,#526,.T.);
#305=EDGE_CURVE('',#439,#440,#527,.T.);
#306=EDGE_CURVE('',#441,#440,#528,.T.);
#307=EDGE_CURVE('',#441,#433,#529,.T.);
#308=EDGE_CURVE('',#435,#425,#530,.T.);
#309=EDGE_CURVE('',#436,#432,#531,.T.);
#310=EDGE_CURVE('',#442,#443,#532,.T.);
#311=EDGE_CURVE('',#442,#444,#14,.F.);
#312=EDGE_CURVE('',#445,#444,#533,.T.);
#313=EDGE_CURVE('',#445,#446,#15,.F.);
#314=EDGE_CURVE('',#446,#447,#534,.T.);
#315=EDGE_CURVE('',#447,#443,#535,.T.);
#316=EDGE_CURVE('',#448,#449,#536,.T.);
#317=EDGE_CURVE('',#449,#450,#537,.T.);
#318=EDGE_CURVE('',#451,#450,#538,.T.);
#319=EDGE_CURVE('',#448,#451,#539,.T.);
#320=EDGE_CURVE('',#452,#453,#540,.T.);
#321=EDGE_CURVE('',#454,#452,#541,.T.);
#322=EDGE_CURVE('',#455,#454,#542,.T.);
#323=EDGE_CURVE('',#455,#453,#543,.T.);
#324=EDGE_CURVE('',#446,#456,#544,.T.);
#325=EDGE_CURVE('',#457,#445,#545,.F.);
#326=EDGE_CURVE('',#456,#457,#16,.T.);
#327=EDGE_CURVE('',#458,#442,#546,.T.);
#328=EDGE_CURVE('',#459,#458,#17,.T.);
#329=EDGE_CURVE('',#444,#459,#547,.F.);
#330=EDGE_CURVE('',#456,#460,#548,.T.);
#331=EDGE_CURVE('',#447,#460,#549,.T.);
#332=EDGE_CURVE('',#458,#461,#550,.T.);
#333=EDGE_CURVE('',#443,#461,#551,.T.);
#334=EDGE_CURVE('',#457,#459,#552,.T.);
#335=EDGE_CURVE('',#460,#461,#553,.T.);
#336=EDGE_CURVE('',#424,#462,#554,.T.);
#337=EDGE_CURVE('',#463,#462,#555,.T.);
#338=EDGE_CURVE('',#426,#463,#556,.T.);
#339=EDGE_CURVE('',#428,#464,#557,.T.);
#340=EDGE_CURVE('',#427,#465,#558,.T.);
#341=EDGE_CURVE('',#465,#464,#559,.T.);
#342=EDGE_CURVE('',#465,#463,#560,.T.);
#343=EDGE_CURVE('',#429,#466,#561,.T.);
#344=EDGE_CURVE('',#467,#466,#562,.T.);
#345=EDGE_CURVE('',#430,#467,#563,.T.);
#346=EDGE_CURVE('',#468,#467,#564,.T.);
#347=EDGE_CURVE('',#431,#468,#565,.T.);
#348=EDGE_CURVE('',#454,#469,#566,.T.);
#349=EDGE_CURVE('',#470,#454,#567,.T.);
#350=EDGE_CURVE('',#470,#471,#568,.T.);
#351=EDGE_CURVE('',#471,#469,#569,.T.);
#352=EDGE_CURVE('',#472,#473,#570,.T.);
#353=EDGE_CURVE('',#473,#474,#571,.T.);
#354=EDGE_CURVE('',#475,#474,#572,.T.);
#355=EDGE_CURVE('',#472,#475,#573,.T.);
#356=EDGE_CURVE('',#470,#472,#574,.T.);
#357=EDGE_CURVE('',#471,#475,#575,.T.);
#358=EDGE_CURVE('',#476,#477,#576,.T.);
#359=EDGE_CURVE('',#478,#476,#577,.T.);
#360=EDGE_CURVE('',#478,#479,#578,.T.);
#361=EDGE_CURVE('',#479,#477,#579,.T.);
#362=EDGE_CURVE('',#452,#480,#580,.T.);
#363=EDGE_CURVE('',#481,#480,#581,.T.);
#364=EDGE_CURVE('',#478,#481,#582,.T.);
#365=EDGE_CURVE('',#473,#476,#583,.T.);
#366=EDGE_CURVE('',#468,#449,#584,.T.);
#367=EDGE_CURVE('',#466,#464,#585,.T.);
#368=EDGE_CURVE('',#462,#421,#586,.T.);
#369=EDGE_CURVE('',#420,#482,#587,.T.);
#370=EDGE_CURVE('',#482,#483,#588,.T.);
#371=EDGE_CURVE('',#483,#469,#589,.T.);
#372=EDGE_CURVE('',#474,#477,#590,.T.);
#373=EDGE_CURVE('',#479,#484,#591,.T.);
#374=EDGE_CURVE('',#484,#450,#592,.T.);
#375=EDGE_CURVE('',#481,#484,#593,.T.);
#376=EDGE_CURVE('',#485,#480,#594,.T.);
#377=EDGE_CURVE('',#486,#485,#595,.T.);
#378=EDGE_CURVE('',#487,#486,#596,.T.);
#379=EDGE_CURVE('',#487,#451,#597,.T.);
#380=EDGE_CURVE('',#488,#489,#598,.T.);
#381=EDGE_CURVE('',#490,#488,#599,.T.);
#382=EDGE_CURVE('',#490,#491,#600,.T.);
#383=EDGE_CURVE('',#491,#489,#601,.T.);
#384=EDGE_CURVE('',#490,#487,#602,.T.);
#385=EDGE_CURVE('',#491,#486,#603,.T.);
#386=EDGE_CURVE('',#492,#455,#604,.T.);
#387=EDGE_CURVE('',#493,#492,#605,.T.);
#388=EDGE_CURVE('',#493,#494,#606,.T.);
#389=EDGE_CURVE('',#494,#455,#607,.T.);
#390=EDGE_CURVE('',#495,#496,#608,.T.);
#391=EDGE_CURVE('',#496,#497,#609,.T.);
#392=EDGE_CURVE('',#498,#497,#610,.T.);
#393=EDGE_CURVE('',#495,#498,#611,.T.);
#394=EDGE_CURVE('',#493,#495,#612,.T.);
#395=EDGE_CURVE('',#494,#498,#613,.T.);
#396=EDGE_CURVE('',#499,#483,#614,.T.);
#397=EDGE_CURVE('',#500,#482,#615,.T.);
#398=EDGE_CURVE('',#500,#499,#616,.T.);
#399=EDGE_CURVE('',#423,#500,#617,.T.);
#400=EDGE_CURVE('',#501,#440,#618,.T.);
#401=EDGE_CURVE('',#502,#501,#619,.T.);
#402=EDGE_CURVE('',#502,#441,#620,.T.);
#403=EDGE_CURVE('',#503,#504,#621,.T.);
#404=EDGE_CURVE('',#504,#434,#622,.T.);
#405=EDGE_CURVE('',#503,#433,#623,.T.);
#406=EDGE_CURVE('',#502,#503,#624,.T.);
#407=EDGE_CURVE('',#505,#448,#625,.T.);
#408=EDGE_CURVE('',#505,#437,#626,.T.);
#409=EDGE_CURVE('',#499,#492,#627,.T.);
#410=EDGE_CURVE('',#504,#422,#628,.T.);
#411=EDGE_CURVE('',#506,#501,#629,.T.);
#412=EDGE_CURVE('',#507,#506,#630,.T.);
#413=EDGE_CURVE('',#505,#507,#631,.T.);
#414=EDGE_CURVE('',#496,#488,#632,.T.);
#415=EDGE_CURVE('',#506,#439,#633,.T.);
#416=EDGE_CURVE('',#507,#438,#634,.T.);
#417=EDGE_CURVE('',#453,#485,#635,.T.);
#418=EDGE_CURVE('',#497,#489,#636,.T.);
#419=EDGE_CURVE('',#434,#424,#637,.T.);
#420=VERTEX_POINT('',#1271);
#421=VERTEX_POINT('',#1272);
#422=VERTEX_POINT('',#1274);
#423=VERTEX_POINT('',#1276);
#424=VERTEX_POINT('',#1280);
#425=VERTEX_POINT('',#1281);
#426=VERTEX_POINT('',#1283);
#427=VERTEX_POINT('',#1285);
#428=VERTEX_POINT('',#1287);
#429=VERTEX_POINT('',#1289);
#430=VERTEX_POINT('',#1291);
#431=VERTEX_POINT('',#1293);
#432=VERTEX_POINT('',#1295);
#433=VERTEX_POINT('',#1299);
#434=VERTEX_POINT('',#1300);
#435=VERTEX_POINT('',#1302);
#436=VERTEX_POINT('',#1304);
#437=VERTEX_POINT('',#1306);
#438=VERTEX_POINT('',#1308);
#439=VERTEX_POINT('',#1310);
#440=VERTEX_POINT('',#1312);
#441=VERTEX_POINT('',#1314);
#442=VERTEX_POINT('',#1321);
#443=VERTEX_POINT('',#1322);
#444=VERTEX_POINT('',#1324);
#445=VERTEX_POINT('',#1326);
#446=VERTEX_POINT('',#1328);
#447=VERTEX_POINT('',#1330);
#448=VERTEX_POINT('',#1333);
#449=VERTEX_POINT('',#1334);
#450=VERTEX_POINT('',#1336);
#451=VERTEX_POINT('',#1338);
#452=VERTEX_POINT('',#1342);
#453=VERTEX_POINT('',#1343);
#454=VERTEX_POINT('',#1345);
#455=VERTEX_POINT('',#1347);
#456=VERTEX_POINT('',#1351);
#457=VERTEX_POINT('',#1353);
#458=VERTEX_POINT('',#1357);
#459=VERTEX_POINT('',#1359);
#460=VERTEX_POINT('',#1363);
#461=VERTEX_POINT('',#1367);
#462=VERTEX_POINT('',#1376);
#463=VERTEX_POINT('',#1378);
#464=VERTEX_POINT('',#1382);
#465=VERTEX_POINT('',#1384);
#466=VERTEX_POINT('',#1390);
#467=VERTEX_POINT('',#1392);
#468=VERTEX_POINT('',#1396);
#469=VERTEX_POINT('',#1400);
#470=VERTEX_POINT('',#1402);
#471=VERTEX_POINT('',#1404);
#472=VERTEX_POINT('',#1408);
#473=VERTEX_POINT('',#1409);
#474=VERTEX_POINT('',#1411);
#475=VERTEX_POINT('',#1413);
#476=VERTEX_POINT('',#1420);
#477=VERTEX_POINT('',#1421);
#478=VERTEX_POINT('',#1423);
#479=VERTEX_POINT('',#1425);
#480=VERTEX_POINT('',#1429);
#481=VERTEX_POINT('',#1431);
#482=VERTEX_POINT('',#1439);
#483=VERTEX_POINT('',#1441);
#484=VERTEX_POINT('',#1445);
#485=VERTEX_POINT('',#1451);
#486=VERTEX_POINT('',#1453);
#487=VERTEX_POINT('',#1455);
#488=VERTEX_POINT('',#1459);
#489=VERTEX_POINT('',#1460);
#490=VERTEX_POINT('',#1462);
#491=VERTEX_POINT('',#1464);
#492=VERTEX_POINT('',#1471);
#493=VERTEX_POINT('',#1473);
#494=VERTEX_POINT('',#1475);
#495=VERTEX_POINT('',#1479);
#496=VERTEX_POINT('',#1480);
#497=VERTEX_POINT('',#1482);
#498=VERTEX_POINT('',#1484);
#499=VERTEX_POINT('',#1491);
#500=VERTEX_POINT('',#1493);
#501=VERTEX_POINT('',#1499);
#502=VERTEX_POINT('',#1501);
#503=VERTEX_POINT('',#1505);
#504=VERTEX_POINT('',#1506);
#505=VERTEX_POINT('',#1513);
#506=VERTEX_POINT('',#1519);
#507=VERTEX_POINT('',#1521);
#508=LINE('',#1270,#638);
#509=LINE('',#1273,#639);
#510=LINE('',#1275,#640);
#511=LINE('',#1277,#641);
#512=LINE('',#1279,#642);
#513=LINE('',#1282,#643);
#514=LINE('',#1284,#644);
#515=LINE('',#1286,#645);
#516=LINE('',#1288,#646);
#517=LINE('',#1290,#647);
#518=LINE('',#1292,#648);
#519=LINE('',#1294,#649);
#520=LINE('',#1296,#650);
#521=LINE('',#1298,#651);
#522=LINE('',#1301,#652);
#523=LINE('',#1303,#653);
#524=LINE('',#1305,#654);
#525=LINE('',#1307,#655);
#526=LINE('',#1309,#656);
#527=LINE('',#1311,#657);
#528=LINE('',#1313,#658);
#529=LINE('',#1315,#659);
#530=LINE('',#1317,#660);
#531=LINE('',#1318,#661);
#532=LINE('',#1320,#662);
#533=LINE('',#1325,#663);
#534=LINE('',#1329,#664);
#535=LINE('',#1331,#665);
#536=LINE('',#1332,#666);
#537=LINE('',#1335,#667);
#538=LINE('',#1337,#668);
#539=LINE('',#1339,#669);
#540=LINE('',#1341,#670);
#541=LINE('',#1344,#671);
#542=LINE('',#1346,#672);
#543=LINE('',#1348,#673);
#544=LINE('',#1350,#674);
#545=LINE('',#1352,#675);
#546=LINE('',#1356,#676);
#547=LINE('',#1360,#677);
#548=LINE('',#1362,#678);
#549=LINE('',#1364,#679);
#550=LINE('',#1366,#680);
#551=LINE('',#1368,#681);
#552=LINE('',#1370,#682);
#553=LINE('',#1371,#683);
#554=LINE('',#1375,#684);
#555=LINE('',#1377,#685);
#556=LINE('',#1379,#686);
#557=LINE('',#1381,#687);
#558=LINE('',#1383,#688);
#559=LINE('',#1385,#689);
#560=LINE('',#1387,#690);
#561=LINE('',#1389,#691);
#562=LINE('',#1391,#692);
#563=LINE('',#1393,#693);
#564=LINE('',#1395,#694);
#565=LINE('',#1397,#695);
#566=LINE('',#1399,#696);
#567=LINE('',#1401,#697);
#568=LINE('',#1403,#698);
#569=LINE('',#1405,#699);
#570=LINE('',#1407,#700);
#571=LINE('',#1410,#701);
#572=LINE('',#1412,#702);
#573=LINE('',#1414,#703);
#574=LINE('',#1416,#704);
#575=LINE('',#1417,#705);
#576=LINE('',#1419,#706);
#577=LINE('',#1422,#707);
#578=LINE('',#1424,#708);
#579=LINE('',#1426,#709);
#580=LINE('',#1428,#710);
#581=LINE('',#1430,#711);
#582=LINE('',#1432,#712);
#583=LINE('',#1433,#713);
#584=LINE('',#1435,#714);
#585=LINE('',#1436,#715);
#586=LINE('',#1437,#716);
#587=LINE('',#1438,#717);
#588=LINE('',#1440,#718);
#589=LINE('',#1442,#719);
#590=LINE('',#1443,#720);
#591=LINE('',#1444,#721);
#592=LINE('',#1446,#722);
#593=LINE('',#1448,#723);
#594=LINE('',#1450,#724);
#595=LINE('',#1452,#725);
#596=LINE('',#1454,#726);
#597=LINE('',#1456,#727);
#598=LINE('',#1458,#728);
#599=LINE('',#1461,#729);
#600=LINE('',#1463,#730);
#601=LINE('',#1465,#731);
#602=LINE('',#1467,#732);
#603=LINE('',#1468,#733);
#604=LINE('',#1470,#734);
#605=LINE('',#1472,#735);
#606=LINE('',#1474,#736);
#607=LINE('',#1476,#737);
#608=LINE('',#1478,#738);
#609=LINE('',#1481,#739);
#610=LINE('',#1483,#740);
#611=LINE('',#1485,#741);
#612=LINE('',#1487,#742);
#613=LINE('',#1488,#743);
#614=LINE('',#1490,#744);
#615=LINE('',#1492,#745);
#616=LINE('',#1494,#746);
#617=LINE('',#1496,#747);
#618=LINE('',#1498,#748);
#619=LINE('',#1500,#749);
#620=LINE('',#1502,#750);
#621=LINE('',#1504,#751);
#622=LINE('',#1507,#752);
#623=LINE('',#1508,#753);
#624=LINE('',#1510,#754);
#625=LINE('',#1512,#755);
#626=LINE('',#1514,#756);
#627=LINE('',#1516,#757);
#628=LINE('',#1517,#758);
#629=LINE('',#1518,#759);
#630=LINE('',#1520,#760);
#631=LINE('',#1522,#761);
#632=LINE('',#1523,#762);
#633=LINE('',#1525,#763);
#634=LINE('',#1526,#764);
#635=LINE('',#1528,#765);
#636=LINE('',#1529,#766);
#637=LINE('',#1533,#767);
#638=VECTOR('',#1034,1.);
#639=VECTOR('',#1035,1.);
#640=VECTOR('',#1036,1.);
#641=VECTOR('',#1037,1.);
#642=VECTOR('',#1040,1.);
#643=VECTOR('',#1041,1.);
#644=VECTOR('',#1042,1.);
#645=VECTOR('',#1043,1.);
#646=VECTOR('',#1044,1.);
#647=VECTOR('',#1045,1.);
#648=VECTOR('',#1046,1.);
#649=VECTOR('',#1047,1.);
#650=VECTOR('',#1048,1.);
#651=VECTOR('',#1051,1.);
#652=VECTOR('',#1052,1.);
#653=VECTOR('',#1053,1.);
#654=VECTOR('',#1054,1.);
#655=VECTOR('',#1055,1.);
#656=VECTOR('',#1056,1.);
#657=VECTOR('',#1057,1.);
#658=VECTOR('',#1058,1.);
#659=VECTOR('',#1059,1.);
#660=VECTOR('',#1062,1.);
#661=VECTOR('',#1063,1.);
#662=VECTOR('',#1066,1.);
#663=VECTOR('',#1069,1.);
#664=VECTOR('',#1072,1.);
#665=VECTOR('',#1073,1.);
#666=VECTOR('',#1074,1.);
#667=VECTOR('',#1075,1.);
#668=VECTOR('',#1076,1.);
#669=VECTOR('',#1077,1.);
#670=VECTOR('',#1080,1.);
#671=VECTOR('',#1081,1.);
#672=VECTOR('',#1082,1.);
#673=VECTOR('',#1083,1.);
#674=VECTOR('',#1086,1.);
#675=VECTOR('',#1087,1.);
#676=VECTOR('',#1092,1.);
#677=VECTOR('',#1095,1.);
#678=VECTOR('',#1098,1.);
#679=VECTOR('',#1099,1.);
#680=VECTOR('',#1102,1.);
#681=VECTOR('',#1103,1.);
#682=VECTOR('',#1106,1.);
#683=VECTOR('',#1107,1.);
#684=VECTOR('',#1114,1.);
#685=VECTOR('',#1115,1.);
#686=VECTOR('',#1116,1.);
#687=VECTOR('',#1119,1.);
#688=VECTOR('',#1120,1.);
#689=VECTOR('',#1121,1.);
#690=VECTOR('',#1124,1.);
#691=VECTOR('',#1127,1.);
#692=VECTOR('',#1128,1.);
#693=VECTOR('',#1129,1.);
#694=VECTOR('',#1132,1.);
#695=VECTOR('',#1133,1.);
#696=VECTOR('',#1136,1.);
#697=VECTOR('',#1137,1.);
#698=VECTOR('',#1138,1.);
#699=VECTOR('',#1139,1.);
#700=VECTOR('',#1142,1.);
#701=VECTOR('',#1143,1.);
#702=VECTOR('',#1144,1.);
#703=VECTOR('',#1145,1.);
#704=VECTOR('',#1148,1.);
#705=VECTOR('',#1149,1.);
#706=VECTOR('',#1152,1.);
#707=VECTOR('',#1153,1.);
#708=VECTOR('',#1154,1.);
#709=VECTOR('',#1155,1.);
#710=VECTOR('',#1158,1.);
#711=VECTOR('',#1159,1.);
#712=VECTOR('',#1160,1.);
#713=VECTOR('',#1161,1.);
#714=VECTOR('',#1164,1.);
#715=VECTOR('',#1165,1.);
#716=VECTOR('',#1166,1.);
#717=VECTOR('',#1167,1.);
#718=VECTOR('',#1168,1.);
#719=VECTOR('',#1169,1.);
#720=VECTOR('',#1170,1.);
#721=VECTOR('',#1171,1.);
#722=VECTOR('',#1172,1.);
#723=VECTOR('',#1175,1.);
#724=VECTOR('',#1178,1.);
#725=VECTOR('',#1179,1.);
#726=VECTOR('',#1180,1.);
#727=VECTOR('',#1181,1.);
#728=VECTOR('',#1184,1.);
#729=VECTOR('',#1185,1.);
#730=VECTOR('',#1186,1.);
#731=VECTOR('',#1187,1.);
#732=VECTOR('',#1190,1.);
#733=VECTOR('',#1191,1.);
#734=VECTOR('',#1194,1.);
#735=VECTOR('',#1195,1.);
#736=VECTOR('',#1196,1.);
#737=VECTOR('',#1197,1.);
#738=VECTOR('',#1200,1.);
#739=VECTOR('',#1201,1.);
#740=VECTOR('',#1202,1.);
#741=VECTOR('',#1203,1.);
#742=VECTOR('',#1206,1.);
#743=VECTOR('',#1207,1.);
#744=VECTOR('',#1210,1.);
#745=VECTOR('',#1211,1.);
#746=VECTOR('',#1212,1.);
#747=VECTOR('',#1215,1.);
#748=VECTOR('',#1218,1.);
#749=VECTOR('',#1219,1.);
#750=VECTOR('',#1220,1.);
#751=VECTOR('',#1223,1.);
#752=VECTOR('',#1224,1.);
#753=VECTOR('',#1225,1.);
#754=VECTOR('',#1228,1.);
#755=VECTOR('',#1231,1.);
#756=VECTOR('',#1232,1.);
#757=VECTOR('',#1235,1.);
#758=VECTOR('',#1236,1.);
#759=VECTOR('',#1237,1.);
#760=VECTOR('',#1238,1.);
#761=VECTOR('',#1239,1.);
#762=VECTOR('',#1240,1.);
#763=VECTOR('',#1243,1.);
#764=VECTOR('',#1244,1.);
#765=VECTOR('',#1247,1.);
#766=VECTOR('',#1248,1.);
#767=VECTOR('',#1255,1.);
#768=EDGE_LOOP('',(#18,#19,#20,#21));
#769=EDGE_LOOP('',(#22,#23,#24,#25,#26,#27,#28,#29,#30));
#770=EDGE_LOOP('',(#31,#32,#33,#34,#35,#36,#37,#38,#39));
#771=EDGE_LOOP('',(#40,#41,#42,#43));
#772=EDGE_LOOP('',(#44,#45,#46,#47,#48,#49));
#773=EDGE_LOOP('',(#50,#51,#52,#53));
#774=EDGE_LOOP('',(#54,#55,#56,#57));
#775=EDGE_LOOP('',(#58,#59,#60,#61));
#776=EDGE_LOOP('',(#62,#63,#64,#65));
#777=EDGE_LOOP('',(#66,#67,#68,#69));
#778=EDGE_LOOP('',(#70,#71,#72,#73));
#779=EDGE_LOOP('',(#74,#75,#76,#77,#78,#79));
#780=EDGE_LOOP('',(#80,#81,#82,#83));
#781=EDGE_LOOP('',(#84,#85,#86,#87));
#782=EDGE_LOOP('',(#88,#89,#90,#91));
#783=EDGE_LOOP('',(#92,#93,#94,#95));
#784=EDGE_LOOP('',(#96,#97,#98,#99));
#785=EDGE_LOOP('',(#100,#101,#102,#103));
#786=EDGE_LOOP('',(#104,#105,#106,#107));
#787=EDGE_LOOP('',(#108,#109,#110,#111));
#788=EDGE_LOOP('',(#112,#113,#114,#115));
#789=EDGE_LOOP('',(#116,#117,#118,#119));
#790=EDGE_LOOP('',(#120,#121,#122,#123));
#791=EDGE_LOOP('',(#124,#125,#126,#127,#128,#129,#130,#131,#132));
#792=EDGE_LOOP('',(#133,#134,#135,#136,#137,#138,#139,#140,#141,#142,#143,
#144,#145,#146,#147,#148,#149,#150,#151,#152));
#793=EDGE_LOOP('',(#153,#154,#155,#156));
#794=EDGE_LOOP('',(#157,#158,#159,#160,#161,#162,#163,#164));
#795=EDGE_LOOP('',(#165,#166,#167,#168));
#796=EDGE_LOOP('',(#169,#170,#171,#172));
#797=EDGE_LOOP('',(#173,#174,#175,#176));
#798=EDGE_LOOP('',(#177,#178,#179,#180));
#799=EDGE_LOOP('',(#181,#182,#183,#184));
#800=EDGE_LOOP('',(#185,#186,#187,#188));
#801=EDGE_LOOP('',(#189,#190,#191,#192));
#802=EDGE_LOOP('',(#193,#194,#195,#196));
#803=EDGE_LOOP('',(#197,#198,#199,#200));
#804=EDGE_LOOP('',(#201,#202,#203,#204));
#805=EDGE_LOOP('',(#205,#206,#207,#208,#209,#210,#211,#212));
#806=EDGE_LOOP('',(#213,#214,#215,#216,#217,#218,#219,#220,#221,#222,#223,
#224,#225,#226,#227,#228,#229,#230,#231,#232));
#807=EDGE_LOOP('',(#233,#234,#235,#236));
#808=EDGE_LOOP('',(#237,#238,#239,#240,#241,#242,#243,#244,#245));
#809=EDGE_LOOP('',(#246,#247,#248,#249));
#810=EDGE_LOOP('',(#250,#251,#252,#253));
#811=EDGE_LOOP('',(#254,#255,#256,#257,#258,#259));
#812=EDGE_LOOP('',(#260,#261,#262,#263,#264,#265));
#813=EDGE_LOOP('',(#266,#267,#268,#269));
#814=EDGE_LOOP('',(#270,#271,#272,#273));
#815=EDGE_LOOP('',(#274,#275,#276,#277));
#816=EDGE_LOOP('',(#278,#279,#280,#281));
#817=EDGE_LOOP('',(#282,#283,#284,#285));
#818=FACE_BOUND('',#768,.T.);
#819=FACE_BOUND('',#769,.T.);
#820=FACE_BOUND('',#770,.T.);
#821=FACE_BOUND('',#771,.T.);
#822=FACE_BOUND('',#772,.T.);
#823=FACE_BOUND('',#773,.T.);
#824=FACE_BOUND('',#774,.T.);
#825=FACE_BOUND('',#775,.T.);
#826=FACE_BOUND('',#776,.T.);
#827=FACE_BOUND('',#777,.T.);
#828=FACE_BOUND('',#778,.T.);
#829=FACE_BOUND('',#779,.T.);
#830=FACE_BOUND('',#780,.T.);
#831=FACE_BOUND('',#781,.T.);
#832=FACE_BOUND('',#782,.T.);
#833=FACE_BOUND('',#783,.T.);
#834=FACE_BOUND('',#784,.T.);
#835=FACE_BOUND('',#785,.T.);
#836=FACE_BOUND('',#786,.T.);
#837=FACE_BOUND('',#787,.T.);
#838=FACE_BOUND('',#788,.T.);
#839=FACE_BOUND('',#789,.T.);
#840=FACE_BOUND('',#790,.T.);
#841=FACE_BOUND('',#791,.T.);
#842=FACE_BOUND('',#792,.T.);
#843=FACE_BOUND('',#793,.T.);
#844=FACE_BOUND('',#794,.T.);
#845=FACE_BOUND('',#795,.T.);
#846=FACE_BOUND('',#796,.T.);
#847=FACE_BOUND('',#797,.T.);
#848=FACE_BOUND('',#798,.T.);
#849=FACE_BOUND('',#799,.T.);
#850=FACE_BOUND('',#800,.T.);
#851=FACE_BOUND('',#801,.T.);
#852=FACE_BOUND('',#802,.T.);
#853=FACE_BOUND('',#803,.T.);
#854=FACE_BOUND('',#804,.T.);
#855=FACE_BOUND('',#805,.T.);
#856=FACE_BOUND('',#806,.T.);
#857=FACE_BOUND('',#807,.T.);
#858=FACE_BOUND('',#808,.T.);
#859=FACE_BOUND('',#809,.T.);
#860=FACE_BOUND('',#810,.T.);
#861=FACE_BOUND('',#811,.T.);
#862=FACE_BOUND('',#812,.T.);
#863=FACE_BOUND('',#813,.T.);
#864=FACE_BOUND('',#814,.T.);
#865=FACE_BOUND('',#815,.T.);
#866=FACE_BOUND('',#816,.T.);
#867=FACE_BOUND('',#817,.T.);
#868=PLANE('',#977);
#869=PLANE('',#978);
#870=PLANE('',#979);
#871=PLANE('',#980);
#872=PLANE('',#981);
#873=PLANE('',#984);
#874=PLANE('',#989);
#875=PLANE('',#990);
#876=PLANE('',#991);
#877=PLANE('',#992);
#878=PLANE('',#993);
#879=PLANE('',#994);
#880=PLANE('',#995);
#881=PLANE('',#996);
#882=PLANE('',#997);
#883=PLANE('',#998);
#884=PLANE('',#999);
#885=PLANE('',#1000);
#886=PLANE('',#1001);
#887=PLANE('',#1002);
#888=PLANE('',#1003);
#889=PLANE('',#1004);
#890=PLANE('',#1005);
#891=PLANE('',#1006);
#892=PLANE('',#1007);
#893=PLANE('',#1008);
#894=PLANE('',#1009);
#895=PLANE('',#1010);
#896=PLANE('',#1011);
#897=PLANE('',#1012);
#898=PLANE('',#1013);
#899=PLANE('',#1014);
#900=PLANE('',#1015);
#901=PLANE('',#1016);
#902=PLANE('',#1017);
#903=PLANE('',#1018);
#904=PLANE('',#1019);
#905=PLANE('',#1020);
#906=PLANE('',#1021);
#907=PLANE('',#1022);
#908=PLANE('',#1023);
#909=PLANE('',#1024);
#910=PLANE('',#1025);
#911=PLANE('',#1026);
#912=PLANE('',#1027);
#913=PLANE('',#1028);
#914=PLANE('',#1029);
#915=ADVANCED_FACE('',(#818),#868,.T.);
#916=ADVANCED_FACE('',(#819),#869,.F.);
#917=ADVANCED_FACE('',(#820),#870,.T.);
#918=ADVANCED_FACE('',(#821),#871,.T.);
#919=ADVANCED_FACE('',(#822,#823),#872,.F.);
#920=ADVANCED_FACE('',(#824),#873,.F.);
#921=ADVANCED_FACE('',(#825),#12,.T.);
#922=ADVANCED_FACE('',(#826),#13,.T.);
#923=ADVANCED_FACE('',(#827),#874,.T.);
#924=ADVANCED_FACE('',(#828),#875,.F.);
#925=ADVANCED_FACE('',(#829),#876,.T.);
#926=ADVANCED_FACE('',(#830),#877,.T.);
#927=ADVANCED_FACE('',(#831),#878,.F.);
#928=ADVANCED_FACE('',(#832),#879,.F.);
#929=ADVANCED_FACE('',(#833),#880,.T.);
#930=ADVANCED_FACE('',(#834),#881,.T.);
#931=ADVANCED_FACE('',(#835),#882,.F.);
#932=ADVANCED_FACE('',(#836),#883,.T.);
#933=ADVANCED_FACE('',(#837),#884,.T.);
#934=ADVANCED_FACE('',(#838),#885,.F.);
#935=ADVANCED_FACE('',(#839),#886,.T.);
#936=ADVANCED_FACE('',(#840),#887,.T.);
#937=ADVANCED_FACE('',(#841),#888,.F.);
#938=ADVANCED_FACE('',(#842),#889,.T.);
#939=ADVANCED_FACE('',(#843),#890,.T.);
#940=ADVANCED_FACE('',(#844),#891,.F.);
#941=ADVANCED_FACE('',(#845),#892,.T.);
#942=ADVANCED_FACE('',(#846),#893,.T.);
#943=ADVANCED_FACE('',(#847),#894,.T.);
#944=ADVANCED_FACE('',(#848),#895,.F.);
#945=ADVANCED_FACE('',(#849),#896,.T.);
#946=ADVANCED_FACE('',(#850),#897,.F.);
#947=ADVANCED_FACE('',(#851),#898,.T.);
#948=ADVANCED_FACE('',(#852),#899,.T.);
#949=ADVANCED_FACE('',(#853),#900,.F.);
#950=ADVANCED_FACE('',(#854),#901,.T.);
#951=ADVANCED_FACE('',(#855),#902,.T.);
#952=ADVANCED_FACE('',(#856),#903,.F.);
#953=ADVANCED_FACE('',(#857),#904,.F.);
#954=ADVANCED_FACE('',(#858),#905,.T.);
#955=ADVANCED_FACE('',(#859),#906,.T.);
#956=ADVANCED_FACE('',(#860),#907,.T.);
#957=ADVANCED_FACE('',(#861),#908,.T.);
#958=ADVANCED_FACE('',(#862),#909,.T.);
#959=ADVANCED_FACE('',(#863),#910,.T.);
#960=ADVANCED_FACE('',(#864),#911,.T.);
#961=ADVANCED_FACE('',(#865),#912,.T.);
#962=ADVANCED_FACE('',(#866),#913,.T.);
#963=ADVANCED_FACE('',(#867),#914,.T.);
#964=CLOSED_SHELL('',(#915,#916,#917,#918,#919,#920,#921,#922,#923,#924,
#925,#926,#927,#928,#929,#930,#931,#932,#933,#934,#935,#936,#937,#938,#939,
#940,#941,#942,#943,#944,#945,#946,#947,#948,#949,#950,#951,#952,#953,#954,
#955,#956,#957,#958,#959,#960,#961,#962,#963));
#965=STYLED_ITEM('',(#966),#973);
#966=PRESENTATION_STYLE_ASSIGNMENT((#967));
#967=SURFACE_STYLE_USAGE(.BOTH.,#968);
#968=SURFACE_SIDE_STYLE('',(#969));
#969=SURFACE_STYLE_FILL_AREA(#970);
#970=FILL_AREA_STYLE('',(#971));
#971=FILL_AREA_STYLE_COLOUR('',#972);
#972=COLOUR_RGB('',0.615686274509804,0.811764705882353,0.929411764705882);
#973=MANIFOLD_SOLID_BREP('Part 1',#964);
#974=SHAPE_DEFINITION_REPRESENTATION(#1546,#975);
#975=SHAPE_REPRESENTATION('Part 1',(#976),#1541);
#976=AXIS2_PLACEMENT_3D('',#1268,#1030,#1031);
#977=AXIS2_PLACEMENT_3D('',#1269,#1032,#1033);
#978=AXIS2_PLACEMENT_3D('',#1278,#1038,#1039);
#979=AXIS2_PLACEMENT_3D('',#1297,#1049,#1050);
#980=AXIS2_PLACEMENT_3D('',#1316,#1060,#1061);
#981=AXIS2_PLACEMENT_3D('',#1319,#1064,#1065);
#982=AXIS2_PLACEMENT_3D('',#1323,#1067,#1068);
#983=AXIS2_PLACEMENT_3D('',#1327,#1070,#1071);
#984=AXIS2_PLACEMENT_3D('',#1340,#1078,#1079);
#985=AXIS2_PLACEMENT_3D('',#1349,#1084,#1085);
#986=AXIS2_PLACEMENT_3D('',#1354,#1088,#1089);
#987=AXIS2_PLACEMENT_3D('',#1355,#1090,#1091);
#988=AXIS2_PLACEMENT_3D('',#1358,#1093,#1094);
#989=AXIS2_PLACEMENT_3D('',#1361,#1096,#1097);
#990=AXIS2_PLACEMENT_3D('',#1365,#1100,#1101);
#991=AXIS2_PLACEMENT_3D('',#1369,#1104,#1105);
#992=AXIS2_PLACEMENT_3D('',#1372,#1108,#1109);
#993=AXIS2_PLACEMENT_3D('',#1373,#1110,#1111);
#994=AXIS2_PLACEMENT_3D('',#1374,#1112,#1113);
#995=AXIS2_PLACEMENT_3D('',#1380,#1117,#1118);
#996=AXIS2_PLACEMENT_3D('',#1386,#1122,#1123);
#997=AXIS2_PLACEMENT_3D('',#1388,#1125,#1126);
#998=AXIS2_PLACEMENT_3D('',#1394,#1130,#1131);
#999=AXIS2_PLACEMENT_3D('',#1398,#1134,#1135);
#1000=AXIS2_PLACEMENT_3D('',#1406,#1140,#1141);
#1001=AXIS2_PLACEMENT_3D('',#1415,#1146,#1147);
#1002=AXIS2_PLACEMENT_3D('',#1418,#1150,#1151);
#1003=AXIS2_PLACEMENT_3D('',#1427,#1156,#1157);
#1004=AXIS2_PLACEMENT_3D('',#1434,#1162,#1163);
#1005=AXIS2_PLACEMENT_3D('',#1447,#1173,#1174);
#1006=AXIS2_PLACEMENT_3D('',#1449,#1176,#1177);
#1007=AXIS2_PLACEMENT_3D('',#1457,#1182,#1183);
#1008=AXIS2_PLACEMENT_3D('',#1466,#1188,#1189);
#1009=AXIS2_PLACEMENT_3D('',#1469,#1192,#1193);
#1010=AXIS2_PLACEMENT_3D('',#1477,#1198,#1199);
#1011=AXIS2_PLACEMENT_3D('',#1486,#1204,#1205);
#1012=AXIS2_PLACEMENT_3D('',#1489,#1208,#1209);
#1013=AXIS2_PLACEMENT_3D('',#1495,#1213,#1214);
#1014=AXIS2_PLACEMENT_3D('',#1497,#1216,#1217);
#1015=AXIS2_PLACEMENT_3D('',#1503,#1221,#1222);
#1016=AXIS2_PLACEMENT_3D('',#1509,#1226,#1227);
#1017=AXIS2_PLACEMENT_3D('',#1511,#1229,#1230);
#1018=AXIS2_PLACEMENT_3D('',#1515,#1233,#1234);
#1019=AXIS2_PLACEMENT_3D('',#1524,#1241,#1242);
#1020=AXIS2_PLACEMENT_3D('',#1527,#1245,#1246);
#1021=AXIS2_PLACEMENT_3D('',#1530,#1249,#1250);
#1022=AXIS2_PLACEMENT_3D('',#1531,#1251,#1252);
#1023=AXIS2_PLACEMENT_3D('',#1532,#1253,#1254);
#1024=AXIS2_PLACEMENT_3D('',#1534,#1256,#1257);
#1025=AXIS2_PLACEMENT_3D('',#1535,#1258,#1259);
#1026=AXIS2_PLACEMENT_3D('',#1536,#1260,#1261);
#1027=AXIS2_PLACEMENT_3D('',#1537,#1262,#1263);
#1028=AXIS2_PLACEMENT_3D('',#1538,#1264,#1265);
#1029=AXIS2_PLACEMENT_3D('',#1539,#1266,#1267);
#1030=DIRECTION('',(0.,0.,1.));
#1031=DIRECTION('',(1.,0.,0.));
#1032=DIRECTION('',(0.,0.,-1.));
#1033=DIRECTION('',(-1.,0.,0.));
#1034=DIRECTION('',(-1.,0.,0.));
#1035=DIRECTION('',(0.,-1.,0.));
#1036=DIRECTION('',(-1.,0.,0.));
#1037=DIRECTION('',(0.,-1.,0.));
#1038=DIRECTION('',(0.,1.,0.));
#1039=DIRECTION('',(0.,0.,1.));
#1040=DIRECTION('',(-1.,0.,0.));
#1041=DIRECTION('',(-1.,0.,0.));
#1042=DIRECTION('',(0.,0.,-1.));
#1043=DIRECTION('',(-1.,0.,0.));
#1044=DIRECTION('',(0.,0.,-1.));
#1045=DIRECTION('',(-1.,0.,0.));
#1046=DIRECTION('',(0.,0.,-1.));
#1047=DIRECTION('',(-1.,0.,0.));
#1048=DIRECTION('',(0.,0.,-1.));
#1049=DIRECTION('',(0.,1.,0.));
#1050=DIRECTION('',(0.,0.,1.));
#1051=DIRECTION('',(-1.,0.,0.));
#1052=DIRECTION('',(-1.,0.,0.));
#1053=DIRECTION('',(0.,0.,-1.));
#1054=DIRECTION('',(-1.,0.,0.));
#1055=DIRECTION('',(0.,0.,-1.));
#1056=DIRECTION('',(-1.,0.,0.));
#1057=DIRECTION('',(0.,0.,-1.));
#1058=DIRECTION('',(-1.,0.,0.));
#1059=DIRECTION('',(0.,0.,-1.));
#1060=DIRECTION('',(-1.,0.,0.));
#1061=DIRECTION('',(0.,-1.,0.));
#1062=DIRECTION('',(0.,-1.,0.));
#1063=DIRECTION('',(0.,-1.,0.));
#1064=DIRECTION('',(1.,0.,0.));
#1065=DIRECTION('',(0.,0.,-1.));
#1066=DIRECTION('',(0.,0.,-1.));
#1067=DIRECTION('',(1.,0.,0.));
#1068=DIRECTION('',(0.,0.,-1.));
#1069=DIRECTION('',(0.,-1.,0.));
#1070=DIRECTION('',(1.,0.,0.));
#1071=DIRECTION('',(0.,0.,-1.));
#1072=DIRECTION('',(0.,0.,-1.));
#1073=DIRECTION('',(0.,-1.,0.));
#1074=DIRECTION('',(0.,-1.,0.));
#1075=DIRECTION('',(0.,-6.93889390390723E-17,-1.));
#1076=DIRECTION('',(0.,-1.,0.));
#1077=DIRECTION('',(0.,0.,-1.));
#1078=DIRECTION('',(0.,0.,-1.));
#1079=DIRECTION('',(-1.,0.,0.));
#1080=DIRECTION('',(0.,1.,0.));
#1081=DIRECTION('',(-1.,0.,0.));
#1082=DIRECTION('',(0.,-1.,0.));
#1083=DIRECTION('',(-1.,0.,0.));
#1084=DIRECTION('',(1.,0.,0.));
#1085=DIRECTION('',(0.,0.,-1.));
#1086=DIRECTION('',(1.,0.,0.));
#1087=DIRECTION('',(1.,0.,0.));
#1088=DIRECTION('',(1.,5.55111512312578E-17,0.));
#1089=DIRECTION('',(-5.55111512312578E-17,1.,0.));
#1090=DIRECTION('',(1.,0.,0.));
#1091=DIRECTION('',(0.,0.,-1.));
#1092=DIRECTION('',(-1.,0.,0.));
#1093=DIRECTION('',(1.,5.55111512312578E-17,0.));
#1094=DIRECTION('',(-5.55111512312578E-17,1.,0.));
#1095=DIRECTION('',(-1.,0.,0.));
#1096=DIRECTION('',(0.,1.,0.));
#1097=DIRECTION('',(0.,0.,1.));
#1098=DIRECTION('',(0.,0.,-1.));
#1099=DIRECTION('',(1.,0.,0.));
#1100=DIRECTION('',(0.,1.,0.));
#1101=DIRECTION('',(0.,0.,1.));
#1102=DIRECTION('',(0.,0.,-1.));
#1103=DIRECTION('',(1.,0.,0.));
#1104=DIRECTION('',(1.,5.55111512312578E-17,0.));
#1105=DIRECTION('',(-5.55111512312578E-17,1.,0.));
#1106=DIRECTION('',(5.55111512312578E-17,-1.,0.));
#1107=DIRECTION('',(5.55111512312578E-17,-1.,0.));
#1108=DIRECTION('',(0.,0.,1.));
#1109=DIRECTION('',(1.,0.,0.));
#1110=DIRECTION('',(0.,0.,1.));
#1111=DIRECTION('',(1.,0.,0.));
#1112=DIRECTION('',(0.,0.,-1.));
#1113=DIRECTION('',(-1.,0.,0.));
#1114=DIRECTION('',(0.,-1.,0.));
#1115=DIRECTION('',(-1.,0.,0.));
#1116=DIRECTION('',(0.,-1.,0.));
#1117=DIRECTION('',(0.,0.,-1.));
#1118=DIRECTION('',(-1.,0.,0.));
#1119=DIRECTION('',(0.,-1.,0.));
#1120=DIRECTION('',(0.,-1.,0.));
#1121=DIRECTION('',(-1.,0.,0.));
#1122=DIRECTION('',(-1.,0.,0.));
#1123=DIRECTION('',(0.,-1.,0.));
#1124=DIRECTION('',(0.,-6.93889390390723E-17,-1.));
#1125=DIRECTION('',(0.,0.,-1.));
#1126=DIRECTION('',(-1.,0.,0.));
#1127=DIRECTION('',(0.,-1.,0.));
#1128=DIRECTION('',(-1.,0.,0.));
#1129=DIRECTION('',(0.,-1.,0.));
#1130=DIRECTION('',(-1.,0.,0.));
#1131=DIRECTION('',(0.,-1.,0.));
#1132=DIRECTION('',(0.,-6.93889390390723E-17,-1.));
#1133=DIRECTION('',(0.,-1.,0.));
#1134=DIRECTION('',(0.,0.,-1.));
#1135=DIRECTION('',(-1.,0.,0.));
#1136=DIRECTION('',(0.,-1.,0.));
#1137=DIRECTION('',(-1.,0.,0.));
#1138=DIRECTION('',(0.,-1.,0.));
#1139=DIRECTION('',(-1.,0.,0.));
#1140=DIRECTION('',(0.,0.,-1.));
#1141=DIRECTION('',(-1.,0.,0.));
#1142=DIRECTION('',(-1.,0.,0.));
#1143=DIRECTION('',(0.,-1.,0.));
#1144=DIRECTION('',(-1.,0.,0.));
#1145=DIRECTION('',(0.,-1.,0.));
#1146=DIRECTION('',(-1.,0.,0.));
#1147=DIRECTION('',(0.,-1.,0.));
#1148=DIRECTION('',(0.,0.,-1.));
#1149=DIRECTION('',(0.,-6.93889390390723E-17,-1.));
#1150=DIRECTION('',(0.,0.,-1.));
#1151=DIRECTION('',(-1.,0.,0.));
#1152=DIRECTION('',(0.,-1.,0.));
#1153=DIRECTION('',(-1.,0.,0.));
#1154=DIRECTION('',(0.,-1.,0.));
#1155=DIRECTION('',(-1.,0.,0.));
#1156=DIRECTION('',(0.,1.,0.));
#1157=DIRECTION('',(0.,0.,1.));
#1158=DIRECTION('',(0.,0.,-1.));
#1159=DIRECTION('',(-1.,0.,0.));
#1160=DIRECTION('',(0.,0.,-1.));
#1161=DIRECTION('',(0.,0.,-1.));
#1162=DIRECTION('',(0.,1.,-6.93889390390723E-17));
#1163=DIRECTION('',(0.,6.93889390390723E-17,1.));
#1164=DIRECTION('',(-1.,0.,0.));
#1165=DIRECTION('',(0.,4.88654500275157E-16,-1.));
#1166=DIRECTION('',(0.,7.32981750412736E-16,-1.));
#1167=DIRECTION('',(0.,-5.20417042793042E-17,-1.));
#1168=DIRECTION('',(-1.,0.,0.));
#1169=DIRECTION('',(0.,7.32981750412736E-16,-1.));
#1170=DIRECTION('',(0.,4.88654500275158E-16,-1.));
#1171=DIRECTION('',(0.,-6.93889390390723E-17,-1.));
#1172=DIRECTION('',(-1.,0.,0.));
#1173=DIRECTION('',(-1.,0.,0.));
#1174=DIRECTION('',(0.,-1.,0.));
#1175=DIRECTION('',(0.,-1.,0.));
#1176=DIRECTION('',(0.,0.,-1.));
#1177=DIRECTION('',(-1.,0.,0.));
#1178=DIRECTION('',(0.,-1.,0.));
#1179=DIRECTION('',(-1.,0.,0.));
#1180=DIRECTION('',(0.,-1.,0.));
#1181=DIRECTION('',(-1.,0.,0.));
#1182=DIRECTION('',(0.,0.,-1.));
#1183=DIRECTION('',(-1.,0.,0.));
#1184=DIRECTION('',(0.,-1.,0.));
#1185=DIRECTION('',(-1.,0.,0.));
#1186=DIRECTION('',(0.,-1.,0.));
#1187=DIRECTION('',(-1.,0.,0.));
#1188=DIRECTION('',(-1.,0.,0.));
#1189=DIRECTION('',(0.,-1.,0.));
#1190=DIRECTION('',(0.,0.,-1.));
#1191=DIRECTION('',(0.,0.,-1.));
#1192=DIRECTION('',(0.,0.,-1.));
#1193=DIRECTION('',(-1.,0.,0.));
#1194=DIRECTION('',(0.,-1.,0.));
#1195=DIRECTION('',(-1.,0.,0.));
#1196=DIRECTION('',(0.,-1.,0.));
#1197=DIRECTION('',(-1.,0.,0.));
#1198=DIRECTION('',(0.,0.,-1.));
#1199=DIRECTION('',(-1.,0.,0.));
#1200=DIRECTION('',(-1.,0.,0.));
#1201=DIRECTION('',(0.,-1.,0.));
#1202=DIRECTION('',(-1.,0.,0.));
#1203=DIRECTION('',(0.,-1.,0.));
#1204=DIRECTION('',(-1.,0.,0.));
#1205=DIRECTION('',(0.,-1.,0.));
#1206=DIRECTION('',(0.,0.,-1.));
#1207=DIRECTION('',(0.,0.,-1.));
#1208=DIRECTION('',(0.,0.,-1.));
#1209=DIRECTION('',(-1.,0.,0.));
#1210=DIRECTION('',(0.,-1.,0.));
#1211=DIRECTION('',(0.,-1.,0.));
#1212=DIRECTION('',(-1.,0.,0.));
#1213=DIRECTION('',(-1.,0.,0.));
#1214=DIRECTION('',(0.,-1.,0.));
#1215=DIRECTION('',(0.,0.,-1.));
#1216=DIRECTION('',(0.,0.,-1.));
#1217=DIRECTION('',(-1.,0.,0.));
#1218=DIRECTION('',(0.,-1.,0.));
#1219=DIRECTION('',(-1.,0.,0.));
#1220=DIRECTION('',(0.,-1.,0.));
#1221=DIRECTION('',(0.,0.,-1.));
#1222=DIRECTION('',(-1.,0.,0.));
#1223=DIRECTION('',(-1.,0.,0.));
#1224=DIRECTION('',(0.,-1.,0.));
#1225=DIRECTION('',(0.,-1.,0.));
#1226=DIRECTION('',(-1.,0.,0.));
#1227=DIRECTION('',(0.,-1.,0.));
#1228=DIRECTION('',(0.,0.,-1.));
#1229=DIRECTION('',(0.,0.,-1.));
#1230=DIRECTION('',(-1.,0.,0.));
#1231=DIRECTION('',(-1.,0.,0.));
#1232=DIRECTION('',(0.,-1.,0.));
#1233=DIRECTION('',(0.,1.,0.));
#1234=DIRECTION('',(0.,0.,1.));
#1235=DIRECTION('',(0.,0.,-1.));
#1236=DIRECTION('',(0.,0.,-1.));
#1237=DIRECTION('',(0.,0.,-1.));
#1238=DIRECTION('',(-1.,0.,0.));
#1239=DIRECTION('',(0.,0.,-1.));
#1240=DIRECTION('',(0.,0.,-1.));
#1241=DIRECTION('',(0.,0.,-1.));
#1242=DIRECTION('',(-1.,0.,0.));
#1243=DIRECTION('',(0.,-1.,0.));
#1244=DIRECTION('',(0.,-1.,0.));
#1245=DIRECTION('',(0.,1.,0.));
#1246=DIRECTION('',(0.,0.,1.));
#1247=DIRECTION('',(0.,0.,-1.));
#1248=DIRECTION('',(0.,-7.81847200440252E-15,-1.));
#1249=DIRECTION('',(-1.,0.,0.));
#1250=DIRECTION('',(0.,-1.,0.));
#1251=DIRECTION('',(-1.,0.,0.));
#1252=DIRECTION('',(0.,-1.,0.));
#1253=DIRECTION('',(-1.,0.,0.));
#1254=DIRECTION('',(0.,-1.,0.));
#1255=DIRECTION('',(0.,-1.,0.));
#1256=DIRECTION('',(-1.,0.,0.));
#1257=DIRECTION('',(0.,-1.,0.));
#1258=DIRECTION('',(-1.,0.,0.));
#1259=DIRECTION('',(0.,-1.,0.));
#1260=DIRECTION('',(-1.,0.,0.));
#1261=DIRECTION('',(0.,-1.,0.));
#1262=DIRECTION('',(-1.,0.,0.));
#1263=DIRECTION('',(0.,-1.,0.));
#1264=DIRECTION('',(-1.,0.,0.));
#1265=DIRECTION('',(0.,-1.,0.));
#1266=DIRECTION('',(0.,0.,-1.));
#1267=DIRECTION('',(-1.,0.,0.));
#1268=CARTESIAN_POINT('',(0.,0.,0.));
#1269=CARTESIAN_POINT('',(0.0874181304872036,0.36,0.6574));
#1270=CARTESIAN_POINT('',(0.0874181304872036,0.03,0.6574));
#1271=CARTESIAN_POINT('',(0.0874181304872036,0.03,0.6574));
#1272=CARTESIAN_POINT('',(-0.0275818695127964,0.03,0.6574));
#1273=CARTESIAN_POINT('',(-0.0275818695127964,0.36,0.6574));
#1274=CARTESIAN_POINT('',(-0.0275818695127964,0.46,0.6574));
#1275=CARTESIAN_POINT('',(0.0874181304872036,0.46,0.6574));
#1276=CARTESIAN_POINT('',(0.0874181304872036,0.46,0.6574));
#1277=CARTESIAN_POINT('',(0.0874181304872036,0.36,0.6574));
#1278=CARTESIAN_POINT('',(0.0874181304872036,0.23,0.129));
#1279=CARTESIAN_POINT('',(-0.0275818695127964,0.23,0.6716));
#1280=CARTESIAN_POINT('',(-0.0275818695127964,0.23,0.6716));
#1281=CARTESIAN_POINT('',(-0.0300818695127964,0.23,0.6716));
#1282=CARTESIAN_POINT('',(0.0874181304872036,0.23,0.6716));
#1283=CARTESIAN_POINT('',(0.0874181304872036,0.23,0.6716));
#1284=CARTESIAN_POINT('',(0.0874181304872036,0.23,0.7716));
#1285=CARTESIAN_POINT('',(0.0874181304872036,0.23,0.8716));
#1286=CARTESIAN_POINT('',(0.0874181304872036,0.23,0.8716));
#1287=CARTESIAN_POINT('',(-0.0275818695127964,0.23,0.8716));
#1288=CARTESIAN_POINT('',(-0.0275818695127964,0.23,0.8787));
#1289=CARTESIAN_POINT('',(-0.0275818695127964,0.23,0.8858));
#1290=CARTESIAN_POINT('',(0.0874181304872036,0.23,0.8858));
#1291=CARTESIAN_POINT('',(0.0874181304872036,0.23,0.8858));
#1292=CARTESIAN_POINT('',(0.0874181304872036,0.23,0.9858));
#1293=CARTESIAN_POINT('',(0.0874181304872036,0.23,1.0858));
#1294=CARTESIAN_POINT('',(0.0874181304872036,0.23,1.0858));
#1295=CARTESIAN_POINT('',(-0.0300818695127964,0.23,1.0858));
#1296=CARTESIAN_POINT('',(-0.0300818695127964,0.23,0.7716));
#1297=CARTESIAN_POINT('',(0.0874181304872036,0.26,0.9858));
#1298=CARTESIAN_POINT('',(0.0874181304872036,0.26,0.6716));
#1299=CARTESIAN_POINT('',(0.0874181304872036,0.26,0.6716));
#1300=CARTESIAN_POINT('',(-0.0275818695127964,0.26,0.6716));
#1301=CARTESIAN_POINT('',(-0.0275818695127964,0.26,0.6716));
#1302=CARTESIAN_POINT('',(-0.0300818695127964,0.26,0.6716));
#1303=CARTESIAN_POINT('',(-0.0300818695127964,0.26,0.7716));
#1304=CARTESIAN_POINT('',(-0.0300818695127964,0.26,1.0858));
#1305=CARTESIAN_POINT('',(0.0874181304872036,0.26,1.0858));
#1306=CARTESIAN_POINT('',(0.0874181304872036,0.26,1.0858));
#1307=CARTESIAN_POINT('',(0.0874181304872036,0.26,0.9858));
#1308=CARTESIAN_POINT('',(0.0874181304872036,0.26,0.8858));
#1309=CARTESIAN_POINT('',(0.0874181304872036,0.26,0.8858));
#1310=CARTESIAN_POINT('',(-0.0275818695127964,0.26,0.8858));
#1311=CARTESIAN_POINT('',(-0.0275818695127964,0.26,0.8787));
#1312=CARTESIAN_POINT('',(-0.0275818695127964,0.26,0.8716));
#1313=CARTESIAN_POINT('',(0.0874181304872036,0.26,0.8716));
#1314=CARTESIAN_POINT('',(0.0874181304872036,0.26,0.8716));
#1315=CARTESIAN_POINT('',(0.0874181304872036,0.26,0.7716));
#1316=CARTESIAN_POINT('',(-0.0300818695127964,0.25,0.55));
#1317=CARTESIAN_POINT('',(-0.0300818695127964,0.245,0.6716));
#1318=CARTESIAN_POINT('',(-0.0300818695127964,0.245,1.0858));
#1319=CARTESIAN_POINT('',(-0.0325818695127964,0.25,1.1));
#1320=CARTESIAN_POINT('',(-0.0325818695127964,0.,1.1));
#1321=CARTESIAN_POINT('',(-0.0325818695127964,0.,1.09));
#1322=CARTESIAN_POINT('',(-0.0325818695127964,0.,0.));
#1323=CARTESIAN_POINT('',(-0.0325818695127964,0.01,1.09));
#1324=CARTESIAN_POINT('',(-0.0325818695127964,0.01,1.1));
#1325=CARTESIAN_POINT('',(-0.0325818695127964,0.25,1.1));
#1326=CARTESIAN_POINT('',(-0.0325818695127964,0.49,1.1));
#1327=CARTESIAN_POINT('',(-0.0325818695127964,0.49,1.09));
#1328=CARTESIAN_POINT('',(-0.0325818695127965,0.5,1.09));
#1329=CARTESIAN_POINT('',(-0.0325818695127965,0.5,1.1));
#1330=CARTESIAN_POINT('',(-0.0325818695127965,0.5,0.));
#1331=CARTESIAN_POINT('',(-0.0325818695127964,0.25,0.));
#1332=CARTESIAN_POINT('',(-0.0325818695127964,0.36,1.0858));
#1333=CARTESIAN_POINT('',(-0.0325818695127964,0.46,1.0858));
#1334=CARTESIAN_POINT('',(-0.0325818695127964,0.03,1.0858));
#1335=CARTESIAN_POINT('',(-0.0325818695127964,0.03,0.129));
#1336=CARTESIAN_POINT('',(-0.0325818695127964,0.03,0.029));
#1337=CARTESIAN_POINT('',(-0.0325818695127964,0.36,0.029));
#1338=CARTESIAN_POINT('',(-0.0325818695127964,0.46,0.029));
#1339=CARTESIAN_POINT('',(-0.0325818695127964,0.46,0.9858));
#1340=CARTESIAN_POINT('',(-0.0275818695127964,0.245,0.4432));
#1341=CARTESIAN_POINT('',(-0.0300818695127964,0.245,0.4432));
#1342=CARTESIAN_POINT('',(-0.0300818695127964,0.23,0.4432));
#1343=CARTESIAN_POINT('',(-0.0300818695127964,0.26,0.4432));
#1344=CARTESIAN_POINT('',(-0.0275818695127964,0.23,0.4432));
#1345=CARTESIAN_POINT('',(-0.0275818695127964,0.23,0.4432));
#1346=CARTESIAN_POINT('',(-0.0275818695127964,0.245,0.4432));
#1347=CARTESIAN_POINT('',(-0.0275818695127964,0.26,0.4432));
#1348=CARTESIAN_POINT('',(-0.0275818695127964,0.26,0.4432));
#1349=CARTESIAN_POINT('',(0.0424181304872035,0.49,1.09));
#1350=CARTESIAN_POINT('',(0.0424181304872035,0.5,1.09));
#1351=CARTESIAN_POINT('',(0.117418130487204,0.5,1.09));
#1352=CARTESIAN_POINT('',(0.0424181304872036,0.49,1.1));
#1353=CARTESIAN_POINT('',(0.117418130487204,0.49,1.1));
#1354=CARTESIAN_POINT('',(0.117418130487204,0.49,1.09));
#1355=CARTESIAN_POINT('',(0.0424181304872036,0.01,1.09));
#1356=CARTESIAN_POINT('',(0.0424181304872036,0.,1.09));
#1357=CARTESIAN_POINT('',(0.117418130487204,3.46944695195361E-18,1.09));
#1358=CARTESIAN_POINT('',(0.117418130487204,0.01,1.09));
#1359=CARTESIAN_POINT('',(0.117418130487204,0.01,1.1));
#1360=CARTESIAN_POINT('',(0.0424181304872036,0.01,1.1));
#1361=CARTESIAN_POINT('',(0.0424181304872035,0.5,1.1));
#1362=CARTESIAN_POINT('',(0.117418130487204,0.5,1.1));
#1363=CARTESIAN_POINT('',(0.117418130487204,0.5,0.));
#1364=CARTESIAN_POINT('',(0.0424181304872035,0.5,0.));
#1365=CARTESIAN_POINT('',(0.0424181304872036,0.,1.1));
#1366=CARTESIAN_POINT('',(0.117418130487204,3.46944695195361E-18,1.1));
#1367=CARTESIAN_POINT('',(0.117418130487204,3.46944695195361E-18,0.));
#1368=CARTESIAN_POINT('',(0.0424181304872036,0.,0.));
#1369=CARTESIAN_POINT('',(0.117418130487204,0.25,1.1));
#1370=CARTESIAN_POINT('',(0.117418130487204,0.25,1.1));
#1371=CARTESIAN_POINT('',(0.117418130487204,0.25,0.));
#1372=CARTESIAN_POINT('',(0.0424181304872036,0.25,1.1));
#1373=CARTESIAN_POINT('',(0.0424181304872036,0.25,0.));
#1374=CARTESIAN_POINT('',(0.0874181304872036,0.13,0.6716));
#1375=CARTESIAN_POINT('',(-0.0275818695127964,0.13,0.6716));
#1376=CARTESIAN_POINT('',(-0.0275818695127964,0.03,0.6716));
#1377=CARTESIAN_POINT('',(0.0874181304872036,0.03,0.6716));
#1378=CARTESIAN_POINT('',(0.0874181304872036,0.03,0.6716));
#1379=CARTESIAN_POINT('',(0.0874181304872036,0.13,0.6716));
#1380=CARTESIAN_POINT('',(0.0874181304872036,0.13,0.8716));
#1381=CARTESIAN_POINT('',(-0.0275818695127964,0.13,0.8716));
#1382=CARTESIAN_POINT('',(-0.0275818695127964,0.03,0.8716));
#1383=CARTESIAN_POINT('',(0.0874181304872036,0.13,0.8716));
#1384=CARTESIAN_POINT('',(0.0874181304872036,0.03,0.8716));
#1385=CARTESIAN_POINT('',(0.0874181304872036,0.03,0.8716));
#1386=CARTESIAN_POINT('',(0.0874181304872036,0.25,0.55));
#1387=CARTESIAN_POINT('',(0.0874181304872036,0.03,0.7716));
#1388=CARTESIAN_POINT('',(0.0874181304872036,0.13,0.8858));
#1389=CARTESIAN_POINT('',(-0.0275818695127964,0.13,0.8858));
#1390=CARTESIAN_POINT('',(-0.0275818695127964,0.03,0.8858));
#1391=CARTESIAN_POINT('',(0.0874181304872036,0.03,0.8858));
#1392=CARTESIAN_POINT('',(0.0874181304872036,0.03,0.8858));
#1393=CARTESIAN_POINT('',(0.0874181304872036,0.13,0.8858));
#1394=CARTESIAN_POINT('',(0.0874181304872036,0.25,0.55));
#1395=CARTESIAN_POINT('',(0.0874181304872036,0.03,0.9858));
#1396=CARTESIAN_POINT('',(0.0874181304872036,0.03,1.0858));
#1397=CARTESIAN_POINT('',(0.0874181304872036,0.13,1.0858));
#1398=CARTESIAN_POINT('',(0.0874181304872036,0.22,0.4432));
#1399=CARTESIAN_POINT('',(-0.0275818695127964,0.22,0.4432));
#1400=CARTESIAN_POINT('',(-0.0275818695127964,0.03,0.4432));
#1401=CARTESIAN_POINT('',(0.0874181304872036,0.23,0.4432));
#1402=CARTESIAN_POINT('',(0.0874181304872036,0.23,0.4432));
#1403=CARTESIAN_POINT('',(0.0874181304872036,0.22,0.4432));
#1404=CARTESIAN_POINT('',(0.0874181304872036,0.03,0.4432));
#1405=CARTESIAN_POINT('',(0.0874181304872036,0.03,0.4432));
#1406=CARTESIAN_POINT('',(0.0874181304872036,0.22,0.2432));
#1407=CARTESIAN_POINT('',(0.0874181304872036,0.23,0.2432));
#1408=CARTESIAN_POINT('',(0.0874181304872036,0.23,0.2432));
#1409=CARTESIAN_POINT('',(-0.0275818695127964,0.23,0.2432));
#1410=CARTESIAN_POINT('',(-0.0275818695127964,0.12,0.2432));
#1411=CARTESIAN_POINT('',(-0.0275818695127964,0.03,0.2432));
#1412=CARTESIAN_POINT('',(0.0874181304872036,0.03,0.2432));
#1413=CARTESIAN_POINT('',(0.0874181304872036,0.03,0.2432));
#1414=CARTESIAN_POINT('',(0.0874181304872036,0.22,0.2432));
#1415=CARTESIAN_POINT('',(0.0874181304872036,0.25,0.55));
#1416=CARTESIAN_POINT('',(0.0874181304872036,0.23,0.3432));
#1417=CARTESIAN_POINT('',(0.0874181304872036,0.03,0.3432));
#1418=CARTESIAN_POINT('',(0.0874181304872036,0.22,0.229));
#1419=CARTESIAN_POINT('',(-0.0275818695127964,0.22,0.229));
#1420=CARTESIAN_POINT('',(-0.0275818695127964,0.23,0.229));
#1421=CARTESIAN_POINT('',(-0.0275818695127964,0.03,0.229));
#1422=CARTESIAN_POINT('',(0.0874181304872036,0.23,0.229));
#1423=CARTESIAN_POINT('',(0.0874181304872036,0.23,0.229));
#1424=CARTESIAN_POINT('',(0.0874181304872036,0.22,0.229));
#1425=CARTESIAN_POINT('',(0.0874181304872036,0.03,0.229));
#1426=CARTESIAN_POINT('',(0.0874181304872036,0.03,0.229));
#1427=CARTESIAN_POINT('',(0.0874181304872036,0.23,0.129));
#1428=CARTESIAN_POINT('',(-0.0300818695127964,0.23,0.7716));
#1429=CARTESIAN_POINT('',(-0.0300818695127964,0.23,0.029));
#1430=CARTESIAN_POINT('',(0.0874181304872036,0.23,0.029));
#1431=CARTESIAN_POINT('',(0.0874181304872036,0.23,0.029));
#1432=CARTESIAN_POINT('',(0.0874181304872036,0.23,0.129));
#1433=CARTESIAN_POINT('',(-0.0275818695127964,0.23,0.2361));
#1434=CARTESIAN_POINT('',(0.0874181304872036,0.03,0.129));
#1435=CARTESIAN_POINT('',(0.0874181304872036,0.03,1.0858));
#1436=CARTESIAN_POINT('',(-0.0275818695127964,0.03,0.8787));
#1437=CARTESIAN_POINT('',(-0.0275818695127964,0.03,0.6645));
#1438=CARTESIAN_POINT('',(0.0874181304872036,0.03,0.5574));
#1439=CARTESIAN_POINT('',(0.0874181304872036,0.03,0.4574));
#1440=CARTESIAN_POINT('',(0.0874181304872036,0.03,0.4574));
#1441=CARTESIAN_POINT('',(-0.0275818695127964,0.03,0.4574));
#1442=CARTESIAN_POINT('',(-0.0275818695127964,0.03,0.4503));
#1443=CARTESIAN_POINT('',(-0.0275818695127964,0.03,0.2361));
#1444=CARTESIAN_POINT('',(0.0874181304872036,0.03,0.129));
#1445=CARTESIAN_POINT('',(0.0874181304872036,0.03,0.029));
#1446=CARTESIAN_POINT('',(0.0874181304872036,0.03,0.029));
#1447=CARTESIAN_POINT('',(0.0874181304872036,0.25,0.55));
#1448=CARTESIAN_POINT('',(0.0874181304872036,0.13,0.029));
#1449=CARTESIAN_POINT('',(0.0874181304872036,0.36,0.029));
#1450=CARTESIAN_POINT('',(-0.0300818695127964,0.245,0.029));
#1451=CARTESIAN_POINT('',(-0.0300818695127964,0.26,0.029));
#1452=CARTESIAN_POINT('',(0.0874181304872036,0.26,0.029));
#1453=CARTESIAN_POINT('',(0.0874181304872036,0.26,0.029));
#1454=CARTESIAN_POINT('',(0.0874181304872036,0.36,0.029));
#1455=CARTESIAN_POINT('',(0.0874181304872036,0.46,0.029));
#1456=CARTESIAN_POINT('',(0.0874181304872036,0.46,0.029));
#1457=CARTESIAN_POINT('',(0.0874181304872036,0.36,0.229));
#1458=CARTESIAN_POINT('',(-0.0275818695127964,0.36,0.229));
#1459=CARTESIAN_POINT('',(-0.0275818695127964,0.46,0.229));
#1460=CARTESIAN_POINT('',(-0.0275818695127964,0.26,0.229));
#1461=CARTESIAN_POINT('',(0.0874181304872036,0.46,0.229));
#1462=CARTESIAN_POINT('',(0.0874181304872036,0.46,0.229));
#1463=CARTESIAN_POINT('',(0.0874181304872036,0.36,0.229));
#1464=CARTESIAN_POINT('',(0.0874181304872036,0.26,0.229));
#1465=CARTESIAN_POINT('',(0.0874181304872036,0.26,0.229));
#1466=CARTESIAN_POINT('',(0.0874181304872036,0.25,0.55));
#1467=CARTESIAN_POINT('',(0.0874181304872036,0.46,0.129));
#1468=CARTESIAN_POINT('',(0.0874181304872036,0.26,0.129));
#1469=CARTESIAN_POINT('',(0.0874181304872036,0.36,0.4432));
#1470=CARTESIAN_POINT('',(-0.0275818695127964,0.36,0.4432));
#1471=CARTESIAN_POINT('',(-0.0275818695127964,0.46,0.4432));
#1472=CARTESIAN_POINT('',(0.0874181304872036,0.46,0.4432));
#1473=CARTESIAN_POINT('',(0.0874181304872036,0.46,0.4432));
#1474=CARTESIAN_POINT('',(0.0874181304872036,0.36,0.4432));
#1475=CARTESIAN_POINT('',(0.0874181304872036,0.26,0.4432));
#1476=CARTESIAN_POINT('',(0.0874181304872036,0.26,0.4432));
#1477=CARTESIAN_POINT('',(0.0874181304872036,0.36,0.2432));
#1478=CARTESIAN_POINT('',(0.0874181304872036,0.46,0.2432));
#1479=CARTESIAN_POINT('',(0.0874181304872036,0.46,0.2432));
#1480=CARTESIAN_POINT('',(-0.0275818695127964,0.46,0.2432));
#1481=CARTESIAN_POINT('',(-0.0275818695127964,0.36,0.2432));
#1482=CARTESIAN_POINT('',(-0.0275818695127964,0.26,0.2432));
#1483=CARTESIAN_POINT('',(0.0874181304872036,0.26,0.2432));
#1484=CARTESIAN_POINT('',(0.0874181304872036,0.26,0.2432));
#1485=CARTESIAN_POINT('',(0.0874181304872036,0.36,0.2432));
#1486=CARTESIAN_POINT('',(0.0874181304872036,0.25,0.55));
#1487=CARTESIAN_POINT('',(0.0874181304872036,0.46,0.3432));
#1488=CARTESIAN_POINT('',(0.0874181304872036,0.26,0.3432));
#1489=CARTESIAN_POINT('',(0.0874181304872036,0.36,0.4574));
#1490=CARTESIAN_POINT('',(-0.0275818695127964,0.36,0.4574));
#1491=CARTESIAN_POINT('',(-0.0275818695127964,0.46,0.4574));
#1492=CARTESIAN_POINT('',(0.0874181304872036,0.36,0.4574));
#1493=CARTESIAN_POINT('',(0.0874181304872036,0.46,0.4574));
#1494=CARTESIAN_POINT('',(0.0874181304872036,0.46,0.4574));
#1495=CARTESIAN_POINT('',(0.0874181304872036,0.25,0.55));
#1496=CARTESIAN_POINT('',(0.0874181304872036,0.46,0.5574));
#1497=CARTESIAN_POINT('',(0.0874181304872036,0.36,0.8716));
#1498=CARTESIAN_POINT('',(-0.0275818695127964,0.36,0.8716));
#1499=CARTESIAN_POINT('',(-0.0275818695127964,0.46,0.8716));
#1500=CARTESIAN_POINT('',(0.0874181304872036,0.46,0.8716));
#1501=CARTESIAN_POINT('',(0.0874181304872036,0.46,0.8716));
#1502=CARTESIAN_POINT('',(0.0874181304872036,0.36,0.8716));
#1503=CARTESIAN_POINT('',(0.0874181304872036,0.36,0.6716));
#1504=CARTESIAN_POINT('',(0.0874181304872036,0.46,0.6716));
#1505=CARTESIAN_POINT('',(0.0874181304872036,0.46,0.6716));
#1506=CARTESIAN_POINT('',(-0.0275818695127964,0.46,0.6716));
#1507=CARTESIAN_POINT('',(-0.0275818695127964,0.36,0.6716));
#1508=CARTESIAN_POINT('',(0.0874181304872036,0.36,0.6716));
#1509=CARTESIAN_POINT('',(0.0874181304872036,0.25,0.55));
#1510=CARTESIAN_POINT('',(0.0874181304872036,0.46,0.7716));
#1511=CARTESIAN_POINT('',(0.0874181304872036,0.36,1.0858));
#1512=CARTESIAN_POINT('',(0.0874181304872036,0.46,1.0858));
#1513=CARTESIAN_POINT('',(0.0874181304872036,0.46,1.0858));
#1514=CARTESIAN_POINT('',(0.0874181304872036,0.36,1.0858));
#1515=CARTESIAN_POINT('',(0.0874181304872036,0.46,0.9858));
#1516=CARTESIAN_POINT('',(-0.0275818695127964,0.46,0.4503));
#1517=CARTESIAN_POINT('',(-0.0275818695127964,0.46,0.6645));
#1518=CARTESIAN_POINT('',(-0.0275818695127964,0.46,0.8787));
#1519=CARTESIAN_POINT('',(-0.0275818695127964,0.46,0.8858));
#1520=CARTESIAN_POINT('',(0.0874181304872036,0.46,0.8858));
#1521=CARTESIAN_POINT('',(0.0874181304872036,0.46,0.8858));
#1522=CARTESIAN_POINT('',(0.0874181304872036,0.46,0.9858));
#1523=CARTESIAN_POINT('',(-0.0275818695127964,0.46,0.2361));
#1524=CARTESIAN_POINT('',(0.0874181304872036,0.36,0.8858));
#1525=CARTESIAN_POINT('',(-0.0275818695127964,0.36,0.8858));
#1526=CARTESIAN_POINT('',(0.0874181304872036,0.36,0.8858));
#1527=CARTESIAN_POINT('',(0.0874181304872036,0.26,0.9858));
#1528=CARTESIAN_POINT('',(-0.0300818695127964,0.26,0.7716));
#1529=CARTESIAN_POINT('',(-0.0275818695127964,0.26,0.2361));
#1530=CARTESIAN_POINT('',(0.0874181304872036,0.25,0.55));
#1531=CARTESIAN_POINT('',(-0.0275818695127964,0.25,0.55));
#1532=CARTESIAN_POINT('',(-0.0275818695127964,0.25,0.55));
#1533=CARTESIAN_POINT('',(-0.0275818695127964,0.245,0.6716));
#1534=CARTESIAN_POINT('',(-0.0275818695127964,0.25,0.55));
#1535=CARTESIAN_POINT('',(-0.0275818695127964,0.25,0.55));
#1536=CARTESIAN_POINT('',(-0.0275818695127964,0.25,0.55));
#1537=CARTESIAN_POINT('',(-0.0275818695127964,0.25,0.55));
#1538=CARTESIAN_POINT('',(-0.0300818695127964,0.25,0.55));
#1539=CARTESIAN_POINT('',(-0.0275818695127964,0.245,0.6716));
#1540=MECHANICAL_DESIGN_GEOMETRIC_PRESENTATION_REPRESENTATION('',(#965),
#1541);
#1541=(
GEOMETRIC_REPRESENTATION_CONTEXT(3)
GLOBAL_UNCERTAINTY_ASSIGNED_CONTEXT((#1542))
GLOBAL_UNIT_ASSIGNED_CONTEXT((#1545,#1544,#1543))
REPRESENTATION_CONTEXT('Part 1','TOP_LEVEL_ASSEMBLY_PART')
);
#1542=UNCERTAINTY_MEASURE_WITH_UNIT(LENGTH_MEASURE(1.E-8),#1545,
'DISTANCE_ACCURACY_VALUE','Maximum Tolerance applied to model');
#1543=(
NAMED_UNIT(*)
SI_UNIT($,.STERADIAN.)
SOLID_ANGLE_UNIT()
);
#1544=(
NAMED_UNIT(*)
PLANE_ANGLE_UNIT()
SI_UNIT($,.RADIAN.)
);
#1545=(
LENGTH_UNIT()
NAMED_UNIT(*)
SI_UNIT($,.METRE.)
);
#1546=PRODUCT_DEFINITION_SHAPE('','',#1547);
#1547=PRODUCT_DEFINITION('','',#1549,#1548);
#1548=PRODUCT_DEFINITION_CONTEXT('',#1555,'design');
#1549=PRODUCT_DEFINITION_FORMATION_WITH_SPECIFIED_SOURCE('','',#1551,
 .NOT_KNOWN.);
#1550=PRODUCT_RELATED_PRODUCT_CATEGORY('','',(#1551));
#1551=PRODUCT('Part 1','Part 1','Part 1',(#1553));
#1552=PRODUCT_CATEGORY('','');
#1553=PRODUCT_CONTEXT('',#1555,'mechanical');
#1554=APPLICATION_PROTOCOL_DEFINITION('international standard',
'ap242_managed_model_based_3d_engineering',2020,#1555);
#1555=APPLICATION_CONTEXT('managed model based 3d engineering');
ENDSEC;
END-ISO-10303-21;
