ISO-10303-21;
HEADER;
/* Generated by software containing ST-Developer
 * from STEP Tools, Inc. (www.steptools.com) 
 */
/* OPTION: using custom renumber hook */

FILE_DESCRIPTION(
/* description */ ('STEP AP242 Edition 2',
'CAx-IF Rec.Pracs.---Representation and Presentation of Product Manufa
cturing Information (PMI)---4.0---2014-10-13',
'CAx-IF Rec.Pracs.---3D Tessellated Geometry---0.4---2014-09-14','2;1',
'CAx-IF Rec.Pracs.---User Defined Attributes---1.5---2016-08-15'),
/* implementation_level */ '2;1');

FILE_NAME(
/* name */ 'Part Studio 1',
/* time_stamp */ '2026-09-03T18:20:10Z',
/* author */ (''),
/* organization */ (''),
/* preprocessor_version */ 'ST-DEVELOPER v20',
/* originating_system */ 'ONSHAPE BY PTC INC, 1.220',
/* authorisation */ '  ');

FILE_SCHEMA (('AP242_MANAGED_MODEL_BASED_3D_ENGINEERING_MIM_LF { 1 0 10303 442 3 1 4 }'));
ENDSEC;

DATA;
#10=LINE('',#1076,#72);
#11=LINE('',#1081,#73);
#12=LINE('',#1085,#74);
#13=LINE('',#1090,#75);
#14=LINE('',#1094,#76);
#15=LINE('',#1099,#77);
#16=LINE('',#1103,#78);
#17=LINE('',#1108,#79);
#18=LINE('',#1112,#80);
#19=LINE('',#1113,#81);
#20=LINE('',#1114,#82);
#21=LINE('',#1117,#83);
#22=LINE('',#1119,#84);
#23=LINE('',#1121,#85);
#24=LINE('',#1123,#86);
#25=LINE('',#1124,#87);
#26=LINE('',#1125,#88);
#27=LINE('',#1127,#89);
#28=LINE('',#1128,#90);
#29=LINE('',#1129,#91);
#30=LINE('',#1134,#92);
#31=LINE('',#1136,#93);
#32=LINE('',#1138,#94);
#33=LINE('',#1140,#95);
#34=LINE('',#1142,#96);
#35=LINE('',#1144,#97);
#36=LINE('',#1146,#98);
#37=LINE('',#1148,#99);
#38=LINE('',#1152,#100);
#39=LINE('',#1157,#101);
#40=LINE('',#1161,#102);
#41=LINE('',#1166,#103);
#42=LINE('',#1170,#104);
#43=LINE('',#1175,#105);
#44=LINE('',#1179,#106);
#45=LINE('',#1184,#107);
#46=LINE('',#1188,#108);
#47=LINE('',#1189,#109);
#48=LINE('',#1191,#110);
#49=LINE('',#1192,#111);
#50=LINE('',#1194,#112);
#51=LINE('',#1195,#113);
#52=LINE('',#1197,#114);
#53=LINE('',#1198,#115);
#54=LINE('',#1215,#116);
#55=LINE('',#1218,#117);
#56=LINE('',#1220,#118);
#57=LINE('',#1222,#119);
#58=LINE('',#1224,#120);
#59=LINE('',#1226,#121);
#60=LINE('',#1228,#122);
#61=LINE('',#1230,#123);
#62=LINE('',#1232,#124);
#63=LINE('',#1234,#125);
#64=LINE('',#1236,#126);
#65=LINE('',#1238,#127);
#66=LINE('',#1240,#128);
#67=LINE('',#1242,#129);
#68=LINE('',#1244,#130);
#69=LINE('',#1246,#131);
#70=LINE('',#1248,#132);
#71=LINE('',#1249,#133);
#72=VECTOR('',#871,1.);
#73=VECTOR('',#874,1.);
#74=VECTOR('',#879,1.);
#75=VECTOR('',#882,1.);
#76=VECTOR('',#887,1.);
#77=VECTOR('',#890,1.);
#78=VECTOR('',#895,1.);
#79=VECTOR('',#898,1.);
#80=VECTOR('',#903,1.);
#81=VECTOR('',#904,1.);
#82=VECTOR('',#905,1.);
#83=VECTOR('',#906,1.);
#84=VECTOR('',#907,1.);
#85=VECTOR('',#908,1.);
#86=VECTOR('',#911,1.);
#87=VECTOR('',#912,1.);
#88=VECTOR('',#913,1.);
#89=VECTOR('',#916,1.);
#90=VECTOR('',#917,1.);
#91=VECTOR('',#918,1.);
#92=VECTOR('',#927,1.);
#93=VECTOR('',#928,1.);
#94=VECTOR('',#929,1.);
#95=VECTOR('',#932,1.);
#96=VECTOR('',#933,1.);
#97=VECTOR('',#936,1.);
#98=VECTOR('',#937,1.);
#99=VECTOR('',#940,1.);
#100=VECTOR('',#947,1.);
#101=VECTOR('',#950,1.);
#102=VECTOR('',#955,1.);
#103=VECTOR('',#958,1.);
#104=VECTOR('',#963,1.);
#105=VECTOR('',#966,1.);
#106=VECTOR('',#971,1.);
#107=VECTOR('',#974,1.);
#108=VECTOR('',#979,1.);
#109=VECTOR('',#980,1.);
#110=VECTOR('',#983,1.);
#111=VECTOR('',#984,1.);
#112=VECTOR('',#987,1.);
#113=VECTOR('',#988,1.);
#114=VECTOR('',#991,1.);
#115=VECTOR('',#992,1.);
#116=VECTOR('',#1017,1.);
#117=VECTOR('',#1018,1.);
#118=VECTOR('',#1019,1.);
#119=VECTOR('',#1020,1.);
#120=VECTOR('',#1023,1.);
#121=VECTOR('',#1024,1.);
#122=VECTOR('',#1025,1.);
#123=VECTOR('',#1028,1.);
#124=VECTOR('',#1029,1.);
#125=VECTOR('',#1030,1.);
#126=VECTOR('',#1033,1.);
#127=VECTOR('',#1034,1.);
#128=VECTOR('',#1035,1.);
#129=VECTOR('',#1038,1.);
#130=VECTOR('',#1039,1.);
#131=VECTOR('',#1040,1.);
#132=VECTOR('',#1043,1.);
#133=VECTOR('',#1044,1.);
#134=SHAPE_REPRESENTATION_RELATIONSHIP('','',#752,#138);
#135=SHAPE_REPRESENTATION_RELATIONSHIP('','',#753,#139);
#136=SHAPE_REPRESENTATION_RELATIONSHIP('','',#754,#140);
#137=SHAPE_REPRESENTATION_RELATIONSHIP('','',#755,#141);
#138=ADVANCED_BREP_SHAPE_REPRESENTATION('',(#744),#1256);
#139=ADVANCED_BREP_SHAPE_REPRESENTATION('',(#745),#1257);
#140=ADVANCED_BREP_SHAPE_REPRESENTATION('',(#746),#1258);
#141=ADVANCED_BREP_SHAPE_REPRESENTATION('',(#747),#1259);
#142=PLANE('',#763);
#143=PLANE('',#765);
#144=PLANE('',#771);
#145=PLANE('',#772);
#146=PLANE('',#786);
#147=PLANE('',#787);
#148=PLANE('',#788);
#149=PLANE('',#789);
#150=PLANE('',#790);
#151=PLANE('',#791);
#152=PLANE('',#792);
#153=PLANE('',#793);
#154=PLANE('',#794);
#155=PLANE('',#795);
#156=PLANE('',#796);
#157=PLANE('',#810);
#158=PLANE('',#811);
#159=PLANE('',#812);
#160=PLANE('',#813);
#161=PLANE('',#814);
#162=PLANE('',#816);
#163=PLANE('',#819);
#164=PLANE('',#821);
#165=PLANE('',#825);
#166=PLANE('',#826);
#167=PLANE('',#827);
#168=PLANE('',#828);
#169=PLANE('',#829);
#170=PLANE('',#830);
#171=PLANE('',#831);
#172=PLANE('',#832);
#173=CYLINDRICAL_SURFACE('',#760,0.0125);
#174=CYLINDRICAL_SURFACE('',#766,0.0175);
#175=CYLINDRICAL_SURFACE('',#768,0.035);
#176=CYLINDRICAL_SURFACE('',#774,0.03);
#177=CYLINDRICAL_SURFACE('',#777,0.03);
#178=CYLINDRICAL_SURFACE('',#780,0.05);
#179=CYLINDRICAL_SURFACE('',#783,0.05);
#180=CYLINDRICAL_SURFACE('',#798,0.035);
#181=CYLINDRICAL_SURFACE('',#801,0.035);
#182=CYLINDRICAL_SURFACE('',#804,0.07);
#183=CYLINDRICAL_SURFACE('',#807,0.07);
#184=CYLINDRICAL_SURFACE('',#817,0.0175);
#185=CYLINDRICAL_SURFACE('',#823,0.0125);
#186=ORIENTED_EDGE('',*,*,#366,.T.);
#187=ORIENTED_EDGE('',*,*,#367,.F.);
#188=ORIENTED_EDGE('',*,*,#368,.T.);
#189=ORIENTED_EDGE('',*,*,#369,.F.);
#190=ORIENTED_EDGE('',*,*,#368,.F.);
#191=ORIENTED_EDGE('',*,*,#370,.F.);
#192=ORIENTED_EDGE('',*,*,#369,.T.);
#193=ORIENTED_EDGE('',*,*,#366,.F.);
#194=ORIENTED_EDGE('',*,*,#370,.T.);
#195=ORIENTED_EDGE('',*,*,#371,.T.);
#196=ORIENTED_EDGE('',*,*,#372,.F.);
#197=ORIENTED_EDGE('',*,*,#373,.T.);
#198=ORIENTED_EDGE('',*,*,#371,.F.);
#199=ORIENTED_EDGE('',*,*,#372,.T.);
#200=ORIENTED_EDGE('',*,*,#367,.T.);
#201=ORIENTED_EDGE('',*,*,#373,.F.);
#202=ORIENTED_EDGE('',*,*,#374,.F.);
#203=ORIENTED_EDGE('',*,*,#375,.F.);
#204=ORIENTED_EDGE('',*,*,#376,.F.);
#205=ORIENTED_EDGE('',*,*,#377,.F.);
#206=ORIENTED_EDGE('',*,*,#378,.F.);
#207=ORIENTED_EDGE('',*,*,#379,.F.);
#208=ORIENTED_EDGE('',*,*,#380,.F.);
#209=ORIENTED_EDGE('',*,*,#381,.F.);
#210=ORIENTED_EDGE('',*,*,#382,.F.);
#211=ORIENTED_EDGE('',*,*,#383,.F.);
#212=ORIENTED_EDGE('',*,*,#384,.F.);
#213=ORIENTED_EDGE('',*,*,#385,.F.);
#214=ORIENTED_EDGE('',*,*,#386,.F.);
#215=ORIENTED_EDGE('',*,*,#387,.F.);
#216=ORIENTED_EDGE('',*,*,#388,.F.);
#217=ORIENTED_EDGE('',*,*,#389,.F.);
#218=ORIENTED_EDGE('',*,*,#390,.F.);
#219=ORIENTED_EDGE('',*,*,#380,.T.);
#220=ORIENTED_EDGE('',*,*,#391,.T.);
#221=ORIENTED_EDGE('',*,*,#376,.T.);
#222=ORIENTED_EDGE('',*,*,#392,.F.);
#223=ORIENTED_EDGE('',*,*,#393,.F.);
#224=ORIENTED_EDGE('',*,*,#394,.F.);
#225=ORIENTED_EDGE('',*,*,#395,.T.);
#226=ORIENTED_EDGE('',*,*,#396,.F.);
#227=ORIENTED_EDGE('',*,*,#381,.T.);
#228=ORIENTED_EDGE('',*,*,#390,.T.);
#229=ORIENTED_EDGE('',*,*,#375,.T.);
#230=ORIENTED_EDGE('',*,*,#397,.T.);
#231=ORIENTED_EDGE('',*,*,#389,.T.);
#232=ORIENTED_EDGE('',*,*,#398,.F.);
#233=ORIENTED_EDGE('',*,*,#383,.T.);
#234=ORIENTED_EDGE('',*,*,#391,.F.);
#235=ORIENTED_EDGE('',*,*,#379,.T.);
#236=ORIENTED_EDGE('',*,*,#399,.T.);
#237=ORIENTED_EDGE('',*,*,#385,.T.);
#238=ORIENTED_EDGE('',*,*,#400,.T.);
#239=ORIENTED_EDGE('',*,*,#387,.T.);
#240=ORIENTED_EDGE('',*,*,#401,.F.);
#241=ORIENTED_EDGE('',*,*,#377,.T.);
#242=ORIENTED_EDGE('',*,*,#398,.T.);
#243=ORIENTED_EDGE('',*,*,#388,.T.);
#244=ORIENTED_EDGE('',*,*,#400,.F.);
#245=ORIENTED_EDGE('',*,*,#384,.T.);
#246=ORIENTED_EDGE('',*,*,#399,.F.);
#247=ORIENTED_EDGE('',*,*,#378,.T.);
#248=ORIENTED_EDGE('',*,*,#396,.T.);
#249=ORIENTED_EDGE('',*,*,#382,.T.);
#250=ORIENTED_EDGE('',*,*,#397,.F.);
#251=ORIENTED_EDGE('',*,*,#374,.T.);
#252=ORIENTED_EDGE('',*,*,#401,.T.);
#253=ORIENTED_EDGE('',*,*,#386,.T.);
#254=ORIENTED_EDGE('',*,*,#402,.F.);
#255=ORIENTED_EDGE('',*,*,#392,.T.);
#256=ORIENTED_EDGE('',*,*,#403,.T.);
#257=ORIENTED_EDGE('',*,*,#404,.T.);
#258=ORIENTED_EDGE('',*,*,#395,.F.);
#259=ORIENTED_EDGE('',*,*,#405,.T.);
#260=ORIENTED_EDGE('',*,*,#406,.F.);
#261=ORIENTED_EDGE('',*,*,#403,.F.);
#262=ORIENTED_EDGE('',*,*,#405,.F.);
#263=ORIENTED_EDGE('',*,*,#394,.T.);
#264=ORIENTED_EDGE('',*,*,#407,.T.);
#265=ORIENTED_EDGE('',*,*,#408,.T.);
#266=ORIENTED_EDGE('',*,*,#407,.F.);
#267=ORIENTED_EDGE('',*,*,#393,.T.);
#268=ORIENTED_EDGE('',*,*,#402,.T.);
#269=ORIENTED_EDGE('',*,*,#409,.T.);
#270=ORIENTED_EDGE('',*,*,#404,.F.);
#271=ORIENTED_EDGE('',*,*,#406,.T.);
#272=ORIENTED_EDGE('',*,*,#408,.F.);
#273=ORIENTED_EDGE('',*,*,#409,.F.);
#274=ORIENTED_EDGE('',*,*,#410,.F.);
#275=ORIENTED_EDGE('',*,*,#411,.F.);
#276=ORIENTED_EDGE('',*,*,#412,.F.);
#277=ORIENTED_EDGE('',*,*,#413,.F.);
#278=ORIENTED_EDGE('',*,*,#414,.F.);
#279=ORIENTED_EDGE('',*,*,#415,.F.);
#280=ORIENTED_EDGE('',*,*,#416,.F.);
#281=ORIENTED_EDGE('',*,*,#417,.F.);
#282=ORIENTED_EDGE('',*,*,#418,.F.);
#283=ORIENTED_EDGE('',*,*,#419,.F.);
#284=ORIENTED_EDGE('',*,*,#420,.F.);
#285=ORIENTED_EDGE('',*,*,#421,.F.);
#286=ORIENTED_EDGE('',*,*,#422,.F.);
#287=ORIENTED_EDGE('',*,*,#423,.F.);
#288=ORIENTED_EDGE('',*,*,#424,.F.);
#289=ORIENTED_EDGE('',*,*,#425,.F.);
#290=ORIENTED_EDGE('',*,*,#426,.T.);
#291=ORIENTED_EDGE('',*,*,#414,.T.);
#292=ORIENTED_EDGE('',*,*,#427,.F.);
#293=ORIENTED_EDGE('',*,*,#422,.T.);
#294=ORIENTED_EDGE('',*,*,#428,.F.);
#295=ORIENTED_EDGE('',*,*,#416,.T.);
#296=ORIENTED_EDGE('',*,*,#429,.T.);
#297=ORIENTED_EDGE('',*,*,#412,.T.);
#298=ORIENTED_EDGE('',*,*,#430,.T.);
#299=ORIENTED_EDGE('',*,*,#410,.T.);
#300=ORIENTED_EDGE('',*,*,#431,.F.);
#301=ORIENTED_EDGE('',*,*,#420,.T.);
#302=ORIENTED_EDGE('',*,*,#432,.T.);
#303=ORIENTED_EDGE('',*,*,#418,.T.);
#304=ORIENTED_EDGE('',*,*,#433,.F.);
#305=ORIENTED_EDGE('',*,*,#424,.T.);
#306=ORIENTED_EDGE('',*,*,#434,.T.);
#307=ORIENTED_EDGE('',*,*,#427,.T.);
#308=ORIENTED_EDGE('',*,*,#417,.T.);
#309=ORIENTED_EDGE('',*,*,#428,.T.);
#310=ORIENTED_EDGE('',*,*,#411,.T.);
#311=ORIENTED_EDGE('',*,*,#430,.F.);
#312=ORIENTED_EDGE('',*,*,#419,.T.);
#313=ORIENTED_EDGE('',*,*,#432,.F.);
#314=ORIENTED_EDGE('',*,*,#423,.T.);
#315=ORIENTED_EDGE('',*,*,#429,.F.);
#316=ORIENTED_EDGE('',*,*,#415,.T.);
#317=ORIENTED_EDGE('',*,*,#426,.F.);
#318=ORIENTED_EDGE('',*,*,#425,.T.);
#319=ORIENTED_EDGE('',*,*,#433,.T.);
#320=ORIENTED_EDGE('',*,*,#421,.T.);
#321=ORIENTED_EDGE('',*,*,#431,.T.);
#322=ORIENTED_EDGE('',*,*,#413,.T.);
#323=ORIENTED_EDGE('',*,*,#434,.F.);
#324=ORIENTED_EDGE('',*,*,#435,.F.);
#325=ORIENTED_EDGE('',*,*,#436,.F.);
#326=ORIENTED_EDGE('',*,*,#435,.T.);
#327=ORIENTED_EDGE('',*,*,#437,.T.);
#328=ORIENTED_EDGE('',*,*,#436,.T.);
#329=ORIENTED_EDGE('',*,*,#437,.F.);
#330=ORIENTED_EDGE('',*,*,#438,.T.);
#331=ORIENTED_EDGE('',*,*,#439,.F.);
#332=ORIENTED_EDGE('',*,*,#440,.F.);
#333=ORIENTED_EDGE('',*,*,#441,.T.);
#334=ORIENTED_EDGE('',*,*,#442,.T.);
#335=ORIENTED_EDGE('',*,*,#443,.F.);
#336=ORIENTED_EDGE('',*,*,#444,.F.);
#337=ORIENTED_EDGE('',*,*,#439,.T.);
#338=ORIENTED_EDGE('',*,*,#445,.T.);
#339=ORIENTED_EDGE('',*,*,#446,.F.);
#340=ORIENTED_EDGE('',*,*,#447,.F.);
#341=ORIENTED_EDGE('',*,*,#443,.T.);
#342=ORIENTED_EDGE('',*,*,#448,.T.);
#343=ORIENTED_EDGE('',*,*,#449,.F.);
#344=ORIENTED_EDGE('',*,*,#450,.F.);
#345=ORIENTED_EDGE('',*,*,#446,.T.);
#346=ORIENTED_EDGE('',*,*,#451,.T.);
#347=ORIENTED_EDGE('',*,*,#452,.F.);
#348=ORIENTED_EDGE('',*,*,#453,.F.);
#349=ORIENTED_EDGE('',*,*,#449,.T.);
#350=ORIENTED_EDGE('',*,*,#454,.T.);
#351=ORIENTED_EDGE('',*,*,#441,.F.);
#352=ORIENTED_EDGE('',*,*,#455,.F.);
#353=ORIENTED_EDGE('',*,*,#452,.T.);
#354=ORIENTED_EDGE('',*,*,#440,.T.);
#355=ORIENTED_EDGE('',*,*,#444,.T.);
#356=ORIENTED_EDGE('',*,*,#447,.T.);
#357=ORIENTED_EDGE('',*,*,#450,.T.);
#358=ORIENTED_EDGE('',*,*,#453,.T.);
#359=ORIENTED_EDGE('',*,*,#455,.T.);
#360=ORIENTED_EDGE('',*,*,#438,.F.);
#361=ORIENTED_EDGE('',*,*,#454,.F.);
#362=ORIENTED_EDGE('',*,*,#451,.F.);
#363=ORIENTED_EDGE('',*,*,#448,.F.);
#364=ORIENTED_EDGE('',*,*,#445,.F.);
#365=ORIENTED_EDGE('',*,*,#442,.F.);
#366=EDGE_CURVE('',#456,#456,#520,.T.);
#367=EDGE_CURVE('',#457,#457,#521,.T.);
#368=EDGE_CURVE('',#458,#458,#522,.T.);
#369=EDGE_CURVE('',#459,#459,#523,.T.);
#370=EDGE_CURVE('',#460,#460,#524,.F.);
#371=EDGE_CURVE('',#461,#461,#525,.T.);
#372=EDGE_CURVE('',#462,#462,#526,.T.);
#373=EDGE_CURVE('',#463,#463,#527,.T.);
#374=EDGE_CURVE('',#464,#465,#10,.T.);
#375=EDGE_CURVE('',#466,#464,#528,.F.);
#376=EDGE_CURVE('',#467,#466,#11,.F.);
#377=EDGE_CURVE('',#465,#467,#529,.T.);
#378=EDGE_CURVE('',#468,#469,#12,.T.);
#379=EDGE_CURVE('',#470,#468,#530,.T.);
#380=EDGE_CURVE('',#471,#470,#13,.F.);
#381=EDGE_CURVE('',#469,#471,#531,.F.);
#382=EDGE_CURVE('',#472,#473,#14,.T.);
#383=EDGE_CURVE('',#474,#472,#532,.F.);
#384=EDGE_CURVE('',#475,#474,#15,.F.);
#385=EDGE_CURVE('',#473,#475,#533,.T.);
#386=EDGE_CURVE('',#476,#477,#16,.T.);
#387=EDGE_CURVE('',#478,#476,#534,.T.);
#388=EDGE_CURVE('',#479,#478,#17,.F.);
#389=EDGE_CURVE('',#477,#479,#535,.F.);
#390=EDGE_CURVE('',#471,#466,#18,.T.);
#391=EDGE_CURVE('',#470,#467,#19,.T.);
#392=EDGE_CURVE('',#480,#481,#20,.T.);
#393=EDGE_CURVE('',#482,#480,#21,.T.);
#394=EDGE_CURVE('',#483,#482,#22,.T.);
#395=EDGE_CURVE('',#483,#481,#23,.T.);
#396=EDGE_CURVE('',#469,#472,#24,.T.);
#397=EDGE_CURVE('',#464,#477,#25,.T.);
#398=EDGE_CURVE('',#474,#479,#26,.T.);
#399=EDGE_CURVE('',#468,#473,#27,.T.);
#400=EDGE_CURVE('',#475,#478,#28,.T.);
#401=EDGE_CURVE('',#465,#476,#29,.T.);
#402=EDGE_CURVE('',#480,#484,#30,.T.);
#403=EDGE_CURVE('',#481,#485,#31,.T.);
#404=EDGE_CURVE('',#485,#484,#32,.T.);
#405=EDGE_CURVE('',#483,#486,#33,.T.);
#406=EDGE_CURVE('',#485,#486,#34,.T.);
#407=EDGE_CURVE('',#482,#487,#35,.T.);
#408=EDGE_CURVE('',#487,#486,#36,.T.);
#409=EDGE_CURVE('',#484,#487,#37,.T.);
#410=EDGE_CURVE('',#488,#489,#38,.T.);
#411=EDGE_CURVE('',#490,#488,#536,.T.);
#412=EDGE_CURVE('',#491,#490,#39,.F.);
#413=EDGE_CURVE('',#489,#491,#537,.F.);
#414=EDGE_CURVE('',#492,#493,#40,.T.);
#415=EDGE_CURVE('',#494,#492,#538,.F.);
#416=EDGE_CURVE('',#495,#494,#41,.F.);
#417=EDGE_CURVE('',#493,#495,#539,.T.);
#418=EDGE_CURVE('',#496,#497,#42,.T.);
#419=EDGE_CURVE('',#498,#496,#540,.T.);
#420=EDGE_CURVE('',#499,#498,#43,.F.);
#421=EDGE_CURVE('',#497,#499,#541,.F.);
#422=EDGE_CURVE('',#500,#501,#44,.T.);
#423=EDGE_CURVE('',#502,#500,#542,.T.);
#424=EDGE_CURVE('',#503,#502,#45,.F.);
#425=EDGE_CURVE('',#501,#503,#543,.F.);
#426=EDGE_CURVE('',#501,#492,#46,.T.);
#427=EDGE_CURVE('',#500,#493,#47,.T.);
#428=EDGE_CURVE('',#495,#490,#48,.T.);
#429=EDGE_CURVE('',#494,#491,#49,.T.);
#430=EDGE_CURVE('',#498,#488,#50,.T.);
#431=EDGE_CURVE('',#499,#489,#51,.T.);
#432=EDGE_CURVE('',#502,#496,#52,.T.);
#433=EDGE_CURVE('',#503,#497,#53,.T.);
#434=EDGE_CURVE('',#504,#504,#544,.F.);
#435=EDGE_CURVE('',#505,#505,#545,.T.);
#436=EDGE_CURVE('',#506,#506,#546,.T.);
#437=EDGE_CURVE('',#507,#507,#547,.T.);
#438=EDGE_CURVE('',#508,#509,#54,.T.);
#439=EDGE_CURVE('',#510,#509,#55,.T.);
#440=EDGE_CURVE('',#511,#510,#56,.T.);
#441=EDGE_CURVE('',#511,#508,#57,.T.);
#442=EDGE_CURVE('',#509,#512,#58,.T.);
#443=EDGE_CURVE('',#513,#512,#59,.T.);
#444=EDGE_CURVE('',#510,#513,#60,.T.);
#445=EDGE_CURVE('',#512,#514,#61,.T.);
#446=EDGE_CURVE('',#515,#514,#62,.T.);
#447=EDGE_CURVE('',#513,#515,#63,.T.);
#448=EDGE_CURVE('',#514,#516,#64,.T.);
#449=EDGE_CURVE('',#517,#516,#65,.T.);
#450=EDGE_CURVE('',#515,#517,#66,.T.);
#451=EDGE_CURVE('',#516,#518,#67,.T.);
#452=EDGE_CURVE('',#519,#518,#68,.T.);
#453=EDGE_CURVE('',#517,#519,#69,.T.);
#454=EDGE_CURVE('',#518,#508,#70,.T.);
#455=EDGE_CURVE('',#519,#511,#71,.T.);
#456=VERTEX_POINT('',#1052);
#457=VERTEX_POINT('',#1054);
#458=VERTEX_POINT('',#1057);
#459=VERTEX_POINT('',#1059);
#460=VERTEX_POINT('',#1062);
#461=VERTEX_POINT('',#1066);
#462=VERTEX_POINT('',#1069);
#463=VERTEX_POINT('',#1071);
#464=VERTEX_POINT('',#1077);
#465=VERTEX_POINT('',#1078);
#466=VERTEX_POINT('',#1080);
#467=VERTEX_POINT('',#1082);
#468=VERTEX_POINT('',#1086);
#469=VERTEX_POINT('',#1087);
#470=VERTEX_POINT('',#1089);
#471=VERTEX_POINT('',#1091);
#472=VERTEX_POINT('',#1095);
#473=VERTEX_POINT('',#1096);
#474=VERTEX_POINT('',#1098);
#475=VERTEX_POINT('',#1100);
#476=VERTEX_POINT('',#1104);
#477=VERTEX_POINT('',#1105);
#478=VERTEX_POINT('',#1107);
#479=VERTEX_POINT('',#1109);
#480=VERTEX_POINT('',#1115);
#481=VERTEX_POINT('',#1116);
#482=VERTEX_POINT('',#1118);
#483=VERTEX_POINT('',#1120);
#484=VERTEX_POINT('',#1135);
#485=VERTEX_POINT('',#1137);
#486=VERTEX_POINT('',#1141);
#487=VERTEX_POINT('',#1145);
#488=VERTEX_POINT('',#1153);
#489=VERTEX_POINT('',#1154);
#490=VERTEX_POINT('',#1156);
#491=VERTEX_POINT('',#1158);
#492=VERTEX_POINT('',#1162);
#493=VERTEX_POINT('',#1163);
#494=VERTEX_POINT('',#1165);
#495=VERTEX_POINT('',#1167);
#496=VERTEX_POINT('',#1171);
#497=VERTEX_POINT('',#1172);
#498=VERTEX_POINT('',#1174);
#499=VERTEX_POINT('',#1176);
#500=VERTEX_POINT('',#1180);
#501=VERTEX_POINT('',#1181);
#502=VERTEX_POINT('',#1183);
#503=VERTEX_POINT('',#1185);
#504=VERTEX_POINT('',#1201);
#505=VERTEX_POINT('',#1205);
#506=VERTEX_POINT('',#1208);
#507=VERTEX_POINT('',#1211);
#508=VERTEX_POINT('',#1216);
#509=VERTEX_POINT('',#1217);
#510=VERTEX_POINT('',#1219);
#511=VERTEX_POINT('',#1221);
#512=VERTEX_POINT('',#1225);
#513=VERTEX_POINT('',#1227);
#514=VERTEX_POINT('',#1231);
#515=VERTEX_POINT('',#1233);
#516=VERTEX_POINT('',#1237);
#517=VERTEX_POINT('',#1239);
#518=VERTEX_POINT('',#1243);
#519=VERTEX_POINT('',#1245);
#520=CIRCLE('',#758,0.0175);
#521=CIRCLE('',#759,0.0275);
#522=CIRCLE('',#761,0.0125);
#523=CIRCLE('',#762,0.0125);
#524=CIRCLE('',#764,0.0175);
#525=CIRCLE('',#767,0.0175);
#526=CIRCLE('',#769,0.035);
#527=CIRCLE('',#770,0.035);
#528=CIRCLE('',#775,0.03);
#529=CIRCLE('',#776,0.03);
#530=CIRCLE('',#778,0.03);
#531=CIRCLE('',#779,0.03);
#532=CIRCLE('',#781,0.05);
#533=CIRCLE('',#782,0.05);
#534=CIRCLE('',#784,0.05);
#535=CIRCLE('',#785,0.05);
#536=CIRCLE('',#799,0.035);
#537=CIRCLE('',#800,0.035);
#538=CIRCLE('',#802,0.035);
#539=CIRCLE('',#803,0.035);
#540=CIRCLE('',#805,0.07);
#541=CIRCLE('',#806,0.07);
#542=CIRCLE('',#808,0.07);
#543=CIRCLE('',#809,0.07);
#544=CIRCLE('',#815,0.0175);
#545=CIRCLE('',#818,0.0175);
#546=CIRCLE('',#820,0.0125);
#547=CIRCLE('',#822,0.0125);
#548=EDGE_LOOP('',(#186));
#549=EDGE_LOOP('',(#187));
#550=EDGE_LOOP('',(#188));
#551=EDGE_LOOP('',(#189));
#552=EDGE_LOOP('',(#190));
#553=EDGE_LOOP('',(#191));
#554=EDGE_LOOP('',(#192));
#555=EDGE_LOOP('',(#193));
#556=EDGE_LOOP('',(#194));
#557=EDGE_LOOP('',(#195));
#558=EDGE_LOOP('',(#196));
#559=EDGE_LOOP('',(#197));
#560=EDGE_LOOP('',(#198));
#561=EDGE_LOOP('',(#199));
#562=EDGE_LOOP('',(#200));
#563=EDGE_LOOP('',(#201));
#564=EDGE_LOOP('',(#202,#203,#204,#205));
#565=EDGE_LOOP('',(#206,#207,#208,#209));
#566=EDGE_LOOP('',(#210,#211,#212,#213));
#567=EDGE_LOOP('',(#214,#215,#216,#217));
#568=EDGE_LOOP('',(#218,#219,#220,#221));
#569=EDGE_LOOP('',(#222,#223,#224,#225));
#570=EDGE_LOOP('',(#226,#227,#228,#229,#230,#231,#232,#233));
#571=EDGE_LOOP('',(#234,#235,#236,#237,#238,#239,#240,#241));
#572=EDGE_LOOP('',(#242,#243,#244,#245));
#573=EDGE_LOOP('',(#246,#247,#248,#249));
#574=EDGE_LOOP('',(#250,#251,#252,#253));
#575=EDGE_LOOP('',(#254,#255,#256,#257));
#576=EDGE_LOOP('',(#258,#259,#260,#261));
#577=EDGE_LOOP('',(#262,#263,#264,#265));
#578=EDGE_LOOP('',(#266,#267,#268,#269));
#579=EDGE_LOOP('',(#270,#271,#272,#273));
#580=EDGE_LOOP('',(#274,#275,#276,#277));
#581=EDGE_LOOP('',(#278,#279,#280,#281));
#582=EDGE_LOOP('',(#282,#283,#284,#285));
#583=EDGE_LOOP('',(#286,#287,#288,#289));
#584=EDGE_LOOP('',(#290,#291,#292,#293));
#585=EDGE_LOOP('',(#294,#295,#296,#297));
#586=EDGE_LOOP('',(#298,#299,#300,#301));
#587=EDGE_LOOP('',(#302,#303,#304,#305));
#588=EDGE_LOOP('',(#306));
#589=EDGE_LOOP('',(#307,#308,#309,#310,#311,#312,#313,#314));
#590=EDGE_LOOP('',(#315,#316,#317,#318,#319,#320,#321,#322));
#591=EDGE_LOOP('',(#323));
#592=EDGE_LOOP('',(#324));
#593=EDGE_LOOP('',(#325));
#594=EDGE_LOOP('',(#326));
#595=EDGE_LOOP('',(#327));
#596=EDGE_LOOP('',(#328));
#597=EDGE_LOOP('',(#329));
#598=EDGE_LOOP('',(#330,#331,#332,#333));
#599=EDGE_LOOP('',(#334,#335,#336,#337));
#600=EDGE_LOOP('',(#338,#339,#340,#341));
#601=EDGE_LOOP('',(#342,#343,#344,#345));
#602=EDGE_LOOP('',(#346,#347,#348,#349));
#603=EDGE_LOOP('',(#350,#351,#352,#353));
#604=EDGE_LOOP('',(#354,#355,#356,#357,#358,#359));
#605=EDGE_LOOP('',(#360,#361,#362,#363,#364,#365));
#606=FACE_BOUND('',#548,.T.);
#607=FACE_BOUND('',#549,.T.);
#608=FACE_BOUND('',#550,.T.);
#609=FACE_BOUND('',#551,.T.);
#610=FACE_BOUND('',#552,.T.);
#611=FACE_BOUND('',#553,.T.);
#612=FACE_BOUND('',#554,.T.);
#613=FACE_BOUND('',#555,.T.);
#614=FACE_BOUND('',#556,.T.);
#615=FACE_BOUND('',#557,.T.);
#616=FACE_BOUND('',#558,.T.);
#617=FACE_BOUND('',#559,.T.);
#618=FACE_BOUND('',#560,.T.);
#619=FACE_BOUND('',#561,.T.);
#620=FACE_BOUND('',#562,.T.);
#621=FACE_BOUND('',#563,.T.);
#622=FACE_BOUND('',#564,.T.);
#623=FACE_BOUND('',#565,.T.);
#624=FACE_BOUND('',#566,.T.);
#625=FACE_BOUND('',#567,.T.);
#626=FACE_BOUND('',#568,.T.);
#627=FACE_BOUND('',#569,.T.);
#628=FACE_BOUND('',#570,.T.);
#629=FACE_BOUND('',#571,.T.);
#630=FACE_BOUND('',#572,.T.);
#631=FACE_BOUND('',#573,.T.);
#632=FACE_BOUND('',#574,.T.);
#633=FACE_BOUND('',#575,.T.);
#634=FACE_BOUND('',#576,.T.);
#635=FACE_BOUND('',#577,.T.);
#636=FACE_BOUND('',#578,.T.);
#637=FACE_BOUND('',#579,.T.);
#638=FACE_BOUND('',#580,.T.);
#639=FACE_BOUND('',#581,.T.);
#640=FACE_BOUND('',#582,.T.);
#641=FACE_BOUND('',#583,.T.);
#642=FACE_BOUND('',#584,.T.);
#643=FACE_BOUND('',#585,.T.);
#644=FACE_BOUND('',#586,.T.);
#645=FACE_BOUND('',#587,.T.);
#646=FACE_BOUND('',#588,.T.);
#647=FACE_BOUND('',#589,.T.);
#648=FACE_BOUND('',#590,.T.);
#649=FACE_BOUND('',#591,.T.);
#650=FACE_BOUND('',#592,.T.);
#651=FACE_BOUND('',#593,.T.);
#652=FACE_BOUND('',#594,.T.);
#653=FACE_BOUND('',#595,.T.);
#654=FACE_BOUND('',#596,.T.);
#655=FACE_BOUND('',#597,.T.);
#656=FACE_BOUND('',#598,.T.);
#657=FACE_BOUND('',#599,.T.);
#658=FACE_BOUND('',#600,.T.);
#659=FACE_BOUND('',#601,.T.);
#660=FACE_BOUND('',#602,.T.);
#661=FACE_BOUND('',#603,.T.);
#662=FACE_BOUND('',#604,.T.);
#663=FACE_BOUND('',#605,.T.);
#664=TOROIDAL_SURFACE('',#757,0.0275,0.01);
#665=ADVANCED_FACE('',(#606,#607),#664,.F.);
#666=ADVANCED_FACE('',(#608,#609),#173,.F.);
#667=ADVANCED_FACE('',(#610,#611),#142,.T.);
#668=ADVANCED_FACE('',(#612,#613),#143,.F.);
#669=ADVANCED_FACE('',(#614,#615),#174,.F.);
#670=ADVANCED_FACE('',(#616,#617),#175,.T.);
#671=ADVANCED_FACE('',(#618,#619),#144,.T.);
#672=ADVANCED_FACE('',(#620,#621),#145,.F.);
#673=ADVANCED_FACE('',(#622),#176,.T.);
#674=ADVANCED_FACE('',(#623),#177,.T.);
#675=ADVANCED_FACE('',(#624),#178,.T.);
#676=ADVANCED_FACE('',(#625),#179,.T.);
#677=ADVANCED_FACE('',(#626,#627),#146,.T.);
#678=ADVANCED_FACE('',(#628),#147,.F.);
#679=ADVANCED_FACE('',(#629),#148,.T.);
#680=ADVANCED_FACE('',(#630),#149,.T.);
#681=ADVANCED_FACE('',(#631),#150,.F.);
#682=ADVANCED_FACE('',(#632),#151,.T.);
#683=ADVANCED_FACE('',(#633),#152,.F.);
#684=ADVANCED_FACE('',(#634),#153,.T.);
#685=ADVANCED_FACE('',(#635),#154,.F.);
#686=ADVANCED_FACE('',(#636),#155,.F.);
#687=ADVANCED_FACE('',(#637),#156,.T.);
#688=ADVANCED_FACE('',(#638),#180,.T.);
#689=ADVANCED_FACE('',(#639),#181,.T.);
#690=ADVANCED_FACE('',(#640),#182,.T.);
#691=ADVANCED_FACE('',(#641),#183,.T.);
#692=ADVANCED_FACE('',(#642),#157,.F.);
#693=ADVANCED_FACE('',(#643),#158,.F.);
#694=ADVANCED_FACE('',(#644),#159,.T.);
#695=ADVANCED_FACE('',(#645),#160,.T.);
#696=ADVANCED_FACE('',(#646,#647),#161,.T.);
#697=ADVANCED_FACE('',(#648),#162,.F.);
#698=ADVANCED_FACE('',(#649,#650),#184,.T.);
#699=ADVANCED_FACE('',(#651,#652),#163,.T.);
#700=ADVANCED_FACE('',(#653),#164,.T.);
#701=ADVANCED_FACE('',(#654,#655),#185,.T.);
#702=ADVANCED_FACE('',(#656),#165,.F.);
#703=ADVANCED_FACE('',(#657),#166,.F.);
#704=ADVANCED_FACE('',(#658),#167,.F.);
#705=ADVANCED_FACE('',(#659),#168,.F.);
#706=ADVANCED_FACE('',(#660),#169,.F.);
#707=ADVANCED_FACE('',(#661),#170,.F.);
#708=ADVANCED_FACE('',(#662),#171,.T.);
#709=ADVANCED_FACE('',(#663),#172,.F.);
#710=CLOSED_SHELL('',(#665,#666,#667,#668,#669,#670,#671,#672));
#711=CLOSED_SHELL('',(#673,#674,#675,#676,#677,#678,#679,#680,#681,#682,
#683,#684,#685,#686,#687));
#712=CLOSED_SHELL('',(#688,#689,#690,#691,#692,#693,#694,#695,#696,#697,
#698,#699,#700,#701));
#713=CLOSED_SHELL('',(#702,#703,#704,#705,#706,#707,#708,#709));
#714=STYLED_ITEM('',(#718),#744);
#715=STYLED_ITEM('',(#719),#745);
#716=STYLED_ITEM('',(#720),#746);
#717=STYLED_ITEM('',(#721),#747);
#718=PRESENTATION_STYLE_ASSIGNMENT((#722));
#719=PRESENTATION_STYLE_ASSIGNMENT((#723));
#720=PRESENTATION_STYLE_ASSIGNMENT((#724));
#721=PRESENTATION_STYLE_ASSIGNMENT((#725));
#722=SURFACE_STYLE_USAGE(.BOTH.,#726);
#723=SURFACE_STYLE_USAGE(.BOTH.,#727);
#724=SURFACE_STYLE_USAGE(.BOTH.,#728);
#725=SURFACE_STYLE_USAGE(.BOTH.,#729);
#726=SURFACE_SIDE_STYLE('',(#730));
#727=SURFACE_SIDE_STYLE('',(#731));
#728=SURFACE_SIDE_STYLE('',(#732));
#729=SURFACE_SIDE_STYLE('',(#733));
#730=SURFACE_STYLE_FILL_AREA(#734);
#731=SURFACE_STYLE_FILL_AREA(#735);
#732=SURFACE_STYLE_FILL_AREA(#736);
#733=SURFACE_STYLE_FILL_AREA(#737);
#734=FILL_AREA_STYLE('',(#738));
#735=FILL_AREA_STYLE('',(#739));
#736=FILL_AREA_STYLE('',(#740));
#737=FILL_AREA_STYLE('',(#741));
#738=FILL_AREA_STYLE_COLOUR('',#742);
#739=FILL_AREA_STYLE_COLOUR('',#742);
#740=FILL_AREA_STYLE_COLOUR('',#742);
#741=FILL_AREA_STYLE_COLOUR('',#743);
#742=COLOUR_RGB('',0.615686274509804,0.811764705882353,0.929411764705882);
#743=COLOUR_RGB('',0.647058823529412,0.647058823529412,0.647058823529412);
#744=MANIFOLD_SOLID_BREP('Part 3',#710);
#745=MANIFOLD_SOLID_BREP('Part 2',#711);
#746=MANIFOLD_SOLID_BREP('Part 1',#712);
#747=MANIFOLD_SOLID_BREP('Part 4',#713);
#748=SHAPE_DEFINITION_REPRESENTATION(#1276,#752);
#749=SHAPE_DEFINITION_REPRESENTATION(#1277,#753);
#750=SHAPE_DEFINITION_REPRESENTATION(#1278,#754);
#751=SHAPE_DEFINITION_REPRESENTATION(#1279,#755);
#752=SHAPE_REPRESENTATION('Part 3',(#756),#1256);
#753=SHAPE_REPRESENTATION('Part 2',(#773),#1257);
#754=SHAPE_REPRESENTATION('Part 1',(#797),#1258);
#755=SHAPE_REPRESENTATION('Part 4',(#824),#1259);
#756=AXIS2_PLACEMENT_3D('',#1049,#833,#834);
#757=AXIS2_PLACEMENT_3D('',#1050,#835,#836);
#758=AXIS2_PLACEMENT_3D('',#1051,#837,#838);
#759=AXIS2_PLACEMENT_3D('',#1053,#839,#840);
#760=AXIS2_PLACEMENT_3D('',#1055,#841,#842);
#761=AXIS2_PLACEMENT_3D('',#1056,#843,#844);
#762=AXIS2_PLACEMENT_3D('',#1058,#845,#846);
#763=AXIS2_PLACEMENT_3D('',#1060,#847,#848);
#764=AXIS2_PLACEMENT_3D('',#1061,#849,#850);
#765=AXIS2_PLACEMENT_3D('',#1063,#851,#852);
#766=AXIS2_PLACEMENT_3D('',#1064,#853,#854);
#767=AXIS2_PLACEMENT_3D('',#1065,#855,#856);
#768=AXIS2_PLACEMENT_3D('',#1067,#857,#858);
#769=AXIS2_PLACEMENT_3D('',#1068,#859,#860);
#770=AXIS2_PLACEMENT_3D('',#1070,#861,#862);
#771=AXIS2_PLACEMENT_3D('',#1072,#863,#864);
#772=AXIS2_PLACEMENT_3D('',#1073,#865,#866);
#773=AXIS2_PLACEMENT_3D('',#1074,#867,#868);
#774=AXIS2_PLACEMENT_3D('',#1075,#869,#870);
#775=AXIS2_PLACEMENT_3D('',#1079,#872,#873);
#776=AXIS2_PLACEMENT_3D('',#1083,#875,#876);
#777=AXIS2_PLACEMENT_3D('',#1084,#877,#878);
#778=AXIS2_PLACEMENT_3D('',#1088,#880,#881);
#779=AXIS2_PLACEMENT_3D('',#1092,#883,#884);
#780=AXIS2_PLACEMENT_3D('',#1093,#885,#886);
#781=AXIS2_PLACEMENT_3D('',#1097,#888,#889);
#782=AXIS2_PLACEMENT_3D('',#1101,#891,#892);
#783=AXIS2_PLACEMENT_3D('',#1102,#893,#894);
#784=AXIS2_PLACEMENT_3D('',#1106,#896,#897);
#785=AXIS2_PLACEMENT_3D('',#1110,#899,#900);
#786=AXIS2_PLACEMENT_3D('',#1111,#901,#902);
#787=AXIS2_PLACEMENT_3D('',#1122,#909,#910);
#788=AXIS2_PLACEMENT_3D('',#1126,#914,#915);
#789=AXIS2_PLACEMENT_3D('',#1130,#919,#920);
#790=AXIS2_PLACEMENT_3D('',#1131,#921,#922);
#791=AXIS2_PLACEMENT_3D('',#1132,#923,#924);
#792=AXIS2_PLACEMENT_3D('',#1133,#925,#926);
#793=AXIS2_PLACEMENT_3D('',#1139,#930,#931);
#794=AXIS2_PLACEMENT_3D('',#1143,#934,#935);
#795=AXIS2_PLACEMENT_3D('',#1147,#938,#939);
#796=AXIS2_PLACEMENT_3D('',#1149,#941,#942);
#797=AXIS2_PLACEMENT_3D('',#1150,#943,#944);
#798=AXIS2_PLACEMENT_3D('',#1151,#945,#946);
#799=AXIS2_PLACEMENT_3D('',#1155,#948,#949);
#800=AXIS2_PLACEMENT_3D('',#1159,#951,#952);
#801=AXIS2_PLACEMENT_3D('',#1160,#953,#954);
#802=AXIS2_PLACEMENT_3D('',#1164,#956,#957);
#803=AXIS2_PLACEMENT_3D('',#1168,#959,#960);
#804=AXIS2_PLACEMENT_3D('',#1169,#961,#962);
#805=AXIS2_PLACEMENT_3D('',#1173,#964,#965);
#806=AXIS2_PLACEMENT_3D('',#1177,#967,#968);
#807=AXIS2_PLACEMENT_3D('',#1178,#969,#970);
#808=AXIS2_PLACEMENT_3D('',#1182,#972,#973);
#809=AXIS2_PLACEMENT_3D('',#1186,#975,#976);
#810=AXIS2_PLACEMENT_3D('',#1187,#977,#978);
#811=AXIS2_PLACEMENT_3D('',#1190,#981,#982);
#812=AXIS2_PLACEMENT_3D('',#1193,#985,#986);
#813=AXIS2_PLACEMENT_3D('',#1196,#989,#990);
#814=AXIS2_PLACEMENT_3D('',#1199,#993,#994);
#815=AXIS2_PLACEMENT_3D('',#1200,#995,#996);
#816=AXIS2_PLACEMENT_3D('',#1202,#997,#998);
#817=AXIS2_PLACEMENT_3D('',#1203,#999,#1000);
#818=AXIS2_PLACEMENT_3D('',#1204,#1001,#1002);
#819=AXIS2_PLACEMENT_3D('',#1206,#1003,#1004);
#820=AXIS2_PLACEMENT_3D('',#1207,#1005,#1006);
#821=AXIS2_PLACEMENT_3D('',#1209,#1007,#1008);
#822=AXIS2_PLACEMENT_3D('',#1210,#1009,#1010);
#823=AXIS2_PLACEMENT_3D('',#1212,#1011,#1012);
#824=AXIS2_PLACEMENT_3D('',#1213,#1013,#1014);
#825=AXIS2_PLACEMENT_3D('',#1214,#1015,#1016);
#826=AXIS2_PLACEMENT_3D('',#1223,#1021,#1022);
#827=AXIS2_PLACEMENT_3D('',#1229,#1026,#1027);
#828=AXIS2_PLACEMENT_3D('',#1235,#1031,#1032);
#829=AXIS2_PLACEMENT_3D('',#1241,#1036,#1037);
#830=AXIS2_PLACEMENT_3D('',#1247,#1041,#1042);
#831=AXIS2_PLACEMENT_3D('',#1250,#1045,#1046);
#832=AXIS2_PLACEMENT_3D('',#1251,#1047,#1048);
#833=DIRECTION('',(0.,0.,1.));
#834=DIRECTION('',(1.,0.,0.));
#835=DIRECTION('',(0.,-1.,0.));
#836=DIRECTION('',(0.,0.,-1.));
#837=DIRECTION('',(0.,-1.,0.));
#838=DIRECTION('',(0.,0.,-1.));
#839=DIRECTION('',(0.,-1.,0.));
#840=DIRECTION('',(0.,0.,-1.));
#841=DIRECTION('',(0.,1.,0.));
#842=DIRECTION('',(0.,0.,1.));
#843=DIRECTION('',(0.,-1.,0.));
#844=DIRECTION('',(0.,0.,-1.));
#845=DIRECTION('',(0.,-1.,0.));
#846=DIRECTION('',(0.,0.,-1.));
#847=DIRECTION('',(0.,-1.,0.));
#848=DIRECTION('',(1.,0.,0.));
#849=DIRECTION('',(0.,-1.,0.));
#850=DIRECTION('',(0.,0.,-1.));
#851=DIRECTION('',(0.,-1.,0.));
#852=DIRECTION('',(1.,0.,0.));
#853=DIRECTION('',(0.,1.,0.));
#854=DIRECTION('',(0.,0.,1.));
#855=DIRECTION('',(0.,-1.,0.));
#856=DIRECTION('',(0.,0.,-1.));
#857=DIRECTION('',(0.,1.,0.));
#858=DIRECTION('',(0.,0.,1.));
#859=DIRECTION('',(0.,-1.,0.));
#860=DIRECTION('',(0.,0.,-1.));
#861=DIRECTION('',(0.,-1.,0.));
#862=DIRECTION('',(0.,0.,-1.));
#863=DIRECTION('',(0.,-1.,0.));
#864=DIRECTION('',(1.,0.,0.));
#865=DIRECTION('',(0.,-1.,0.));
#866=DIRECTION('',(1.,0.,0.));
#867=DIRECTION('',(0.,0.,1.));
#868=DIRECTION('',(1.,0.,0.));
#869=DIRECTION('',(0.,-0.241692912160183,-0.9703527895624));
#870=DIRECTION('',(0.,0.9703527895624,-0.241692912160183));
#871=DIRECTION('',(0.,-0.241692912160183,-0.9703527895624));
#872=DIRECTION('',(0.,-0.241692912160183,-0.970352789562399));
#873=DIRECTION('',(0.,0.9703527895624,-0.241692912160183));
#874=DIRECTION('',(0.,-0.241692912160183,-0.9703527895624));
#875=DIRECTION('',(0.,-0.241692912160183,-0.970352789562399));
#876=DIRECTION('',(0.,0.9703527895624,-0.241692912160183));
#877=DIRECTION('',(0.,-0.241692912160183,-0.9703527895624));
#878=DIRECTION('',(0.,0.9703527895624,-0.241692912160183));
#879=DIRECTION('',(0.,0.241692912160183,0.9703527895624));
#880=DIRECTION('',(0.,-0.241692912160183,-0.970352789562399));
#881=DIRECTION('',(0.,0.9703527895624,-0.241692912160183));
#882=DIRECTION('',(0.,0.241692912160183,0.9703527895624));
#883=DIRECTION('',(0.,-0.241692912160183,-0.970352789562399));
#884=DIRECTION('',(0.,0.9703527895624,-0.241692912160183));
#885=DIRECTION('',(0.,0.241692912160183,0.970352789562399));
#886=DIRECTION('',(0.,-0.970352789562399,0.241692912160183));
#887=DIRECTION('',(0.,-0.241692912160183,-0.970352789562399));
#888=DIRECTION('',(0.,-0.241692912160183,-0.970352789562399));
#889=DIRECTION('',(0.,0.9703527895624,-0.241692912160183));
#890=DIRECTION('',(0.,-0.241692912160183,-0.970352789562399));
#891=DIRECTION('',(0.,-0.241692912160183,-0.970352789562399));
#892=DIRECTION('',(0.,0.9703527895624,-0.241692912160183));
#893=DIRECTION('',(0.,0.241692912160183,0.970352789562399));
#894=DIRECTION('',(0.,-0.970352789562399,0.241692912160183));
#895=DIRECTION('',(0.,0.241692912160183,0.970352789562399));
#896=DIRECTION('',(0.,-0.241692912160183,-0.970352789562399));
#897=DIRECTION('',(0.,0.9703527895624,-0.241692912160183));
#898=DIRECTION('',(0.,0.241692912160183,0.970352789562399));
#899=DIRECTION('',(0.,-0.241692912160183,-0.970352789562399));
#900=DIRECTION('',(0.,0.9703527895624,-0.241692912160183));
#901=DIRECTION('',(0.,-0.9703527895624,0.241692912160183));
#902=DIRECTION('',(0.,-0.241692912160183,-0.9703527895624));
#903=DIRECTION('',(1.,0.,0.));
#904=DIRECTION('',(1.,0.,0.));
#905=DIRECTION('',(1.,0.,0.));
#906=DIRECTION('',(0.,-0.241692912160183,-0.9703527895624));
#907=DIRECTION('',(-1.,0.,0.));
#908=DIRECTION('',(0.,-0.241692912160183,-0.9703527895624));
#909=DIRECTION('',(0.,-0.241692912160183,-0.970352789562399));
#910=DIRECTION('',(0.,0.9703527895624,-0.241692912160183));
#911=DIRECTION('',(0.,0.9703527895624,-0.241692912160183));
#912=DIRECTION('',(0.,0.9703527895624,-0.241692912160183));
#913=DIRECTION('',(1.,0.,0.));
#914=DIRECTION('',(0.,-0.241692912160183,-0.970352789562399));
#915=DIRECTION('',(0.,0.9703527895624,-0.241692912160183));
#916=DIRECTION('',(0.,0.9703527895624,-0.241692912160183));
#917=DIRECTION('',(1.,0.,0.));
#918=DIRECTION('',(0.,0.9703527895624,-0.241692912160183));
#919=DIRECTION('',(0.,0.970352789562399,-0.241692912160183));
#920=DIRECTION('',(0.,0.241692912160183,0.970352789562399));
#921=DIRECTION('',(1.,0.,0.));
#922=DIRECTION('',(0.,1.,0.));
#923=DIRECTION('',(1.,0.,0.));
#924=DIRECTION('',(0.,1.,0.));
#925=DIRECTION('',(0.,0.,1.));
#926=DIRECTION('',(1.,0.,0.));
#927=DIRECTION('',(0.,-1.,0.));
#928=DIRECTION('',(0.,-1.,0.));
#929=DIRECTION('',(-1.,0.,0.));
#930=DIRECTION('',(1.,0.,0.));
#931=DIRECTION('',(0.,0.,-1.));
#932=DIRECTION('',(0.,-1.,0.));
#933=DIRECTION('',(0.,0.,1.));
#934=DIRECTION('',(0.,0.,-1.));
#935=DIRECTION('',(-1.,0.,0.));
#936=DIRECTION('',(0.,-1.,0.));
#937=DIRECTION('',(1.,0.,0.));
#938=DIRECTION('',(1.,0.,0.));
#939=DIRECTION('',(0.,0.,-1.));
#940=DIRECTION('',(0.,0.,1.));
#941=DIRECTION('',(0.,-1.,0.));
#942=DIRECTION('',(1.,0.,0.));
#943=DIRECTION('',(0.,0.,1.));
#944=DIRECTION('',(1.,0.,0.));
#945=DIRECTION('',(0.,-1.,0.));
#946=DIRECTION('',(0.,0.,-1.));
#947=DIRECTION('',(0.,1.,0.));
#948=DIRECTION('',(0.,-1.,0.));
#949=DIRECTION('',(0.,0.,-1.));
#950=DIRECTION('',(0.,1.,0.));
#951=DIRECTION('',(0.,-1.,0.));
#952=DIRECTION('',(0.,0.,-1.));
#953=DIRECTION('',(0.,-1.,0.));
#954=DIRECTION('',(0.,0.,-1.));
#955=DIRECTION('',(0.,-1.,0.));
#956=DIRECTION('',(0.,-1.,0.));
#957=DIRECTION('',(0.,0.,-1.));
#958=DIRECTION('',(0.,-1.,0.));
#959=DIRECTION('',(0.,-1.,0.));
#960=DIRECTION('',(0.,0.,-1.));
#961=DIRECTION('',(0.,1.,0.));
#962=DIRECTION('',(0.,0.,1.));
#963=DIRECTION('',(0.,1.,0.));
#964=DIRECTION('',(0.,-1.,0.));
#965=DIRECTION('',(0.,0.,-1.));
#966=DIRECTION('',(0.,1.,0.));
#967=DIRECTION('',(0.,-1.,0.));
#968=DIRECTION('',(0.,0.,-1.));
#969=DIRECTION('',(0.,-1.,0.));
#970=DIRECTION('',(0.,0.,-1.));
#971=DIRECTION('',(0.,1.,0.));
#972=DIRECTION('',(0.,-1.,0.));
#973=DIRECTION('',(0.,0.,-1.));
#974=DIRECTION('',(0.,1.,0.));
#975=DIRECTION('',(0.,-1.,0.));
#976=DIRECTION('',(0.,0.,-1.));
#977=DIRECTION('',(1.,0.,0.));
#978=DIRECTION('',(0.,0.,-1.));
#979=DIRECTION('',(0.,0.,-1.));
#980=DIRECTION('',(0.,0.,-1.));
#981=DIRECTION('',(0.,0.,1.));
#982=DIRECTION('',(1.,0.,0.));
#983=DIRECTION('',(1.,0.,0.));
#984=DIRECTION('',(1.,0.,0.));
#985=DIRECTION('',(1.,0.,0.));
#986=DIRECTION('',(0.,0.,-1.));
#987=DIRECTION('',(0.,0.,-1.));
#988=DIRECTION('',(0.,0.,-1.));
#989=DIRECTION('',(0.,0.,1.));
#990=DIRECTION('',(1.,0.,0.));
#991=DIRECTION('',(1.,0.,0.));
#992=DIRECTION('',(1.,0.,0.));
#993=DIRECTION('',(0.,-1.,0.));
#994=DIRECTION('',(1.,0.,0.));
#995=DIRECTION('',(0.,-1.,0.));
#996=DIRECTION('',(0.,0.,-1.));
#997=DIRECTION('',(0.,-1.,0.));
#998=DIRECTION('',(1.,0.,0.));
#999=DIRECTION('',(0.,1.,0.));
#1000=DIRECTION('',(0.,0.,1.));
#1001=DIRECTION('',(0.,-1.,0.));
#1002=DIRECTION('',(0.,0.,-1.));
#1003=DIRECTION('',(0.,-1.,0.));
#1004=DIRECTION('',(1.,0.,0.));
#1005=DIRECTION('',(0.,-1.,0.));
#1006=DIRECTION('',(0.,0.,-1.));
#1007=DIRECTION('',(0.,-1.,0.));
#1008=DIRECTION('',(1.,0.,0.));
#1009=DIRECTION('',(0.,-1.,0.));
#1010=DIRECTION('',(0.,0.,-1.));
#1011=DIRECTION('',(0.,1.,0.));
#1012=DIRECTION('',(0.,0.,1.));
#1013=DIRECTION('',(0.,0.,1.));
#1014=DIRECTION('',(1.,0.,0.));
#1015=DIRECTION('',(-0.866025403784439,0.,-0.5));
#1016=DIRECTION('',(-0.5,0.,0.866025403784439));
#1017=DIRECTION('',(-0.5,0.,0.866025403784439));
#1018=DIRECTION('',(0.,1.,0.));
#1019=DIRECTION('',(-0.5,0.,0.866025403784439));
#1020=DIRECTION('',(0.,1.,0.));
#1021=DIRECTION('',(0.,0.,-1.));
#1022=DIRECTION('',(-1.,0.,0.));
#1023=DIRECTION('',(-1.,0.,0.));
#1024=DIRECTION('',(0.,1.,0.));
#1025=DIRECTION('',(-1.,0.,0.));
#1026=DIRECTION('',(0.866025403784439,0.,-0.5));
#1027=DIRECTION('',(-0.5,0.,-0.866025403784439));
#1028=DIRECTION('',(-0.5,0.,-0.866025403784439));
#1029=DIRECTION('',(0.,1.,0.));
#1030=DIRECTION('',(-0.5,0.,-0.866025403784439));
#1031=DIRECTION('',(0.866025403784439,0.,0.5));
#1032=DIRECTION('',(0.5,0.,-0.866025403784439));
#1033=DIRECTION('',(0.5,0.,-0.866025403784439));
#1034=DIRECTION('',(0.,1.,0.));
#1035=DIRECTION('',(0.5,0.,-0.866025403784439));
#1036=DIRECTION('',(1.26673426637701E-16,0.,1.));
#1037=DIRECTION('',(1.,0.,-1.26673426637701E-16));
#1038=DIRECTION('',(1.,0.,-1.26673426637701E-16));
#1039=DIRECTION('',(0.,1.,0.));
#1040=DIRECTION('',(1.,0.,-1.26673426637701E-16));
#1041=DIRECTION('',(-0.866025403784439,0.,0.5));
#1042=DIRECTION('',(0.5,0.,0.866025403784439));
#1043=DIRECTION('',(0.5,0.,0.866025403784439));
#1044=DIRECTION('',(0.5,0.,0.866025403784439));
#1045=DIRECTION('',(0.,-1.,0.));
#1046=DIRECTION('',(1.,0.,0.));
#1047=DIRECTION('',(0.,-1.,0.));
#1048=DIRECTION('',(1.,0.,0.));
#1049=CARTESIAN_POINT('',(0.,0.,0.));
#1050=CARTESIAN_POINT('',(-0.1,-0.35,0.0403850768385745));
#1051=CARTESIAN_POINT('',(-0.1,-0.35,0.0403850768385745));
#1052=CARTESIAN_POINT('',(-0.1,-0.35,0.0228850768385745));
#1053=CARTESIAN_POINT('',(-0.1,-0.36,0.0403850768385745));
#1054=CARTESIAN_POINT('',(-0.1,-0.36,0.0128850768385745));
#1055=CARTESIAN_POINT('',(-0.1,-0.375,0.0403850768385745));
#1056=CARTESIAN_POINT('',(-0.1,-0.375,0.0403850768385745));
#1057=CARTESIAN_POINT('',(-0.1,-0.375,0.0278850768385745));
#1058=CARTESIAN_POINT('',(-0.1,-0.35,0.0403850768385745));
#1059=CARTESIAN_POINT('',(-0.1,-0.35,0.0278850768385745));
#1060=CARTESIAN_POINT('',(-0.1,-0.375,0.0403850768385745));
#1061=CARTESIAN_POINT('',(-0.1,-0.375,0.0403850768385745));
#1062=CARTESIAN_POINT('',(-0.1,-0.375,0.0228850768385745));
#1063=CARTESIAN_POINT('',(-0.1,-0.35,0.0403850768385745));
#1064=CARTESIAN_POINT('',(-0.1,-0.385,0.0403850768385745));
#1065=CARTESIAN_POINT('',(-0.1,-0.385,0.0403850768385745));
#1066=CARTESIAN_POINT('',(-0.1,-0.385,0.0228850768385745));
#1067=CARTESIAN_POINT('',(-0.1,-0.385,0.0403850768385745));
#1068=CARTESIAN_POINT('',(-0.1,-0.385,0.0403850768385745));
#1069=CARTESIAN_POINT('',(-0.1,-0.385,0.00538507683857445));
#1070=CARTESIAN_POINT('',(-0.1,-0.36,0.0403850768385745));
#1071=CARTESIAN_POINT('',(-0.1,-0.36,0.00538507683857445));
#1072=CARTESIAN_POINT('',(-0.1,-0.385,0.0403850768385745));
#1073=CARTESIAN_POINT('',(-0.1,-0.36,0.0403850768385745));
#1074=CARTESIAN_POINT('',(0.,0.,0.));
#1075=CARTESIAN_POINT('',(-0.03,0.0606375136637991,-0.0378541044717285));
#1076=CARTESIAN_POINT('',(0.,0.0606375136637991,-0.0378541044717285));
#1077=CARTESIAN_POINT('',(0.,0.0621290870249705,-0.0318657105262311));
#1078=CARTESIAN_POINT('',(0.,0.054878299660165,-0.060976294213103));
#1079=CARTESIAN_POINT('',(-0.03,0.0621290870249705,-0.0318657105262311));
#1080=CARTESIAN_POINT('',(-0.03,0.0330185033380986,-0.0246149231614256));
#1081=CARTESIAN_POINT('',(-0.03,0.0293931096556958,-0.0391702150048615));
#1082=CARTESIAN_POINT('',(-0.03,0.025767715973293,-0.0537255068482975));
#1083=CARTESIAN_POINT('',(-0.03,0.054878299660165,-0.060976294213103));
#1084=CARTESIAN_POINT('',(-0.17,0.0606375136637991,-0.0378541044717285));
#1085=CARTESIAN_POINT('',(-0.2,0.0606375136637991,-0.0378541044717285));
#1086=CARTESIAN_POINT('',(-0.2,0.054878299660165,-0.060976294213103));
#1087=CARTESIAN_POINT('',(-0.2,0.0621290870249705,-0.0318657105262311));
#1088=CARTESIAN_POINT('',(-0.17,0.054878299660165,-0.060976294213103));
#1089=CARTESIAN_POINT('',(-0.17,0.025767715973293,-0.0537255068482975));
#1090=CARTESIAN_POINT('',(-0.17,0.0315269299769271,-0.030603317106923));
#1091=CARTESIAN_POINT('',(-0.17,0.0330185033380986,-0.0246149231614256));
#1092=CARTESIAN_POINT('',(-0.17,0.0621290870249705,-0.0318657105262311));
#1093=CARTESIAN_POINT('',(-0.15,0.177079848411287,-0.0668572539309504));
#1094=CARTESIAN_POINT('',(-0.2,0.177079848411287,-0.0668572539309504));
#1095=CARTESIAN_POINT('',(-0.2,0.178571421772459,-0.060868859985453));
#1096=CARTESIAN_POINT('',(-0.2,0.171320634407653,-0.0899794436723249));
#1097=CARTESIAN_POINT('',(-0.15,0.178571421772459,-0.060868859985453));
#1098=CARTESIAN_POINT('',(-0.15,0.227089061250579,-0.0729535055934621));
#1099=CARTESIAN_POINT('',(-0.15,0.225597487889407,-0.0789418995389595));
#1100=CARTESIAN_POINT('',(-0.15,0.219838273885773,-0.102064089280334));
#1101=CARTESIAN_POINT('',(-0.15,0.171320634407653,-0.0899794436723249));
#1102=CARTESIAN_POINT('',(-0.05,0.177079848411287,-0.0668572539309504));
#1103=CARTESIAN_POINT('',(0.,0.177079848411287,-0.0668572539309504));
#1104=CARTESIAN_POINT('',(0.,0.171320634407653,-0.0899794436723249));
#1105=CARTESIAN_POINT('',(0.,0.178571421772459,-0.060868859985453));
#1106=CARTESIAN_POINT('',(-0.05,0.171320634407653,-0.0899794436723249));
#1107=CARTESIAN_POINT('',(-0.05,0.219838273885773,-0.102064089280334));
#1108=CARTESIAN_POINT('',(-0.05,0.223463667568176,-0.0875087974368981));
#1109=CARTESIAN_POINT('',(-0.05,0.227089061250579,-0.0729535055934621));
#1110=CARTESIAN_POINT('',(-0.05,0.178571421772459,-0.060868859985453));
#1111=CARTESIAN_POINT('',(-0.2,0.0293931096556958,-0.0391702150048615));
#1112=CARTESIAN_POINT('',(-0.2,0.0330185033380986,-0.0246149231614256));
#1113=CARTESIAN_POINT('',(-0.2,0.025767715973293,-0.0537255068482975));
#1114=CARTESIAN_POINT('',(-0.1,0.0259659038562909,-0.0529298187852693));
#1115=CARTESIAN_POINT('',(-0.125,0.0259659038562909,-0.0529298187852693));
#1116=CARTESIAN_POINT('',(-0.075,0.0259659038562908,-0.0529298187852693));
#1117=CARTESIAN_POINT('',(-0.125,0.0304947330084221,-0.0347473989453797));
#1118=CARTESIAN_POINT('',(-0.125,0.0284566774672905,-0.0429298187852692));
#1119=CARTESIAN_POINT('',(-0.1,0.0284566774672905,-0.0429298187852692));
#1120=CARTESIAN_POINT('',(-0.075,0.0284566774672905,-0.0429298187852692));
#1121=CARTESIAN_POINT('',(-0.075,0.0291526409388981,-0.0401356528741876));
#1122=CARTESIAN_POINT('',(-0.2,0.130053782294338,-0.0487842143774438));
#1123=CARTESIAN_POINT('',(-0.2,0.130053782294338,-0.0487842143774438));
#1124=CARTESIAN_POINT('',(0.,0.130053782294338,-0.0487842143774438));
#1125=CARTESIAN_POINT('',(-0.2,0.227089061250579,-0.0729535055934621));
#1126=CARTESIAN_POINT('',(-0.2,0.122802994929533,-0.0778947980643158));
#1127=CARTESIAN_POINT('',(-0.2,0.122802994929533,-0.0778947980643158));
#1128=CARTESIAN_POINT('',(-0.2,0.219838273885773,-0.102064089280334));
#1129=CARTESIAN_POINT('',(0.,0.122802994929533,-0.0778947980643158));
#1130=CARTESIAN_POINT('',(-0.2,0.223463667568176,-0.0875087974368981));
#1131=CARTESIAN_POINT('',(-0.2,0.113544530625289,-0.051032044640167));
#1132=CARTESIAN_POINT('',(0.,0.113544530625289,-0.051032044640167));
#1133=CARTESIAN_POINT('',(-0.1,0.07,-0.0529298187852693));
#1134=CARTESIAN_POINT('',(-0.125,0.07,-0.0529298187852693));
#1135=CARTESIAN_POINT('',(-0.125,0.,-0.0529298187852693));
#1136=CARTESIAN_POINT('',(-0.075,0.07,-0.0529298187852693));
#1137=CARTESIAN_POINT('',(-0.075,0.,-0.0529298187852693));
#1138=CARTESIAN_POINT('',(-0.1,0.,-0.0529298187852693));
#1139=CARTESIAN_POINT('',(-0.075,0.07,-0.0503098052770293));
#1140=CARTESIAN_POINT('',(-0.075,0.07,-0.0429298187852692));
#1141=CARTESIAN_POINT('',(-0.075,0.,-0.0429298187852692));
#1142=CARTESIAN_POINT('',(-0.075,0.,-0.0503098052770293));
#1143=CARTESIAN_POINT('',(-0.1,0.07,-0.0429298187852692));
#1144=CARTESIAN_POINT('',(-0.125,0.07,-0.0429298187852692));
#1145=CARTESIAN_POINT('',(-0.125,0.,-0.0429298187852692));
#1146=CARTESIAN_POINT('',(-0.1,0.,-0.0429298187852692));
#1147=CARTESIAN_POINT('',(-0.125,0.07,-0.0445872665971911));
#1148=CARTESIAN_POINT('',(-0.125,0.,-0.0445872665971911));
#1149=CARTESIAN_POINT('',(-0.1,0.,0.0403850768385745));
#1150=CARTESIAN_POINT('',(0.,0.,0.));
#1151=CARTESIAN_POINT('',(-0.035,-0.025,-0.0246149231614256));
#1152=CARTESIAN_POINT('',(0.,-0.025,-0.0246149231614256));
#1153=CARTESIAN_POINT('',(0.,-0.025,-0.0246149231614256));
#1154=CARTESIAN_POINT('',(0.,0.,-0.0246149231614256));
#1155=CARTESIAN_POINT('',(-0.035,-0.025,-0.0246149231614256));
#1156=CARTESIAN_POINT('',(-0.035,-0.025,-0.0596149231614256));
#1157=CARTESIAN_POINT('',(-0.035,-0.025,-0.0596149231614256));
#1158=CARTESIAN_POINT('',(-0.035,0.,-0.0596149231614256));
#1159=CARTESIAN_POINT('',(-0.035,0.,-0.0246149231614256));
#1160=CARTESIAN_POINT('',(-0.165,-0.025,-0.0246149231614256));
#1161=CARTESIAN_POINT('',(-0.2,-0.025,-0.0246149231614256));
#1162=CARTESIAN_POINT('',(-0.2,0.,-0.0246149231614256));
#1163=CARTESIAN_POINT('',(-0.2,-0.025,-0.0246149231614256));
#1164=CARTESIAN_POINT('',(-0.165,0.,-0.0246149231614256));
#1165=CARTESIAN_POINT('',(-0.165,0.,-0.0596149231614256));
#1166=CARTESIAN_POINT('',(-0.165,-0.025,-0.0596149231614256));
#1167=CARTESIAN_POINT('',(-0.165,-0.025,-0.0596149231614256));
#1168=CARTESIAN_POINT('',(-0.165,-0.025,-0.0246149231614256));
#1169=CARTESIAN_POINT('',(-0.07,-0.025,0.0703850768385744));
#1170=CARTESIAN_POINT('',(-0.07,-0.025,0.140385076838574));
#1171=CARTESIAN_POINT('',(-0.07,-0.025,0.140385076838574));
#1172=CARTESIAN_POINT('',(-0.07,0.,0.140385076838574));
#1173=CARTESIAN_POINT('',(-0.07,-0.025,0.0703850768385744));
#1174=CARTESIAN_POINT('',(0.,-0.025,0.0703850768385744));
#1175=CARTESIAN_POINT('',(0.,-0.025,0.0703850768385744));
#1176=CARTESIAN_POINT('',(0.,0.,0.0703850768385744));
#1177=CARTESIAN_POINT('',(-0.07,0.,0.0703850768385744));
#1178=CARTESIAN_POINT('',(-0.13,-0.025,0.0703850768385744));
#1179=CARTESIAN_POINT('',(-0.2,-0.025,0.0703850768385744));
#1180=CARTESIAN_POINT('',(-0.2,-0.025,0.0703850768385744));
#1181=CARTESIAN_POINT('',(-0.2,0.,0.0703850768385744));
#1182=CARTESIAN_POINT('',(-0.13,-0.025,0.0703850768385744));
#1183=CARTESIAN_POINT('',(-0.13,-0.025,0.140385076838574));
#1184=CARTESIAN_POINT('',(-0.13,-0.025,0.140385076838574));
#1185=CARTESIAN_POINT('',(-0.13,0.,0.140385076838574));
#1186=CARTESIAN_POINT('',(-0.13,0.,0.0703850768385744));
#1187=CARTESIAN_POINT('',(-0.2,-0.025,0.0903850768385744));
#1188=CARTESIAN_POINT('',(-0.2,0.,0.0903850768385744));
#1189=CARTESIAN_POINT('',(-0.2,-0.025,0.0903850768385744));
#1190=CARTESIAN_POINT('',(-0.1625,-0.025,-0.0596149231614256));
#1191=CARTESIAN_POINT('',(-0.1625,-0.025,-0.0596149231614256));
#1192=CARTESIAN_POINT('',(-0.1625,0.,-0.0596149231614256));
#1193=CARTESIAN_POINT('',(0.,-0.025,-0.0536523574651074));
#1194=CARTESIAN_POINT('',(0.,-0.025,-0.0536523574651074));
#1195=CARTESIAN_POINT('',(0.,0.,-0.0536523574651074));
#1196=CARTESIAN_POINT('',(-0.15,-0.025,0.140385076838574));
#1197=CARTESIAN_POINT('',(-0.15,-0.025,0.140385076838574));
#1198=CARTESIAN_POINT('',(-0.15,0.,0.140385076838574));
#1199=CARTESIAN_POINT('',(-0.1,-0.025,0.0403850768385745));
#1200=CARTESIAN_POINT('',(-0.1,-0.025,0.0403850768385745));
#1201=CARTESIAN_POINT('',(-0.1,-0.025,0.0228850768385745));
#1202=CARTESIAN_POINT('',(-0.1,0.,0.0403850768385745));
#1203=CARTESIAN_POINT('',(-0.1,-0.06,0.0403850768385745));
#1204=CARTESIAN_POINT('',(-0.1,-0.06,0.0403850768385745));
#1205=CARTESIAN_POINT('',(-0.1,-0.06,0.0228850768385745));
#1206=CARTESIAN_POINT('',(-0.1,-0.06,0.0403850768385745));
#1207=CARTESIAN_POINT('',(-0.1,-0.06,0.0403850768385745));
#1208=CARTESIAN_POINT('',(-0.1,-0.06,0.0278850768385745));
#1209=CARTESIAN_POINT('',(-0.1,-0.35,0.0403850768385745));
#1210=CARTESIAN_POINT('',(-0.1,-0.35,0.0403850768385745));
#1211=CARTESIAN_POINT('',(-0.1,-0.35,0.0278850768385745));
#1212=CARTESIAN_POINT('',(-0.1,-0.35,0.0403850768385745));
#1213=CARTESIAN_POINT('',(0.,0.,0.));
#1214=CARTESIAN_POINT('',(-0.0178332730697355,-0.41,0.0878240587501931));
#1215=CARTESIAN_POINT('',(-0.0178332730697355,-0.385,0.0878240587501931));
#1216=CARTESIAN_POINT('',(0.0095556359070194,-0.385,0.0403850768385745));
#1217=CARTESIAN_POINT('',(-0.0452221820464903,-0.385,0.135263040661812));
#1218=CARTESIAN_POINT('',(-0.0452221820464903,-0.41,0.135263040661812));
#1219=CARTESIAN_POINT('',(-0.0452221820464903,-0.41,0.135263040661812));
#1220=CARTESIAN_POINT('',(-0.0178332730697355,-0.41,0.0878240587501931));
#1221=CARTESIAN_POINT('',(0.0095556359070194,-0.41,0.0403850768385745));
#1222=CARTESIAN_POINT('',(0.0095556359070194,-0.41,0.0403850768385745));
#1223=CARTESIAN_POINT('',(-0.1,-0.41,0.135263040661812));
#1224=CARTESIAN_POINT('',(-0.1,-0.385,0.135263040661812));
#1225=CARTESIAN_POINT('',(-0.15477781795351,-0.385,0.135263040661812));
#1226=CARTESIAN_POINT('',(-0.15477781795351,-0.41,0.135263040661812));
#1227=CARTESIAN_POINT('',(-0.15477781795351,-0.41,0.135263040661812));
#1228=CARTESIAN_POINT('',(-0.1,-0.41,0.135263040661812));
#1229=CARTESIAN_POINT('',(-0.182166726930265,-0.41,0.0878240587501931));
#1230=CARTESIAN_POINT('',(-0.182166726930265,-0.385,0.0878240587501931));
#1231=CARTESIAN_POINT('',(-0.20955563590702,-0.385,0.0403850768385745));
#1232=CARTESIAN_POINT('',(-0.20955563590702,-0.41,0.0403850768385745));
#1233=CARTESIAN_POINT('',(-0.20955563590702,-0.41,0.0403850768385745));
#1234=CARTESIAN_POINT('',(-0.182166726930265,-0.41,0.0878240587501931));
#1235=CARTESIAN_POINT('',(-0.182166726930265,-0.41,-0.00705390507304426));
#1236=CARTESIAN_POINT('',(-0.182166726930265,-0.385,-0.00705390507304426));
#1237=CARTESIAN_POINT('',(-0.15477781795351,-0.385,-0.054492886984663));
#1238=CARTESIAN_POINT('',(-0.15477781795351,-0.41,-0.054492886984663));
#1239=CARTESIAN_POINT('',(-0.15477781795351,-0.41,-0.054492886984663));
#1240=CARTESIAN_POINT('',(-0.182166726930265,-0.41,-0.00705390507304426));
#1241=CARTESIAN_POINT('',(-0.1,-0.41,-0.054492886984663));
#1242=CARTESIAN_POINT('',(-0.1,-0.385,-0.054492886984663));
#1243=CARTESIAN_POINT('',(-0.0452221820464903,-0.385,-0.054492886984663));
#1244=CARTESIAN_POINT('',(-0.0452221820464903,-0.41,-0.054492886984663));
#1245=CARTESIAN_POINT('',(-0.0452221820464903,-0.41,-0.054492886984663));
#1246=CARTESIAN_POINT('',(-0.1,-0.41,-0.054492886984663));
#1247=CARTESIAN_POINT('',(-0.0178332730697355,-0.41,-0.00705390507304432));
#1248=CARTESIAN_POINT('',(-0.0178332730697355,-0.385,-0.00705390507304432));
#1249=CARTESIAN_POINT('',(-0.0178332730697355,-0.41,-0.00705390507304432));
#1250=CARTESIAN_POINT('',(-0.1,-0.41,0.0403850768385745));
#1251=CARTESIAN_POINT('',(-0.1,-0.385,0.0403850768385745));
#1252=MECHANICAL_DESIGN_GEOMETRIC_PRESENTATION_REPRESENTATION('',(#714),
#1256);
#1253=MECHANICAL_DESIGN_GEOMETRIC_PRESENTATION_REPRESENTATION('',(#715),
#1257);
#1254=MECHANICAL_DESIGN_GEOMETRIC_PRESENTATION_REPRESENTATION('',(#716),
#1258);
#1255=MECHANICAL_DESIGN_GEOMETRIC_PRESENTATION_REPRESENTATION('',(#717),
#1259);
#1256=(
GEOMETRIC_REPRESENTATION_CONTEXT(3)
GLOBAL_UNCERTAINTY_ASSIGNED_CONTEXT((#1260))
GLOBAL_UNIT_ASSIGNED_CONTEXT((#1272,#1268,#1264))
REPRESENTATION_CONTEXT('Part 3','TOP_LEVEL_ASSEMBLY_PART')
);
#1257=(
GEOMETRIC_REPRESENTATION_CONTEXT(3)
GLOBAL_UNCERTAINTY_ASSIGNED_CONTEXT((#1261))
GLOBAL_UNIT_ASSIGNED_CONTEXT((#1273,#1269,#1265))
REPRESENTATION_CONTEXT('Part 2','TOP_LEVEL_ASSEMBLY_PART')
);
#1258=(
GEOMETRIC_REPRESENTATION_CONTEXT(3)
GLOBAL_UNCERTAINTY_ASSIGNED_CONTEXT((#1262))
GLOBAL_UNIT_ASSIGNED_CONTEXT((#1274,#1270,#1266))
REPRESENTATION_CONTEXT('Part 1','TOP_LEVEL_ASSEMBLY_PART')
);
#1259=(
GEOMETRIC_REPRESENTATION_CONTEXT(3)
GLOBAL_UNCERTAINTY_ASSIGNED_CONTEXT((#1263))
GLOBAL_UNIT_ASSIGNED_CONTEXT((#1275,#1271,#1267))
REPRESENTATION_CONTEXT('Part 4','TOP_LEVEL_ASSEMBLY_PART')
);
#1260=UNCERTAINTY_MEASURE_WITH_UNIT(LENGTH_MEASURE(1.E-8),#1272,
'DISTANCE_ACCURACY_VALUE','Maximum Tolerance applied to model');
#1261=UNCERTAINTY_MEASURE_WITH_UNIT(LENGTH_MEASURE(1.E-8),#1273,
'DISTANCE_ACCURACY_VALUE','Maximum Tolerance applied to model');
#1262=UNCERTAINTY_MEASURE_WITH_UNIT(LENGTH_MEASURE(1.E-8),#1274,
'DISTANCE_ACCURACY_VALUE','Maximum Tolerance applied to model');
#1263=UNCERTAINTY_MEASURE_WITH_UNIT(LENGTH_MEASURE(1.E-8),#1275,
'DISTANCE_ACCURACY_VALUE','Maximum Tolerance applied to model');
#1264=(
NAMED_UNIT(*)
SI_UNIT($,.STERADIAN.)
SOLID_ANGLE_UNIT()
);
#1265=(
NAMED_UNIT(*)
SI_UNIT($,.STERADIAN.)
SOLID_ANGLE_UNIT()
);
#1266=(
NAMED_UNIT(*)
SI_UNIT($,.STERADIAN.)
SOLID_ANGLE_UNIT()
);
#1267=(
NAMED_UNIT(*)
SI_UNIT($,.STERADIAN.)
SOLID_ANGLE_UNIT()
);
#1268=(
NAMED_UNIT(*)
PLANE_ANGLE_UNIT()
SI_UNIT($,.RADIAN.)
);
#1269=(
NAMED_UNIT(*)
PLANE_ANGLE_UNIT()
SI_UNIT($,.RADIAN.)
);
#1270=(
NAMED_UNIT(*)
PLANE_ANGLE_UNIT()
SI_UNIT($,.RADIAN.)
);
#1271=(
NAMED_UNIT(*)
PLANE_ANGLE_UNIT()
SI_UNIT($,.RADIAN.)
);
#1272=(
LENGTH_UNIT()
NAMED_UNIT(*)
SI_UNIT($,.METRE.)
);
#1273=(
LENGTH_UNIT()
NAMED_UNIT(*)
SI_UNIT($,.METRE.)
);
#1274=(
LENGTH_UNIT()
NAMED_UNIT(*)
SI_UNIT($,.METRE.)
);
#1275=(
LENGTH_UNIT()
NAMED_UNIT(*)
SI_UNIT($,.METRE.)
);
#1276=PRODUCT_DEFINITION_SHAPE('','',#1280);
#1277=PRODUCT_DEFINITION_SHAPE('','',#1281);
#1278=PRODUCT_DEFINITION_SHAPE('','',#1282);
#1279=PRODUCT_DEFINITION_SHAPE('','',#1283);
#1280=PRODUCT_DEFINITION('','',#1288,#1284);
#1281=PRODUCT_DEFINITION('','',#1289,#1285);
#1282=PRODUCT_DEFINITION('','',#1290,#1286);
#1283=PRODUCT_DEFINITION('','',#1291,#1287);
#1284=PRODUCT_DEFINITION_CONTEXT('',#1312,'design');
#1285=PRODUCT_DEFINITION_CONTEXT('',#1313,'design');
#1286=PRODUCT_DEFINITION_CONTEXT('',#1314,'design');
#1287=PRODUCT_DEFINITION_CONTEXT('',#1315,'design');
#1288=PRODUCT_DEFINITION_FORMATION_WITH_SPECIFIED_SOURCE('','',#1296,
 .NOT_KNOWN.);
#1289=PRODUCT_DEFINITION_FORMATION_WITH_SPECIFIED_SOURCE('','',#1297,
 .NOT_KNOWN.);
#1290=PRODUCT_DEFINITION_FORMATION_WITH_SPECIFIED_SOURCE('','',#1298,
 .NOT_KNOWN.);
#1291=PRODUCT_DEFINITION_FORMATION_WITH_SPECIFIED_SOURCE('','',#1299,
 .NOT_KNOWN.);
#1292=PRODUCT_RELATED_PRODUCT_CATEGORY('','',(#1296));
#1293=PRODUCT_RELATED_PRODUCT_CATEGORY('','',(#1297));
#1294=PRODUCT_RELATED_PRODUCT_CATEGORY('','',(#1298));
#1295=PRODUCT_RELATED_PRODUCT_CATEGORY('','',(#1299));
#1296=PRODUCT('Part 3','Part 3','Part 3',(#1304));
#1297=PRODUCT('Part 2','Part 2','Part 2',(#1305));
#1298=PRODUCT('Part 1','Part 1','Part 1',(#1306));
#1299=PRODUCT('Part 4','Part 4','Part 4',(#1307));
#1300=PRODUCT_CATEGORY('','');
#1301=PRODUCT_CATEGORY('','');
#1302=PRODUCT_CATEGORY('','');
#1303=PRODUCT_CATEGORY('','');
#1304=PRODUCT_CONTEXT('',#1312,'mechanical');
#1305=PRODUCT_CONTEXT('',#1313,'mechanical');
#1306=PRODUCT_CONTEXT('',#1314,'mechanical');
#1307=PRODUCT_CONTEXT('',#1315,'mechanical');
#1308=APPLICATION_PROTOCOL_DEFINITION('international standard',
'ap242_managed_model_based_3d_engineering',2020,#1312);
#1309=APPLICATION_PROTOCOL_DEFINITION('international standard',
'ap242_managed_model_based_3d_engineering',2020,#1313);
#1310=APPLICATION_PROTOCOL_DEFINITION('international standard',
'ap242_managed_model_based_3d_engineering',2020,#1314);
#1311=APPLICATION_PROTOCOL_DEFINITION('international standard',
'ap242_managed_model_based_3d_engineering',2020,#1315);
#1312=APPLICATION_CONTEXT('managed model based 3d engineering');
#1313=APPLICATION_CONTEXT('managed model based 3d engineering');
#1314=APPLICATION_CONTEXT('managed model based 3d engineering');
#1315=APPLICATION_CONTEXT('managed model based 3d engineering');
ENDSEC;
END-ISO-10303-21;
