ISO-10303-21;
HEADER;
/* Generated by software containing ST-Developer
 * from STEP Tools, Inc. (www.steptools.com) 
 */
/* OPTION: using custom renumber hook */

FILE_DESCRIPTION(
/* description */ ('STEP AP242 Edition 2',
'CAx-IF Rec.Pracs.---Representation and Presentation of Product Manufa
cturing Information (PMI)---4.0---2014-10-13',
'CAx-IF Rec.Pracs.---3D Tessellated Geometry---0.4---2014-09-14','2;1',
'CAx-IF Rec.Pracs.---User Defined Attributes---1.5---2016-08-15'),
/* implementation_level */ '2;1');

FILE_NAME(
/* name */ 'Part Studio 1',
/* time_stamp */ '2026-09-03T18:23:00Z',
/* author */ (''),
/* organization */ (''),
/* preprocessor_version */ 'ST-DEVELOPER v20',
/* originating_system */ 'ONSHAPE BY PTC INC, 1.220',
/* authorisation */ '  ');

FILE_SCHEMA (('AP242_MANAGED_MODEL_BASED_3D_ENGINEERING_MIM_LF { 1 0 10303 442 3 1 4 }'));
ENDSEC;

DATA;
#10=ADVANCED_BREP_SHAPE_REPRESENTATION('',(#18),#539);
#11=CIRCLE('',#352,0.055);
#12=CIRCLE('',#353,0.055);
#13=CIRCLE('',#358,0.003);
#14=CIRCLE('',#360,0.003);
#15=CYLINDRICAL_SURFACE('',#351,0.055);
#16=CYLINDRICAL_SURFACE('',#359,0.003);
#17=CLOSED_SHELL('',(#291,#292,#293,#294,#295,#296,#297,#298,#299,#300,
#301,#302,#303,#304));
#18=MANIFOLD_SOLID_BREP('Part 1',#17);
#19=SHAPE_REPRESENTATION_RELATIONSHIP('','',#335,#22);
#20=SHAPE_REPRESENTATION_RELATIONSHIP('','',#336,#23);
#21=SHAPE_REPRESENTATION_RELATIONSHIP('','',#337,#10);
#22=MANIFOLD_SURFACE_SHAPE_REPRESENTATION('',(#330),#537);
#23=MANIFOLD_SURFACE_SHAPE_REPRESENTATION('',(#331),#538);
#24=ORIENTED_EDGE('',*,*,#92,.F.);
#25=ORIENTED_EDGE('',*,*,#93,.F.);
#26=ORIENTED_EDGE('',*,*,#94,.T.);
#27=ORIENTED_EDGE('',*,*,#95,.T.);
#28=ORIENTED_EDGE('',*,*,#96,.F.);
#29=ORIENTED_EDGE('',*,*,#97,.F.);
#30=ORIENTED_EDGE('',*,*,#98,.T.);
#31=ORIENTED_EDGE('',*,*,#93,.T.);
#32=ORIENTED_EDGE('',*,*,#99,.F.);
#33=ORIENTED_EDGE('',*,*,#100,.F.);
#34=ORIENTED_EDGE('',*,*,#101,.T.);
#35=ORIENTED_EDGE('',*,*,#102,.T.);
#36=ORIENTED_EDGE('',*,*,#103,.T.);
#37=ORIENTED_EDGE('',*,*,#104,.F.);
#38=ORIENTED_EDGE('',*,*,#105,.F.);
#39=ORIENTED_EDGE('',*,*,#106,.T.);
#40=ORIENTED_EDGE('',*,*,#107,.T.);
#41=ORIENTED_EDGE('',*,*,#108,.F.);
#42=ORIENTED_EDGE('',*,*,#109,.F.);
#43=ORIENTED_EDGE('',*,*,#104,.T.);
#44=ORIENTED_EDGE('',*,*,#110,.T.);
#45=ORIENTED_EDGE('',*,*,#111,.F.);
#46=ORIENTED_EDGE('',*,*,#112,.F.);
#47=ORIENTED_EDGE('',*,*,#108,.T.);
#48=ORIENTED_EDGE('',*,*,#113,.T.);
#49=ORIENTED_EDGE('',*,*,#114,.F.);
#50=ORIENTED_EDGE('',*,*,#115,.F.);
#51=ORIENTED_EDGE('',*,*,#111,.T.);
#52=ORIENTED_EDGE('',*,*,#116,.T.);
#53=ORIENTED_EDGE('',*,*,#117,.F.);
#54=ORIENTED_EDGE('',*,*,#118,.F.);
#55=ORIENTED_EDGE('',*,*,#114,.T.);
#56=ORIENTED_EDGE('',*,*,#119,.T.);
#57=ORIENTED_EDGE('',*,*,#120,.F.);
#58=ORIENTED_EDGE('',*,*,#121,.F.);
#59=ORIENTED_EDGE('',*,*,#117,.T.);
#60=ORIENTED_EDGE('',*,*,#122,.T.);
#61=ORIENTED_EDGE('',*,*,#123,.F.);
#62=ORIENTED_EDGE('',*,*,#124,.F.);
#63=ORIENTED_EDGE('',*,*,#120,.T.);
#64=ORIENTED_EDGE('',*,*,#125,.F.);
#65=ORIENTED_EDGE('',*,*,#126,.T.);
#66=ORIENTED_EDGE('',*,*,#127,.T.);
#67=ORIENTED_EDGE('',*,*,#106,.F.);
#68=ORIENTED_EDGE('',*,*,#128,.F.);
#69=ORIENTED_EDGE('',*,*,#123,.T.);
#70=ORIENTED_EDGE('',*,*,#126,.F.);
#71=ORIENTED_EDGE('',*,*,#105,.T.);
#72=ORIENTED_EDGE('',*,*,#109,.T.);
#73=ORIENTED_EDGE('',*,*,#112,.T.);
#74=ORIENTED_EDGE('',*,*,#115,.T.);
#75=ORIENTED_EDGE('',*,*,#118,.T.);
#76=ORIENTED_EDGE('',*,*,#121,.T.);
#77=ORIENTED_EDGE('',*,*,#124,.T.);
#78=ORIENTED_EDGE('',*,*,#128,.T.);
#79=ORIENTED_EDGE('',*,*,#103,.F.);
#80=ORIENTED_EDGE('',*,*,#127,.F.);
#81=ORIENTED_EDGE('',*,*,#122,.F.);
#82=ORIENTED_EDGE('',*,*,#119,.F.);
#83=ORIENTED_EDGE('',*,*,#116,.F.);
#84=ORIENTED_EDGE('',*,*,#113,.F.);
#85=ORIENTED_EDGE('',*,*,#110,.F.);
#86=ORIENTED_EDGE('',*,*,#107,.F.);
#87=ORIENTED_EDGE('',*,*,#129,.F.);
#88=ORIENTED_EDGE('',*,*,#125,.T.);
#89=ORIENTED_EDGE('',*,*,#130,.F.);
#90=ORIENTED_EDGE('',*,*,#129,.T.);
#91=ORIENTED_EDGE('',*,*,#130,.T.);
#92=EDGE_CURVE('',#131,#132,#161,.T.);
#93=EDGE_CURVE('',#133,#131,#162,.T.);
#94=EDGE_CURVE('',#133,#134,#163,.T.);
#95=EDGE_CURVE('',#134,#132,#164,.T.);
#96=EDGE_CURVE('',#135,#131,#165,.F.);
#97=EDGE_CURVE('',#136,#135,#166,.T.);
#98=EDGE_CURVE('',#136,#133,#167,.F.);
#99=EDGE_CURVE('',#137,#138,#168,.T.);
#100=EDGE_CURVE('',#139,#137,#169,.T.);
#101=EDGE_CURVE('',#139,#140,#170,.T.);
#102=EDGE_CURVE('',#140,#138,#171,.T.);
#103=EDGE_CURVE('',#141,#142,#172,.T.);
#104=EDGE_CURVE('',#143,#142,#173,.T.);
#105=EDGE_CURVE('',#144,#143,#174,.T.);
#106=EDGE_CURVE('',#144,#141,#175,.T.);
#107=EDGE_CURVE('',#142,#145,#176,.T.);
#108=EDGE_CURVE('',#146,#145,#177,.T.);
#109=EDGE_CURVE('',#143,#146,#178,.T.);
#110=EDGE_CURVE('',#145,#147,#179,.T.);
#111=EDGE_CURVE('',#148,#147,#180,.T.);
#112=EDGE_CURVE('',#146,#148,#181,.T.);
#113=EDGE_CURVE('',#147,#149,#182,.T.);
#114=EDGE_CURVE('',#150,#149,#183,.T.);
#115=EDGE_CURVE('',#148,#150,#184,.T.);
#116=EDGE_CURVE('',#149,#151,#185,.T.);
#117=EDGE_CURVE('',#152,#151,#186,.T.);
#118=EDGE_CURVE('',#150,#152,#187,.T.);
#119=EDGE_CURVE('',#151,#153,#188,.T.);
#120=EDGE_CURVE('',#154,#153,#189,.T.);
#121=EDGE_CURVE('',#152,#154,#190,.T.);
#122=EDGE_CURVE('',#153,#155,#191,.T.);
#123=EDGE_CURVE('',#156,#155,#192,.T.);
#124=EDGE_CURVE('',#154,#156,#193,.T.);
#125=EDGE_CURVE('',#157,#157,#11,.T.);
#126=EDGE_CURVE('',#158,#158,#12,.T.);
#127=EDGE_CURVE('',#155,#141,#194,.T.);
#128=EDGE_CURVE('',#156,#144,#195,.T.);
#129=EDGE_CURVE('',#159,#159,#13,.T.);
#130=EDGE_CURVE('',#160,#160,#14,.T.);
#131=VERTEX_POINT('',#448);
#132=VERTEX_POINT('',#449);
#133=VERTEX_POINT('',#451);
#134=VERTEX_POINT('',#453);
#135=VERTEX_POINT('',#457);
#136=VERTEX_POINT('',#459);
#137=VERTEX_POINT('',#464);
#138=VERTEX_POINT('',#465);
#139=VERTEX_POINT('',#467);
#140=VERTEX_POINT('',#469);
#141=VERTEX_POINT('',#474);
#142=VERTEX_POINT('',#475);
#143=VERTEX_POINT('',#477);
#144=VERTEX_POINT('',#479);
#145=VERTEX_POINT('',#483);
#146=VERTEX_POINT('',#485);
#147=VERTEX_POINT('',#489);
#148=VERTEX_POINT('',#491);
#149=VERTEX_POINT('',#495);
#150=VERTEX_POINT('',#497);
#151=VERTEX_POINT('',#501);
#152=VERTEX_POINT('',#503);
#153=VERTEX_POINT('',#507);
#154=VERTEX_POINT('',#509);
#155=VERTEX_POINT('',#513);
#156=VERTEX_POINT('',#515);
#157=VERTEX_POINT('',#519);
#158=VERTEX_POINT('',#521);
#159=VERTEX_POINT('',#529);
#160=VERTEX_POINT('',#532);
#161=LINE('',#447,#196);
#162=LINE('',#450,#197);
#163=LINE('',#452,#198);
#164=LINE('',#454,#199);
#165=LINE('',#456,#200);
#166=LINE('',#458,#201);
#167=LINE('',#460,#202);
#168=LINE('',#463,#203);
#169=LINE('',#466,#204);
#170=LINE('',#468,#205);
#171=LINE('',#470,#206);
#172=LINE('',#473,#207);
#173=LINE('',#476,#208);
#174=LINE('',#478,#209);
#175=LINE('',#480,#210);
#176=LINE('',#482,#211);
#177=LINE('',#484,#212);
#178=LINE('',#486,#213);
#179=LINE('',#488,#214);
#180=LINE('',#490,#215);
#181=LINE('',#492,#216);
#182=LINE('',#494,#217);
#183=LINE('',#496,#218);
#184=LINE('',#498,#219);
#185=LINE('',#500,#220);
#186=LINE('',#502,#221);
#187=LINE('',#504,#222);
#188=LINE('',#506,#223);
#189=LINE('',#508,#224);
#190=LINE('',#510,#225);
#191=LINE('',#512,#226);
#192=LINE('',#514,#227);
#193=LINE('',#516,#228);
#194=LINE('',#523,#229);
#195=LINE('',#524,#230);
#196=VECTOR('',#366,1.);
#197=VECTOR('',#367,1.);
#198=VECTOR('',#368,1.);
#199=VECTOR('',#369,1.);
#200=VECTOR('',#372,1.);
#201=VECTOR('',#373,1.);
#202=VECTOR('',#374,1.);
#203=VECTOR('',#379,1.);
#204=VECTOR('',#380,1.);
#205=VECTOR('',#381,1.);
#206=VECTOR('',#382,1.);
#207=VECTOR('',#387,1.);
#208=VECTOR('',#388,1.);
#209=VECTOR('',#389,1.);
#210=VECTOR('',#390,1.);
#211=VECTOR('',#393,1.);
#212=VECTOR('',#394,1.);
#213=VECTOR('',#395,1.);
#214=VECTOR('',#398,1.);
#215=VECTOR('',#399,1.);
#216=VECTOR('',#400,1.);
#217=VECTOR('',#403,1.);
#218=VECTOR('',#404,1.);
#219=VECTOR('',#405,1.);
#220=VECTOR('',#408,1.);
#221=VECTOR('',#409,1.);
#222=VECTOR('',#410,1.);
#223=VECTOR('',#413,1.);
#224=VECTOR('',#414,1.);
#225=VECTOR('',#415,1.);
#226=VECTOR('',#418,1.);
#227=VECTOR('',#419,1.);
#228=VECTOR('',#420,1.);
#229=VECTOR('',#429,1.);
#230=VECTOR('',#430,1.);
#231=EDGE_LOOP('',(#24,#25,#26,#27));
#232=EDGE_LOOP('',(#28,#29,#30,#31));
#233=EDGE_LOOP('',(#32,#33,#34,#35));
#234=EDGE_LOOP('',(#36,#37,#38,#39));
#235=EDGE_LOOP('',(#40,#41,#42,#43));
#236=EDGE_LOOP('',(#44,#45,#46,#47));
#237=EDGE_LOOP('',(#48,#49,#50,#51));
#238=EDGE_LOOP('',(#52,#53,#54,#55));
#239=EDGE_LOOP('',(#56,#57,#58,#59));
#240=EDGE_LOOP('',(#60,#61,#62,#63));
#241=EDGE_LOOP('',(#64));
#242=EDGE_LOOP('',(#65));
#243=EDGE_LOOP('',(#66,#67,#68,#69));
#244=EDGE_LOOP('',(#70));
#245=EDGE_LOOP('',(#71,#72,#73,#74,#75,#76,#77,#78));
#246=EDGE_LOOP('',(#79,#80,#81,#82,#83,#84,#85,#86));
#247=EDGE_LOOP('',(#87));
#248=EDGE_LOOP('',(#88));
#249=EDGE_LOOP('',(#89));
#250=EDGE_LOOP('',(#90));
#251=EDGE_LOOP('',(#91));
#252=FACE_BOUND('',#231,.T.);
#253=FACE_BOUND('',#232,.T.);
#254=FACE_BOUND('',#233,.T.);
#255=FACE_BOUND('',#234,.T.);
#256=FACE_BOUND('',#235,.T.);
#257=FACE_BOUND('',#236,.T.);
#258=FACE_BOUND('',#237,.T.);
#259=FACE_BOUND('',#238,.T.);
#260=FACE_BOUND('',#239,.T.);
#261=FACE_BOUND('',#240,.T.);
#262=FACE_BOUND('',#241,.T.);
#263=FACE_BOUND('',#242,.T.);
#264=FACE_BOUND('',#243,.T.);
#265=FACE_BOUND('',#244,.T.);
#266=FACE_BOUND('',#245,.T.);
#267=FACE_BOUND('',#246,.T.);
#268=FACE_BOUND('',#247,.T.);
#269=FACE_BOUND('',#248,.T.);
#270=FACE_BOUND('',#249,.T.);
#271=FACE_BOUND('',#250,.T.);
#272=FACE_BOUND('',#251,.T.);
#273=PLANE('',#339);
#274=PLANE('',#340);
#275=PLANE('',#342);
#276=PLANE('',#344);
#277=PLANE('',#345);
#278=PLANE('',#346);
#279=PLANE('',#347);
#280=PLANE('',#348);
#281=PLANE('',#349);
#282=PLANE('',#350);
#283=PLANE('',#354);
#284=PLANE('',#355);
#285=PLANE('',#356);
#286=PLANE('',#357);
#287=PLANE('',#361);
#288=ADVANCED_FACE('',(#252),#273,.T.);
#289=ADVANCED_FACE('',(#253),#274,.T.);
#290=ADVANCED_FACE('',(#254),#275,.T.);
#291=ADVANCED_FACE('',(#255),#276,.F.);
#292=ADVANCED_FACE('',(#256),#277,.F.);
#293=ADVANCED_FACE('',(#257),#278,.F.);
#294=ADVANCED_FACE('',(#258),#279,.F.);
#295=ADVANCED_FACE('',(#259),#280,.F.);
#296=ADVANCED_FACE('',(#260),#281,.F.);
#297=ADVANCED_FACE('',(#261),#282,.F.);
#298=ADVANCED_FACE('',(#262,#263),#15,.F.);
#299=ADVANCED_FACE('',(#264),#283,.F.);
#300=ADVANCED_FACE('',(#265,#266),#284,.T.);
#301=ADVANCED_FACE('',(#267),#285,.F.);
#302=ADVANCED_FACE('',(#268,#269),#286,.T.);
#303=ADVANCED_FACE('',(#270,#271),#16,.T.);
#304=ADVANCED_FACE('',(#272),#287,.T.);
#305=OPEN_SHELL('',(#288,#289));
#306=OPEN_SHELL('',(#290));
#307=STYLED_ITEM('',(#310),#330);
#308=STYLED_ITEM('',(#311),#331);
#309=STYLED_ITEM('',(#312),#18);
#310=PRESENTATION_STYLE_ASSIGNMENT((#313));
#311=PRESENTATION_STYLE_ASSIGNMENT((#314));
#312=PRESENTATION_STYLE_ASSIGNMENT((#315));
#313=SURFACE_STYLE_USAGE(.BOTH.,#316);
#314=SURFACE_STYLE_USAGE(.BOTH.,#317);
#315=SURFACE_STYLE_USAGE(.BOTH.,#318);
#316=SURFACE_SIDE_STYLE('',(#319));
#317=SURFACE_SIDE_STYLE('',(#320));
#318=SURFACE_SIDE_STYLE('',(#321));
#319=SURFACE_STYLE_FILL_AREA(#322);
#320=SURFACE_STYLE_FILL_AREA(#323);
#321=SURFACE_STYLE_FILL_AREA(#324);
#322=FILL_AREA_STYLE('',(#325));
#323=FILL_AREA_STYLE('',(#326));
#324=FILL_AREA_STYLE('',(#327));
#325=FILL_AREA_STYLE_COLOUR('',#328);
#326=FILL_AREA_STYLE_COLOUR('',#328);
#327=FILL_AREA_STYLE_COLOUR('',#329);
#328=COLOUR_RGB('',0.647058823529412,0.647058823529412,0.647058823529412);
#329=COLOUR_RGB('',0.615686274509804,0.811764705882353,0.929411764705882);
#330=SHELL_BASED_SURFACE_MODEL('Surface 2',(#305));
#331=SHELL_BASED_SURFACE_MODEL('Surface 1',(#306));
#332=SHAPE_DEFINITION_REPRESENTATION(#552,#335);
#333=SHAPE_DEFINITION_REPRESENTATION(#553,#336);
#334=SHAPE_DEFINITION_REPRESENTATION(#554,#337);
#335=SHAPE_REPRESENTATION('Surface 2',(#338),#537);
#336=SHAPE_REPRESENTATION('Surface 1',(#341),#538);
#337=SHAPE_REPRESENTATION('Part 1',(#343),#539);
#338=AXIS2_PLACEMENT_3D('',#445,#362,#363);
#339=AXIS2_PLACEMENT_3D('',#446,#364,#365);
#340=AXIS2_PLACEMENT_3D('',#455,#370,#371);
#341=AXIS2_PLACEMENT_3D('',#461,#375,#376);
#342=AXIS2_PLACEMENT_3D('',#462,#377,#378);
#343=AXIS2_PLACEMENT_3D('',#471,#383,#384);
#344=AXIS2_PLACEMENT_3D('',#472,#385,#386);
#345=AXIS2_PLACEMENT_3D('',#481,#391,#392);
#346=AXIS2_PLACEMENT_3D('',#487,#396,#397);
#347=AXIS2_PLACEMENT_3D('',#493,#401,#402);
#348=AXIS2_PLACEMENT_3D('',#499,#406,#407);
#349=AXIS2_PLACEMENT_3D('',#505,#411,#412);
#350=AXIS2_PLACEMENT_3D('',#511,#416,#417);
#351=AXIS2_PLACEMENT_3D('',#517,#421,#422);
#352=AXIS2_PLACEMENT_3D('',#518,#423,#424);
#353=AXIS2_PLACEMENT_3D('',#520,#425,#426);
#354=AXIS2_PLACEMENT_3D('',#522,#427,#428);
#355=AXIS2_PLACEMENT_3D('',#525,#431,#432);
#356=AXIS2_PLACEMENT_3D('',#526,#433,#434);
#357=AXIS2_PLACEMENT_3D('',#527,#435,#436);
#358=AXIS2_PLACEMENT_3D('',#528,#437,#438);
#359=AXIS2_PLACEMENT_3D('',#530,#439,#440);
#360=AXIS2_PLACEMENT_3D('',#531,#441,#442);
#361=AXIS2_PLACEMENT_3D('',#533,#443,#444);
#362=DIRECTION('',(0.,0.,1.));
#363=DIRECTION('',(1.,0.,0.));
#364=DIRECTION('',(0.487007240989019,-0.873397931772376,0.));
#365=DIRECTION('',(0.873397931772376,0.487007240989019,0.));
#366=DIRECTION('',(0.873397931772376,0.487007240989019,0.));
#367=DIRECTION('',(0.,0.,1.));
#368=DIRECTION('',(0.873397931772376,0.487007240989019,0.));
#369=DIRECTION('',(0.,0.,1.));
#370=DIRECTION('',(0.215547302403655,-0.976493400093676,0.));
#371=DIRECTION('',(0.976493400093676,0.215547302403655,0.));
#372=DIRECTION('',(-0.976493400093676,-0.215547302403655,0.));
#373=DIRECTION('',(0.,0.,1.));
#374=DIRECTION('',(-0.976493400093676,-0.215547302403655,0.));
#375=DIRECTION('',(0.,0.,1.));
#376=DIRECTION('',(1.,0.,0.));
#377=DIRECTION('',(0.487007240989019,-0.873397931772376,0.));
#378=DIRECTION('',(0.873397931772376,0.48700724098902,0.));
#379=DIRECTION('',(0.873397931772376,0.487007240989019,0.));
#380=DIRECTION('',(0.,0.,1.));
#381=DIRECTION('',(0.873397931772376,0.487007240989019,0.));
#382=DIRECTION('',(0.,0.,1.));
#383=DIRECTION('',(0.,0.,1.));
#384=DIRECTION('',(1.,0.,0.));
#385=DIRECTION('',(-0.990917179958988,0.13447357533035,0.));
#386=DIRECTION('',(-0.13447357533035,-0.990917179958988,0.));
#387=DIRECTION('',(0.13447357533035,0.990917179958988,0.));
#388=DIRECTION('',(0.,0.,-1.));
#389=DIRECTION('',(0.13447357533035,0.990917179958988,0.));
#390=DIRECTION('',(0.,0.,-1.));
#391=DIRECTION('',(-0.795771434549741,-0.60559708053676,0.));
#392=DIRECTION('',(0.60559708053676,-0.795771434549741,0.));
#393=DIRECTION('',(-0.60559708053676,0.795771434549741,0.));
#394=DIRECTION('',(0.,0.,-1.));
#395=DIRECTION('',(-0.60559708053676,0.795771434549741,0.));
#396=DIRECTION('',(-0.13447357533035,-0.990917179958988,0.));
#397=DIRECTION('',(0.990917179958988,-0.13447357533035,0.));
#398=DIRECTION('',(-0.990917179958988,0.13447357533035,0.));
#399=DIRECTION('',(0.,0.,-1.));
#400=DIRECTION('',(-0.990917179958988,0.13447357533035,0.));
#401=DIRECTION('',(0.60559708053676,-0.795771434549742,0.));
#402=DIRECTION('',(0.795771434549742,0.60559708053676,0.));
#403=DIRECTION('',(-0.795771434549742,-0.60559708053676,0.));
#404=DIRECTION('',(0.,0.,-1.));
#405=DIRECTION('',(-0.795771434549742,-0.60559708053676,0.));
#406=DIRECTION('',(0.990917179958988,-0.13447357533035,0.));
#407=DIRECTION('',(0.13447357533035,0.990917179958988,0.));
#408=DIRECTION('',(-0.13447357533035,-0.990917179958988,0.));
#409=DIRECTION('',(0.,0.,-1.));
#410=DIRECTION('',(-0.13447357533035,-0.990917179958988,0.));
#411=DIRECTION('',(0.795771434549742,0.60559708053676,0.));
#412=DIRECTION('',(-0.60559708053676,0.795771434549742,0.));
#413=DIRECTION('',(0.60559708053676,-0.795771434549741,0.));
#414=DIRECTION('',(0.,0.,-1.));
#415=DIRECTION('',(0.60559708053676,-0.795771434549741,0.));
#416=DIRECTION('',(0.13447357533035,0.990917179958988,0.));
#417=DIRECTION('',(-0.990917179958988,0.13447357533035,0.));
#418=DIRECTION('',(0.990917179958988,-0.13447357533035,0.));
#419=DIRECTION('',(0.,0.,-1.));
#420=DIRECTION('',(0.990917179958988,-0.13447357533035,0.));
#421=DIRECTION('',(0.,0.,-1.));
#422=DIRECTION('',(-1.,0.,0.));
#423=DIRECTION('',(0.,0.,1.));
#424=DIRECTION('',(1.,0.,0.));
#425=DIRECTION('',(0.,0.,1.));
#426=DIRECTION('',(1.,0.,0.));
#427=DIRECTION('',(-0.60559708053676,0.795771434549742,0.));
#428=DIRECTION('',(-0.795771434549742,-0.60559708053676,0.));
#429=DIRECTION('',(0.795771434549741,0.60559708053676,0.));
#430=DIRECTION('',(0.795771434549741,0.60559708053676,0.));
#431=DIRECTION('',(0.,0.,1.));
#432=DIRECTION('',(1.,0.,0.));
#433=DIRECTION('',(0.,0.,1.));
#434=DIRECTION('',(1.,0.,0.));
#435=DIRECTION('',(0.,0.,1.));
#436=DIRECTION('',(1.,0.,0.));
#437=DIRECTION('',(0.,0.,1.));
#438=DIRECTION('',(1.,0.,0.));
#439=DIRECTION('',(0.,0.,-1.));
#440=DIRECTION('',(-1.,0.,0.));
#441=DIRECTION('',(0.,0.,1.));
#442=DIRECTION('',(1.,0.,0.));
#443=DIRECTION('',(0.,0.,1.));
#444=DIRECTION('',(1.,0.,0.));
#445=CARTESIAN_POINT('',(0.,0.,0.));
#446=CARTESIAN_POINT('',(0.0117749608553841,0.0455820839555448,-0.002));
#447=CARTESIAN_POINT('',(0.0117749608553841,0.0455820839555448,0.005));
#448=CARTESIAN_POINT('',(-0.00896927719340778,0.0340150836558527,0.005));
#449=CARTESIAN_POINT('',(0.032519198904176,0.0571490842552369,0.005));
#450=CARTESIAN_POINT('',(-0.00896927719340778,0.0340150836558527,-0.002));
#451=CARTESIAN_POINT('',(-0.00896927719340778,0.0340150836558527,-0.002));
#452=CARTESIAN_POINT('',(0.0117749608553841,0.0455820839555448,-0.002));
#453=CARTESIAN_POINT('',(0.032519198904176,0.0571490842552369,-0.002));
#454=CARTESIAN_POINT('',(0.032519198904176,0.0571490842552369,-0.002));
#455=CARTESIAN_POINT('',(-0.0254724850461075,0.0303722306336868,-0.002));
#456=CARTESIAN_POINT('',(-0.0254724850461075,0.0303722306336868,0.005));
#457=CARTESIAN_POINT('',(-0.0321609954456326,0.0288958352237658,0.005));
#458=CARTESIAN_POINT('',(-0.0321609954456326,0.0288958352237658,-0.002));
#459=CARTESIAN_POINT('',(-0.0321609954456326,0.0288958352237658,-0.002));
#460=CARTESIAN_POINT('',(-0.0254724850461075,0.0303722306336868,-0.002));
#461=CARTESIAN_POINT('',(0.,0.,0.));
#462=CARTESIAN_POINT('',(0.0117749608553841,0.0455820839555448,0.001));
#463=CARTESIAN_POINT('',(0.0117749608553841,0.0455820839555448,0.004));
#464=CARTESIAN_POINT('',(-0.00896927719340778,0.0340150836558527,0.004));
#465=CARTESIAN_POINT('',(0.032519198904176,0.0571490842552369,0.004));
#466=CARTESIAN_POINT('',(-0.00896927719340778,0.0340150836558527,0.001));
#467=CARTESIAN_POINT('',(-0.00896927719340778,0.0340150836558527,0.001));
#468=CARTESIAN_POINT('',(0.0117749608553841,0.0455820839555448,0.001));
#469=CARTESIAN_POINT('',(0.032519198904176,0.0571490842552369,0.001));
#470=CARTESIAN_POINT('',(0.032519198904176,0.0571490842552369,0.001));
#471=CARTESIAN_POINT('',(0.,0.,0.));
#472=CARTESIAN_POINT('',(0.0554403395039264,0.0252743012593799,0.01));
#473=CARTESIAN_POINT('',(0.0554403395039264,0.0252743012593799,-0.01));
#474=CARTESIAN_POINT('',(0.0518197888895554,-0.00140503552390853,-0.01));
#475=CARTESIAN_POINT('',(0.0590608901182974,0.0519536380426683,-0.01));
#476=CARTESIAN_POINT('',(0.0590608901182974,0.0519536380426683,0.01));
#477=CARTESIAN_POINT('',(0.0590608901182974,0.0519536380426683,0.01));
#478=CARTESIAN_POINT('',(0.0554403395039264,0.0252743012593799,0.01));
#479=CARTESIAN_POINT('',(0.0518197888895554,-0.00140503552390853,0.01));
#480=CARTESIAN_POINT('',(0.0518197888895554,-0.00140503552390853,0.01));
#481=CARTESIAN_POINT('',(0.0427558660523254,0.073378893890742,0.01));
#482=CARTESIAN_POINT('',(0.0427558660523254,0.073378893890742,-0.01));
#483=CARTESIAN_POINT('',(0.0264508419863534,0.0948041497388158,-0.01));
#484=CARTESIAN_POINT('',(0.0264508419863534,0.0948041497388158,0.01));
#485=CARTESIAN_POINT('',(0.0264508419863534,0.0948041497388158,0.01));
#486=CARTESIAN_POINT('',(0.0427558660523254,0.073378893890742,0.01));
#487=CARTESIAN_POINT('',(-0.000228494796935011,0.0984247003531868,0.01));
#488=CARTESIAN_POINT('',(-0.000228494796935011,0.0984247003531868,-0.01));
#489=CARTESIAN_POINT('',(-0.0269078315802234,0.102045250967558,-0.01));
#490=CARTESIAN_POINT('',(-0.0269078315802234,0.102045250967558,0.01));
#491=CARTESIAN_POINT('',(-0.0269078315802234,0.102045250967558,0.01));
#492=CARTESIAN_POINT('',(-0.000228494796935011,0.0984247003531868,0.01));
#493=CARTESIAN_POINT('',(-0.0483330874282972,0.0857402269015858,0.01));
#494=CARTESIAN_POINT('',(-0.0483330874282972,0.0857402269015858,-0.01));
#495=CARTESIAN_POINT('',(-0.0697583432763709,0.0694352028356138,-0.01));
#496=CARTESIAN_POINT('',(-0.0697583432763709,0.0694352028356138,0.01));
#497=CARTESIAN_POINT('',(-0.0697583432763709,0.0694352028356138,0.01));
#498=CARTESIAN_POINT('',(-0.0483330874282972,0.0857402269015858,0.01));
#499=CARTESIAN_POINT('',(-0.073378893890742,0.0427558660523254,0.01));
#500=CARTESIAN_POINT('',(-0.073378893890742,0.0427558660523254,-0.01));
#501=CARTESIAN_POINT('',(-0.076999444505113,0.016076529269037,-0.01));
#502=CARTESIAN_POINT('',(-0.076999444505113,0.016076529269037,0.01));
#503=CARTESIAN_POINT('',(-0.076999444505113,0.016076529269037,0.01));
#504=CARTESIAN_POINT('',(-0.073378893890742,0.0427558660523254,0.01));
#505=CARTESIAN_POINT('',(-0.060694420439141,-0.00534872657903677,0.01));
#506=CARTESIAN_POINT('',(-0.060694420439141,-0.00534872657903677,-0.01));
#507=CARTESIAN_POINT('',(-0.044389396373169,-0.0267739824271106,-0.01));
#508=CARTESIAN_POINT('',(-0.044389396373169,-0.0267739824271106,0.01));
#509=CARTESIAN_POINT('',(-0.044389396373169,-0.0267739824271106,0.01));
#510=CARTESIAN_POINT('',(-0.060694420439141,-0.00534872657903677,0.01));
#511=CARTESIAN_POINT('',(-0.0177100595898806,-0.0303945330414816,0.01));
#512=CARTESIAN_POINT('',(-0.0177100595898806,-0.0303945330414816,-0.01));
#513=CARTESIAN_POINT('',(0.00896927719340779,-0.0340150836558527,-0.01));
#514=CARTESIAN_POINT('',(0.00896927719340779,-0.0340150836558527,0.01));
#515=CARTESIAN_POINT('',(0.00896927719340779,-0.0340150836558527,0.01));
#516=CARTESIAN_POINT('',(-0.0177100595898806,-0.0303945330414816,0.01));
#517=CARTESIAN_POINT('',(-0.00896927719340779,0.0340150836558527,0.01));
#518=CARTESIAN_POINT('',(-0.00896927719340779,0.0340150836558527,0.));
#519=CARTESIAN_POINT('',(0.0460307228065922,0.0340150836558527,0.));
#520=CARTESIAN_POINT('',(-0.00896927719340779,0.0340150836558527,0.01));
#521=CARTESIAN_POINT('',(0.0460307228065922,0.0340150836558527,0.01));
#522=CARTESIAN_POINT('',(0.0303945330414816,-0.0177100595898806,0.01));
#523=CARTESIAN_POINT('',(0.0303945330414816,-0.0177100595898806,-0.01));
#524=CARTESIAN_POINT('',(0.0303945330414816,-0.0177100595898806,0.01));
#525=CARTESIAN_POINT('',(-0.00896927719340777,0.0340150836558526,0.01));
#526=CARTESIAN_POINT('',(-0.00896927719340777,0.0340150836558526,-0.01));
#527=CARTESIAN_POINT('',(-0.00896927719340777,0.0340150836558526,0.));
#528=CARTESIAN_POINT('',(-0.00896927719340779,0.0340150836558527,0.));
#529=CARTESIAN_POINT('',(-0.00596927719340779,0.0340150836558527,0.));
#530=CARTESIAN_POINT('',(-0.00896927719340779,0.0340150836558527,0.005));
#531=CARTESIAN_POINT('',(-0.00896927719340779,0.0340150836558527,0.005));
#532=CARTESIAN_POINT('',(-0.00596927719340779,0.0340150836558527,0.005));
#533=CARTESIAN_POINT('',(-0.00896927719340779,0.0340150836558527,0.005));
#534=MECHANICAL_DESIGN_GEOMETRIC_PRESENTATION_REPRESENTATION('',(#307),
#537);
#535=MECHANICAL_DESIGN_GEOMETRIC_PRESENTATION_REPRESENTATION('',(#308),
#538);
#536=MECHANICAL_DESIGN_GEOMETRIC_PRESENTATION_REPRESENTATION('',(#309),
#539);
#537=(
GEOMETRIC_REPRESENTATION_CONTEXT(3)
GLOBAL_UNCERTAINTY_ASSIGNED_CONTEXT((#540))
GLOBAL_UNIT_ASSIGNED_CONTEXT((#549,#546,#543))
REPRESENTATION_CONTEXT('Surface 2','TOP_LEVEL_ASSEMBLY_PART')
);
#538=(
GEOMETRIC_REPRESENTATION_CONTEXT(3)
GLOBAL_UNCERTAINTY_ASSIGNED_CONTEXT((#541))
GLOBAL_UNIT_ASSIGNED_CONTEXT((#550,#547,#544))
REPRESENTATION_CONTEXT('Surface 1','TOP_LEVEL_ASSEMBLY_PART')
);
#539=(
GEOMETRIC_REPRESENTATION_CONTEXT(3)
GLOBAL_UNCERTAINTY_ASSIGNED_CONTEXT((#542))
GLOBAL_UNIT_ASSIGNED_CONTEXT((#551,#548,#545))
REPRESENTATION_CONTEXT('Part 1','TOP_LEVEL_ASSEMBLY_PART')
);
#540=UNCERTAINTY_MEASURE_WITH_UNIT(LENGTH_MEASURE(1.E-8),#549,
'DISTANCE_ACCURACY_VALUE','Maximum Tolerance applied to model');
#541=UNCERTAINTY_MEASURE_WITH_UNIT(LENGTH_MEASURE(1.E-8),#550,
'DISTANCE_ACCURACY_VALUE','Maximum Tolerance applied to model');
#542=UNCERTAINTY_MEASURE_WITH_UNIT(LENGTH_MEASURE(1.E-8),#551,
'DISTANCE_ACCURACY_VALUE','Maximum Tolerance applied to model');
#543=(
NAMED_UNIT(*)
SI_UNIT($,.STERADIAN.)
SOLID_ANGLE_UNIT()
);
#544=(
NAMED_UNIT(*)
SI_UNIT($,.STERADIAN.)
SOLID_ANGLE_UNIT()
);
#545=(
NAMED_UNIT(*)
SI_UNIT($,.STERADIAN.)
SOLID_ANGLE_UNIT()
);
#546=(
NAMED_UNIT(*)
PLANE_ANGLE_UNIT()
SI_UNIT($,.RADIAN.)
);
#547=(
NAMED_UNIT(*)
PLANE_ANGLE_UNIT()
SI_UNIT($,.RADIAN.)
);
#548=(
NAMED_UNIT(*)
PLANE_ANGLE_UNIT()
SI_UNIT($,.RADIAN.)
);
#549=(
LENGTH_UNIT()
NAMED_UNIT(*)
SI_UNIT($,.METRE.)
);
#550=(
LENGTH_UNIT()
NAMED_UNIT(*)
SI_UNIT($,.METRE.)
);
#551=(
LENGTH_UNIT()
NAMED_UNIT(*)
SI_UNIT($,.METRE.)
);
#552=PRODUCT_DEFINITION_SHAPE('','',#555);
#553=PRODUCT_DEFINITION_SHAPE('','',#556);
#554=PRODUCT_DEFINITION_SHAPE('','',#557);
#555=PRODUCT_DEFINITION('','',#561,#558);
#556=PRODUCT_DEFINITION('','',#562,#559);
#557=PRODUCT_DEFINITION('','',#563,#560);
#558=PRODUCT_DEFINITION_CONTEXT('',#579,'design');
#559=PRODUCT_DEFINITION_CONTEXT('',#580,'design');
#560=PRODUCT_DEFINITION_CONTEXT('',#581,'design');
#561=PRODUCT_DEFINITION_FORMATION_WITH_SPECIFIED_SOURCE('','',#567,
 .NOT_KNOWN.);
#562=PRODUCT_DEFINITION_FORMATION_WITH_SPECIFIED_SOURCE('','',#568,
 .NOT_KNOWN.);
#563=PRODUCT_DEFINITION_FORMATION_WITH_SPECIFIED_SOURCE('','',#569,
 .NOT_KNOWN.);
#564=PRODUCT_RELATED_PRODUCT_CATEGORY('','',(#567));
#565=PRODUCT_RELATED_PRODUCT_CATEGORY('','',(#568));
#566=PRODUCT_RELATED_PRODUCT_CATEGORY('','',(#569));
#567=PRODUCT('Surface 2','Surface 2','Surface 2',(#573));
#568=PRODUCT('Surface 1','Surface 1','Surface 1',(#574));
#569=PRODUCT('Part 1','Part 1','Part 1',(#575));
#570=PRODUCT_CATEGORY('','');
#571=PRODUCT_CATEGORY('','');
#572=PRODUCT_CATEGORY('','');
#573=PRODUCT_CONTEXT('',#579,'mechanical');
#574=PRODUCT_CONTEXT('',#580,'mechanical');
#575=PRODUCT_CONTEXT('',#581,'mechanical');
#576=APPLICATION_PROTOCOL_DEFINITION('international standard',
'ap242_managed_model_based_3d_engineering',2020,#579);
#577=APPLICATION_PROTOCOL_DEFINITION('international standard',
'ap242_managed_model_based_3d_engineering',2020,#580);
#578=APPLICATION_PROTOCOL_DEFINITION('international standard',
'ap242_managed_model_based_3d_engineering',2020,#581);
#579=APPLICATION_CONTEXT('managed model based 3d engineering');
#580=APPLICATION_CONTEXT('managed model based 3d engineering');
#581=APPLICATION_CONTEXT('managed model based 3d engineering');
ENDSEC;
END-ISO-10303-21;
