ISO-10303-21;
HEADER;
/* Generated by software containing ST-Developer
 * from STEP Tools, Inc. (www.steptools.com) 
 */
/* OPTION: using custom renumber hook */

FILE_DESCRIPTION(
/* description */ ('STEP AP242 Edition 2',
'CAx-IF Rec.Pracs.---Representation and Presentation of Product Manufa
cturing Information (PMI)---4.0---2014-10-13',
'CAx-IF Rec.Pracs.---3D Tessellated Geometry---0.4---2014-09-14','2;1',
'CAx-IF Rec.Pracs.---User Defined Attributes---1.5---2016-08-15'),
/* implementation_level */ '2;1');

FILE_NAME(
/* name */ 'Part Studio 1 - Part 1',
/* time_stamp */ '2026-09-03T18:20:34Z',
/* author */ (''),
/* organization */ (''),
/* preprocessor_version */ 'ST-DEVELOPER v20',
/* originating_system */ 'ONSHAPE BY PTC INC, 1.220',
/* authorisation */ '  ');

FILE_SCHEMA (('AP242_MANAGED_MODEL_BASED_3D_ENGINEERING_MIM_LF { 1 0 10303 442 3 1 4 }'));
ENDSEC;

DATA;
#10=SHAPE_REPRESENTATION_RELATIONSHIP('','',#627,#11);
#11=ADVANCED_BREP_SHAPE_REPRESENTATION('',(#625),#1057);
#12=PLANE('',#673);
#13=PLANE('',#674);
#14=PLANE('',#675);
#15=PLANE('',#676);
#16=PLANE('',#677);
#17=PLANE('',#678);
#18=PLANE('',#679);
#19=PLANE('',#680);
#20=PLANE('',#681);
#21=PLANE('',#682);
#22=PLANE('',#683);
#23=PLANE('',#684);
#24=PLANE('',#685);
#25=PLANE('',#686);
#26=PLANE('',#687);
#27=PLANE('',#688);
#28=PLANE('',#689);
#29=PLANE('',#690);
#30=LINE('',#888,#90);
#31=LINE('',#892,#91);
#32=LINE('',#894,#92);
#33=LINE('',#896,#93);
#34=LINE('',#909,#94);
#35=LINE('',#913,#95);
#36=LINE('',#915,#96);
#37=LINE('',#917,#97);
#38=LINE('',#930,#98);
#39=LINE('',#934,#99);
#40=LINE('',#936,#100);
#41=LINE('',#938,#101);
#42=LINE('',#951,#102);
#43=LINE('',#955,#103);
#44=LINE('',#957,#104);
#45=LINE('',#959,#105);
#46=LINE('',#963,#106);
#47=LINE('',#968,#107);
#48=LINE('',#972,#108);
#49=LINE('',#977,#109);
#50=LINE('',#981,#110);
#51=LINE('',#982,#111);
#52=LINE('',#984,#112);
#53=LINE('',#985,#113);
#54=LINE('',#987,#114);
#55=LINE('',#990,#115);
#56=LINE('',#992,#116);
#57=LINE('',#994,#117);
#58=LINE('',#996,#118);
#59=LINE('',#998,#119);
#60=LINE('',#1000,#120);
#61=LINE('',#1002,#121);
#62=LINE('',#1004,#122);
#63=LINE('',#1007,#123);
#64=LINE('',#1009,#124);
#65=LINE('',#1011,#125);
#66=LINE('',#1012,#126);
#67=LINE('',#1014,#127);
#68=LINE('',#1016,#128);
#69=LINE('',#1017,#129);
#70=LINE('',#1019,#130);
#71=LINE('',#1021,#131);
#72=LINE('',#1023,#132);
#73=LINE('',#1024,#133);
#74=LINE('',#1026,#134);
#75=LINE('',#1027,#135);
#76=LINE('',#1028,#136);
#77=LINE('',#1029,#137);
#78=LINE('',#1030,#138);
#79=LINE('',#1032,#139);
#80=LINE('',#1033,#140);
#81=LINE('',#1034,#141);
#82=LINE('',#1036,#142);
#83=LINE('',#1039,#143);
#84=LINE('',#1041,#144);
#85=LINE('',#1043,#145);
#86=LINE('',#1046,#146);
#87=LINE('',#1048,#147);
#88=LINE('',#1051,#148);
#89=LINE('',#1054,#149);
#90=VECTOR('',#705,1.);
#91=VECTOR('',#708,1.);
#92=VECTOR('',#711,1.);
#93=VECTOR('',#712,1.);
#94=VECTOR('',#727,1.);
#95=VECTOR('',#730,1.);
#96=VECTOR('',#733,1.);
#97=VECTOR('',#734,1.);
#98=VECTOR('',#749,1.);
#99=VECTOR('',#752,1.);
#100=VECTOR('',#755,1.);
#101=VECTOR('',#756,1.);
#102=VECTOR('',#771,1.);
#103=VECTOR('',#774,1.);
#104=VECTOR('',#777,1.);
#105=VECTOR('',#778,1.);
#106=VECTOR('',#783,1.);
#107=VECTOR('',#786,1.);
#108=VECTOR('',#791,1.);
#109=VECTOR('',#794,1.);
#110=VECTOR('',#799,1.);
#111=VECTOR('',#800,1.);
#112=VECTOR('',#803,1.);
#113=VECTOR('',#804,1.);
#114=VECTOR('',#807,1.);
#115=VECTOR('',#808,1.);
#116=VECTOR('',#809,1.);
#117=VECTOR('',#810,1.);
#118=VECTOR('',#813,1.);
#119=VECTOR('',#814,1.);
#120=VECTOR('',#815,1.);
#121=VECTOR('',#816,1.);
#122=VECTOR('',#819,1.);
#123=VECTOR('',#820,1.);
#124=VECTOR('',#821,1.);
#125=VECTOR('',#822,1.);
#126=VECTOR('',#823,1.);
#127=VECTOR('',#824,1.);
#128=VECTOR('',#825,1.);
#129=VECTOR('',#826,1.);
#130=VECTOR('',#827,1.);
#131=VECTOR('',#828,1.);
#132=VECTOR('',#831,1.);
#133=VECTOR('',#832,1.);
#134=VECTOR('',#835,1.);
#135=VECTOR('',#836,1.);
#136=VECTOR('',#837,1.);
#137=VECTOR('',#838,1.);
#138=VECTOR('',#839,1.);
#139=VECTOR('',#840,1.);
#140=VECTOR('',#841,1.);
#141=VECTOR('',#842,1.);
#142=VECTOR('',#845,1.);
#143=VECTOR('',#850,1.);
#144=VECTOR('',#853,1.);
#145=VECTOR('',#856,1.);
#146=VECTOR('',#861,1.);
#147=VECTOR('',#864,1.);
#148=VECTOR('',#869,1.);
#149=VECTOR('',#874,1.);
#150=CYLINDRICAL_SURFACE('',#634,0.002);
#151=CYLINDRICAL_SURFACE('',#636,0.002);
#152=CYLINDRICAL_SURFACE('',#643,0.002);
#153=CYLINDRICAL_SURFACE('',#645,0.002);
#154=CYLINDRICAL_SURFACE('',#652,0.002);
#155=CYLINDRICAL_SURFACE('',#654,0.002);
#156=CYLINDRICAL_SURFACE('',#661,0.002);
#157=CYLINDRICAL_SURFACE('',#663,0.002);
#158=CYLINDRICAL_SURFACE('',#665,0.015);
#159=CYLINDRICAL_SURFACE('',#668,0.015);
#160=CYLINDRICAL_SURFACE('',#671,0.015);
#161=CYLINDRICAL_SURFACE('',#672,0.015);
#162=ORIENTED_EDGE('',*,*,#338,.F.);
#163=ORIENTED_EDGE('',*,*,#339,.F.);
#164=ORIENTED_EDGE('',*,*,#340,.T.);
#165=ORIENTED_EDGE('',*,*,#341,.F.);
#166=ORIENTED_EDGE('',*,*,#340,.F.);
#167=ORIENTED_EDGE('',*,*,#342,.F.);
#168=ORIENTED_EDGE('',*,*,#343,.F.);
#169=ORIENTED_EDGE('',*,*,#344,.F.);
#170=ORIENTED_EDGE('',*,*,#345,.F.);
#171=ORIENTED_EDGE('',*,*,#338,.T.);
#172=ORIENTED_EDGE('',*,*,#346,.F.);
#173=ORIENTED_EDGE('',*,*,#347,.F.);
#174=ORIENTED_EDGE('',*,*,#348,.F.);
#175=ORIENTED_EDGE('',*,*,#349,.F.);
#176=ORIENTED_EDGE('',*,*,#350,.T.);
#177=ORIENTED_EDGE('',*,*,#351,.F.);
#178=ORIENTED_EDGE('',*,*,#350,.F.);
#179=ORIENTED_EDGE('',*,*,#352,.F.);
#180=ORIENTED_EDGE('',*,*,#353,.F.);
#181=ORIENTED_EDGE('',*,*,#354,.F.);
#182=ORIENTED_EDGE('',*,*,#355,.F.);
#183=ORIENTED_EDGE('',*,*,#348,.T.);
#184=ORIENTED_EDGE('',*,*,#356,.F.);
#185=ORIENTED_EDGE('',*,*,#357,.F.);
#186=ORIENTED_EDGE('',*,*,#358,.F.);
#187=ORIENTED_EDGE('',*,*,#359,.F.);
#188=ORIENTED_EDGE('',*,*,#360,.T.);
#189=ORIENTED_EDGE('',*,*,#361,.F.);
#190=ORIENTED_EDGE('',*,*,#360,.F.);
#191=ORIENTED_EDGE('',*,*,#362,.F.);
#192=ORIENTED_EDGE('',*,*,#363,.F.);
#193=ORIENTED_EDGE('',*,*,#364,.F.);
#194=ORIENTED_EDGE('',*,*,#365,.F.);
#195=ORIENTED_EDGE('',*,*,#358,.T.);
#196=ORIENTED_EDGE('',*,*,#366,.F.);
#197=ORIENTED_EDGE('',*,*,#367,.F.);
#198=ORIENTED_EDGE('',*,*,#368,.F.);
#199=ORIENTED_EDGE('',*,*,#369,.F.);
#200=ORIENTED_EDGE('',*,*,#370,.T.);
#201=ORIENTED_EDGE('',*,*,#371,.F.);
#202=ORIENTED_EDGE('',*,*,#370,.F.);
#203=ORIENTED_EDGE('',*,*,#372,.F.);
#204=ORIENTED_EDGE('',*,*,#373,.F.);
#205=ORIENTED_EDGE('',*,*,#374,.F.);
#206=ORIENTED_EDGE('',*,*,#375,.F.);
#207=ORIENTED_EDGE('',*,*,#368,.T.);
#208=ORIENTED_EDGE('',*,*,#376,.F.);
#209=ORIENTED_EDGE('',*,*,#377,.F.);
#210=ORIENTED_EDGE('',*,*,#378,.F.);
#211=ORIENTED_EDGE('',*,*,#379,.F.);
#212=ORIENTED_EDGE('',*,*,#380,.F.);
#213=ORIENTED_EDGE('',*,*,#381,.F.);
#214=ORIENTED_EDGE('',*,*,#382,.F.);
#215=ORIENTED_EDGE('',*,*,#383,.F.);
#216=ORIENTED_EDGE('',*,*,#384,.F.);
#217=ORIENTED_EDGE('',*,*,#385,.F.);
#218=ORIENTED_EDGE('',*,*,#386,.F.);
#219=ORIENTED_EDGE('',*,*,#349,.T.);
#220=ORIENTED_EDGE('',*,*,#387,.F.);
#221=ORIENTED_EDGE('',*,*,#339,.T.);
#222=ORIENTED_EDGE('',*,*,#388,.F.);
#223=ORIENTED_EDGE('',*,*,#371,.T.);
#224=ORIENTED_EDGE('',*,*,#389,.F.);
#225=ORIENTED_EDGE('',*,*,#361,.T.);
#226=ORIENTED_EDGE('',*,*,#390,.F.);
#227=ORIENTED_EDGE('',*,*,#391,.T.);
#228=ORIENTED_EDGE('',*,*,#392,.T.);
#229=ORIENTED_EDGE('',*,*,#393,.F.);
#230=ORIENTED_EDGE('',*,*,#394,.T.);
#231=ORIENTED_EDGE('',*,*,#383,.T.);
#232=ORIENTED_EDGE('',*,*,#395,.F.);
#233=ORIENTED_EDGE('',*,*,#396,.F.);
#234=ORIENTED_EDGE('',*,*,#397,.T.);
#235=ORIENTED_EDGE('',*,*,#398,.F.);
#236=ORIENTED_EDGE('',*,*,#399,.F.);
#237=ORIENTED_EDGE('',*,*,#400,.T.);
#238=ORIENTED_EDGE('',*,*,#401,.T.);
#239=ORIENTED_EDGE('',*,*,#397,.F.);
#240=ORIENTED_EDGE('',*,*,#402,.F.);
#241=ORIENTED_EDGE('',*,*,#403,.T.);
#242=ORIENTED_EDGE('',*,*,#404,.T.);
#243=ORIENTED_EDGE('',*,*,#391,.F.);
#244=ORIENTED_EDGE('',*,*,#405,.F.);
#245=ORIENTED_EDGE('',*,*,#406,.T.);
#246=ORIENTED_EDGE('',*,*,#407,.T.);
#247=ORIENTED_EDGE('',*,*,#408,.T.);
#248=ORIENTED_EDGE('',*,*,#380,.T.);
#249=ORIENTED_EDGE('',*,*,#409,.F.);
#250=ORIENTED_EDGE('',*,*,#399,.T.);
#251=ORIENTED_EDGE('',*,*,#410,.F.);
#252=ORIENTED_EDGE('',*,*,#353,.T.);
#253=ORIENTED_EDGE('',*,*,#411,.T.);
#254=ORIENTED_EDGE('',*,*,#347,.T.);
#255=ORIENTED_EDGE('',*,*,#412,.T.);
#256=ORIENTED_EDGE('',*,*,#395,.T.);
#257=ORIENTED_EDGE('',*,*,#382,.T.);
#258=ORIENTED_EDGE('',*,*,#413,.F.);
#259=ORIENTED_EDGE('',*,*,#378,.T.);
#260=ORIENTED_EDGE('',*,*,#414,.T.);
#261=ORIENTED_EDGE('',*,*,#415,.F.);
#262=ORIENTED_EDGE('',*,*,#367,.T.);
#263=ORIENTED_EDGE('',*,*,#416,.T.);
#264=ORIENTED_EDGE('',*,*,#373,.T.);
#265=ORIENTED_EDGE('',*,*,#417,.T.);
#266=ORIENTED_EDGE('',*,*,#393,.T.);
#267=ORIENTED_EDGE('',*,*,#418,.T.);
#268=ORIENTED_EDGE('',*,*,#384,.T.);
#269=ORIENTED_EDGE('',*,*,#394,.F.);
#270=ORIENTED_EDGE('',*,*,#401,.F.);
#271=ORIENTED_EDGE('',*,*,#413,.T.);
#272=ORIENTED_EDGE('',*,*,#385,.T.);
#273=ORIENTED_EDGE('',*,*,#418,.F.);
#274=ORIENTED_EDGE('',*,*,#400,.F.);
#275=ORIENTED_EDGE('',*,*,#409,.T.);
#276=ORIENTED_EDGE('',*,*,#379,.T.);
#277=ORIENTED_EDGE('',*,*,#414,.F.);
#278=ORIENTED_EDGE('',*,*,#381,.T.);
#279=ORIENTED_EDGE('',*,*,#408,.F.);
#280=ORIENTED_EDGE('',*,*,#398,.T.);
#281=ORIENTED_EDGE('',*,*,#419,.T.);
#282=ORIENTED_EDGE('',*,*,#341,.T.);
#283=ORIENTED_EDGE('',*,*,#344,.T.);
#284=ORIENTED_EDGE('',*,*,#420,.T.);
#285=ORIENTED_EDGE('',*,*,#402,.T.);
#286=ORIENTED_EDGE('',*,*,#396,.T.);
#287=ORIENTED_EDGE('',*,*,#412,.F.);
#288=ORIENTED_EDGE('',*,*,#346,.T.);
#289=ORIENTED_EDGE('',*,*,#351,.T.);
#290=ORIENTED_EDGE('',*,*,#354,.T.);
#291=ORIENTED_EDGE('',*,*,#410,.T.);
#292=ORIENTED_EDGE('',*,*,#392,.F.);
#293=ORIENTED_EDGE('',*,*,#404,.F.);
#294=ORIENTED_EDGE('',*,*,#421,.F.);
#295=ORIENTED_EDGE('',*,*,#356,.T.);
#296=ORIENTED_EDGE('',*,*,#411,.F.);
#297=ORIENTED_EDGE('',*,*,#352,.T.);
#298=ORIENTED_EDGE('',*,*,#386,.T.);
#299=ORIENTED_EDGE('',*,*,#345,.T.);
#300=ORIENTED_EDGE('',*,*,#422,.F.);
#301=ORIENTED_EDGE('',*,*,#362,.T.);
#302=ORIENTED_EDGE('',*,*,#359,.T.);
#303=ORIENTED_EDGE('',*,*,#365,.T.);
#304=ORIENTED_EDGE('',*,*,#415,.T.);
#305=ORIENTED_EDGE('',*,*,#419,.F.);
#306=ORIENTED_EDGE('',*,*,#407,.F.);
#307=ORIENTED_EDGE('',*,*,#417,.F.);
#308=ORIENTED_EDGE('',*,*,#372,.T.);
#309=ORIENTED_EDGE('',*,*,#369,.T.);
#310=ORIENTED_EDGE('',*,*,#375,.T.);
#311=ORIENTED_EDGE('',*,*,#423,.T.);
#312=ORIENTED_EDGE('',*,*,#405,.T.);
#313=ORIENTED_EDGE('',*,*,#390,.T.);
#314=ORIENTED_EDGE('',*,*,#389,.T.);
#315=ORIENTED_EDGE('',*,*,#374,.T.);
#316=ORIENTED_EDGE('',*,*,#416,.F.);
#317=ORIENTED_EDGE('',*,*,#366,.T.);
#318=ORIENTED_EDGE('',*,*,#423,.F.);
#319=ORIENTED_EDGE('',*,*,#377,.T.);
#320=ORIENTED_EDGE('',*,*,#424,.T.);
#321=ORIENTED_EDGE('',*,*,#363,.T.);
#322=ORIENTED_EDGE('',*,*,#422,.T.);
#323=ORIENTED_EDGE('',*,*,#406,.F.);
#324=ORIENTED_EDGE('',*,*,#424,.F.);
#325=ORIENTED_EDGE('',*,*,#376,.T.);
#326=ORIENTED_EDGE('',*,*,#388,.T.);
#327=ORIENTED_EDGE('',*,*,#364,.T.);
#328=ORIENTED_EDGE('',*,*,#425,.T.);
#329=ORIENTED_EDGE('',*,*,#357,.T.);
#330=ORIENTED_EDGE('',*,*,#421,.T.);
#331=ORIENTED_EDGE('',*,*,#403,.F.);
#332=ORIENTED_EDGE('',*,*,#420,.F.);
#333=ORIENTED_EDGE('',*,*,#343,.T.);
#334=ORIENTED_EDGE('',*,*,#387,.T.);
#335=ORIENTED_EDGE('',*,*,#355,.T.);
#336=ORIENTED_EDGE('',*,*,#425,.F.);
#337=ORIENTED_EDGE('',*,*,#342,.T.);
#338=EDGE_CURVE('',#426,#427,#482,.T.);
#339=EDGE_CURVE('',#428,#426,#483,.F.);
#340=EDGE_CURVE('',#428,#429,#484,.T.);
#341=EDGE_CURVE('',#427,#429,#485,.T.);
#342=EDGE_CURVE('',#430,#428,#30,.T.);
#343=EDGE_CURVE('',#431,#430,#486,.T.);
#344=EDGE_CURVE('',#429,#431,#31,.F.);
#345=EDGE_CURVE('',#426,#432,#32,.T.);
#346=EDGE_CURVE('',#433,#427,#33,.F.);
#347=EDGE_CURVE('',#432,#433,#487,.F.);
#348=EDGE_CURVE('',#434,#435,#488,.T.);
#349=EDGE_CURVE('',#436,#434,#489,.T.);
#350=EDGE_CURVE('',#436,#437,#490,.T.);
#351=EDGE_CURVE('',#435,#437,#491,.F.);
#352=EDGE_CURVE('',#438,#436,#34,.T.);
#353=EDGE_CURVE('',#439,#438,#492,.F.);
#354=EDGE_CURVE('',#437,#439,#35,.F.);
#355=EDGE_CURVE('',#434,#440,#36,.T.);
#356=EDGE_CURVE('',#441,#435,#37,.F.);
#357=EDGE_CURVE('',#440,#441,#493,.T.);
#358=EDGE_CURVE('',#442,#443,#494,.T.);
#359=EDGE_CURVE('',#444,#442,#495,.F.);
#360=EDGE_CURVE('',#444,#445,#496,.T.);
#361=EDGE_CURVE('',#443,#445,#497,.T.);
#362=EDGE_CURVE('',#446,#444,#38,.T.);
#363=EDGE_CURVE('',#447,#446,#498,.T.);
#364=EDGE_CURVE('',#445,#447,#39,.F.);
#365=EDGE_CURVE('',#442,#448,#40,.T.);
#366=EDGE_CURVE('',#449,#443,#41,.F.);
#367=EDGE_CURVE('',#448,#449,#499,.F.);
#368=EDGE_CURVE('',#450,#451,#500,.T.);
#369=EDGE_CURVE('',#452,#450,#501,.T.);
#370=EDGE_CURVE('',#452,#453,#502,.T.);
#371=EDGE_CURVE('',#451,#453,#503,.F.);
#372=EDGE_CURVE('',#454,#452,#42,.T.);
#373=EDGE_CURVE('',#455,#454,#504,.F.);
#374=EDGE_CURVE('',#453,#455,#43,.F.);
#375=EDGE_CURVE('',#450,#456,#44,.T.);
#376=EDGE_CURVE('',#457,#451,#45,.F.);
#377=EDGE_CURVE('',#456,#457,#505,.T.);
#378=EDGE_CURVE('',#458,#459,#46,.T.);
#379=EDGE_CURVE('',#460,#458,#506,.T.);
#380=EDGE_CURVE('',#461,#460,#47,.F.);
#381=EDGE_CURVE('',#459,#461,#507,.F.);
#382=EDGE_CURVE('',#462,#463,#48,.T.);
#383=EDGE_CURVE('',#464,#462,#508,.F.);
#384=EDGE_CURVE('',#465,#464,#49,.F.);
#385=EDGE_CURVE('',#463,#465,#509,.T.);
#386=EDGE_CURVE('',#436,#426,#50,.F.);
#387=EDGE_CURVE('',#428,#434,#51,.T.);
#388=EDGE_CURVE('',#451,#445,#52,.F.);
#389=EDGE_CURVE('',#443,#453,#53,.T.);
#390=EDGE_CURVE('',#466,#467,#54,.T.);
#391=EDGE_CURVE('',#466,#468,#55,.T.);
#392=EDGE_CURVE('',#468,#469,#56,.T.);
#393=EDGE_CURVE('',#467,#469,#57,.T.);
#394=EDGE_CURVE('',#470,#464,#58,.T.);
#395=EDGE_CURVE('',#471,#462,#59,.T.);
#396=EDGE_CURVE('',#472,#471,#60,.T.);
#397=EDGE_CURVE('',#472,#470,#61,.T.);
#398=EDGE_CURVE('',#473,#474,#62,.T.);
#399=EDGE_CURVE('',#475,#473,#63,.T.);
#400=EDGE_CURVE('',#475,#476,#64,.T.);
#401=EDGE_CURVE('',#476,#470,#65,.T.);
#402=EDGE_CURVE('',#477,#472,#66,.T.);
#403=EDGE_CURVE('',#477,#478,#67,.T.);
#404=EDGE_CURVE('',#478,#468,#68,.T.);
#405=EDGE_CURVE('',#479,#466,#69,.T.);
#406=EDGE_CURVE('',#479,#480,#70,.T.);
#407=EDGE_CURVE('',#480,#474,#71,.T.);
#408=EDGE_CURVE('',#473,#461,#72,.T.);
#409=EDGE_CURVE('',#475,#460,#73,.T.);
#410=EDGE_CURVE('',#439,#469,#74,.T.);
#411=EDGE_CURVE('',#438,#432,#75,.T.);
#412=EDGE_CURVE('',#433,#471,#76,.T.);
#413=EDGE_CURVE('',#458,#463,#77,.T.);
#414=EDGE_CURVE('',#459,#481,#78,.T.);
#415=EDGE_CURVE('',#448,#481,#79,.T.);
#416=EDGE_CURVE('',#449,#455,#80,.T.);
#417=EDGE_CURVE('',#454,#467,#81,.T.);
#418=EDGE_CURVE('',#476,#465,#82,.T.);
#419=EDGE_CURVE('',#474,#481,#83,.T.);
#420=EDGE_CURVE('',#431,#477,#84,.T.);
#421=EDGE_CURVE('',#441,#478,#85,.T.);
#422=EDGE_CURVE('',#446,#480,#86,.T.);
#423=EDGE_CURVE('',#456,#479,#87,.T.);
#424=EDGE_CURVE('',#457,#447,#88,.T.);
#425=EDGE_CURVE('',#430,#440,#89,.T.);
#426=VERTEX_POINT('',#880);
#427=VERTEX_POINT('',#881);
#428=VERTEX_POINT('',#883);
#429=VERTEX_POINT('',#885);
#430=VERTEX_POINT('',#889);
#431=VERTEX_POINT('',#891);
#432=VERTEX_POINT('',#895);
#433=VERTEX_POINT('',#897);
#434=VERTEX_POINT('',#901);
#435=VERTEX_POINT('',#902);
#436=VERTEX_POINT('',#904);
#437=VERTEX_POINT('',#906);
#438=VERTEX_POINT('',#910);
#439=VERTEX_POINT('',#912);
#440=VERTEX_POINT('',#916);
#441=VERTEX_POINT('',#918);
#442=VERTEX_POINT('',#922);
#443=VERTEX_POINT('',#923);
#444=VERTEX_POINT('',#925);
#445=VERTEX_POINT('',#927);
#446=VERTEX_POINT('',#931);
#447=VERTEX_POINT('',#933);
#448=VERTEX_POINT('',#937);
#449=VERTEX_POINT('',#939);
#450=VERTEX_POINT('',#943);
#451=VERTEX_POINT('',#944);
#452=VERTEX_POINT('',#946);
#453=VERTEX_POINT('',#948);
#454=VERTEX_POINT('',#952);
#455=VERTEX_POINT('',#954);
#456=VERTEX_POINT('',#958);
#457=VERTEX_POINT('',#960);
#458=VERTEX_POINT('',#964);
#459=VERTEX_POINT('',#965);
#460=VERTEX_POINT('',#967);
#461=VERTEX_POINT('',#969);
#462=VERTEX_POINT('',#973);
#463=VERTEX_POINT('',#974);
#464=VERTEX_POINT('',#976);
#465=VERTEX_POINT('',#978);
#466=VERTEX_POINT('',#988);
#467=VERTEX_POINT('',#989);
#468=VERTEX_POINT('',#991);
#469=VERTEX_POINT('',#993);
#470=VERTEX_POINT('',#997);
#471=VERTEX_POINT('',#999);
#472=VERTEX_POINT('',#1001);
#473=VERTEX_POINT('',#1005);
#474=VERTEX_POINT('',#1006);
#475=VERTEX_POINT('',#1008);
#476=VERTEX_POINT('',#1010);
#477=VERTEX_POINT('',#1013);
#478=VERTEX_POINT('',#1015);
#479=VERTEX_POINT('',#1018);
#480=VERTEX_POINT('',#1020);
#481=VERTEX_POINT('',#1031);
#482=CIRCLE('',#630,0.002);
#483=CIRCLE('',#631,0.015);
#484=CIRCLE('',#632,0.002);
#485=CIRCLE('',#633,0.017);
#486=CIRCLE('',#635,0.002);
#487=CIRCLE('',#637,0.002);
#488=CIRCLE('',#639,0.002);
#489=CIRCLE('',#640,0.015);
#490=CIRCLE('',#641,0.002);
#491=CIRCLE('',#642,0.017);
#492=CIRCLE('',#644,0.002);
#493=CIRCLE('',#646,0.002);
#494=CIRCLE('',#648,0.002);
#495=CIRCLE('',#649,0.017);
#496=CIRCLE('',#650,0.002);
#497=CIRCLE('',#651,0.015);
#498=CIRCLE('',#653,0.002);
#499=CIRCLE('',#655,0.002);
#500=CIRCLE('',#657,0.002);
#501=CIRCLE('',#658,0.017);
#502=CIRCLE('',#659,0.002);
#503=CIRCLE('',#660,0.015);
#504=CIRCLE('',#662,0.002);
#505=CIRCLE('',#664,0.002);
#506=CIRCLE('',#666,0.015);
#507=CIRCLE('',#667,0.015);
#508=CIRCLE('',#669,0.015);
#509=CIRCLE('',#670,0.015);
#510=EDGE_LOOP('',(#162,#163,#164,#165));
#511=EDGE_LOOP('',(#166,#167,#168,#169));
#512=EDGE_LOOP('',(#170,#171,#172,#173));
#513=EDGE_LOOP('',(#174,#175,#176,#177));
#514=EDGE_LOOP('',(#178,#179,#180,#181));
#515=EDGE_LOOP('',(#182,#183,#184,#185));
#516=EDGE_LOOP('',(#186,#187,#188,#189));
#517=EDGE_LOOP('',(#190,#191,#192,#193));
#518=EDGE_LOOP('',(#194,#195,#196,#197));
#519=EDGE_LOOP('',(#198,#199,#200,#201));
#520=EDGE_LOOP('',(#202,#203,#204,#205));
#521=EDGE_LOOP('',(#206,#207,#208,#209));
#522=EDGE_LOOP('',(#210,#211,#212,#213));
#523=EDGE_LOOP('',(#214,#215,#216,#217));
#524=EDGE_LOOP('',(#218,#219,#220,#221));
#525=EDGE_LOOP('',(#222,#223,#224,#225));
#526=EDGE_LOOP('',(#226,#227,#228,#229));
#527=EDGE_LOOP('',(#230,#231,#232,#233,#234));
#528=EDGE_LOOP('',(#235,#236,#237,#238,#239,#240,#241,#242,#243,#244,#245,
#246));
#529=EDGE_LOOP('',(#247,#248,#249,#250));
#530=EDGE_LOOP('',(#251,#252,#253,#254,#255,#256,#257,#258,#259,#260,#261,
#262,#263,#264,#265,#266));
#531=EDGE_LOOP('',(#267,#268,#269,#270));
#532=EDGE_LOOP('',(#271,#272,#273,#274,#275,#276));
#533=EDGE_LOOP('',(#277,#278,#279,#280,#281));
#534=EDGE_LOOP('',(#282,#283,#284,#285,#286,#287,#288));
#535=EDGE_LOOP('',(#289,#290,#291,#292,#293,#294,#295));
#536=EDGE_LOOP('',(#296,#297,#298,#299));
#537=EDGE_LOOP('',(#300,#301,#302,#303,#304,#305,#306));
#538=EDGE_LOOP('',(#307,#308,#309,#310,#311,#312,#313));
#539=EDGE_LOOP('',(#314,#315,#316,#317));
#540=EDGE_LOOP('',(#318,#319,#320,#321,#322,#323));
#541=EDGE_LOOP('',(#324,#325,#326,#327));
#542=EDGE_LOOP('',(#328,#329,#330,#331,#332,#333));
#543=EDGE_LOOP('',(#334,#335,#336,#337));
#544=FACE_BOUND('',#510,.T.);
#545=FACE_BOUND('',#511,.T.);
#546=FACE_BOUND('',#512,.T.);
#547=FACE_BOUND('',#513,.T.);
#548=FACE_BOUND('',#514,.T.);
#549=FACE_BOUND('',#515,.T.);
#550=FACE_BOUND('',#516,.T.);
#551=FACE_BOUND('',#517,.T.);
#552=FACE_BOUND('',#518,.T.);
#553=FACE_BOUND('',#519,.T.);
#554=FACE_BOUND('',#520,.T.);
#555=FACE_BOUND('',#521,.T.);
#556=FACE_BOUND('',#522,.T.);
#557=FACE_BOUND('',#523,.T.);
#558=FACE_BOUND('',#524,.T.);
#559=FACE_BOUND('',#525,.T.);
#560=FACE_BOUND('',#526,.T.);
#561=FACE_BOUND('',#527,.T.);
#562=FACE_BOUND('',#528,.T.);
#563=FACE_BOUND('',#529,.T.);
#564=FACE_BOUND('',#530,.T.);
#565=FACE_BOUND('',#531,.T.);
#566=FACE_BOUND('',#532,.T.);
#567=FACE_BOUND('',#533,.T.);
#568=FACE_BOUND('',#534,.T.);
#569=FACE_BOUND('',#535,.T.);
#570=FACE_BOUND('',#536,.T.);
#571=FACE_BOUND('',#537,.T.);
#572=FACE_BOUND('',#538,.T.);
#573=FACE_BOUND('',#539,.T.);
#574=FACE_BOUND('',#540,.T.);
#575=FACE_BOUND('',#541,.T.);
#576=FACE_BOUND('',#542,.T.);
#577=FACE_BOUND('',#543,.T.);
#578=TOROIDAL_SURFACE('',#629,0.017,0.002);
#579=TOROIDAL_SURFACE('',#638,0.017,0.002);
#580=TOROIDAL_SURFACE('',#647,0.017,0.002);
#581=TOROIDAL_SURFACE('',#656,0.017,0.002);
#582=ADVANCED_FACE('',(#544),#578,.T.);
#583=ADVANCED_FACE('',(#545),#150,.T.);
#584=ADVANCED_FACE('',(#546),#151,.T.);
#585=ADVANCED_FACE('',(#547),#579,.T.);
#586=ADVANCED_FACE('',(#548),#152,.T.);
#587=ADVANCED_FACE('',(#549),#153,.T.);
#588=ADVANCED_FACE('',(#550),#580,.T.);
#589=ADVANCED_FACE('',(#551),#154,.T.);
#590=ADVANCED_FACE('',(#552),#155,.T.);
#591=ADVANCED_FACE('',(#553),#581,.T.);
#592=ADVANCED_FACE('',(#554),#156,.T.);
#593=ADVANCED_FACE('',(#555),#157,.T.);
#594=ADVANCED_FACE('',(#556),#158,.T.);
#595=ADVANCED_FACE('',(#557),#159,.T.);
#596=ADVANCED_FACE('',(#558),#160,.F.);
#597=ADVANCED_FACE('',(#559),#161,.F.);
#598=ADVANCED_FACE('',(#560),#12,.F.);
#599=ADVANCED_FACE('',(#561),#13,.F.);
#600=ADVANCED_FACE('',(#562),#14,.T.);
#601=ADVANCED_FACE('',(#563),#15,.F.);
#602=ADVANCED_FACE('',(#564),#16,.F.);
#603=ADVANCED_FACE('',(#565),#17,.T.);
#604=ADVANCED_FACE('',(#566),#18,.T.);
#605=ADVANCED_FACE('',(#567),#19,.F.);
#606=ADVANCED_FACE('',(#568),#20,.F.);
#607=ADVANCED_FACE('',(#569),#21,.T.);
#608=ADVANCED_FACE('',(#570),#22,.F.);
#609=ADVANCED_FACE('',(#571),#23,.T.);
#610=ADVANCED_FACE('',(#572),#24,.F.);
#611=ADVANCED_FACE('',(#573),#25,.F.);
#612=ADVANCED_FACE('',(#574),#26,.T.);
#613=ADVANCED_FACE('',(#575),#27,.F.);
#614=ADVANCED_FACE('',(#576),#28,.T.);
#615=ADVANCED_FACE('',(#577),#29,.F.);
#616=CLOSED_SHELL('',(#582,#583,#584,#585,#586,#587,#588,#589,#590,#591,
#592,#593,#594,#595,#596,#597,#598,#599,#600,#601,#602,#603,#604,#605,#606,
#607,#608,#609,#610,#611,#612,#613,#614,#615));
#617=STYLED_ITEM('',(#618),#625);
#618=PRESENTATION_STYLE_ASSIGNMENT((#619));
#619=SURFACE_STYLE_USAGE(.BOTH.,#620);
#620=SURFACE_SIDE_STYLE('',(#621));
#621=SURFACE_STYLE_FILL_AREA(#622);
#622=FILL_AREA_STYLE('',(#623));
#623=FILL_AREA_STYLE_COLOUR('',#624);
#624=COLOUR_RGB('',0.615686274509804,0.811764705882353,0.929411764705882);
#625=MANIFOLD_SOLID_BREP('Part 1',#616);
#626=SHAPE_DEFINITION_REPRESENTATION(#1062,#627);
#627=SHAPE_REPRESENTATION('Part 1',(#628),#1057);
#628=AXIS2_PLACEMENT_3D('',#877,#691,#692);
#629=AXIS2_PLACEMENT_3D('',#878,#693,#694);
#630=AXIS2_PLACEMENT_3D('',#879,#695,#696);
#631=AXIS2_PLACEMENT_3D('',#882,#697,#698);
#632=AXIS2_PLACEMENT_3D('',#884,#699,#700);
#633=AXIS2_PLACEMENT_3D('',#886,#701,#702);
#634=AXIS2_PLACEMENT_3D('',#887,#703,#704);
#635=AXIS2_PLACEMENT_3D('',#890,#706,#707);
#636=AXIS2_PLACEMENT_3D('',#893,#709,#710);
#637=AXIS2_PLACEMENT_3D('',#898,#713,#714);
#638=AXIS2_PLACEMENT_3D('',#899,#715,#716);
#639=AXIS2_PLACEMENT_3D('',#900,#717,#718);
#640=AXIS2_PLACEMENT_3D('',#903,#719,#720);
#641=AXIS2_PLACEMENT_3D('',#905,#721,#722);
#642=AXIS2_PLACEMENT_3D('',#907,#723,#724);
#643=AXIS2_PLACEMENT_3D('',#908,#725,#726);
#644=AXIS2_PLACEMENT_3D('',#911,#728,#729);
#645=AXIS2_PLACEMENT_3D('',#914,#731,#732);
#646=AXIS2_PLACEMENT_3D('',#919,#735,#736);
#647=AXIS2_PLACEMENT_3D('',#920,#737,#738);
#648=AXIS2_PLACEMENT_3D('',#921,#739,#740);
#649=AXIS2_PLACEMENT_3D('',#924,#741,#742);
#650=AXIS2_PLACEMENT_3D('',#926,#743,#744);
#651=AXIS2_PLACEMENT_3D('',#928,#745,#746);
#652=AXIS2_PLACEMENT_3D('',#929,#747,#748);
#653=AXIS2_PLACEMENT_3D('',#932,#750,#751);
#654=AXIS2_PLACEMENT_3D('',#935,#753,#754);
#655=AXIS2_PLACEMENT_3D('',#940,#757,#758);
#656=AXIS2_PLACEMENT_3D('',#941,#759,#760);
#657=AXIS2_PLACEMENT_3D('',#942,#761,#762);
#658=AXIS2_PLACEMENT_3D('',#945,#763,#764);
#659=AXIS2_PLACEMENT_3D('',#947,#765,#766);
#660=AXIS2_PLACEMENT_3D('',#949,#767,#768);
#661=AXIS2_PLACEMENT_3D('',#950,#769,#770);
#662=AXIS2_PLACEMENT_3D('',#953,#772,#773);
#663=AXIS2_PLACEMENT_3D('',#956,#775,#776);
#664=AXIS2_PLACEMENT_3D('',#961,#779,#780);
#665=AXIS2_PLACEMENT_3D('',#962,#781,#782);
#666=AXIS2_PLACEMENT_3D('',#966,#784,#785);
#667=AXIS2_PLACEMENT_3D('',#970,#787,#788);
#668=AXIS2_PLACEMENT_3D('',#971,#789,#790);
#669=AXIS2_PLACEMENT_3D('',#975,#792,#793);
#670=AXIS2_PLACEMENT_3D('',#979,#795,#796);
#671=AXIS2_PLACEMENT_3D('',#980,#797,#798);
#672=AXIS2_PLACEMENT_3D('',#983,#801,#802);
#673=AXIS2_PLACEMENT_3D('',#986,#805,#806);
#674=AXIS2_PLACEMENT_3D('',#995,#811,#812);
#675=AXIS2_PLACEMENT_3D('',#1003,#817,#818);
#676=AXIS2_PLACEMENT_3D('',#1022,#829,#830);
#677=AXIS2_PLACEMENT_3D('',#1025,#833,#834);
#678=AXIS2_PLACEMENT_3D('',#1035,#843,#844);
#679=AXIS2_PLACEMENT_3D('',#1037,#846,#847);
#680=AXIS2_PLACEMENT_3D('',#1038,#848,#849);
#681=AXIS2_PLACEMENT_3D('',#1040,#851,#852);
#682=AXIS2_PLACEMENT_3D('',#1042,#854,#855);
#683=AXIS2_PLACEMENT_3D('',#1044,#857,#858);
#684=AXIS2_PLACEMENT_3D('',#1045,#859,#860);
#685=AXIS2_PLACEMENT_3D('',#1047,#862,#863);
#686=AXIS2_PLACEMENT_3D('',#1049,#865,#866);
#687=AXIS2_PLACEMENT_3D('',#1050,#867,#868);
#688=AXIS2_PLACEMENT_3D('',#1052,#870,#871);
#689=AXIS2_PLACEMENT_3D('',#1053,#872,#873);
#690=AXIS2_PLACEMENT_3D('',#1055,#875,#876);
#691=DIRECTION('',(0.,0.,1.));
#692=DIRECTION('',(1.,0.,0.));
#693=DIRECTION('',(-1.,-4.16333634234434E-16,0.));
#694=DIRECTION('',(4.16333634234434E-16,-1.,0.));
#695=DIRECTION('',(0.,-1.,0.));
#696=DIRECTION('',(0.,0.,-1.));
#697=DIRECTION('',(-1.,-4.16333634234434E-16,0.));
#698=DIRECTION('',(4.16333634234434E-16,-1.,0.));
#699=DIRECTION('',(0.,0.,1.));
#700=DIRECTION('',(1.,0.,0.));
#701=DIRECTION('',(-1.,-4.16333634234434E-16,0.));
#702=DIRECTION('',(4.16333634234434E-16,-1.,0.));
#703=DIRECTION('',(0.,0.,1.));
#704=DIRECTION('',(1.,0.,0.));
#705=DIRECTION('',(0.,0.,1.));
#706=DIRECTION('',(0.,0.,-1.));
#707=DIRECTION('',(-1.,0.,0.));
#708=DIRECTION('',(0.,0.,1.));
#709=DIRECTION('',(4.16333634234434E-16,-1.,0.));
#710=DIRECTION('',(1.,4.16333634234434E-16,0.));
#711=DIRECTION('',(4.16333634234434E-16,-1.,0.));
#712=DIRECTION('',(4.16333634234434E-16,-1.,0.));
#713=DIRECTION('',(0.,1.,0.));
#714=DIRECTION('',(0.,0.,1.));
#715=DIRECTION('',(-1.,-4.16333634234434E-16,0.));
#716=DIRECTION('',(4.16333634234434E-16,-1.,0.));
#717=DIRECTION('',(0.,0.,-1.));
#718=DIRECTION('',(-1.,0.,0.));
#719=DIRECTION('',(-1.,-4.16333634234434E-16,0.));
#720=DIRECTION('',(4.16333634234434E-16,-1.,0.));
#721=DIRECTION('',(0.,1.,0.));
#722=DIRECTION('',(0.,0.,1.));
#723=DIRECTION('',(-1.,-4.16333634234434E-16,0.));
#724=DIRECTION('',(4.16333634234434E-16,-1.,0.));
#725=DIRECTION('',(4.16333634234434E-16,-1.,0.));
#726=DIRECTION('',(1.,4.16333634234434E-16,0.));
#727=DIRECTION('',(-4.16333634234434E-16,1.,0.));
#728=DIRECTION('',(0.,1.,0.));
#729=DIRECTION('',(0.,0.,1.));
#730=DIRECTION('',(-4.16333634234434E-16,1.,0.));
#731=DIRECTION('',(0.,0.,1.));
#732=DIRECTION('',(1.,0.,0.));
#733=DIRECTION('',(0.,0.,-1.));
#734=DIRECTION('',(0.,0.,-1.));
#735=DIRECTION('',(0.,0.,-1.));
#736=DIRECTION('',(-1.,0.,0.));
#737=DIRECTION('',(-1.,0.,0.));
#738=DIRECTION('',(0.,0.,1.));
#739=DIRECTION('',(0.,-1.,0.));
#740=DIRECTION('',(0.,0.,-1.));
#741=DIRECTION('',(-1.,0.,0.));
#742=DIRECTION('',(0.,0.,1.));
#743=DIRECTION('',(0.,0.,1.));
#744=DIRECTION('',(1.,0.,0.));
#745=DIRECTION('',(-1.,0.,0.));
#746=DIRECTION('',(0.,0.,1.));
#747=DIRECTION('',(0.,0.,-1.));
#748=DIRECTION('',(-1.,0.,0.));
#749=DIRECTION('',(0.,0.,1.));
#750=DIRECTION('',(0.,0.,-1.));
#751=DIRECTION('',(-1.,0.,0.));
#752=DIRECTION('',(0.,0.,1.));
#753=DIRECTION('',(0.,1.,0.));
#754=DIRECTION('',(0.,0.,1.));
#755=DIRECTION('',(0.,-1.,0.));
#756=DIRECTION('',(0.,-1.,0.));
#757=DIRECTION('',(0.,1.,0.));
#758=DIRECTION('',(0.,0.,1.));
#759=DIRECTION('',(-1.,0.,0.));
#760=DIRECTION('',(0.,0.,1.));
#761=DIRECTION('',(0.,0.,-1.));
#762=DIRECTION('',(-1.,0.,0.));
#763=DIRECTION('',(-1.,0.,0.));
#764=DIRECTION('',(0.,0.,1.));
#765=DIRECTION('',(0.,1.,0.));
#766=DIRECTION('',(0.,0.,1.));
#767=DIRECTION('',(-1.,0.,0.));
#768=DIRECTION('',(0.,0.,1.));
#769=DIRECTION('',(0.,1.,0.));
#770=DIRECTION('',(0.,0.,1.));
#771=DIRECTION('',(0.,1.,0.));
#772=DIRECTION('',(0.,1.,0.));
#773=DIRECTION('',(0.,0.,1.));
#774=DIRECTION('',(0.,1.,0.));
#775=DIRECTION('',(0.,0.,-1.));
#776=DIRECTION('',(-1.,0.,0.));
#777=DIRECTION('',(0.,0.,-1.));
#778=DIRECTION('',(0.,0.,-1.));
#779=DIRECTION('',(0.,0.,-1.));
#780=DIRECTION('',(-1.,0.,0.));
#781=DIRECTION('',(0.,0.,-1.));
#782=DIRECTION('',(-1.,0.,0.));
#783=DIRECTION('',(0.,0.,-1.));
#784=DIRECTION('',(0.,0.,1.));
#785=DIRECTION('',(1.,0.,0.));
#786=DIRECTION('',(0.,0.,-1.));
#787=DIRECTION('',(0.,0.,1.));
#788=DIRECTION('',(1.,0.,0.));
#789=DIRECTION('',(0.,0.,-1.));
#790=DIRECTION('',(-1.,0.,0.));
#791=DIRECTION('',(0.,0.,1.));
#792=DIRECTION('',(0.,0.,1.));
#793=DIRECTION('',(1.,0.,0.));
#794=DIRECTION('',(0.,0.,1.));
#795=DIRECTION('',(0.,0.,1.));
#796=DIRECTION('',(1.,0.,0.));
#797=DIRECTION('',(1.,0.,0.));
#798=DIRECTION('',(0.,0.,-1.));
#799=DIRECTION('',(-1.,0.,0.));
#800=DIRECTION('',(-1.,0.,0.));
#801=DIRECTION('',(-1.,0.,0.));
#802=DIRECTION('',(0.,0.,1.));
#803=DIRECTION('',(1.,0.,0.));
#804=DIRECTION('',(1.,0.,0.));
#805=DIRECTION('',(0.,0.,1.));
#806=DIRECTION('',(1.,0.,0.));
#807=DIRECTION('',(0.,-1.,0.));
#808=DIRECTION('',(1.,0.,0.));
#809=DIRECTION('',(4.16333634234434E-16,-1.,0.));
#810=DIRECTION('',(1.,0.,0.));
#811=DIRECTION('',(0.,0.,1.));
#812=DIRECTION('',(1.,0.,0.));
#813=DIRECTION('',(6.93889390390723E-17,-1.,0.));
#814=DIRECTION('',(1.,0.,0.));
#815=DIRECTION('',(4.16333634234434E-16,-1.,0.));
#816=DIRECTION('',(1.,0.,0.));
#817=DIRECTION('',(0.,1.,0.));
#818=DIRECTION('',(0.,0.,1.));
#819=DIRECTION('',(1.,0.,0.));
#820=DIRECTION('',(0.,0.,-1.));
#821=DIRECTION('',(1.,0.,0.));
#822=DIRECTION('',(0.,0.,-1.));
#823=DIRECTION('',(0.,0.,1.));
#824=DIRECTION('',(-1.,0.,0.));
#825=DIRECTION('',(0.,0.,1.));
#826=DIRECTION('',(0.,0.,1.));
#827=DIRECTION('',(-1.,0.,0.));
#828=DIRECTION('',(0.,0.,1.));
#829=DIRECTION('',(1.,0.,0.));
#830=DIRECTION('',(0.,0.,-1.));
#831=DIRECTION('',(0.,-1.,0.));
#832=DIRECTION('',(0.,-1.,0.));
#833=DIRECTION('',(0.,1.,0.));
#834=DIRECTION('',(0.,0.,1.));
#835=DIRECTION('',(0.,0.,1.));
#836=DIRECTION('',(1.,0.,0.));
#837=DIRECTION('',(0.,0.,1.));
#838=DIRECTION('',(1.,0.,0.));
#839=DIRECTION('',(1.,0.,0.));
#840=DIRECTION('',(0.,0.,1.));
#841=DIRECTION('',(1.,0.,0.));
#842=DIRECTION('',(0.,0.,1.));
#843=DIRECTION('',(1.,6.93889390390723E-17,0.));
#844=DIRECTION('',(-6.93889390390723E-17,1.,0.));
#845=DIRECTION('',(6.93889390390723E-17,-1.,0.));
#846=DIRECTION('',(0.,0.,1.));
#847=DIRECTION('',(1.,0.,0.));
#848=DIRECTION('',(0.,0.,1.));
#849=DIRECTION('',(1.,0.,0.));
#850=DIRECTION('',(0.,-1.,0.));
#851=DIRECTION('',(-1.,-4.16333634234434E-16,0.));
#852=DIRECTION('',(4.16333634234434E-16,-1.,0.));
#853=DIRECTION('',(0.,1.,0.));
#854=DIRECTION('',(-1.,-4.16333634234434E-16,0.));
#855=DIRECTION('',(4.16333634234434E-16,-1.,0.));
#856=DIRECTION('',(0.,1.,0.));
#857=DIRECTION('',(0.,0.,1.));
#858=DIRECTION('',(1.,0.,0.));
#859=DIRECTION('',(-1.,0.,0.));
#860=DIRECTION('',(0.,0.,1.));
#861=DIRECTION('',(0.,1.,0.));
#862=DIRECTION('',(-1.,0.,0.));
#863=DIRECTION('',(0.,0.,1.));
#864=DIRECTION('',(0.,1.,0.));
#865=DIRECTION('',(0.,0.,1.));
#866=DIRECTION('',(1.,0.,0.));
#867=DIRECTION('',(0.,0.,-1.));
#868=DIRECTION('',(-1.,0.,0.));
#869=DIRECTION('',(-1.,0.,0.));
#870=DIRECTION('',(0.,1.,0.));
#871=DIRECTION('',(-1.,0.,0.));
#872=DIRECTION('',(0.,0.,-1.));
#873=DIRECTION('',(-1.,0.,0.));
#874=DIRECTION('',(-1.,0.,0.));
#875=DIRECTION('',(0.,1.,0.));
#876=DIRECTION('',(-1.,0.,0.));
#877=CARTESIAN_POINT('',(0.,0.,0.));
#878=CARTESIAN_POINT('',(-0.110168922662735,0.0936960871145129,-0.0175));
#879=CARTESIAN_POINT('',(-0.110168922662735,0.0936960871145129,-0.0005));
#880=CARTESIAN_POINT('',(-0.110168922662735,0.0936960871145129,-0.0025));
#881=CARTESIAN_POINT('',(-0.108168922662735,0.0936960871145129,-0.0005));
#882=CARTESIAN_POINT('',(-0.110168922662735,0.0936960871145129,-0.0175));
#883=CARTESIAN_POINT('',(-0.110168922662735,0.108696087114513,-0.0175));
#884=CARTESIAN_POINT('',(-0.110168922662735,0.110696087114513,-0.0175));
#885=CARTESIAN_POINT('',(-0.108168922662735,0.110696087114513,-0.0175));
#886=CARTESIAN_POINT('',(-0.108168922662735,0.0936960871145129,-0.0175));
#887=CARTESIAN_POINT('',(-0.110168922662735,0.110696087114513,-0.0225));
#888=CARTESIAN_POINT('',(-0.110168922662735,0.108696087114513,-0.0225));
#889=CARTESIAN_POINT('',(-0.110168922662735,0.108696087114513,-0.06));
#890=CARTESIAN_POINT('',(-0.110168922662735,0.110696087114513,-0.06));
#891=CARTESIAN_POINT('',(-0.108168922662735,0.110696087114513,-0.06));
#892=CARTESIAN_POINT('',(-0.108168922662735,0.110696087114513,-0.0025));
#893=CARTESIAN_POINT('',(-0.110168922662735,0.061196087114513,-0.0005));
#894=CARTESIAN_POINT('',(-0.110168922662735,0.061196087114513,-0.0025));
#895=CARTESIAN_POINT('',(-0.110168922662735,0.0111960871145129,-0.0025));
#896=CARTESIAN_POINT('',(-0.108168922662735,0.0611960871145129,-0.0005));
#897=CARTESIAN_POINT('',(-0.108168922662735,0.0111960871145129,-0.0005));
#898=CARTESIAN_POINT('',(-0.110168922662735,0.0111960871145129,-0.0005));
#899=CARTESIAN_POINT('',(-0.116168922662735,0.0936960871145129,-0.0175));
#900=CARTESIAN_POINT('',(-0.116168922662735,0.110696087114513,-0.0175));
#901=CARTESIAN_POINT('',(-0.116168922662735,0.108696087114513,-0.0175));
#902=CARTESIAN_POINT('',(-0.118168922662735,0.110696087114513,-0.0175));
#903=CARTESIAN_POINT('',(-0.116168922662735,0.0936960871145129,-0.0175));
#904=CARTESIAN_POINT('',(-0.116168922662735,0.0936960871145129,-0.0025));
#905=CARTESIAN_POINT('',(-0.116168922662735,0.0936960871145129,-0.0005));
#906=CARTESIAN_POINT('',(-0.118168922662735,0.0936960871145129,-0.0005));
#907=CARTESIAN_POINT('',(-0.118168922662735,0.0936960871145129,-0.0175));
#908=CARTESIAN_POINT('',(-0.116168922662735,0.061196087114513,-0.0005));
#909=CARTESIAN_POINT('',(-0.116168922662735,0.061196087114513,-0.0025));
#910=CARTESIAN_POINT('',(-0.116168922662735,0.0111960871145129,-0.0025));
#911=CARTESIAN_POINT('',(-0.116168922662735,0.0111960871145129,-0.0005));
#912=CARTESIAN_POINT('',(-0.118168922662735,0.0111960871145129,-0.0005));
#913=CARTESIAN_POINT('',(-0.118168922662735,0.061196087114513,-0.0005));
#914=CARTESIAN_POINT('',(-0.116168922662735,0.110696087114513,-0.0225));
#915=CARTESIAN_POINT('',(-0.116168922662735,0.108696087114513,-0.0225));
#916=CARTESIAN_POINT('',(-0.116168922662735,0.108696087114513,-0.06));
#917=CARTESIAN_POINT('',(-0.118168922662735,0.110696087114513,-0.0225));
#918=CARTESIAN_POINT('',(-0.118168922662735,0.110696087114513,-0.06));
#919=CARTESIAN_POINT('',(-0.116168922662735,0.110696087114513,-0.06));
#920=CARTESIAN_POINT('',(-0.446168922662735,0.0936960871145129,-0.0175));
#921=CARTESIAN_POINT('',(-0.446168922662735,0.0936960871145129,-0.0005));
#922=CARTESIAN_POINT('',(-0.448168922662735,0.0936960871145129,-0.0005));
#923=CARTESIAN_POINT('',(-0.446168922662735,0.0936960871145129,-0.0025));
#924=CARTESIAN_POINT('',(-0.448168922662735,0.0936960871145129,-0.0175));
#925=CARTESIAN_POINT('',(-0.448168922662735,0.110696087114513,-0.0175));
#926=CARTESIAN_POINT('',(-0.446168922662735,0.110696087114513,-0.0175));
#927=CARTESIAN_POINT('',(-0.446168922662735,0.108696087114513,-0.0175));
#928=CARTESIAN_POINT('',(-0.446168922662735,0.0936960871145129,-0.0175));
#929=CARTESIAN_POINT('',(-0.446168922662735,0.110696087114513,-0.0025));
#930=CARTESIAN_POINT('',(-0.448168922662735,0.110696087114513,-0.0025));
#931=CARTESIAN_POINT('',(-0.448168922662735,0.110696087114513,-0.06));
#932=CARTESIAN_POINT('',(-0.446168922662735,0.110696087114513,-0.06));
#933=CARTESIAN_POINT('',(-0.446168922662735,0.108696087114513,-0.06));
#934=CARTESIAN_POINT('',(-0.446168922662735,0.108696087114513,-0.0025));
#935=CARTESIAN_POINT('',(-0.446168922662735,0.0611960871145129,-0.0005));
#936=CARTESIAN_POINT('',(-0.448168922662735,0.0611960871145129,-0.0005));
#937=CARTESIAN_POINT('',(-0.448168922662735,0.0111960871145129,-0.0005));
#938=CARTESIAN_POINT('',(-0.446168922662735,0.0611960871145129,-0.0025));
#939=CARTESIAN_POINT('',(-0.446168922662735,0.0111960871145129,-0.0025));
#940=CARTESIAN_POINT('',(-0.446168922662735,0.0111960871145129,-0.0005));
#941=CARTESIAN_POINT('',(-0.440168922662735,0.0936960871145129,-0.0175));
#942=CARTESIAN_POINT('',(-0.440168922662735,0.110696087114513,-0.0175));
#943=CARTESIAN_POINT('',(-0.438168922662735,0.110696087114513,-0.0175));
#944=CARTESIAN_POINT('',(-0.440168922662735,0.108696087114513,-0.0175));
#945=CARTESIAN_POINT('',(-0.438168922662735,0.0936960871145129,-0.0175));
#946=CARTESIAN_POINT('',(-0.438168922662735,0.0936960871145129,-0.0005));
#947=CARTESIAN_POINT('',(-0.440168922662735,0.0936960871145129,-0.0005));
#948=CARTESIAN_POINT('',(-0.440168922662735,0.0936960871145129,-0.0025));
#949=CARTESIAN_POINT('',(-0.440168922662735,0.0936960871145129,-0.0175));
#950=CARTESIAN_POINT('',(-0.440168922662735,0.0611960871145129,-0.0005));
#951=CARTESIAN_POINT('',(-0.438168922662735,0.0611960871145129,-0.0005));
#952=CARTESIAN_POINT('',(-0.438168922662735,0.0111960871145129,-0.0005));
#953=CARTESIAN_POINT('',(-0.440168922662735,0.0111960871145129,-0.0005));
#954=CARTESIAN_POINT('',(-0.440168922662735,0.0111960871145129,-0.0025));
#955=CARTESIAN_POINT('',(-0.440168922662735,0.0611960871145129,-0.0025));
#956=CARTESIAN_POINT('',(-0.440168922662735,0.110696087114513,-0.0025));
#957=CARTESIAN_POINT('',(-0.438168922662735,0.110696087114513,-0.0025));
#958=CARTESIAN_POINT('',(-0.438168922662735,0.110696087114513,-0.06));
#959=CARTESIAN_POINT('',(-0.440168922662735,0.108696087114513,-0.0225));
#960=CARTESIAN_POINT('',(-0.440168922662735,0.108696087114513,-0.06));
#961=CARTESIAN_POINT('',(-0.440168922662735,0.110696087114513,-0.06));
#962=CARTESIAN_POINT('',(-0.513168922662735,0.0261960871145129,0.015));
#963=CARTESIAN_POINT('',(-0.513168922662735,0.0111960871145129,0.015));
#964=CARTESIAN_POINT('',(-0.513168922662735,0.0111960871145129,0.015));
#965=CARTESIAN_POINT('',(-0.513168922662735,0.0111960871145129,0.));
#966=CARTESIAN_POINT('',(-0.513168922662735,0.0261960871145129,0.015));
#967=CARTESIAN_POINT('',(-0.528168922662735,0.0261960871145129,0.015));
#968=CARTESIAN_POINT('',(-0.528168922662735,0.0261960871145129,0.015));
#969=CARTESIAN_POINT('',(-0.528168922662735,0.0261960871145129,0.));
#970=CARTESIAN_POINT('',(-0.513168922662735,0.0261960871145129,0.));
#971=CARTESIAN_POINT('',(-0.043168922662735,0.0261960871145129,0.015));
#972=CARTESIAN_POINT('',(-0.043168922662735,0.0111960871145129,0.015));
#973=CARTESIAN_POINT('',(-0.043168922662735,0.0111960871145129,0.));
#974=CARTESIAN_POINT('',(-0.043168922662735,0.0111960871145129,0.015));
#975=CARTESIAN_POINT('',(-0.043168922662735,0.0261960871145129,0.));
#976=CARTESIAN_POINT('',(-0.0281689226627349,0.0261960871145129,0.));
#977=CARTESIAN_POINT('',(-0.0281689226627349,0.0261960871145129,0.015));
#978=CARTESIAN_POINT('',(-0.0281689226627349,0.0261960871145129,0.015));
#979=CARTESIAN_POINT('',(-0.043168922662735,0.0261960871145129,0.015));
#980=CARTESIAN_POINT('',(-0.278168922662735,0.0936960871145129,-0.0175));
#981=CARTESIAN_POINT('',(-0.278168922662735,0.0936960871145129,-0.0025));
#982=CARTESIAN_POINT('',(-0.278168922662735,0.108696087114513,-0.0175));
#983=CARTESIAN_POINT('',(-0.278168922662735,0.0936960871145129,-0.0175));
#984=CARTESIAN_POINT('',(-0.278168922662735,0.108696087114513,-0.0175));
#985=CARTESIAN_POINT('',(-0.278168922662735,0.0936960871145129,-0.0025));
#986=CARTESIAN_POINT('',(-0.278168922662735,0.0611960871145129,0.));
#987=CARTESIAN_POINT('',(-0.438168922662735,0.0611960871145129,0.));
#988=CARTESIAN_POINT('',(-0.438168922662735,0.111196087114513,0.));
#989=CARTESIAN_POINT('',(-0.438168922662735,0.0111960871145129,0.));
#990=CARTESIAN_POINT('',(-0.278168922662735,0.111196087114513,0.));
#991=CARTESIAN_POINT('',(-0.118168922662735,0.111196087114513,0.));
#992=CARTESIAN_POINT('',(-0.118168922662735,0.0611960871145129,0.));
#993=CARTESIAN_POINT('',(-0.118168922662735,0.0111960871145129,0.));
#994=CARTESIAN_POINT('',(-0.278168922662735,0.0111960871145129,0.));
#995=CARTESIAN_POINT('',(-0.278168922662735,0.0611960871145129,0.));
#996=CARTESIAN_POINT('',(-0.0281689226627349,0.0611960871145129,0.));
#997=CARTESIAN_POINT('',(-0.0281689226627349,0.111196087114513,0.));
#998=CARTESIAN_POINT('',(-0.278168922662735,0.0111960871145129,0.));
#999=CARTESIAN_POINT('',(-0.108168922662735,0.0111960871145129,0.));
#1000=CARTESIAN_POINT('',(-0.108168922662735,0.0611960871145129,0.));
#1001=CARTESIAN_POINT('',(-0.108168922662735,0.111196087114513,0.));
#1002=CARTESIAN_POINT('',(-0.278168922662735,0.111196087114513,0.));
#1003=CARTESIAN_POINT('',(-0.278168922662735,0.111196087114513,0.015));
#1004=CARTESIAN_POINT('',(-0.278168922662735,0.111196087114513,0.));
#1005=CARTESIAN_POINT('',(-0.528168922662735,0.111196087114513,0.));
#1006=CARTESIAN_POINT('',(-0.448168922662735,0.111196087114513,0.));
#1007=CARTESIAN_POINT('',(-0.528168922662735,0.111196087114513,0.015));
#1008=CARTESIAN_POINT('',(-0.528168922662735,0.111196087114513,0.015));
#1009=CARTESIAN_POINT('',(-0.278168922662735,0.111196087114513,0.015));
#1010=CARTESIAN_POINT('',(-0.0281689226627349,0.111196087114513,0.015));
#1011=CARTESIAN_POINT('',(-0.0281689226627349,0.111196087114513,0.015));
#1012=CARTESIAN_POINT('',(-0.108168922662735,0.111196087114513,-0.0025));
#1013=CARTESIAN_POINT('',(-0.108168922662735,0.111196087114513,-0.06));
#1014=CARTESIAN_POINT('',(-0.113168922662735,0.111196087114513,-0.06));
#1015=CARTESIAN_POINT('',(-0.118168922662735,0.111196087114513,-0.06));
#1016=CARTESIAN_POINT('',(-0.118168922662735,0.111196087114513,-0.0025));
#1017=CARTESIAN_POINT('',(-0.438168922662735,0.111196087114513,-0.0025));
#1018=CARTESIAN_POINT('',(-0.438168922662735,0.111196087114513,-0.06));
#1019=CARTESIAN_POINT('',(-0.443168922662735,0.111196087114513,-0.06));
#1020=CARTESIAN_POINT('',(-0.448168922662735,0.111196087114513,-0.06));
#1021=CARTESIAN_POINT('',(-0.448168922662735,0.111196087114513,-0.0025));
#1022=CARTESIAN_POINT('',(-0.528168922662735,0.0611960871145129,0.015));
#1023=CARTESIAN_POINT('',(-0.528168922662735,0.0611960871145129,0.));
#1024=CARTESIAN_POINT('',(-0.528168922662735,0.0611960871145129,0.015));
#1025=CARTESIAN_POINT('',(-0.278168922662735,0.0111960871145129,0.015));
#1026=CARTESIAN_POINT('',(-0.118168922662735,0.0111960871145129,-0.0025));
#1027=CARTESIAN_POINT('',(-0.278168922662735,0.0111960871145129,-0.0025));
#1028=CARTESIAN_POINT('',(-0.108168922662735,0.0111960871145129,-0.0025));
#1029=CARTESIAN_POINT('',(-0.278168922662735,0.0111960871145129,0.015));
#1030=CARTESIAN_POINT('',(-0.278168922662735,0.0111960871145129,0.));
#1031=CARTESIAN_POINT('',(-0.448168922662735,0.0111960871145129,0.));
#1032=CARTESIAN_POINT('',(-0.448168922662735,0.0111960871145129,-0.0025));
#1033=CARTESIAN_POINT('',(-0.278168922662735,0.0111960871145129,-0.0025));
#1034=CARTESIAN_POINT('',(-0.438168922662735,0.0111960871145129,-0.0025));
#1035=CARTESIAN_POINT('',(-0.0281689226627349,0.0611960871145129,0.015));
#1036=CARTESIAN_POINT('',(-0.0281689226627349,0.0611960871145129,0.015));
#1037=CARTESIAN_POINT('',(-0.278168922662735,0.0611960871145129,0.015));
#1038=CARTESIAN_POINT('',(-0.278168922662735,0.0611960871145129,0.));
#1039=CARTESIAN_POINT('',(-0.448168922662735,0.0611960871145129,0.));
#1040=CARTESIAN_POINT('',(-0.108168922662735,0.0611960871145129,-0.0025));
#1041=CARTESIAN_POINT('',(-0.108168922662735,0.108696087114513,-0.06));
#1042=CARTESIAN_POINT('',(-0.118168922662735,0.0611960871145129,-0.0025));
#1043=CARTESIAN_POINT('',(-0.118168922662735,0.108696087114513,-0.06));
#1044=CARTESIAN_POINT('',(-0.278168922662735,0.0611960871145129,-0.0025));
#1045=CARTESIAN_POINT('',(-0.448168922662735,0.0611960871145129,-0.0025));
#1046=CARTESIAN_POINT('',(-0.448168922662735,0.108696087114513,-0.06));
#1047=CARTESIAN_POINT('',(-0.438168922662735,0.0611960871145129,-0.0025));
#1048=CARTESIAN_POINT('',(-0.438168922662735,0.108696087114513,-0.06));
#1049=CARTESIAN_POINT('',(-0.278168922662735,0.0611960871145129,-0.0025));
#1050=CARTESIAN_POINT('',(-0.443168922662735,0.108696087114513,-0.06));
#1051=CARTESIAN_POINT('',(-0.443168922662735,0.108696087114513,-0.06));
#1052=CARTESIAN_POINT('',(-0.278168922662735,0.108696087114513,-0.0225));
#1053=CARTESIAN_POINT('',(-0.113168922662735,0.108696087114513,-0.06));
#1054=CARTESIAN_POINT('',(-0.113168922662735,0.108696087114513,-0.06));
#1055=CARTESIAN_POINT('',(-0.278168922662735,0.108696087114513,-0.0225));
#1056=MECHANICAL_DESIGN_GEOMETRIC_PRESENTATION_REPRESENTATION('',(#617),
#1057);
#1057=(
GEOMETRIC_REPRESENTATION_CONTEXT(3)
GLOBAL_UNCERTAINTY_ASSIGNED_CONTEXT((#1058))
GLOBAL_UNIT_ASSIGNED_CONTEXT((#1061,#1060,#1059))
REPRESENTATION_CONTEXT('Part 1','TOP_LEVEL_ASSEMBLY_PART')
);
#1058=UNCERTAINTY_MEASURE_WITH_UNIT(LENGTH_MEASURE(1.E-8),#1061,
'DISTANCE_ACCURACY_VALUE','Maximum Tolerance applied to model');
#1059=(
NAMED_UNIT(*)
SI_UNIT($,.STERADIAN.)
SOLID_ANGLE_UNIT()
);
#1060=(
NAMED_UNIT(*)
PLANE_ANGLE_UNIT()
SI_UNIT($,.RADIAN.)
);
#1061=(
LENGTH_UNIT()
NAMED_UNIT(*)
SI_UNIT($,.METRE.)
);
#1062=PRODUCT_DEFINITION_SHAPE('','',#1063);
#1063=PRODUCT_DEFINITION('','',#1065,#1064);
#1064=PRODUCT_DEFINITION_CONTEXT('',#1071,'design');
#1065=PRODUCT_DEFINITION_FORMATION_WITH_SPECIFIED_SOURCE('','',#1067,
 .NOT_KNOWN.);
#1066=PRODUCT_RELATED_PRODUCT_CATEGORY('','',(#1067));
#1067=PRODUCT('Part 1','Part 1','Part 1',(#1069));
#1068=PRODUCT_CATEGORY('','');
#1069=PRODUCT_CONTEXT('',#1071,'mechanical');
#1070=APPLICATION_PROTOCOL_DEFINITION('international standard',
'ap242_managed_model_based_3d_engineering',2020,#1071);
#1071=APPLICATION_CONTEXT('managed model based 3d engineering');
ENDSEC;
END-ISO-10303-21;
