ISO-10303-21;
HEADER;
/* Generated by software containing ST-Developer
 * from STEP Tools, Inc. (www.steptools.com) 
 */
/* OPTION: using custom renumber hook */

FILE_DESCRIPTION(
/* description */ ('STEP AP242 Edition 2',
'CAx-IF Rec.Pracs.---Representation and Presentation of Product Manufa
cturing Information (PMI)---4.0---2014-10-13',
'CAx-IF Rec.Pracs.---3D Tessellated Geometry---0.4---2014-09-14','2;1',
'CAx-IF Rec.Pracs.---User Defined Attributes---1.5---2016-08-15'),
/* implementation_level */ '2;1');

FILE_NAME(
/* name */ 'Part Studio 1 - Part 1',
/* time_stamp */ '2026-09-03T18:19:20Z',
/* author */ (''),
/* organization */ (''),
/* preprocessor_version */ 'ST-DEVELOPER v20',
/* originating_system */ 'ONSHAPE BY PTC INC, 1.220',
/* authorisation */ '  ');

FILE_SCHEMA (('AP242_MANAGED_MODEL_BASED_3D_ENGINEERING_MIM_LF { 1 0 10303 442 3 1 4 }'));
ENDSEC;

DATA;
#10=SHAPE_REPRESENTATION_RELATIONSHIP('','',#339,#11);
#11=ADVANCED_BREP_SHAPE_REPRESENTATION('',(#337),#629);
#12=SPHERICAL_SURFACE('',#359,0.03);
#13=SPHERICAL_SURFACE('',#366,0.03);
#14=SPHERICAL_SURFACE('',#368,0.03);
#15=SPHERICAL_SURFACE('',#374,0.03);
#16=B_SPLINE_CURVE_WITH_KNOTS('',3,(#525,#526,#527,#528,#529,#530,#531),
 .UNSPECIFIED.,.F.,.F.,(4,1,1,1,4),(0.,0.00482880586430364,0.00965761172860729,
0.0144864175929109,0.0193152234572146),.UNSPECIFIED.);
#17=B_SPLINE_CURVE_WITH_KNOTS('',3,(#533,#534,#535,#536,#537),
 .UNSPECIFIED.,.F.,.F.,(4,1,4),(0.,0.00437326054915066,0.00874652109830131),
 .UNSPECIFIED.);
#18=B_SPLINE_CURVE_WITH_KNOTS('',3,(#539,#540,#541,#542,#543,#544,#545),
 .UNSPECIFIED.,.F.,.F.,(4,1,1,1,4),(0.,0.00476423503713846,0.00952847007427692,
0.0142927051114154,0.0190569401485538),.UNSPECIFIED.);
#19=B_SPLINE_CURVE_WITH_KNOTS('',3,(#547,#548,#549,#550,#551),
 .UNSPECIFIED.,.F.,.F.,(4,1,4),(0.,0.0042439207613356,0.0084878415226712),
 .UNSPECIFIED.);
#20=B_SPLINE_CURVE_WITH_KNOTS('',3,(#554,#555,#556,#557,#558,#559,#560),
 .UNSPECIFIED.,.F.,.F.,(4,1,1,1,4),(0.,0.00483012837684717,0.00966025675369434,
0.0144903851305415,0.0193205135073887),.UNSPECIFIED.);
#21=B_SPLINE_CURVE_WITH_KNOTS('',3,(#561,#562,#563,#564,#565,#566,#567),
 .UNSPECIFIED.,.F.,.F.,(4,1,1,1,4),(-0.0096700336941885,-0.00483718863878216,
-4.34358337582201E-6,0.00482850147203052,0.00966134652743686),
 .UNSPECIFIED.);
#22=B_SPLINE_CURVE_WITH_KNOTS('',3,(#569,#570,#571,#572,#573),
 .UNSPECIFIED.,.F.,.F.,(4,1,4),(0.,0.00437324516337608,0.00874649032675216),
 .UNSPECIFIED.);
#23=B_SPLINE_CURVE_WITH_KNOTS('',3,(#576,#577,#578,#579,#580,#581,#582),
 .UNSPECIFIED.,.F.,.F.,(4,1,1,1,4),(0.,0.00483173260566419,0.00966346521132837,
0.0144951978169926,0.0193269304226567),.UNSPECIFIED.);
#24=B_SPLINE_CURVE_WITH_KNOTS('',3,(#583,#584,#585,#586,#587,#588,#589),
 .UNSPECIFIED.,.F.,.F.,(4,1,1,1,4),(0.,0.00476310899200166,0.00952621798400333,
0.014289326976005,0.0190524359680067),.UNSPECIFIED.);
#25=B_SPLINE_CURVE_WITH_KNOTS('',3,(#591,#592,#593,#594,#595),
 .UNSPECIFIED.,.F.,.F.,(4,1,4),(0.,0.00424392076133569,0.00848784152267137),
 .UNSPECIFIED.);
#26=B_SPLINE_CURVE_WITH_KNOTS('',3,(#598,#599,#600,#601,#602,#603,#604),
 .UNSPECIFIED.,.F.,.F.,(4,1,1,1,4),(0.,0.00483012837684711,0.00966025675369423,
0.0144903851305413,0.0193205135073885),.UNSPECIFIED.);
#27=B_SPLINE_CURVE_WITH_KNOTS('',3,(#605,#606,#607,#608,#609,#610,#611),
 .UNSPECIFIED.,.F.,.F.,(4,1,1,1,4),(0.,0.00482757619892516,0.00965515239785032,
0.0144827285967755,0.0193103047957006),.UNSPECIFIED.);
#28=CYLINDRICAL_SURFACE('',#355,0.03);
#29=CYLINDRICAL_SURFACE('',#356,0.03);
#30=CYLINDRICAL_SURFACE('',#357,0.03);
#31=CYLINDRICAL_SURFACE('',#358,0.03);
#32=CYLINDRICAL_SURFACE('',#362,0.03);
#33=CYLINDRICAL_SURFACE('',#364,0.03);
#34=CYLINDRICAL_SURFACE('',#370,0.03);
#35=CYLINDRICAL_SURFACE('',#372,0.03);
#36=CIRCLE('',#342,0.03);
#37=CIRCLE('',#343,0.03);
#38=CIRCLE('',#344,0.03);
#39=CIRCLE('',#345,0.03);
#40=CIRCLE('',#351,0.03);
#41=CIRCLE('',#352,0.03);
#42=CIRCLE('',#353,0.03);
#43=CIRCLE('',#354,0.03);
#44=CIRCLE('',#360,0.03);
#45=CIRCLE('',#361,0.03);
#46=CIRCLE('',#363,0.03);
#47=CIRCLE('',#365,0.03);
#48=CIRCLE('',#367,0.03);
#49=CIRCLE('',#369,0.03);
#50=CIRCLE('',#371,0.03);
#51=CIRCLE('',#373,0.03);
#52=ORIENTED_EDGE('',*,*,#148,.F.);
#53=ORIENTED_EDGE('',*,*,#149,.T.);
#54=ORIENTED_EDGE('',*,*,#150,.T.);
#55=ORIENTED_EDGE('',*,*,#151,.T.);
#56=ORIENTED_EDGE('',*,*,#152,.T.);
#57=ORIENTED_EDGE('',*,*,#153,.T.);
#58=ORIENTED_EDGE('',*,*,#154,.F.);
#59=ORIENTED_EDGE('',*,*,#155,.T.);
#60=ORIENTED_EDGE('',*,*,#156,.T.);
#61=ORIENTED_EDGE('',*,*,#157,.T.);
#62=ORIENTED_EDGE('',*,*,#158,.T.);
#63=ORIENTED_EDGE('',*,*,#159,.F.);
#64=ORIENTED_EDGE('',*,*,#160,.T.);
#65=ORIENTED_EDGE('',*,*,#161,.T.);
#66=ORIENTED_EDGE('',*,*,#162,.T.);
#67=ORIENTED_EDGE('',*,*,#163,.T.);
#68=ORIENTED_EDGE('',*,*,#164,.T.);
#69=ORIENTED_EDGE('',*,*,#165,.T.);
#70=ORIENTED_EDGE('',*,*,#166,.T.);
#71=ORIENTED_EDGE('',*,*,#167,.T.);
#72=ORIENTED_EDGE('',*,*,#168,.T.);
#73=ORIENTED_EDGE('',*,*,#169,.T.);
#74=ORIENTED_EDGE('',*,*,#170,.T.);
#75=ORIENTED_EDGE('',*,*,#171,.F.);
#76=ORIENTED_EDGE('',*,*,#167,.F.);
#77=ORIENTED_EDGE('',*,*,#172,.T.);
#78=ORIENTED_EDGE('',*,*,#163,.F.);
#79=ORIENTED_EDGE('',*,*,#173,.T.);
#80=ORIENTED_EDGE('',*,*,#159,.T.);
#81=ORIENTED_EDGE('',*,*,#174,.T.);
#82=ORIENTED_EDGE('',*,*,#171,.T.);
#83=ORIENTED_EDGE('',*,*,#175,.T.);
#84=ORIENTED_EDGE('',*,*,#166,.F.);
#85=ORIENTED_EDGE('',*,*,#176,.T.);
#86=ORIENTED_EDGE('',*,*,#177,.T.);
#87=ORIENTED_EDGE('',*,*,#178,.T.);
#88=ORIENTED_EDGE('',*,*,#160,.F.);
#89=ORIENTED_EDGE('',*,*,#172,.F.);
#90=ORIENTED_EDGE('',*,*,#179,.T.);
#91=ORIENTED_EDGE('',*,*,#180,.T.);
#92=ORIENTED_EDGE('',*,*,#156,.F.);
#93=ORIENTED_EDGE('',*,*,#173,.F.);
#94=ORIENTED_EDGE('',*,*,#162,.F.);
#95=ORIENTED_EDGE('',*,*,#181,.T.);
#96=ORIENTED_EDGE('',*,*,#182,.T.);
#97=ORIENTED_EDGE('',*,*,#183,.T.);
#98=ORIENTED_EDGE('',*,*,#164,.F.);
#99=ORIENTED_EDGE('',*,*,#175,.F.);
#100=ORIENTED_EDGE('',*,*,#170,.F.);
#101=ORIENTED_EDGE('',*,*,#184,.T.);
#102=ORIENTED_EDGE('',*,*,#185,.T.);
#103=ORIENTED_EDGE('',*,*,#186,.T.);
#104=ORIENTED_EDGE('',*,*,#168,.F.);
#105=ORIENTED_EDGE('',*,*,#174,.F.);
#106=ORIENTED_EDGE('',*,*,#158,.F.);
#107=ORIENTED_EDGE('',*,*,#187,.T.);
#108=ORIENTED_EDGE('',*,*,#188,.F.);
#109=ORIENTED_EDGE('',*,*,#153,.F.);
#110=ORIENTED_EDGE('',*,*,#189,.F.);
#111=ORIENTED_EDGE('',*,*,#185,.F.);
#112=ORIENTED_EDGE('',*,*,#189,.T.);
#113=ORIENTED_EDGE('',*,*,#152,.F.);
#114=ORIENTED_EDGE('',*,*,#190,.F.);
#115=ORIENTED_EDGE('',*,*,#184,.F.);
#116=ORIENTED_EDGE('',*,*,#169,.F.);
#117=ORIENTED_EDGE('',*,*,#186,.F.);
#118=ORIENTED_EDGE('',*,*,#157,.F.);
#119=ORIENTED_EDGE('',*,*,#180,.F.);
#120=ORIENTED_EDGE('',*,*,#191,.F.);
#121=ORIENTED_EDGE('',*,*,#154,.T.);
#122=ORIENTED_EDGE('',*,*,#188,.T.);
#123=ORIENTED_EDGE('',*,*,#187,.F.);
#124=ORIENTED_EDGE('',*,*,#190,.T.);
#125=ORIENTED_EDGE('',*,*,#151,.F.);
#126=ORIENTED_EDGE('',*,*,#192,.F.);
#127=ORIENTED_EDGE('',*,*,#182,.F.);
#128=ORIENTED_EDGE('',*,*,#191,.T.);
#129=ORIENTED_EDGE('',*,*,#179,.F.);
#130=ORIENTED_EDGE('',*,*,#193,.F.);
#131=ORIENTED_EDGE('',*,*,#155,.F.);
#132=ORIENTED_EDGE('',*,*,#192,.T.);
#133=ORIENTED_EDGE('',*,*,#150,.F.);
#134=ORIENTED_EDGE('',*,*,#194,.F.);
#135=ORIENTED_EDGE('',*,*,#176,.F.);
#136=ORIENTED_EDGE('',*,*,#165,.F.);
#137=ORIENTED_EDGE('',*,*,#183,.F.);
#138=ORIENTED_EDGE('',*,*,#161,.F.);
#139=ORIENTED_EDGE('',*,*,#178,.F.);
#140=ORIENTED_EDGE('',*,*,#195,.F.);
#141=ORIENTED_EDGE('',*,*,#148,.T.);
#142=ORIENTED_EDGE('',*,*,#193,.T.);
#143=ORIENTED_EDGE('',*,*,#181,.F.);
#144=ORIENTED_EDGE('',*,*,#194,.T.);
#145=ORIENTED_EDGE('',*,*,#149,.F.);
#146=ORIENTED_EDGE('',*,*,#195,.T.);
#147=ORIENTED_EDGE('',*,*,#177,.F.);
#148=EDGE_CURVE('',#196,#197,#228,.T.);
#149=EDGE_CURVE('',#196,#198,#36,.T.);
#150=EDGE_CURVE('',#198,#199,#229,.T.);
#151=EDGE_CURVE('',#199,#200,#37,.T.);
#152=EDGE_CURVE('',#200,#201,#230,.T.);
#153=EDGE_CURVE('',#201,#202,#38,.T.);
#154=EDGE_CURVE('',#203,#202,#231,.T.);
#155=EDGE_CURVE('',#203,#197,#39,.T.);
#156=EDGE_CURVE('',#204,#205,#232,.T.);
#157=EDGE_CURVE('',#205,#206,#233,.F.);
#158=EDGE_CURVE('',#206,#207,#234,.F.);
#159=EDGE_CURVE('',#204,#207,#235,.T.);
#160=EDGE_CURVE('',#208,#209,#236,.T.);
#161=EDGE_CURVE('',#209,#210,#237,.F.);
#162=EDGE_CURVE('',#210,#211,#238,.F.);
#163=EDGE_CURVE('',#211,#208,#239,.T.);
#164=EDGE_CURVE('',#212,#213,#240,.T.);
#165=EDGE_CURVE('',#213,#214,#241,.F.);
#166=EDGE_CURVE('',#214,#215,#242,.F.);
#167=EDGE_CURVE('',#215,#212,#243,.T.);
#168=EDGE_CURVE('',#216,#217,#244,.T.);
#169=EDGE_CURVE('',#217,#218,#245,.F.);
#170=EDGE_CURVE('',#218,#219,#246,.F.);
#171=EDGE_CURVE('',#216,#219,#247,.T.);
#172=EDGE_CURVE('',#215,#208,#40,.F.);
#173=EDGE_CURVE('',#211,#204,#41,.F.);
#174=EDGE_CURVE('',#207,#216,#42,.F.);
#175=EDGE_CURVE('',#219,#212,#43,.F.);
#176=EDGE_CURVE('',#214,#220,#16,.T.);
#177=EDGE_CURVE('',#220,#221,#17,.T.);
#178=EDGE_CURVE('',#221,#209,#18,.T.);
#179=EDGE_CURVE('',#222,#223,#19,.T.);
#180=EDGE_CURVE('',#223,#205,#20,.T.);
#181=EDGE_CURVE('',#210,#222,#21,.T.);
#182=EDGE_CURVE('',#224,#225,#22,.T.);
#183=EDGE_CURVE('',#225,#213,#23,.T.);
#184=EDGE_CURVE('',#218,#224,#24,.T.);
#185=EDGE_CURVE('',#226,#227,#25,.T.);
#186=EDGE_CURVE('',#227,#217,#26,.T.);
#187=EDGE_CURVE('',#206,#226,#27,.T.);
#188=EDGE_CURVE('',#202,#226,#44,.T.);
#189=EDGE_CURVE('',#227,#201,#45,.T.);
#190=EDGE_CURVE('',#224,#200,#46,.T.);
#191=EDGE_CURVE('',#203,#223,#47,.T.);
#192=EDGE_CURVE('',#225,#199,#48,.T.);
#193=EDGE_CURVE('',#197,#222,#49,.T.);
#194=EDGE_CURVE('',#220,#198,#50,.T.);
#195=EDGE_CURVE('',#196,#221,#51,.T.);
#196=VERTEX_POINT('',#468);
#197=VERTEX_POINT('',#469);
#198=VERTEX_POINT('',#471);
#199=VERTEX_POINT('',#473);
#200=VERTEX_POINT('',#475);
#201=VERTEX_POINT('',#477);
#202=VERTEX_POINT('',#479);
#203=VERTEX_POINT('',#481);
#204=VERTEX_POINT('',#485);
#205=VERTEX_POINT('',#486);
#206=VERTEX_POINT('',#488);
#207=VERTEX_POINT('',#490);
#208=VERTEX_POINT('',#494);
#209=VERTEX_POINT('',#495);
#210=VERTEX_POINT('',#497);
#211=VERTEX_POINT('',#499);
#212=VERTEX_POINT('',#503);
#213=VERTEX_POINT('',#504);
#214=VERTEX_POINT('',#506);
#215=VERTEX_POINT('',#508);
#216=VERTEX_POINT('',#512);
#217=VERTEX_POINT('',#513);
#218=VERTEX_POINT('',#515);
#219=VERTEX_POINT('',#517);
#220=VERTEX_POINT('',#532);
#221=VERTEX_POINT('',#538);
#222=VERTEX_POINT('',#552);
#223=VERTEX_POINT('',#553);
#224=VERTEX_POINT('',#574);
#225=VERTEX_POINT('',#575);
#226=VERTEX_POINT('',#596);
#227=VERTEX_POINT('',#597);
#228=LINE('',#467,#248);
#229=LINE('',#472,#249);
#230=LINE('',#476,#250);
#231=LINE('',#480,#251);
#232=LINE('',#484,#252);
#233=LINE('',#487,#253);
#234=LINE('',#489,#254);
#235=LINE('',#491,#255);
#236=LINE('',#493,#256);
#237=LINE('',#496,#257);
#238=LINE('',#498,#258);
#239=LINE('',#500,#259);
#240=LINE('',#502,#260);
#241=LINE('',#505,#261);
#242=LINE('',#507,#262);
#243=LINE('',#509,#263);
#244=LINE('',#511,#264);
#245=LINE('',#514,#265);
#246=LINE('',#516,#266);
#247=LINE('',#518,#267);
#248=VECTOR('',#379,1.);
#249=VECTOR('',#382,1.);
#250=VECTOR('',#385,1.);
#251=VECTOR('',#388,1.);
#252=VECTOR('',#393,1.);
#253=VECTOR('',#394,1.);
#254=VECTOR('',#395,1.);
#255=VECTOR('',#396,1.);
#256=VECTOR('',#399,1.);
#257=VECTOR('',#400,1.);
#258=VECTOR('',#401,1.);
#259=VECTOR('',#402,1.);
#260=VECTOR('',#405,1.);
#261=VECTOR('',#406,1.);
#262=VECTOR('',#407,1.);
#263=VECTOR('',#408,1.);
#264=VECTOR('',#411,1.);
#265=VECTOR('',#412,1.);
#266=VECTOR('',#413,1.);
#267=VECTOR('',#414,1.);
#268=EDGE_LOOP('',(#52,#53,#54,#55,#56,#57,#58,#59));
#269=EDGE_LOOP('',(#60,#61,#62,#63));
#270=EDGE_LOOP('',(#64,#65,#66,#67));
#271=EDGE_LOOP('',(#68,#69,#70,#71));
#272=EDGE_LOOP('',(#72,#73,#74,#75));
#273=EDGE_LOOP('',(#76,#77,#78,#79,#80,#81,#82,#83));
#274=EDGE_LOOP('',(#84,#85,#86,#87,#88,#89));
#275=EDGE_LOOP('',(#90,#91,#92,#93,#94,#95));
#276=EDGE_LOOP('',(#96,#97,#98,#99,#100,#101));
#277=EDGE_LOOP('',(#102,#103,#104,#105,#106,#107));
#278=EDGE_LOOP('',(#108,#109,#110,#111));
#279=EDGE_LOOP('',(#112,#113,#114,#115,#116,#117));
#280=EDGE_LOOP('',(#118,#119,#120,#121,#122,#123));
#281=EDGE_LOOP('',(#124,#125,#126,#127));
#282=EDGE_LOOP('',(#128,#129,#130,#131));
#283=EDGE_LOOP('',(#132,#133,#134,#135,#136,#137));
#284=EDGE_LOOP('',(#138,#139,#140,#141,#142,#143));
#285=EDGE_LOOP('',(#144,#145,#146,#147));
#286=FACE_BOUND('',#268,.T.);
#287=FACE_BOUND('',#269,.T.);
#288=FACE_BOUND('',#270,.T.);
#289=FACE_BOUND('',#271,.T.);
#290=FACE_BOUND('',#272,.T.);
#291=FACE_BOUND('',#273,.T.);
#292=FACE_BOUND('',#274,.T.);
#293=FACE_BOUND('',#275,.T.);
#294=FACE_BOUND('',#276,.T.);
#295=FACE_BOUND('',#277,.T.);
#296=FACE_BOUND('',#278,.T.);
#297=FACE_BOUND('',#279,.T.);
#298=FACE_BOUND('',#280,.T.);
#299=FACE_BOUND('',#281,.T.);
#300=FACE_BOUND('',#282,.T.);
#301=FACE_BOUND('',#283,.T.);
#302=FACE_BOUND('',#284,.T.);
#303=FACE_BOUND('',#285,.T.);
#304=PLANE('',#341);
#305=PLANE('',#346);
#306=PLANE('',#347);
#307=PLANE('',#348);
#308=PLANE('',#349);
#309=PLANE('',#350);
#310=ADVANCED_FACE('',(#286),#304,.T.);
#311=ADVANCED_FACE('',(#287),#305,.F.);
#312=ADVANCED_FACE('',(#288),#306,.T.);
#313=ADVANCED_FACE('',(#289),#307,.T.);
#314=ADVANCED_FACE('',(#290),#308,.F.);
#315=ADVANCED_FACE('',(#291),#309,.F.);
#316=ADVANCED_FACE('',(#292),#28,.F.);
#317=ADVANCED_FACE('',(#293),#29,.F.);
#318=ADVANCED_FACE('',(#294),#30,.F.);
#319=ADVANCED_FACE('',(#295),#31,.F.);
#320=ADVANCED_FACE('',(#296),#12,.T.);
#321=ADVANCED_FACE('',(#297),#32,.T.);
#322=ADVANCED_FACE('',(#298),#33,.T.);
#323=ADVANCED_FACE('',(#299),#13,.T.);
#324=ADVANCED_FACE('',(#300),#14,.T.);
#325=ADVANCED_FACE('',(#301),#34,.T.);
#326=ADVANCED_FACE('',(#302),#35,.T.);
#327=ADVANCED_FACE('',(#303),#15,.T.);
#328=CLOSED_SHELL('',(#310,#311,#312,#313,#314,#315,#316,#317,#318,#319,
#320,#321,#322,#323,#324,#325,#326,#327));
#329=STYLED_ITEM('',(#330),#337);
#330=PRESENTATION_STYLE_ASSIGNMENT((#331));
#331=SURFACE_STYLE_USAGE(.BOTH.,#332);
#332=SURFACE_SIDE_STYLE('',(#333));
#333=SURFACE_STYLE_FILL_AREA(#334);
#334=FILL_AREA_STYLE('',(#335));
#335=FILL_AREA_STYLE_COLOUR('',#336);
#336=COLOUR_RGB('',0.615686274509804,0.811764705882353,0.929411764705882);
#337=MANIFOLD_SOLID_BREP('Part 1',#328);
#338=SHAPE_DEFINITION_REPRESENTATION(#634,#339);
#339=SHAPE_REPRESENTATION('Part 1',(#340),#629);
#340=AXIS2_PLACEMENT_3D('',#465,#375,#376);
#341=AXIS2_PLACEMENT_3D('',#466,#377,#378);
#342=AXIS2_PLACEMENT_3D('',#470,#380,#381);
#343=AXIS2_PLACEMENT_3D('',#474,#383,#384);
#344=AXIS2_PLACEMENT_3D('',#478,#386,#387);
#345=AXIS2_PLACEMENT_3D('',#482,#389,#390);
#346=AXIS2_PLACEMENT_3D('',#483,#391,#392);
#347=AXIS2_PLACEMENT_3D('',#492,#397,#398);
#348=AXIS2_PLACEMENT_3D('',#501,#403,#404);
#349=AXIS2_PLACEMENT_3D('',#510,#409,#410);
#350=AXIS2_PLACEMENT_3D('',#519,#415,#416);
#351=AXIS2_PLACEMENT_3D('',#520,#417,#418);
#352=AXIS2_PLACEMENT_3D('',#521,#419,#420);
#353=AXIS2_PLACEMENT_3D('',#522,#421,#422);
#354=AXIS2_PLACEMENT_3D('',#523,#423,#424);
#355=AXIS2_PLACEMENT_3D('',#524,#425,#426);
#356=AXIS2_PLACEMENT_3D('',#546,#427,#428);
#357=AXIS2_PLACEMENT_3D('',#568,#429,#430);
#358=AXIS2_PLACEMENT_3D('',#590,#431,#432);
#359=AXIS2_PLACEMENT_3D('',#612,#433,#434);
#360=AXIS2_PLACEMENT_3D('',#613,#435,#436);
#361=AXIS2_PLACEMENT_3D('',#614,#437,#438);
#362=AXIS2_PLACEMENT_3D('',#615,#439,#440);
#363=AXIS2_PLACEMENT_3D('',#616,#441,#442);
#364=AXIS2_PLACEMENT_3D('',#617,#443,#444);
#365=AXIS2_PLACEMENT_3D('',#618,#445,#446);
#366=AXIS2_PLACEMENT_3D('',#619,#447,#448);
#367=AXIS2_PLACEMENT_3D('',#620,#449,#450);
#368=AXIS2_PLACEMENT_3D('',#621,#451,#452);
#369=AXIS2_PLACEMENT_3D('',#622,#453,#454);
#370=AXIS2_PLACEMENT_3D('',#623,#455,#456);
#371=AXIS2_PLACEMENT_3D('',#624,#457,#458);
#372=AXIS2_PLACEMENT_3D('',#625,#459,#460);
#373=AXIS2_PLACEMENT_3D('',#626,#461,#462);
#374=AXIS2_PLACEMENT_3D('',#627,#463,#464);
#375=DIRECTION('',(0.,0.,1.));
#376=DIRECTION('',(1.,0.,0.));
#377=DIRECTION('',(0.,0.,1.));
#378=DIRECTION('',(1.,0.,0.));
#379=DIRECTION('',(1.,0.,0.));
#380=DIRECTION('',(0.,0.,1.));
#381=DIRECTION('',(1.,0.,0.));
#382=DIRECTION('',(4.76899924667164E-17,-1.,0.));
#383=DIRECTION('',(0.,0.,1.));
#384=DIRECTION('',(1.,0.,0.));
#385=DIRECTION('',(1.,0.,0.));
#386=DIRECTION('',(0.,0.,1.));
#387=DIRECTION('',(1.,0.,0.));
#388=DIRECTION('',(5.96124905833955E-17,-1.,0.));
#389=DIRECTION('',(0.,0.,1.));
#390=DIRECTION('',(1.,0.,0.));
#391=DIRECTION('',(1.,3.07575084393051E-16,0.));
#392=DIRECTION('',(-3.07575084393051E-16,1.,0.));
#393=DIRECTION('',(0.,0.,-1.));
#394=DIRECTION('',(-5.96124905833955E-17,1.,0.));
#395=DIRECTION('',(0.,0.,-1.));
#396=DIRECTION('',(3.07575084393051E-16,-1.,0.));
#397=DIRECTION('',(0.,-1.,0.));
#398=DIRECTION('',(0.,0.,-1.));
#399=DIRECTION('',(0.,0.,-1.));
#400=DIRECTION('',(-1.,0.,0.));
#401=DIRECTION('',(0.,0.,-1.));
#402=DIRECTION('',(-1.,0.,0.));
#403=DIRECTION('',(1.,0.,0.));
#404=DIRECTION('',(0.,0.,-1.));
#405=DIRECTION('',(0.,0.,-1.));
#406=DIRECTION('',(4.76899924667164E-17,-1.,0.));
#407=DIRECTION('',(0.,0.,-1.));
#408=DIRECTION('',(0.,-1.,0.));
#409=DIRECTION('',(0.,-1.,0.));
#410=DIRECTION('',(0.,0.,-1.));
#411=DIRECTION('',(0.,0.,-1.));
#412=DIRECTION('',(1.,0.,0.));
#413=DIRECTION('',(0.,0.,-1.));
#414=DIRECTION('',(-1.,0.,0.));
#415=DIRECTION('',(0.,0.,1.));
#416=DIRECTION('',(1.,0.,0.));
#417=DIRECTION('',(0.,0.,1.));
#418=DIRECTION('',(1.,0.,0.));
#419=DIRECTION('',(0.,0.,1.));
#420=DIRECTION('',(1.,0.,0.));
#421=DIRECTION('',(0.,0.,1.));
#422=DIRECTION('',(1.,0.,0.));
#423=DIRECTION('',(0.,0.,1.));
#424=DIRECTION('',(1.,0.,0.));
#425=DIRECTION('',(0.,0.,1.));
#426=DIRECTION('',(1.,0.,0.));
#427=DIRECTION('',(0.,0.,-1.));
#428=DIRECTION('',(-1.,0.,0.));
#429=DIRECTION('',(0.,0.,-1.));
#430=DIRECTION('',(-1.,0.,0.));
#431=DIRECTION('',(0.,0.,1.));
#432=DIRECTION('',(1.,0.,0.));
#433=DIRECTION('',(0.,0.,1.));
#434=DIRECTION('',(1.,0.,0.));
#435=DIRECTION('',(0.,1.,0.));
#436=DIRECTION('',(0.,0.,1.));
#437=DIRECTION('',(-1.,0.,0.));
#438=DIRECTION('',(0.,0.,1.));
#439=DIRECTION('',(1.,0.,0.));
#440=DIRECTION('',(0.,0.,-1.));
#441=DIRECTION('',(-1.,0.,0.));
#442=DIRECTION('',(0.,0.,1.));
#443=DIRECTION('',(-5.96124905833955E-17,1.,0.));
#444=DIRECTION('',(-1.,-5.96124905833955E-17,0.));
#445=DIRECTION('',(0.,1.,0.));
#446=DIRECTION('',(0.,0.,1.));
#447=DIRECTION('',(0.,0.,1.));
#448=DIRECTION('',(1.,0.,0.));
#449=DIRECTION('',(0.,1.,0.));
#450=DIRECTION('',(0.,0.,1.));
#451=DIRECTION('',(0.,0.,1.));
#452=DIRECTION('',(1.,0.,0.));
#453=DIRECTION('',(-1.,0.,0.));
#454=DIRECTION('',(0.,0.,1.));
#455=DIRECTION('',(4.76899924667164E-17,-1.,0.));
#456=DIRECTION('',(1.,4.76899924667164E-17,0.));
#457=DIRECTION('',(0.,1.,0.));
#458=DIRECTION('',(0.,0.,1.));
#459=DIRECTION('',(-1.,0.,0.));
#460=DIRECTION('',(0.,0.,1.));
#461=DIRECTION('',(-1.,0.,0.));
#462=DIRECTION('',(0.,0.,1.));
#463=DIRECTION('',(0.,0.,1.));
#464=DIRECTION('',(1.,0.,0.));
#465=CARTESIAN_POINT('',(0.,0.,0.));
#466=CARTESIAN_POINT('',(-0.0685783526826962,0.130987863079704,0.03));
#467=CARTESIAN_POINT('',(-0.0775783526826963,0.430987863079704,0.03));
#468=CARTESIAN_POINT('',(-0.138578352682696,0.430987863079704,0.03));
#469=CARTESIAN_POINT('',(0.00142164731730376,0.430987863079704,0.03));
#470=CARTESIAN_POINT('',(-0.138578352682696,0.400987863079704,0.03));
#471=CARTESIAN_POINT('',(-0.168578352682696,0.400987863079704,0.03));
#472=CARTESIAN_POINT('',(-0.168578352682696,0.139987863079704,0.03));
#473=CARTESIAN_POINT('',(-0.168578352682696,-0.139012136920296,0.03));
#474=CARTESIAN_POINT('',(-0.138578352682696,-0.139012136920296,0.03));
#475=CARTESIAN_POINT('',(-0.138578352682696,-0.169012136920296,0.03));
#476=CARTESIAN_POINT('',(-0.0596823762620024,-0.169012136920296,0.03));
#477=CARTESIAN_POINT('',(0.00142164731730379,-0.169012136920296,0.03));
#478=CARTESIAN_POINT('',(0.00142164731730379,-0.139012136920296,0.03));
#479=CARTESIAN_POINT('',(0.0314216473173038,-0.139012136920296,0.03));
#480=CARTESIAN_POINT('',(0.0314216473173038,0.121987863079704,0.03));
#481=CARTESIAN_POINT('',(0.0314216473173037,0.400987863079704,0.03));
#482=CARTESIAN_POINT('',(0.00142164731730376,0.400987863079704,0.03));
#483=CARTESIAN_POINT('',(0.0134216473173038,0.130987863079704,0.01));
#484=CARTESIAN_POINT('',(0.0134216473173038,0.382987863079704,0.01));
#485=CARTESIAN_POINT('',(0.0134216473173038,0.382987863079704,0.01));
#486=CARTESIAN_POINT('',(0.0134216473173038,0.382987863079704,0.00250454583026497));
#487=CARTESIAN_POINT('',(0.0134216473173038,0.382987863079704,0.00250454583026497));
#488=CARTESIAN_POINT('',(0.0134216473173039,-0.121012136920296,0.00250454583026502));
#489=CARTESIAN_POINT('',(0.0134216473173039,-0.121012136920296,0.01));
#490=CARTESIAN_POINT('',(0.0134216473173039,-0.121012136920296,0.01));
#491=CARTESIAN_POINT('',(0.0134216473173038,0.130987863079704,0.01));
#492=CARTESIAN_POINT('',(-0.0686823762620024,0.412987863079704,0.01));
#493=CARTESIAN_POINT('',(-0.120786399841309,0.412987863079704,0.));
#494=CARTESIAN_POINT('',(-0.120786399841309,0.412987863079704,0.01));
#495=CARTESIAN_POINT('',(-0.120786399841309,0.412987863079704,0.00250454583026497));
#496=CARTESIAN_POINT('',(-0.120786399841309,0.412987863079704,0.00250454583026497));
#497=CARTESIAN_POINT('',(-0.0165783526826962,0.412987863079704,0.00250454583026497));
#498=CARTESIAN_POINT('',(-0.0165783526826962,0.412987863079704,0.01));
#499=CARTESIAN_POINT('',(-0.0165783526826962,0.412987863079704,0.01));
#500=CARTESIAN_POINT('',(-0.0686823762620024,0.412987863079704,0.01));
#501=CARTESIAN_POINT('',(-0.150786399841309,0.130987863079704,0.01));
#502=CARTESIAN_POINT('',(-0.150786399841309,-0.121012136920296,0.01));
#503=CARTESIAN_POINT('',(-0.150786399841309,-0.121012136920296,0.01));
#504=CARTESIAN_POINT('',(-0.150786399841309,-0.121012136920296,0.00259628520486508));
#505=CARTESIAN_POINT('',(-0.150786399841309,-0.121012136920296,0.00259628520486508));
#506=CARTESIAN_POINT('',(-0.150786399841309,0.382987863079704,0.00259628520486508));
#507=CARTESIAN_POINT('',(-0.150786399841309,0.382987863079704,0.01));
#508=CARTESIAN_POINT('',(-0.150786399841309,0.382987863079704,0.01));
#509=CARTESIAN_POINT('',(-0.150786399841309,0.130987863079704,0.01));
#510=CARTESIAN_POINT('',(-0.0686823762620023,-0.151012136920296,0.01));
#511=CARTESIAN_POINT('',(-0.0165783526826961,-0.151012136920296,0.));
#512=CARTESIAN_POINT('',(-0.0165783526826961,-0.151012136920296,0.01));
#513=CARTESIAN_POINT('',(-0.0165783526826961,-0.151012136920296,0.00250454583026497));
#514=CARTESIAN_POINT('',(-0.0165783526826961,-0.151012136920296,0.00250454583026497));
#515=CARTESIAN_POINT('',(-0.120786399841309,-0.151012136920296,0.00250454583026497));
#516=CARTESIAN_POINT('',(-0.120786399841309,-0.151012136920296,0.01));
#517=CARTESIAN_POINT('',(-0.120786399841309,-0.151012136920296,0.01));
#518=CARTESIAN_POINT('',(-0.0686823762620023,-0.151012136920296,0.01));
#519=CARTESIAN_POINT('',(-0.0685783526826962,0.130987863079704,0.01));
#520=CARTESIAN_POINT('',(-0.120786399841309,0.382987863079704,0.01));
#521=CARTESIAN_POINT('',(-0.0165783526826962,0.382987863079704,0.01));
#522=CARTESIAN_POINT('',(-0.0165783526826961,-0.121012136920296,0.01));
#523=CARTESIAN_POINT('',(-0.120786399841309,-0.121012136920296,0.01));
#524=CARTESIAN_POINT('',(-0.120786399841309,0.382987863079704,0.01));
#525=CARTESIAN_POINT('',(-0.150786399841309,0.382987863079704,0.00259628520486508));
#526=CARTESIAN_POINT('',(-0.150786399841309,0.384622827137923,0.00259628520486508));
#527=CARTESIAN_POINT('',(-0.150522796880083,0.387835346170616,0.0024766847715648));
#528=CARTESIAN_POINT('',(-0.149361949205811,0.392542200902137,0.00198924795691524));
#529=CARTESIAN_POINT('',(-0.147461564819498,0.396991516728096,0.00131396196530565));
#530=CARTESIAN_POINT('',(-0.145757622033311,0.399692900157034,0.000854784885073202));
#531=CARTESIAN_POINT('',(-0.144786399841309,0.400987863079704,0.000649358601958203));
#532=CARTESIAN_POINT('',(-0.144786399841309,0.400987863079704,0.000649358601958202));
#533=CARTESIAN_POINT('',(-0.144786399841309,0.400987863079704,0.000649358601958202));
#534=CARTESIAN_POINT('',(-0.143905807403785,0.402161986329736,0.00046310170537024));
#535=CARTESIAN_POINT('',(-0.141994182157984,0.404357364134859,0.000278174681198776));
#536=CARTESIAN_POINT('',(-0.139753291829245,0.406277055466411,0.000456703898639442));
#537=CARTESIAN_POINT('',(-0.138578352682696,0.40714249853731,0.00063811207732073));
#538=CARTESIAN_POINT('',(-0.138578352682696,0.40714249853731,0.000638112077320729));
#539=CARTESIAN_POINT('',(-0.138578352682696,0.40714249853731,0.000638112077320729));
#540=CARTESIAN_POINT('',(-0.137291892588197,0.408090086314978,0.000836738860141585));
#541=CARTESIAN_POINT('',(-0.134611633406477,0.409751069360539,0.00127890381490399));
#542=CARTESIAN_POINT('',(-0.13023431620199,0.411595019911325,0.001922863552106));
#543=CARTESIAN_POINT('',(-0.125567031119799,0.412732621744481,0.00239101842567116));
#544=CARTESIAN_POINT('',(-0.122397795676206,0.412987863079704,0.00250454583026495));
#545=CARTESIAN_POINT('',(-0.120786399841309,0.412987863079704,0.00250454583026495));
#546=CARTESIAN_POINT('',(-0.0165783526826962,0.382987863079704,0.01));
#547=CARTESIAN_POINT('',(0.00142164731730376,0.406987863079704,0.000606123086601861));
#548=CARTESIAN_POINT('',(0.00256170862251833,0.406132817100793,0.000431587557022669));
#549=CARTESIAN_POINT('',(0.00469752878361415,0.404280435208852,0.000260317040312706));
#550=CARTESIAN_POINT('',(0.00657053758963213,0.402122676049933,0.000432391040942309));
#551=CARTESIAN_POINT('',(0.00742164731730376,0.400987863079704,0.00060612308660186));
#552=CARTESIAN_POINT('',(0.00142164731730376,0.406987863079704,0.000606123086601861));
#553=CARTESIAN_POINT('',(0.00742164731730377,0.400987863079704,0.000606123086601862));
#554=CARTESIAN_POINT('',(0.00742164731730377,0.400987863079704,0.000606123086601862));
#555=CARTESIAN_POINT('',(0.00839384905346993,0.399691594098149,0.000804572934989779));
#556=CARTESIAN_POINT('',(0.0100979813672473,0.396987574107319,0.00125100131786498));
#557=CARTESIAN_POINT('',(0.0119922399280437,0.392556807282038,0.00190827504360001));
#558=CARTESIAN_POINT('',(0.0131592259375437,0.38783311518332,0.00238778560476738));
#559=CARTESIAN_POINT('',(0.0134216473173038,0.384621651854166,0.00250454583026496));
#560=CARTESIAN_POINT('',(0.0134216473173038,0.382987863079704,0.00250454583026496));
#561=CARTESIAN_POINT('',(-0.0165783526826962,0.412987863079704,0.00250454583026497));
#562=CARTESIAN_POINT('',(-0.0149436341106332,0.412987863079704,0.00250454583026497));
#563=CARTESIAN_POINT('',(-0.0117311946934549,0.41272455773382,0.00238746273143537));
#564=CARTESIAN_POINT('',(-0.007018941650647,0.411561789000302,0.00190950557601806));
#565=CARTESIAN_POINT('',(-0.0025734176810316,0.409662119316684,0.00125025626942083));
#566=CARTESIAN_POINT('',(0.000127308127871752,0.407958617471778,0.000804277497114115));
#567=CARTESIAN_POINT('',(0.00142164731730375,0.406987863079704,0.000606123086601868));
#568=CARTESIAN_POINT('',(-0.120786399841309,-0.121012136920296,0.01));
#569=CARTESIAN_POINT('',(-0.138578352682696,-0.145166772377902,0.000638112077320745));
#570=CARTESIAN_POINT('',(-0.139760435426466,-0.144296067437284,0.000455600941975664));
#571=CARTESIAN_POINT('',(-0.141972540547058,-0.142403087782255,0.000278138962024738));
#572=CARTESIAN_POINT('',(-0.14391109587594,-0.140179208874121,0.000464220286872202));
#573=CARTESIAN_POINT('',(-0.144786399841309,-0.139012136920296,0.000649358601958208));
#574=CARTESIAN_POINT('',(-0.138578352682696,-0.145166772377902,0.000638112077320745));
#575=CARTESIAN_POINT('',(-0.144786399841309,-0.139012136920296,0.000649358601958217));
#576=CARTESIAN_POINT('',(-0.144786399841309,-0.139012136920296,0.000649358601958217));
#577=CARTESIAN_POINT('',(-0.145758355621541,-0.137716195879986,0.000854940048644213));
#578=CARTESIAN_POINT('',(-0.147462130399327,-0.135012904590393,0.0013142868336527));
#579=CARTESIAN_POINT('',(-0.149356487790523,-0.130582582026023,0.00198714983694527));
#580=CARTESIAN_POINT('',(-0.150523799302785,-0.125858699317571,0.00247704512028473));
#581=CARTESIAN_POINT('',(-0.150786399841309,-0.122646492563742,0.00259628520486508));
#582=CARTESIAN_POINT('',(-0.150786399841309,-0.121012136920296,0.00259628520486508));
#583=CARTESIAN_POINT('',(-0.120786399841309,-0.151012136920296,0.00250454583026497));
#584=CARTESIAN_POINT('',(-0.122399045263436,-0.151012136920296,0.00250454583026497));
#585=CARTESIAN_POINT('',(-0.125569294878508,-0.150755360226436,0.00239046653886839));
#586=CARTESIAN_POINT('',(-0.130212822207357,-0.149626549274292,0.00192558567027626));
#587=CARTESIAN_POINT('',(-0.134618117447326,-0.147773317211496,0.00127807146682012));
#588=CARTESIAN_POINT('',(-0.137294268088727,-0.146112610396462,0.00083637208776374));
#589=CARTESIAN_POINT('',(-0.138578352682696,-0.145166772377902,0.000638112077320731));
#590=CARTESIAN_POINT('',(-0.0165783526826961,-0.121012136920296,0.01));
#591=CARTESIAN_POINT('',(0.00742164731730393,-0.139012136920296,0.000606123086601893));
#592=CARTESIAN_POINT('',(0.00656660133839299,-0.140152198225511,0.000431587557022694));
#593=CARTESIAN_POINT('',(0.00471421944645206,-0.142288018386607,0.000260317040312714));
#594=CARTESIAN_POINT('',(0.00255646028753269,-0.144161027192625,0.000432391040942325));
#595=CARTESIAN_POINT('',(0.00142164731730383,-0.145012136920296,0.00060612308660188));
#596=CARTESIAN_POINT('',(0.00742164731730393,-0.139012136920296,0.000606123086601893));
#597=CARTESIAN_POINT('',(0.00142164731730378,-0.145012136920296,0.00060612308660189));
#598=CARTESIAN_POINT('',(0.00142164731730378,-0.145012136920296,0.00060612308660189));
#599=CARTESIAN_POINT('',(0.000125378335748916,-0.145984338656462,0.000804572934989803));
#600=CARTESIAN_POINT('',(-0.00257864165508162,-0.14768847097024,0.00125100131786499));
#601=CARTESIAN_POINT('',(-0.0070094084803625,-0.149582729531036,0.0019082750436));
#602=CARTESIAN_POINT('',(-0.0117331005790799,-0.150749715540536,0.00238778560476736));
#603=CARTESIAN_POINT('',(-0.0149445639082342,-0.151012136920296,0.00250454583026496));
#604=CARTESIAN_POINT('',(-0.0165783526826961,-0.151012136920296,0.00250454583026496));
#605=CARTESIAN_POINT('',(0.0134216473173039,-0.121012136920296,0.00250454583026502));
#606=CARTESIAN_POINT('',(0.0134216473173039,-0.122646608999403,0.00250454583026502));
#607=CARTESIAN_POINT('',(0.0131581682760194,-0.125858499903223,0.0023874124974869));
#608=CARTESIAN_POINT('',(0.0119978193740756,-0.130564654767672,0.00191036887470355));
#609=CARTESIAN_POINT('',(0.0100972026439574,-0.135015200568782,0.00125061102919046));
#610=CARTESIAN_POINT('',(0.00839297871160531,-0.137717028394561,0.000804395277200606));
#611=CARTESIAN_POINT('',(0.00742164731730393,-0.139012136920296,0.000606123086601891));
#612=CARTESIAN_POINT('',(0.00142164731730379,-0.139012136920296,0.03));
#613=CARTESIAN_POINT('',(0.00142164731730379,-0.139012136920296,0.03));
#614=CARTESIAN_POINT('',(0.00142164731730379,-0.139012136920296,0.03));
#615=CARTESIAN_POINT('',(-0.0596823762620024,-0.139012136920296,0.03));
#616=CARTESIAN_POINT('',(-0.138578352682696,-0.139012136920296,0.03));
#617=CARTESIAN_POINT('',(0.00142164731730378,0.130987863079704,0.03));
#618=CARTESIAN_POINT('',(0.00142164731730376,0.400987863079704,0.03));
#619=CARTESIAN_POINT('',(-0.138578352682696,-0.139012136920296,0.03));
#620=CARTESIAN_POINT('',(-0.138578352682696,-0.139012136920296,0.03));
#621=CARTESIAN_POINT('',(0.00142164731730376,0.400987863079704,0.03));
#622=CARTESIAN_POINT('',(0.00142164731730376,0.400987863079704,0.03));
#623=CARTESIAN_POINT('',(-0.138578352682696,0.139987863079704,0.03));
#624=CARTESIAN_POINT('',(-0.138578352682696,0.400987863079704,0.03));
#625=CARTESIAN_POINT('',(-0.0685783526826962,0.400987863079704,0.03));
#626=CARTESIAN_POINT('',(-0.138578352682696,0.400987863079704,0.03));
#627=CARTESIAN_POINT('',(-0.138578352682696,0.400987863079704,0.03));
#628=MECHANICAL_DESIGN_GEOMETRIC_PRESENTATION_REPRESENTATION('',(#329),
#629);
#629=(
GEOMETRIC_REPRESENTATION_CONTEXT(3)
GLOBAL_UNCERTAINTY_ASSIGNED_CONTEXT((#630))
GLOBAL_UNIT_ASSIGNED_CONTEXT((#633,#632,#631))
REPRESENTATION_CONTEXT('Part 1','TOP_LEVEL_ASSEMBLY_PART')
);
#630=UNCERTAINTY_MEASURE_WITH_UNIT(LENGTH_MEASURE(2.E-5),#633,
'DISTANCE_ACCURACY_VALUE','Maximum Tolerance applied to model');
#631=(
NAMED_UNIT(*)
SI_UNIT($,.STERADIAN.)
SOLID_ANGLE_UNIT()
);
#632=(
NAMED_UNIT(*)
PLANE_ANGLE_UNIT()
SI_UNIT($,.RADIAN.)
);
#633=(
LENGTH_UNIT()
NAMED_UNIT(*)
SI_UNIT($,.METRE.)
);
#634=PRODUCT_DEFINITION_SHAPE('','',#635);
#635=PRODUCT_DEFINITION('','',#637,#636);
#636=PRODUCT_DEFINITION_CONTEXT('',#643,'design');
#637=PRODUCT_DEFINITION_FORMATION_WITH_SPECIFIED_SOURCE('','',#639,
 .NOT_KNOWN.);
#638=PRODUCT_RELATED_PRODUCT_CATEGORY('','',(#639));
#639=PRODUCT('Part 1','Part 1','Part 1',(#641));
#640=PRODUCT_CATEGORY('','');
#641=PRODUCT_CONTEXT('',#643,'mechanical');
#642=APPLICATION_PROTOCOL_DEFINITION('international standard',
'ap242_managed_model_based_3d_engineering',2020,#643);
#643=APPLICATION_CONTEXT('managed model based 3d engineering');
ENDSEC;
END-ISO-10303-21;
