ISO-10303-21;
HEADER;
/* Generated by software containing ST-Developer
 * from STEP Tools, Inc. (www.steptools.com) 
 */
/* OPTION: using custom renumber hook */

FILE_DESCRIPTION(
/* description */ ('STEP AP242 Edition 2',
'CAx-IF Rec.Pracs.---Representation and Presentation of Product Manufa
cturing Information (PMI)---4.0---2014-10-13',
'CAx-IF Rec.Pracs.---3D Tessellated Geometry---0.4---2014-09-14','2;1',
'CAx-IF Rec.Pracs.---User Defined Attributes---1.5---2016-08-15'),
/* implementation_level */ '2;1');

FILE_NAME(
/* name */ 'Part Studio 1 - Part 1',
/* time_stamp */ '2026-09-03T18:23:26Z',
/* author */ (''),
/* organization */ (''),
/* preprocessor_version */ 'ST-DEVELOPER v20',
/* originating_system */ 'ONSHAPE BY PTC INC, 1.220',
/* authorisation */ '  ');

FILE_SCHEMA (('AP242_MANAGED_MODEL_BASED_3D_ENGINEERING_MIM_LF { 1 0 10303 442 3 1 4 }'));
ENDSEC;

DATA;
#10=SHAPE_REPRESENTATION_RELATIONSHIP('','',#255,#11);
#11=ADVANCED_BREP_SHAPE_REPRESENTATION('',(#253),#409);
#12=CYLINDRICAL_SURFACE('',#273,0.005);
#13=CYLINDRICAL_SURFACE('',#274,0.005);
#14=CIRCLE('',#260,0.005);
#15=CIRCLE('',#261,0.005);
#16=CIRCLE('',#264,0.005);
#17=CIRCLE('',#265,0.005);
#18=ORIENTED_EDGE('',*,*,#82,.T.);
#19=ORIENTED_EDGE('',*,*,#83,.T.);
#20=ORIENTED_EDGE('',*,*,#84,.F.);
#21=ORIENTED_EDGE('',*,*,#85,.T.);
#22=ORIENTED_EDGE('',*,*,#86,.T.);
#23=ORIENTED_EDGE('',*,*,#87,.T.);
#24=ORIENTED_EDGE('',*,*,#88,.F.);
#25=ORIENTED_EDGE('',*,*,#89,.T.);
#26=ORIENTED_EDGE('',*,*,#88,.T.);
#27=ORIENTED_EDGE('',*,*,#90,.T.);
#28=ORIENTED_EDGE('',*,*,#91,.T.);
#29=ORIENTED_EDGE('',*,*,#92,.F.);
#30=ORIENTED_EDGE('',*,*,#93,.F.);
#31=ORIENTED_EDGE('',*,*,#94,.T.);
#32=ORIENTED_EDGE('',*,*,#95,.F.);
#33=ORIENTED_EDGE('',*,*,#96,.T.);
#34=ORIENTED_EDGE('',*,*,#93,.T.);
#35=ORIENTED_EDGE('',*,*,#97,.T.);
#36=ORIENTED_EDGE('',*,*,#98,.F.);
#37=ORIENTED_EDGE('',*,*,#99,.T.);
#38=ORIENTED_EDGE('',*,*,#82,.F.);
#39=ORIENTED_EDGE('',*,*,#100,.T.);
#40=ORIENTED_EDGE('',*,*,#95,.T.);
#41=ORIENTED_EDGE('',*,*,#101,.T.);
#42=ORIENTED_EDGE('',*,*,#91,.F.);
#43=ORIENTED_EDGE('',*,*,#102,.T.);
#44=ORIENTED_EDGE('',*,*,#98,.T.);
#45=ORIENTED_EDGE('',*,*,#103,.F.);
#46=ORIENTED_EDGE('',*,*,#92,.T.);
#47=ORIENTED_EDGE('',*,*,#103,.T.);
#48=ORIENTED_EDGE('',*,*,#101,.F.);
#49=ORIENTED_EDGE('',*,*,#97,.F.);
#50=ORIENTED_EDGE('',*,*,#86,.F.);
#51=ORIENTED_EDGE('',*,*,#104,.F.);
#52=ORIENTED_EDGE('',*,*,#105,.T.);
#53=ORIENTED_EDGE('',*,*,#106,.T.);
#54=ORIENTED_EDGE('',*,*,#107,.T.);
#55=ORIENTED_EDGE('',*,*,#108,.F.);
#56=ORIENTED_EDGE('',*,*,#109,.F.);
#57=ORIENTED_EDGE('',*,*,#104,.T.);
#58=ORIENTED_EDGE('',*,*,#84,.T.);
#59=ORIENTED_EDGE('',*,*,#110,.F.);
#60=ORIENTED_EDGE('',*,*,#111,.F.);
#61=ORIENTED_EDGE('',*,*,#108,.T.);
#62=ORIENTED_EDGE('',*,*,#112,.F.);
#63=ORIENTED_EDGE('',*,*,#106,.F.);
#64=ORIENTED_EDGE('',*,*,#113,.T.);
#65=ORIENTED_EDGE('',*,*,#110,.T.);
#66=ORIENTED_EDGE('',*,*,#105,.F.);
#67=ORIENTED_EDGE('',*,*,#109,.T.);
#68=ORIENTED_EDGE('',*,*,#111,.T.);
#69=ORIENTED_EDGE('',*,*,#113,.F.);
#70=ORIENTED_EDGE('',*,*,#112,.T.);
#71=ORIENTED_EDGE('',*,*,#83,.F.);
#72=ORIENTED_EDGE('',*,*,#99,.F.);
#73=ORIENTED_EDGE('',*,*,#102,.F.);
#74=ORIENTED_EDGE('',*,*,#90,.F.);
#75=ORIENTED_EDGE('',*,*,#87,.F.);
#76=ORIENTED_EDGE('',*,*,#94,.F.);
#77=ORIENTED_EDGE('',*,*,#96,.F.);
#78=ORIENTED_EDGE('',*,*,#100,.F.);
#79=ORIENTED_EDGE('',*,*,#85,.F.);
#80=ORIENTED_EDGE('',*,*,#107,.F.);
#81=ORIENTED_EDGE('',*,*,#89,.F.);
#82=EDGE_CURVE('',#114,#115,#134,.T.);
#83=EDGE_CURVE('',#115,#116,#135,.F.);
#84=EDGE_CURVE('',#117,#116,#136,.T.);
#85=EDGE_CURVE('',#117,#114,#137,.T.);
#86=EDGE_CURVE('',#118,#119,#138,.T.);
#87=EDGE_CURVE('',#119,#120,#139,.F.);
#88=EDGE_CURVE('',#121,#120,#140,.T.);
#89=EDGE_CURVE('',#121,#118,#141,.T.);
#90=EDGE_CURVE('',#120,#122,#14,.T.);
#91=EDGE_CURVE('',#122,#123,#142,.T.);
#92=EDGE_CURVE('',#124,#123,#143,.T.);
#93=EDGE_CURVE('',#125,#124,#144,.T.);
#94=EDGE_CURVE('',#125,#121,#15,.T.);
#95=EDGE_CURVE('',#126,#127,#145,.T.);
#96=EDGE_CURVE('',#126,#125,#146,.F.);
#97=EDGE_CURVE('',#124,#127,#147,.T.);
#98=EDGE_CURVE('',#128,#129,#148,.T.);
#99=EDGE_CURVE('',#128,#115,#16,.F.);
#100=EDGE_CURVE('',#114,#126,#17,.F.);
#101=EDGE_CURVE('',#127,#129,#149,.T.);
#102=EDGE_CURVE('',#122,#128,#150,.T.);
#103=EDGE_CURVE('',#123,#129,#151,.T.);
#104=EDGE_CURVE('',#130,#118,#152,.T.);
#105=EDGE_CURVE('',#130,#131,#153,.T.);
#106=EDGE_CURVE('',#131,#119,#154,.T.);
#107=EDGE_CURVE('',#118,#117,#155,.T.);
#108=EDGE_CURVE('',#132,#117,#156,.T.);
#109=EDGE_CURVE('',#130,#132,#157,.T.);
#110=EDGE_CURVE('',#133,#116,#158,.T.);
#111=EDGE_CURVE('',#132,#133,#159,.T.);
#112=EDGE_CURVE('',#119,#116,#160,.T.);
#113=EDGE_CURVE('',#131,#133,#161,.T.);
#114=VERTEX_POINT('',#344);
#115=VERTEX_POINT('',#345);
#116=VERTEX_POINT('',#347);
#117=VERTEX_POINT('',#349);
#118=VERTEX_POINT('',#353);
#119=VERTEX_POINT('',#354);
#120=VERTEX_POINT('',#356);
#121=VERTEX_POINT('',#358);
#122=VERTEX_POINT('',#362);
#123=VERTEX_POINT('',#364);
#124=VERTEX_POINT('',#366);
#125=VERTEX_POINT('',#368);
#126=VERTEX_POINT('',#372);
#127=VERTEX_POINT('',#373);
#128=VERTEX_POINT('',#378);
#129=VERTEX_POINT('',#379);
#130=VERTEX_POINT('',#389);
#131=VERTEX_POINT('',#391);
#132=VERTEX_POINT('',#396);
#133=VERTEX_POINT('',#400);
#134=LINE('',#343,#162);
#135=LINE('',#346,#163);
#136=LINE('',#348,#164);
#137=LINE('',#350,#165);
#138=LINE('',#352,#166);
#139=LINE('',#355,#167);
#140=LINE('',#357,#168);
#141=LINE('',#359,#169);
#142=LINE('',#363,#170);
#143=LINE('',#365,#171);
#144=LINE('',#367,#172);
#145=LINE('',#371,#173);
#146=LINE('',#374,#174);
#147=LINE('',#375,#175);
#148=LINE('',#377,#176);
#149=LINE('',#382,#177);
#150=LINE('',#384,#178);
#151=LINE('',#385,#179);
#152=LINE('',#388,#180);
#153=LINE('',#390,#181);
#154=LINE('',#392,#182);
#155=LINE('',#394,#183);
#156=LINE('',#395,#184);
#157=LINE('',#397,#185);
#158=LINE('',#399,#186);
#159=LINE('',#401,#187);
#160=LINE('',#403,#188);
#161=LINE('',#404,#189);
#162=VECTOR('',#279,1.);
#163=VECTOR('',#280,1.);
#164=VECTOR('',#281,1.);
#165=VECTOR('',#282,1.);
#166=VECTOR('',#285,1.);
#167=VECTOR('',#286,1.);
#168=VECTOR('',#287,1.);
#169=VECTOR('',#288,1.);
#170=VECTOR('',#293,1.);
#171=VECTOR('',#294,1.);
#172=VECTOR('',#295,1.);
#173=VECTOR('',#300,1.);
#174=VECTOR('',#301,1.);
#175=VECTOR('',#302,1.);
#176=VECTOR('',#305,1.);
#177=VECTOR('',#310,1.);
#178=VECTOR('',#313,1.);
#179=VECTOR('',#314,1.);
#180=VECTOR('',#319,1.);
#181=VECTOR('',#320,1.);
#182=VECTOR('',#321,1.);
#183=VECTOR('',#324,1.);
#184=VECTOR('',#325,1.);
#185=VECTOR('',#326,1.);
#186=VECTOR('',#329,1.);
#187=VECTOR('',#330,1.);
#188=VECTOR('',#333,1.);
#189=VECTOR('',#334,1.);
#190=EDGE_LOOP('',(#18,#19,#20,#21));
#191=EDGE_LOOP('',(#22,#23,#24,#25));
#192=EDGE_LOOP('',(#26,#27,#28,#29,#30,#31));
#193=EDGE_LOOP('',(#32,#33,#34,#35));
#194=EDGE_LOOP('',(#36,#37,#38,#39,#40,#41));
#195=EDGE_LOOP('',(#42,#43,#44,#45));
#196=EDGE_LOOP('',(#46,#47,#48,#49));
#197=EDGE_LOOP('',(#50,#51,#52,#53));
#198=EDGE_LOOP('',(#54,#55,#56,#57));
#199=EDGE_LOOP('',(#58,#59,#60,#61));
#200=EDGE_LOOP('',(#62,#63,#64,#65));
#201=EDGE_LOOP('',(#66,#67,#68,#69));
#202=EDGE_LOOP('',(#70,#71,#72,#73,#74,#75));
#203=EDGE_LOOP('',(#76,#77,#78,#79,#80,#81));
#204=FACE_BOUND('',#190,.T.);
#205=FACE_BOUND('',#191,.T.);
#206=FACE_BOUND('',#192,.T.);
#207=FACE_BOUND('',#193,.T.);
#208=FACE_BOUND('',#194,.T.);
#209=FACE_BOUND('',#195,.T.);
#210=FACE_BOUND('',#196,.T.);
#211=FACE_BOUND('',#197,.T.);
#212=FACE_BOUND('',#198,.T.);
#213=FACE_BOUND('',#199,.T.);
#214=FACE_BOUND('',#200,.T.);
#215=FACE_BOUND('',#201,.T.);
#216=FACE_BOUND('',#202,.T.);
#217=FACE_BOUND('',#203,.T.);
#218=PLANE('',#257);
#219=PLANE('',#258);
#220=PLANE('',#259);
#221=PLANE('',#262);
#222=PLANE('',#263);
#223=PLANE('',#266);
#224=PLANE('',#267);
#225=PLANE('',#268);
#226=PLANE('',#269);
#227=PLANE('',#270);
#228=PLANE('',#271);
#229=PLANE('',#272);
#230=ADVANCED_FACE('',(#204),#218,.T.);
#231=ADVANCED_FACE('',(#205),#219,.T.);
#232=ADVANCED_FACE('',(#206),#220,.T.);
#233=ADVANCED_FACE('',(#207),#221,.F.);
#234=ADVANCED_FACE('',(#208),#222,.F.);
#235=ADVANCED_FACE('',(#209),#223,.T.);
#236=ADVANCED_FACE('',(#210),#224,.F.);
#237=ADVANCED_FACE('',(#211),#225,.T.);
#238=ADVANCED_FACE('',(#212),#226,.F.);
#239=ADVANCED_FACE('',(#213),#227,.F.);
#240=ADVANCED_FACE('',(#214),#228,.T.);
#241=ADVANCED_FACE('',(#215),#229,.T.);
#242=ADVANCED_FACE('',(#216),#12,.T.);
#243=ADVANCED_FACE('',(#217),#13,.T.);
#244=CLOSED_SHELL('',(#230,#231,#232,#233,#234,#235,#236,#237,#238,#239,
#240,#241,#242,#243));
#245=STYLED_ITEM('',(#246),#253);
#246=PRESENTATION_STYLE_ASSIGNMENT((#247));
#247=SURFACE_STYLE_USAGE(.BOTH.,#248);
#248=SURFACE_SIDE_STYLE('',(#249));
#249=SURFACE_STYLE_FILL_AREA(#250);
#250=FILL_AREA_STYLE('',(#251));
#251=FILL_AREA_STYLE_COLOUR('',#252);
#252=COLOUR_RGB('',0.615686274509804,0.811764705882353,0.929411764705882);
#253=MANIFOLD_SOLID_BREP('Part 1',#244);
#254=SHAPE_DEFINITION_REPRESENTATION(#414,#255);
#255=SHAPE_REPRESENTATION('Part 1',(#256),#409);
#256=AXIS2_PLACEMENT_3D('',#341,#275,#276);
#257=AXIS2_PLACEMENT_3D('',#342,#277,#278);
#258=AXIS2_PLACEMENT_3D('',#351,#283,#284);
#259=AXIS2_PLACEMENT_3D('',#360,#289,#290);
#260=AXIS2_PLACEMENT_3D('',#361,#291,#292);
#261=AXIS2_PLACEMENT_3D('',#369,#296,#297);
#262=AXIS2_PLACEMENT_3D('',#370,#298,#299);
#263=AXIS2_PLACEMENT_3D('',#376,#303,#304);
#264=AXIS2_PLACEMENT_3D('',#380,#306,#307);
#265=AXIS2_PLACEMENT_3D('',#381,#308,#309);
#266=AXIS2_PLACEMENT_3D('',#383,#311,#312);
#267=AXIS2_PLACEMENT_3D('',#386,#315,#316);
#268=AXIS2_PLACEMENT_3D('',#387,#317,#318);
#269=AXIS2_PLACEMENT_3D('',#393,#322,#323);
#270=AXIS2_PLACEMENT_3D('',#398,#327,#328);
#271=AXIS2_PLACEMENT_3D('',#402,#331,#332);
#272=AXIS2_PLACEMENT_3D('',#405,#335,#336);
#273=AXIS2_PLACEMENT_3D('',#406,#337,#338);
#274=AXIS2_PLACEMENT_3D('',#407,#339,#340);
#275=DIRECTION('',(0.,0.,1.));
#276=DIRECTION('',(1.,0.,0.));
#277=DIRECTION('',(0.,0.,1.));
#278=DIRECTION('',(1.,0.,0.));
#279=DIRECTION('',(1.,0.,0.));
#280=DIRECTION('',(0.,-1.,0.));
#281=DIRECTION('',(1.,0.,0.));
#282=DIRECTION('',(5.55111512312578E-17,-1.,0.));
#283=DIRECTION('',(0.,0.,1.));
#284=DIRECTION('',(1.,0.,0.));
#285=DIRECTION('',(1.,0.,0.));
#286=DIRECTION('',(0.,-1.,0.));
#287=DIRECTION('',(1.,0.,0.));
#288=DIRECTION('',(5.55111512312578E-17,-1.,0.));
#289=DIRECTION('',(0.,1.,0.));
#290=DIRECTION('',(0.,0.,1.));
#291=DIRECTION('',(0.,1.,0.));
#292=DIRECTION('',(0.,0.,1.));
#293=DIRECTION('',(0.,0.,-1.));
#294=DIRECTION('',(1.,0.,0.));
#295=DIRECTION('',(0.,0.,-1.));
#296=DIRECTION('',(0.,1.,0.));
#297=DIRECTION('',(0.,0.,1.));
#298=DIRECTION('',(1.,5.55111512312578E-17,0.));
#299=DIRECTION('',(-5.55111512312578E-17,1.,0.));
#300=DIRECTION('',(0.,0.,-1.));
#301=DIRECTION('',(5.55111512312578E-17,-1.,0.));
#302=DIRECTION('',(5.55111512312578E-17,-1.,0.));
#303=DIRECTION('',(0.,1.,0.));
#304=DIRECTION('',(0.,0.,1.));
#305=DIRECTION('',(0.,0.,-1.));
#306=DIRECTION('',(0.,1.,0.));
#307=DIRECTION('',(0.,0.,1.));
#308=DIRECTION('',(0.,1.,0.));
#309=DIRECTION('',(0.,0.,1.));
#310=DIRECTION('',(1.,0.,0.));
#311=DIRECTION('',(1.,0.,0.));
#312=DIRECTION('',(0.,0.,-1.));
#313=DIRECTION('',(0.,-1.,0.));
#314=DIRECTION('',(0.,-1.,0.));
#315=DIRECTION('',(0.,0.,1.));
#316=DIRECTION('',(1.,0.,0.));
#317=DIRECTION('',(0.,-1.,0.));
#318=DIRECTION('',(0.,0.,-1.));
#319=DIRECTION('',(0.,0.,1.));
#320=DIRECTION('',(1.,0.,0.));
#321=DIRECTION('',(0.,0.,1.));
#322=DIRECTION('',(-1.,0.,0.));
#323=DIRECTION('',(0.,0.,1.));
#324=DIRECTION('',(0.,-1.,0.));
#325=DIRECTION('',(0.,0.,1.));
#326=DIRECTION('',(0.,-1.,0.));
#327=DIRECTION('',(0.,-1.,0.));
#328=DIRECTION('',(0.,0.,-1.));
#329=DIRECTION('',(0.,0.,1.));
#330=DIRECTION('',(1.,0.,0.));
#331=DIRECTION('',(-1.,0.,0.));
#332=DIRECTION('',(0.,0.,1.));
#333=DIRECTION('',(0.,-1.,0.));
#334=DIRECTION('',(0.,-1.,0.));
#335=DIRECTION('',(0.,0.,1.));
#336=DIRECTION('',(1.,0.,0.));
#337=DIRECTION('',(0.,-1.,0.));
#338=DIRECTION('',(0.,0.,-1.));
#339=DIRECTION('',(-5.55111512312578E-17,1.,0.));
#340=DIRECTION('',(-1.,-5.55111512312578E-17,0.));
#341=CARTESIAN_POINT('',(0.,0.,0.));
#342=CARTESIAN_POINT('',(-0.0116090685129166,0.00957988575100899,0.01));
#343=CARTESIAN_POINT('',(-0.0116090685129166,-0.052920114248991,0.01));
#344=CARTESIAN_POINT('',(-0.0441090685129166,-0.052920114248991,0.01));
#345=CARTESIAN_POINT('',(0.0208909314870834,-0.052920114248991,0.01));
#346=CARTESIAN_POINT('',(0.0208909314870834,0.00957988575100899,0.01));
#347=CARTESIAN_POINT('',(0.0208909314870834,-0.047920114248991,0.01));
#348=CARTESIAN_POINT('',(-0.0116090685129166,-0.047920114248991,0.01));
#349=CARTESIAN_POINT('',(-0.0441090685129166,-0.047920114248991,0.01));
#350=CARTESIAN_POINT('',(-0.0441090685129166,-0.052920114248991,0.01));
#351=CARTESIAN_POINT('',(-0.0116090685129166,0.00957988575100899,0.01));
#352=CARTESIAN_POINT('',(-0.0116090685129166,0.067079885751009,0.01));
#353=CARTESIAN_POINT('',(-0.0441090685129166,0.067079885751009,0.01));
#354=CARTESIAN_POINT('',(0.0208909314870834,0.067079885751009,0.01));
#355=CARTESIAN_POINT('',(0.0208909314870834,0.00957988575100899,0.01));
#356=CARTESIAN_POINT('',(0.0208909314870834,0.072079885751009,0.01));
#357=CARTESIAN_POINT('',(-0.0116090685129166,0.072079885751009,0.01));
#358=CARTESIAN_POINT('',(-0.0441090685129166,0.072079885751009,0.01));
#359=CARTESIAN_POINT('',(-0.0441090685129166,-0.052920114248991,0.01));
#360=CARTESIAN_POINT('',(-0.0116090685129166,0.072079885751009,0.01));
#361=CARTESIAN_POINT('',(0.0208909314870834,0.072079885751009,0.005));
#362=CARTESIAN_POINT('',(0.0258909314870835,0.072079885751009,0.005));
#363=CARTESIAN_POINT('',(0.0258909314870835,0.072079885751009,0.01));
#364=CARTESIAN_POINT('',(0.0258909314870835,0.072079885751009,0.));
#365=CARTESIAN_POINT('',(-0.0116090685129166,0.072079885751009,0.));
#366=CARTESIAN_POINT('',(-0.0491090685129166,0.072079885751009,0.));
#367=CARTESIAN_POINT('',(-0.0491090685129166,0.072079885751009,0.01));
#368=CARTESIAN_POINT('',(-0.0491090685129166,0.072079885751009,0.005));
#369=CARTESIAN_POINT('',(-0.0441090685129166,0.072079885751009,0.005));
#370=CARTESIAN_POINT('',(-0.0491090685129166,0.00957988575100899,0.01));
#371=CARTESIAN_POINT('',(-0.0491090685129166,-0.052920114248991,0.01));
#372=CARTESIAN_POINT('',(-0.0491090685129166,-0.052920114248991,0.005));
#373=CARTESIAN_POINT('',(-0.0491090685129166,-0.052920114248991,0.));
#374=CARTESIAN_POINT('',(-0.0491090685129166,0.072079885751009,0.005));
#375=CARTESIAN_POINT('',(-0.0491090685129166,0.00957988575100899,0.));
#376=CARTESIAN_POINT('',(-0.0116090685129166,-0.052920114248991,0.01));
#377=CARTESIAN_POINT('',(0.0258909314870835,-0.052920114248991,0.01));
#378=CARTESIAN_POINT('',(0.0258909314870835,-0.052920114248991,0.005));
#379=CARTESIAN_POINT('',(0.0258909314870835,-0.052920114248991,0.));
#380=CARTESIAN_POINT('',(0.0208909314870834,-0.052920114248991,0.005));
#381=CARTESIAN_POINT('',(-0.0441090685129166,-0.052920114248991,0.005));
#382=CARTESIAN_POINT('',(-0.0116090685129166,-0.052920114248991,0.));
#383=CARTESIAN_POINT('',(0.0258909314870835,0.00957988575100899,0.01));
#384=CARTESIAN_POINT('',(0.0258909314870835,0.00957988575100899,0.005));
#385=CARTESIAN_POINT('',(0.0258909314870835,0.00957988575100899,0.));
#386=CARTESIAN_POINT('',(-0.0116090685129166,0.00957988575100899,0.));
#387=CARTESIAN_POINT('',(-0.0116090685129166,0.067079885751009,0.0075));
#388=CARTESIAN_POINT('',(-0.0441090685129166,0.067079885751009,0.0075));
#389=CARTESIAN_POINT('',(-0.0441090685129166,0.067079885751009,0.0075));
#390=CARTESIAN_POINT('',(-0.0116090685129166,0.067079885751009,0.0075));
#391=CARTESIAN_POINT('',(0.0208909314870834,0.067079885751009,0.0075));
#392=CARTESIAN_POINT('',(0.0208909314870834,0.067079885751009,0.0075));
#393=CARTESIAN_POINT('',(-0.0441090685129166,0.00957988575100899,0.0075));
#394=CARTESIAN_POINT('',(-0.0441090685129166,0.00957988575100899,0.01));
#395=CARTESIAN_POINT('',(-0.0441090685129166,-0.047920114248991,0.0075));
#396=CARTESIAN_POINT('',(-0.0441090685129166,-0.047920114248991,0.0075));
#397=CARTESIAN_POINT('',(-0.0441090685129166,0.00957988575100899,0.0075));
#398=CARTESIAN_POINT('',(-0.0116090685129166,-0.047920114248991,0.0075));
#399=CARTESIAN_POINT('',(0.0208909314870834,-0.047920114248991,0.0075));
#400=CARTESIAN_POINT('',(0.0208909314870834,-0.047920114248991,0.0075));
#401=CARTESIAN_POINT('',(-0.0116090685129166,-0.047920114248991,0.0075));
#402=CARTESIAN_POINT('',(0.0208909314870834,0.00957988575100899,0.0075));
#403=CARTESIAN_POINT('',(0.0208909314870834,0.00957988575100899,0.01));
#404=CARTESIAN_POINT('',(0.0208909314870834,0.00957988575100899,0.0075));
#405=CARTESIAN_POINT('',(-0.0116090685129166,0.00957988575100899,0.0075));
#406=CARTESIAN_POINT('',(0.0208909314870834,0.00957988575100899,0.005));
#407=CARTESIAN_POINT('',(-0.0441090685129166,0.00957988575100899,0.005));
#408=MECHANICAL_DESIGN_GEOMETRIC_PRESENTATION_REPRESENTATION('',(#245),
#409);
#409=(
GEOMETRIC_REPRESENTATION_CONTEXT(3)
GLOBAL_UNCERTAINTY_ASSIGNED_CONTEXT((#410))
GLOBAL_UNIT_ASSIGNED_CONTEXT((#413,#412,#411))
REPRESENTATION_CONTEXT('Part 1','TOP_LEVEL_ASSEMBLY_PART')
);
#410=UNCERTAINTY_MEASURE_WITH_UNIT(LENGTH_MEASURE(1.E-8),#413,
'DISTANCE_ACCURACY_VALUE','Maximum Tolerance applied to model');
#411=(
NAMED_UNIT(*)
SI_UNIT($,.STERADIAN.)
SOLID_ANGLE_UNIT()
);
#412=(
NAMED_UNIT(*)
PLANE_ANGLE_UNIT()
SI_UNIT($,.RADIAN.)
);
#413=(
LENGTH_UNIT()
NAMED_UNIT(*)
SI_UNIT($,.METRE.)
);
#414=PRODUCT_DEFINITION_SHAPE('','',#415);
#415=PRODUCT_DEFINITION('','',#417,#416);
#416=PRODUCT_DEFINITION_CONTEXT('',#423,'design');
#417=PRODUCT_DEFINITION_FORMATION_WITH_SPECIFIED_SOURCE('','',#419,
 .NOT_KNOWN.);
#418=PRODUCT_RELATED_PRODUCT_CATEGORY('','',(#419));
#419=PRODUCT('Part 1','Part 1','Part 1',(#421));
#420=PRODUCT_CATEGORY('','');
#421=PRODUCT_CONTEXT('',#423,'mechanical');
#422=APPLICATION_PROTOCOL_DEFINITION('international standard',
'ap242_managed_model_based_3d_engineering',2020,#423);
#423=APPLICATION_CONTEXT('managed model based 3d engineering');
ENDSEC;
END-ISO-10303-21;
