ISO-10303-21;
HEADER;
/* Generated by software containing ST-Developer
 * from STEP Tools, Inc. (www.steptools.com) 
 */
/* OPTION: using custom renumber hook */

FILE_DESCRIPTION(
/* description */ ('STEP AP242 Edition 2',
'CAx-IF Rec.Pracs.---Representation and Presentation of Product Manufa
cturing Information (PMI)---4.0---2014-10-13',
'CAx-IF Rec.Pracs.---3D Tessellated Geometry---0.4---2014-09-14','2;1',
'CAx-IF Rec.Pracs.---User Defined Attributes---1.5---2016-08-15'),
/* implementation_level */ '2;1');

FILE_NAME(
/* name */ 'Part Studio 1',
/* time_stamp */ '2026-09-03T18:22:13Z',
/* author */ (''),
/* organization */ (''),
/* preprocessor_version */ 'ST-DEVELOPER v20',
/* originating_system */ 'ONSHAPE BY PTC INC, 1.220',
/* authorisation */ '  ');

FILE_SCHEMA (('AP242_MANAGED_MODEL_BASED_3D_ENGINEERING_MIM_LF { 1 0 10303 442 3 1 4 }'));
ENDSEC;

DATA;
#10=CYLINDRICAL_SURFACE('',#483,0.005);
#11=CYLINDRICAL_SURFACE('',#484,0.005);
#12=CYLINDRICAL_SURFACE('',#485,0.005);
#13=CYLINDRICAL_SURFACE('',#486,0.005);
#14=CIRCLE('',#471,0.005);
#15=CIRCLE('',#472,0.005);
#16=CIRCLE('',#473,0.005);
#17=CIRCLE('',#474,0.005);
#18=CIRCLE('',#477,0.005);
#19=CIRCLE('',#478,0.005);
#20=CIRCLE('',#479,0.005);
#21=CIRCLE('',#480,0.005);
#22=SHAPE_REPRESENTATION_RELATIONSHIP('','',#451,#24);
#23=SHAPE_REPRESENTATION_RELATIONSHIP('','',#452,#25);
#24=ADVANCED_BREP_SHAPE_REPRESENTATION('',(#447),#729);
#25=ADVANCED_BREP_SHAPE_REPRESENTATION('',(#448),#730);
#26=ORIENTED_EDGE('',*,*,#142,.F.);
#27=ORIENTED_EDGE('',*,*,#143,.F.);
#28=ORIENTED_EDGE('',*,*,#144,.T.);
#29=ORIENTED_EDGE('',*,*,#145,.T.);
#30=ORIENTED_EDGE('',*,*,#146,.T.);
#31=ORIENTED_EDGE('',*,*,#147,.F.);
#32=ORIENTED_EDGE('',*,*,#148,.F.);
#33=ORIENTED_EDGE('',*,*,#143,.T.);
#34=ORIENTED_EDGE('',*,*,#149,.T.);
#35=ORIENTED_EDGE('',*,*,#150,.F.);
#36=ORIENTED_EDGE('',*,*,#151,.F.);
#37=ORIENTED_EDGE('',*,*,#147,.T.);
#38=ORIENTED_EDGE('',*,*,#152,.F.);
#39=ORIENTED_EDGE('',*,*,#153,.F.);
#40=ORIENTED_EDGE('',*,*,#154,.T.);
#41=ORIENTED_EDGE('',*,*,#150,.T.);
#42=ORIENTED_EDGE('',*,*,#155,.T.);
#43=ORIENTED_EDGE('',*,*,#156,.F.);
#44=ORIENTED_EDGE('',*,*,#157,.F.);
#45=ORIENTED_EDGE('',*,*,#153,.T.);
#46=ORIENTED_EDGE('',*,*,#158,.T.);
#47=ORIENTED_EDGE('',*,*,#159,.F.);
#48=ORIENTED_EDGE('',*,*,#160,.F.);
#49=ORIENTED_EDGE('',*,*,#156,.T.);
#50=ORIENTED_EDGE('',*,*,#161,.F.);
#51=ORIENTED_EDGE('',*,*,#145,.F.);
#52=ORIENTED_EDGE('',*,*,#162,.T.);
#53=ORIENTED_EDGE('',*,*,#159,.T.);
#54=ORIENTED_EDGE('',*,*,#144,.F.);
#55=ORIENTED_EDGE('',*,*,#148,.T.);
#56=ORIENTED_EDGE('',*,*,#151,.T.);
#57=ORIENTED_EDGE('',*,*,#154,.F.);
#58=ORIENTED_EDGE('',*,*,#157,.T.);
#59=ORIENTED_EDGE('',*,*,#160,.T.);
#60=ORIENTED_EDGE('',*,*,#162,.F.);
#61=ORIENTED_EDGE('',*,*,#142,.T.);
#62=ORIENTED_EDGE('',*,*,#161,.T.);
#63=ORIENTED_EDGE('',*,*,#158,.F.);
#64=ORIENTED_EDGE('',*,*,#155,.F.);
#65=ORIENTED_EDGE('',*,*,#152,.T.);
#66=ORIENTED_EDGE('',*,*,#149,.F.);
#67=ORIENTED_EDGE('',*,*,#146,.F.);
#68=ORIENTED_EDGE('',*,*,#163,.F.);
#69=ORIENTED_EDGE('',*,*,#164,.F.);
#70=ORIENTED_EDGE('',*,*,#165,.T.);
#71=ORIENTED_EDGE('',*,*,#166,.T.);
#72=ORIENTED_EDGE('',*,*,#167,.T.);
#73=ORIENTED_EDGE('',*,*,#168,.F.);
#74=ORIENTED_EDGE('',*,*,#169,.F.);
#75=ORIENTED_EDGE('',*,*,#164,.T.);
#76=ORIENTED_EDGE('',*,*,#170,.F.);
#77=ORIENTED_EDGE('',*,*,#171,.F.);
#78=ORIENTED_EDGE('',*,*,#172,.T.);
#79=ORIENTED_EDGE('',*,*,#168,.T.);
#80=ORIENTED_EDGE('',*,*,#165,.F.);
#81=ORIENTED_EDGE('',*,*,#169,.T.);
#82=ORIENTED_EDGE('',*,*,#172,.F.);
#83=ORIENTED_EDGE('',*,*,#173,.T.);
#84=ORIENTED_EDGE('',*,*,#163,.T.);
#85=ORIENTED_EDGE('',*,*,#174,.F.);
#86=ORIENTED_EDGE('',*,*,#170,.T.);
#87=ORIENTED_EDGE('',*,*,#167,.F.);
#88=ORIENTED_EDGE('',*,*,#175,.T.);
#89=ORIENTED_EDGE('',*,*,#176,.T.);
#90=ORIENTED_EDGE('',*,*,#177,.F.);
#91=ORIENTED_EDGE('',*,*,#178,.T.);
#92=ORIENTED_EDGE('',*,*,#179,.T.);
#93=ORIENTED_EDGE('',*,*,#173,.F.);
#94=ORIENTED_EDGE('',*,*,#171,.T.);
#95=ORIENTED_EDGE('',*,*,#174,.T.);
#96=ORIENTED_EDGE('',*,*,#177,.T.);
#97=ORIENTED_EDGE('',*,*,#180,.T.);
#98=ORIENTED_EDGE('',*,*,#181,.F.);
#99=ORIENTED_EDGE('',*,*,#182,.T.);
#100=ORIENTED_EDGE('',*,*,#183,.F.);
#101=ORIENTED_EDGE('',*,*,#184,.T.);
#102=ORIENTED_EDGE('',*,*,#185,.T.);
#103=ORIENTED_EDGE('',*,*,#186,.T.);
#104=ORIENTED_EDGE('',*,*,#187,.F.);
#105=ORIENTED_EDGE('',*,*,#188,.T.);
#106=ORIENTED_EDGE('',*,*,#183,.T.);
#107=ORIENTED_EDGE('',*,*,#189,.T.);
#108=ORIENTED_EDGE('',*,*,#190,.F.);
#109=ORIENTED_EDGE('',*,*,#191,.T.);
#110=ORIENTED_EDGE('',*,*,#175,.F.);
#111=ORIENTED_EDGE('',*,*,#166,.F.);
#112=ORIENTED_EDGE('',*,*,#179,.F.);
#113=ORIENTED_EDGE('',*,*,#192,.T.);
#114=ORIENTED_EDGE('',*,*,#193,.T.);
#115=ORIENTED_EDGE('',*,*,#194,.T.);
#116=ORIENTED_EDGE('',*,*,#187,.T.);
#117=ORIENTED_EDGE('',*,*,#195,.T.);
#118=ORIENTED_EDGE('',*,*,#193,.F.);
#119=ORIENTED_EDGE('',*,*,#196,.T.);
#120=ORIENTED_EDGE('',*,*,#185,.F.);
#121=ORIENTED_EDGE('',*,*,#197,.T.);
#122=ORIENTED_EDGE('',*,*,#181,.T.);
#123=ORIENTED_EDGE('',*,*,#198,.T.);
#124=ORIENTED_EDGE('',*,*,#190,.T.);
#125=ORIENTED_EDGE('',*,*,#199,.T.);
#126=ORIENTED_EDGE('',*,*,#180,.F.);
#127=ORIENTED_EDGE('',*,*,#176,.F.);
#128=ORIENTED_EDGE('',*,*,#191,.F.);
#129=ORIENTED_EDGE('',*,*,#198,.F.);
#130=ORIENTED_EDGE('',*,*,#186,.F.);
#131=ORIENTED_EDGE('',*,*,#196,.F.);
#132=ORIENTED_EDGE('',*,*,#192,.F.);
#133=ORIENTED_EDGE('',*,*,#178,.F.);
#134=ORIENTED_EDGE('',*,*,#194,.F.);
#135=ORIENTED_EDGE('',*,*,#197,.F.);
#136=ORIENTED_EDGE('',*,*,#184,.F.);
#137=ORIENTED_EDGE('',*,*,#188,.F.);
#138=ORIENTED_EDGE('',*,*,#195,.F.);
#139=ORIENTED_EDGE('',*,*,#189,.F.);
#140=ORIENTED_EDGE('',*,*,#182,.F.);
#141=ORIENTED_EDGE('',*,*,#199,.F.);
#142=EDGE_CURVE('',#200,#201,#238,.T.);
#143=EDGE_CURVE('',#202,#200,#239,.T.);
#144=EDGE_CURVE('',#202,#203,#240,.T.);
#145=EDGE_CURVE('',#203,#201,#241,.T.);
#146=EDGE_CURVE('',#200,#204,#242,.T.);
#147=EDGE_CURVE('',#205,#204,#243,.T.);
#148=EDGE_CURVE('',#202,#205,#244,.T.);
#149=EDGE_CURVE('',#204,#206,#245,.T.);
#150=EDGE_CURVE('',#207,#206,#246,.T.);
#151=EDGE_CURVE('',#205,#207,#247,.T.);
#152=EDGE_CURVE('',#208,#206,#248,.T.);
#153=EDGE_CURVE('',#209,#208,#249,.T.);
#154=EDGE_CURVE('',#209,#207,#250,.T.);
#155=EDGE_CURVE('',#208,#210,#251,.T.);
#156=EDGE_CURVE('',#211,#210,#252,.T.);
#157=EDGE_CURVE('',#209,#211,#253,.T.);
#158=EDGE_CURVE('',#210,#212,#254,.T.);
#159=EDGE_CURVE('',#213,#212,#255,.T.);
#160=EDGE_CURVE('',#211,#213,#256,.T.);
#161=EDGE_CURVE('',#201,#212,#257,.T.);
#162=EDGE_CURVE('',#203,#213,#258,.T.);
#163=EDGE_CURVE('',#214,#215,#259,.T.);
#164=EDGE_CURVE('',#216,#214,#260,.T.);
#165=EDGE_CURVE('',#216,#217,#261,.T.);
#166=EDGE_CURVE('',#217,#215,#262,.T.);
#167=EDGE_CURVE('',#214,#218,#263,.T.);
#168=EDGE_CURVE('',#219,#218,#264,.T.);
#169=EDGE_CURVE('',#216,#219,#265,.T.);
#170=EDGE_CURVE('',#220,#218,#266,.T.);
#171=EDGE_CURVE('',#221,#220,#267,.T.);
#172=EDGE_CURVE('',#221,#219,#268,.T.);
#173=EDGE_CURVE('',#221,#217,#269,.T.);
#174=EDGE_CURVE('',#220,#215,#270,.T.);
#175=EDGE_CURVE('',#215,#222,#271,.T.);
#176=EDGE_CURVE('',#222,#223,#272,.F.);
#177=EDGE_CURVE('',#224,#223,#273,.T.);
#178=EDGE_CURVE('',#224,#225,#274,.T.);
#179=EDGE_CURVE('',#225,#217,#275,.T.);
#180=EDGE_CURVE('',#223,#226,#14,.T.);
#181=EDGE_CURVE('',#227,#226,#276,.T.);
#182=EDGE_CURVE('',#227,#228,#15,.T.);
#183=EDGE_CURVE('',#229,#228,#277,.T.);
#184=EDGE_CURVE('',#229,#230,#16,.T.);
#185=EDGE_CURVE('',#230,#231,#278,.T.);
#186=EDGE_CURVE('',#231,#224,#17,.T.);
#187=EDGE_CURVE('',#232,#233,#279,.T.);
#188=EDGE_CURVE('',#232,#229,#280,.T.);
#189=EDGE_CURVE('',#228,#233,#281,.F.);
#190=EDGE_CURVE('',#234,#235,#282,.T.);
#191=EDGE_CURVE('',#234,#222,#18,.T.);
#192=EDGE_CURVE('',#225,#236,#19,.T.);
#193=EDGE_CURVE('',#236,#237,#283,.T.);
#194=EDGE_CURVE('',#237,#232,#20,.T.);
#195=EDGE_CURVE('',#233,#235,#21,.T.);
#196=EDGE_CURVE('',#236,#231,#284,.F.);
#197=EDGE_CURVE('',#230,#237,#285,.F.);
#198=EDGE_CURVE('',#226,#234,#286,.T.);
#199=EDGE_CURVE('',#235,#227,#287,.T.);
#200=VERTEX_POINT('',#608);
#201=VERTEX_POINT('',#609);
#202=VERTEX_POINT('',#611);
#203=VERTEX_POINT('',#613);
#204=VERTEX_POINT('',#617);
#205=VERTEX_POINT('',#619);
#206=VERTEX_POINT('',#623);
#207=VERTEX_POINT('',#625);
#208=VERTEX_POINT('',#629);
#209=VERTEX_POINT('',#631);
#210=VERTEX_POINT('',#635);
#211=VERTEX_POINT('',#637);
#212=VERTEX_POINT('',#641);
#213=VERTEX_POINT('',#643);
#214=VERTEX_POINT('',#653);
#215=VERTEX_POINT('',#654);
#216=VERTEX_POINT('',#656);
#217=VERTEX_POINT('',#658);
#218=VERTEX_POINT('',#662);
#219=VERTEX_POINT('',#664);
#220=VERTEX_POINT('',#668);
#221=VERTEX_POINT('',#670);
#222=VERTEX_POINT('',#678);
#223=VERTEX_POINT('',#680);
#224=VERTEX_POINT('',#682);
#225=VERTEX_POINT('',#684);
#226=VERTEX_POINT('',#688);
#227=VERTEX_POINT('',#690);
#228=VERTEX_POINT('',#692);
#229=VERTEX_POINT('',#694);
#230=VERTEX_POINT('',#696);
#231=VERTEX_POINT('',#698);
#232=VERTEX_POINT('',#702);
#233=VERTEX_POINT('',#703);
#234=VERTEX_POINT('',#708);
#235=VERTEX_POINT('',#709);
#236=VERTEX_POINT('',#712);
#237=VERTEX_POINT('',#714);
#238=LINE('',#607,#288);
#239=LINE('',#610,#289);
#240=LINE('',#612,#290);
#241=LINE('',#614,#291);
#242=LINE('',#616,#292);
#243=LINE('',#618,#293);
#244=LINE('',#620,#294);
#245=LINE('',#622,#295);
#246=LINE('',#624,#296);
#247=LINE('',#626,#297);
#248=LINE('',#628,#298);
#249=LINE('',#630,#299);
#250=LINE('',#632,#300);
#251=LINE('',#634,#301);
#252=LINE('',#636,#302);
#253=LINE('',#638,#303);
#254=LINE('',#640,#304);
#255=LINE('',#642,#305);
#256=LINE('',#644,#306);
#257=LINE('',#646,#307);
#258=LINE('',#647,#308);
#259=LINE('',#652,#309);
#260=LINE('',#655,#310);
#261=LINE('',#657,#311);
#262=LINE('',#659,#312);
#263=LINE('',#661,#313);
#264=LINE('',#663,#314);
#265=LINE('',#665,#315);
#266=LINE('',#667,#316);
#267=LINE('',#669,#317);
#268=LINE('',#671,#318);
#269=LINE('',#673,#319);
#270=LINE('',#675,#320);
#271=LINE('',#677,#321);
#272=LINE('',#679,#322);
#273=LINE('',#681,#323);
#274=LINE('',#683,#324);
#275=LINE('',#685,#325);
#276=LINE('',#689,#326);
#277=LINE('',#693,#327);
#278=LINE('',#697,#328);
#279=LINE('',#701,#329);
#280=LINE('',#704,#330);
#281=LINE('',#705,#331);
#282=LINE('',#707,#332);
#283=LINE('',#713,#333);
#284=LINE('',#718,#334);
#285=LINE('',#719,#335);
#286=LINE('',#721,#336);
#287=LINE('',#722,#337);
#288=VECTOR('',#491,1.);
#289=VECTOR('',#492,1.);
#290=VECTOR('',#493,1.);
#291=VECTOR('',#494,1.);
#292=VECTOR('',#497,1.);
#293=VECTOR('',#498,1.);
#294=VECTOR('',#499,1.);
#295=VECTOR('',#502,1.);
#296=VECTOR('',#503,1.);
#297=VECTOR('',#504,1.);
#298=VECTOR('',#507,1.);
#299=VECTOR('',#508,1.);
#300=VECTOR('',#509,1.);
#301=VECTOR('',#512,1.);
#302=VECTOR('',#513,1.);
#303=VECTOR('',#514,1.);
#304=VECTOR('',#517,1.);
#305=VECTOR('',#518,1.);
#306=VECTOR('',#519,1.);
#307=VECTOR('',#522,1.);
#308=VECTOR('',#523,1.);
#309=VECTOR('',#532,1.);
#310=VECTOR('',#533,1.);
#311=VECTOR('',#534,1.);
#312=VECTOR('',#535,1.);
#313=VECTOR('',#538,1.);
#314=VECTOR('',#539,1.);
#315=VECTOR('',#540,1.);
#316=VECTOR('',#543,1.);
#317=VECTOR('',#544,1.);
#318=VECTOR('',#545,1.);
#319=VECTOR('',#548,1.);
#320=VECTOR('',#551,1.);
#321=VECTOR('',#554,1.);
#322=VECTOR('',#555,1.);
#323=VECTOR('',#556,1.);
#324=VECTOR('',#557,1.);
#325=VECTOR('',#558,1.);
#326=VECTOR('',#563,1.);
#327=VECTOR('',#566,1.);
#328=VECTOR('',#569,1.);
#329=VECTOR('',#574,1.);
#330=VECTOR('',#575,1.);
#331=VECTOR('',#576,1.);
#332=VECTOR('',#579,1.);
#333=VECTOR('',#584,1.);
#334=VECTOR('',#591,1.);
#335=VECTOR('',#592,1.);
#336=VECTOR('',#595,1.);
#337=VECTOR('',#596,1.);
#338=EDGE_LOOP('',(#26,#27,#28,#29));
#339=EDGE_LOOP('',(#30,#31,#32,#33));
#340=EDGE_LOOP('',(#34,#35,#36,#37));
#341=EDGE_LOOP('',(#38,#39,#40,#41));
#342=EDGE_LOOP('',(#42,#43,#44,#45));
#343=EDGE_LOOP('',(#46,#47,#48,#49));
#344=EDGE_LOOP('',(#50,#51,#52,#53));
#345=EDGE_LOOP('',(#54,#55,#56,#57,#58,#59,#60));
#346=EDGE_LOOP('',(#61,#62,#63,#64,#65,#66,#67));
#347=EDGE_LOOP('',(#68,#69,#70,#71));
#348=EDGE_LOOP('',(#72,#73,#74,#75));
#349=EDGE_LOOP('',(#76,#77,#78,#79));
#350=EDGE_LOOP('',(#80,#81,#82,#83));
#351=EDGE_LOOP('',(#84,#85,#86,#87));
#352=EDGE_LOOP('',(#88,#89,#90,#91,#92,#93,#94,#95));
#353=EDGE_LOOP('',(#96,#97,#98,#99,#100,#101,#102,#103));
#354=EDGE_LOOP('',(#104,#105,#106,#107));
#355=EDGE_LOOP('',(#108,#109,#110,#111,#112,#113,#114,#115,#116,#117));
#356=EDGE_LOOP('',(#118,#119,#120,#121));
#357=EDGE_LOOP('',(#122,#123,#124,#125));
#358=EDGE_LOOP('',(#126,#127,#128,#129));
#359=EDGE_LOOP('',(#130,#131,#132,#133));
#360=EDGE_LOOP('',(#134,#135,#136,#137));
#361=EDGE_LOOP('',(#138,#139,#140,#141));
#362=FACE_BOUND('',#338,.T.);
#363=FACE_BOUND('',#339,.T.);
#364=FACE_BOUND('',#340,.T.);
#365=FACE_BOUND('',#341,.T.);
#366=FACE_BOUND('',#342,.T.);
#367=FACE_BOUND('',#343,.T.);
#368=FACE_BOUND('',#344,.T.);
#369=FACE_BOUND('',#345,.T.);
#370=FACE_BOUND('',#346,.T.);
#371=FACE_BOUND('',#347,.T.);
#372=FACE_BOUND('',#348,.T.);
#373=FACE_BOUND('',#349,.T.);
#374=FACE_BOUND('',#350,.T.);
#375=FACE_BOUND('',#351,.T.);
#376=FACE_BOUND('',#352,.T.);
#377=FACE_BOUND('',#353,.T.);
#378=FACE_BOUND('',#354,.T.);
#379=FACE_BOUND('',#355,.T.);
#380=FACE_BOUND('',#356,.T.);
#381=FACE_BOUND('',#357,.T.);
#382=FACE_BOUND('',#358,.T.);
#383=FACE_BOUND('',#359,.T.);
#384=FACE_BOUND('',#360,.T.);
#385=FACE_BOUND('',#361,.T.);
#386=PLANE('',#454);
#387=PLANE('',#455);
#388=PLANE('',#456);
#389=PLANE('',#457);
#390=PLANE('',#458);
#391=PLANE('',#459);
#392=PLANE('',#460);
#393=PLANE('',#461);
#394=PLANE('',#462);
#395=PLANE('',#464);
#396=PLANE('',#465);
#397=PLANE('',#466);
#398=PLANE('',#467);
#399=PLANE('',#468);
#400=PLANE('',#469);
#401=PLANE('',#470);
#402=PLANE('',#475);
#403=PLANE('',#476);
#404=PLANE('',#481);
#405=PLANE('',#482);
#406=ADVANCED_FACE('',(#362),#386,.T.);
#407=ADVANCED_FACE('',(#363),#387,.F.);
#408=ADVANCED_FACE('',(#364),#388,.F.);
#409=ADVANCED_FACE('',(#365),#389,.T.);
#410=ADVANCED_FACE('',(#366),#390,.F.);
#411=ADVANCED_FACE('',(#367),#391,.F.);
#412=ADVANCED_FACE('',(#368),#392,.T.);
#413=ADVANCED_FACE('',(#369),#393,.T.);
#414=ADVANCED_FACE('',(#370),#394,.F.);
#415=ADVANCED_FACE('',(#371),#395,.T.);
#416=ADVANCED_FACE('',(#372),#396,.F.);
#417=ADVANCED_FACE('',(#373),#397,.T.);
#418=ADVANCED_FACE('',(#374),#398,.T.);
#419=ADVANCED_FACE('',(#375),#399,.F.);
#420=ADVANCED_FACE('',(#376),#400,.T.);
#421=ADVANCED_FACE('',(#377),#401,.T.);
#422=ADVANCED_FACE('',(#378),#402,.T.);
#423=ADVANCED_FACE('',(#379),#403,.T.);
#424=ADVANCED_FACE('',(#380),#404,.T.);
#425=ADVANCED_FACE('',(#381),#405,.F.);
#426=ADVANCED_FACE('',(#382),#10,.T.);
#427=ADVANCED_FACE('',(#383),#11,.T.);
#428=ADVANCED_FACE('',(#384),#12,.T.);
#429=ADVANCED_FACE('',(#385),#13,.T.);
#430=CLOSED_SHELL('',(#406,#407,#408,#409,#410,#411,#412,#413,#414));
#431=CLOSED_SHELL('',(#415,#416,#417,#418,#419,#420,#421,#422,#423,#424,
#425,#426,#427,#428,#429));
#432=STYLED_ITEM('',(#434),#447);
#433=STYLED_ITEM('',(#435),#448);
#434=PRESENTATION_STYLE_ASSIGNMENT((#436));
#435=PRESENTATION_STYLE_ASSIGNMENT((#437));
#436=SURFACE_STYLE_USAGE(.BOTH.,#438);
#437=SURFACE_STYLE_USAGE(.BOTH.,#439);
#438=SURFACE_SIDE_STYLE('',(#440));
#439=SURFACE_SIDE_STYLE('',(#441));
#440=SURFACE_STYLE_FILL_AREA(#442);
#441=SURFACE_STYLE_FILL_AREA(#443);
#442=FILL_AREA_STYLE('',(#444));
#443=FILL_AREA_STYLE('',(#445));
#444=FILL_AREA_STYLE_COLOUR('',#446);
#445=FILL_AREA_STYLE_COLOUR('',#446);
#446=COLOUR_RGB('',0.615686274509804,0.811764705882353,0.929411764705882);
#447=MANIFOLD_SOLID_BREP('Part 1',#430);
#448=MANIFOLD_SOLID_BREP('Part 2',#431);
#449=SHAPE_DEFINITION_REPRESENTATION(#739,#451);
#450=SHAPE_DEFINITION_REPRESENTATION(#740,#452);
#451=SHAPE_REPRESENTATION('Part 1',(#453),#729);
#452=SHAPE_REPRESENTATION('Part 2',(#463),#730);
#453=AXIS2_PLACEMENT_3D('',#605,#487,#488);
#454=AXIS2_PLACEMENT_3D('',#606,#489,#490);
#455=AXIS2_PLACEMENT_3D('',#615,#495,#496);
#456=AXIS2_PLACEMENT_3D('',#621,#500,#501);
#457=AXIS2_PLACEMENT_3D('',#627,#505,#506);
#458=AXIS2_PLACEMENT_3D('',#633,#510,#511);
#459=AXIS2_PLACEMENT_3D('',#639,#515,#516);
#460=AXIS2_PLACEMENT_3D('',#645,#520,#521);
#461=AXIS2_PLACEMENT_3D('',#648,#524,#525);
#462=AXIS2_PLACEMENT_3D('',#649,#526,#527);
#463=AXIS2_PLACEMENT_3D('',#650,#528,#529);
#464=AXIS2_PLACEMENT_3D('',#651,#530,#531);
#465=AXIS2_PLACEMENT_3D('',#660,#536,#537);
#466=AXIS2_PLACEMENT_3D('',#666,#541,#542);
#467=AXIS2_PLACEMENT_3D('',#672,#546,#547);
#468=AXIS2_PLACEMENT_3D('',#674,#549,#550);
#469=AXIS2_PLACEMENT_3D('',#676,#552,#553);
#470=AXIS2_PLACEMENT_3D('',#686,#559,#560);
#471=AXIS2_PLACEMENT_3D('',#687,#561,#562);
#472=AXIS2_PLACEMENT_3D('',#691,#564,#565);
#473=AXIS2_PLACEMENT_3D('',#695,#567,#568);
#474=AXIS2_PLACEMENT_3D('',#699,#570,#571);
#475=AXIS2_PLACEMENT_3D('',#700,#572,#573);
#476=AXIS2_PLACEMENT_3D('',#706,#577,#578);
#477=AXIS2_PLACEMENT_3D('',#710,#580,#581);
#478=AXIS2_PLACEMENT_3D('',#711,#582,#583);
#479=AXIS2_PLACEMENT_3D('',#715,#585,#586);
#480=AXIS2_PLACEMENT_3D('',#716,#587,#588);
#481=AXIS2_PLACEMENT_3D('',#717,#589,#590);
#482=AXIS2_PLACEMENT_3D('',#720,#593,#594);
#483=AXIS2_PLACEMENT_3D('',#723,#597,#598);
#484=AXIS2_PLACEMENT_3D('',#724,#599,#600);
#485=AXIS2_PLACEMENT_3D('',#725,#601,#602);
#486=AXIS2_PLACEMENT_3D('',#726,#603,#604);
#487=DIRECTION('',(0.,0.,1.));
#488=DIRECTION('',(1.,0.,0.));
#489=DIRECTION('',(0.,0.,1.));
#490=DIRECTION('',(1.,0.,0.));
#491=DIRECTION('',(0.,1.,0.));
#492=DIRECTION('',(-1.,0.,0.));
#493=DIRECTION('',(0.,1.,0.));
#494=DIRECTION('',(-1.,0.,0.));
#495=DIRECTION('',(0.,0.98046751449742,-0.196681094707273));
#496=DIRECTION('',(0.,0.196681094707273,0.98046751449742));
#497=DIRECTION('',(0.,-0.196681094707273,-0.98046751449742));
#498=DIRECTION('',(-1.,0.,0.));
#499=DIRECTION('',(0.,-0.196681094707273,-0.98046751449742));
#500=DIRECTION('',(0.,-0.196681094707273,-0.98046751449742));
#501=DIRECTION('',(0.,0.98046751449742,-0.196681094707273));
#502=DIRECTION('',(0.,-0.98046751449742,0.196681094707273));
#503=DIRECTION('',(-1.,0.,0.));
#504=DIRECTION('',(0.,-0.98046751449742,0.196681094707273));
#505=DIRECTION('',(0.,0.,1.));
#506=DIRECTION('',(1.,0.,0.));
#507=DIRECTION('',(0.,1.,0.));
#508=DIRECTION('',(-1.,0.,0.));
#509=DIRECTION('',(0.,1.,0.));
#510=DIRECTION('',(0.,1.,0.));
#511=DIRECTION('',(0.,0.,1.));
#512=DIRECTION('',(0.,0.,-1.));
#513=DIRECTION('',(-1.,0.,0.));
#514=DIRECTION('',(0.,0.,-1.));
#515=DIRECTION('',(0.,0.,1.));
#516=DIRECTION('',(1.,0.,0.));
#517=DIRECTION('',(0.,1.,0.));
#518=DIRECTION('',(-1.,0.,0.));
#519=DIRECTION('',(0.,1.,0.));
#520=DIRECTION('',(0.,1.,0.));
#521=DIRECTION('',(0.,0.,1.));
#522=DIRECTION('',(0.,0.,-1.));
#523=DIRECTION('',(0.,0.,-1.));
#524=DIRECTION('',(1.,0.,0.));
#525=DIRECTION('',(0.,1.,0.));
#526=DIRECTION('',(1.,0.,0.));
#527=DIRECTION('',(0.,1.,0.));
#528=DIRECTION('',(0.,0.,1.));
#529=DIRECTION('',(1.,0.,0.));
#530=DIRECTION('',(0.,-0.98046751449742,0.196681094707273));
#531=DIRECTION('',(0.,-0.196681094707273,-0.98046751449742));
#532=DIRECTION('',(0.,0.196681094707273,0.98046751449742));
#533=DIRECTION('',(-1.,0.,0.));
#534=DIRECTION('',(0.,0.196681094707273,0.98046751449742));
#535=DIRECTION('',(-1.,0.,0.));
#536=DIRECTION('',(0.,0.,1.));
#537=DIRECTION('',(1.,0.,0.));
#538=DIRECTION('',(0.,1.,0.));
#539=DIRECTION('',(-1.,0.,0.));
#540=DIRECTION('',(0.,1.,0.));
#541=DIRECTION('',(0.,0.98046751449742,-0.196681094707273));
#542=DIRECTION('',(0.,0.196681094707273,0.98046751449742));
#543=DIRECTION('',(0.,-0.196681094707273,-0.98046751449742));
#544=DIRECTION('',(-1.,0.,0.));
#545=DIRECTION('',(0.,-0.196681094707273,-0.98046751449742));
#546=DIRECTION('',(1.,0.,0.));
#547=DIRECTION('',(0.,1.,0.));
#548=DIRECTION('',(0.,-0.997502728151556,0.0706279500637162));
#549=DIRECTION('',(1.,0.,0.));
#550=DIRECTION('',(0.,1.,0.));
#551=DIRECTION('',(0.,-0.997502728151556,0.0706279500637162));
#552=DIRECTION('',(0.,-0.0706279500637161,-0.997502728151556));
#553=DIRECTION('',(0.,0.997502728151556,-0.0706279500637161));
#554=DIRECTION('',(-1.,0.,0.));
#555=DIRECTION('',(0.,-0.997502728151556,0.0706279500637161));
#556=DIRECTION('',(-1.,0.,0.));
#557=DIRECTION('',(0.,-0.997502728151556,0.0706279500637161));
#558=DIRECTION('',(-1.,0.,0.));
#559=DIRECTION('',(0.,0.997502728151556,-0.0706279500637163));
#560=DIRECTION('',(0.,0.0706279500637163,0.997502728151556));
#561=DIRECTION('',(0.,0.997502728151556,-0.0706279500637163));
#562=DIRECTION('',(0.,0.0706279500637163,0.997502728151556));
#563=DIRECTION('',(0.,-0.0706279500637163,-0.997502728151556));
#564=DIRECTION('',(0.,0.997502728151556,-0.0706279500637163));
#565=DIRECTION('',(0.,0.0706279500637163,0.997502728151556));
#566=DIRECTION('',(-1.,0.,0.));
#567=DIRECTION('',(0.,0.997502728151556,-0.0706279500637163));
#568=DIRECTION('',(0.,0.0706279500637163,0.997502728151556));
#569=DIRECTION('',(0.,-0.0706279500637163,-0.997502728151556));
#570=DIRECTION('',(0.,0.997502728151556,-0.0706279500637163));
#571=DIRECTION('',(0.,0.0706279500637163,0.997502728151556));
#572=DIRECTION('',(0.,0.0706279500637175,0.997502728151556));
#573=DIRECTION('',(0.,-0.997502728151556,0.0706279500637175));
#574=DIRECTION('',(-1.,0.,0.));
#575=DIRECTION('',(0.,0.997502728151556,-0.0706279500637175));
#576=DIRECTION('',(0.,0.997502728151556,-0.0706279500637175));
#577=DIRECTION('',(0.,-0.997502728151556,0.0706279500637164));
#578=DIRECTION('',(0.,-0.0706279500637164,-0.997502728151556));
#579=DIRECTION('',(0.,0.0706279500637164,0.997502728151556));
#580=DIRECTION('',(0.,-0.997502728151556,0.0706279500637164));
#581=DIRECTION('',(0.,-0.0706279500637164,-0.997502728151556));
#582=DIRECTION('',(0.,-0.997502728151556,0.0706279500637164));
#583=DIRECTION('',(0.,-0.0706279500637164,-0.997502728151556));
#584=DIRECTION('',(0.,0.0706279500637164,0.997502728151556));
#585=DIRECTION('',(0.,-0.997502728151556,0.0706279500637164));
#586=DIRECTION('',(0.,-0.0706279500637164,-0.997502728151556));
#587=DIRECTION('',(0.,-0.997502728151556,0.0706279500637164));
#588=DIRECTION('',(0.,-0.0706279500637164,-0.997502728151556));
#589=DIRECTION('',(1.,0.,0.));
#590=DIRECTION('',(0.,1.,0.));
#591=DIRECTION('',(0.,-0.997502728151556,0.0706279500637161));
#592=DIRECTION('',(0.,0.997502728151556,-0.0706279500637175));
#593=DIRECTION('',(1.,0.,0.));
#594=DIRECTION('',(0.,1.,0.));
#595=DIRECTION('',(0.,-0.997502728151556,0.0706279500637161));
#596=DIRECTION('',(0.,0.997502728151556,-0.0706279500637175));
#597=DIRECTION('',(0.,0.997502728151556,-0.0706279500637161));
#598=DIRECTION('',(0.,0.0706279500637161,0.997502728151556));
#599=DIRECTION('',(0.,-0.997502728151556,0.0706279500637161));
#600=DIRECTION('',(0.,-0.0706279500637161,-0.997502728151556));
#601=DIRECTION('',(0.,0.997502728151556,-0.0706279500637175));
#602=DIRECTION('',(0.,0.0706279500637175,0.997502728151556));
#603=DIRECTION('',(0.,-0.997502728151556,0.0706279500637175));
#604=DIRECTION('',(0.,-0.0706279500637175,-0.997502728151556));
#605=CARTESIAN_POINT('',(0.,0.,0.));
#606=CARTESIAN_POINT('',(0.1,0.020115617523029,0.));
#607=CARTESIAN_POINT('',(0.,0.020115617523029,0.));
#608=CARTESIAN_POINT('',(0.,0.00611952962365669,0.));
#609=CARTESIAN_POINT('',(0.,0.0341117054224014,0.));
#610=CARTESIAN_POINT('',(0.1,0.00611952962365669,0.));
#611=CARTESIAN_POINT('',(0.1,0.00611952962365669,0.));
#612=CARTESIAN_POINT('',(0.1,0.020115617523029,0.));
#613=CARTESIAN_POINT('',(0.1,0.0341117054224014,0.));
#614=CARTESIAN_POINT('',(0.1,0.0341117054224014,0.));
#615=CARTESIAN_POINT('',(0.1,0.0060011673553206,-0.000590043284121829));
#616=CARTESIAN_POINT('',(0.,0.0060011673553206,-0.000590043284121829));
#617=CARTESIAN_POINT('',(0.,0.00588280508698452,-0.00118008656824364));
#618=CARTESIAN_POINT('',(0.1,0.00588280508698452,-0.00118008656824364));
#619=CARTESIAN_POINT('',(0.1,0.00588280508698452,-0.00118008656824364));
#620=CARTESIAN_POINT('',(0.1,0.0060011673553206,-0.000590043284121829));
#621=CARTESIAN_POINT('',(0.1,0.00294140254349226,-0.000590043284121819));
#622=CARTESIAN_POINT('',(0.,0.00294140254349226,-0.000590043284121819));
#623=CARTESIAN_POINT('',(0.,4.33680868994202E-18,2.08166817117217E-17));
#624=CARTESIAN_POINT('',(0.1,4.33680868994202E-18,2.08166817117217E-17));
#625=CARTESIAN_POINT('',(0.1,4.33680868994202E-18,2.08166817117217E-17));
#626=CARTESIAN_POINT('',(0.1,0.00294140254349226,-0.000590043284121819));
#627=CARTESIAN_POINT('',(0.1,-0.0204441472887993,0.));
#628=CARTESIAN_POINT('',(0.,-0.0204441472887993,0.));
#629=CARTESIAN_POINT('',(0.,-0.0408882945775986,0.));
#630=CARTESIAN_POINT('',(0.1,-0.0408882945775986,0.));
#631=CARTESIAN_POINT('',(0.1,-0.0408882945775986,0.));
#632=CARTESIAN_POINT('',(0.1,-0.0204441472887993,0.));
#633=CARTESIAN_POINT('',(0.1,-0.0408882945775986,-0.003));
#634=CARTESIAN_POINT('',(0.,-0.0408882945775986,-0.003));
#635=CARTESIAN_POINT('',(0.,-0.0408882945775986,-0.006));
#636=CARTESIAN_POINT('',(0.1,-0.0408882945775986,-0.006));
#637=CARTESIAN_POINT('',(0.1,-0.0408882945775986,-0.006));
#638=CARTESIAN_POINT('',(0.1,-0.0408882945775986,-0.003));
#639=CARTESIAN_POINT('',(0.1,-0.00338829457759857,-0.006));
#640=CARTESIAN_POINT('',(0.,-0.00338829457759857,-0.006));
#641=CARTESIAN_POINT('',(0.,0.0341117054224014,-0.006));
#642=CARTESIAN_POINT('',(0.1,0.0341117054224014,-0.006));
#643=CARTESIAN_POINT('',(0.1,0.0341117054224014,-0.006));
#644=CARTESIAN_POINT('',(0.1,-0.00338829457759857,-0.006));
#645=CARTESIAN_POINT('',(0.1,0.0341117054224014,-0.003));
#646=CARTESIAN_POINT('',(0.,0.0341117054224014,-0.003));
#647=CARTESIAN_POINT('',(0.1,0.0341117054224014,-0.003));
#648=CARTESIAN_POINT('',(0.1,-0.00338829457759857,0.0634350639163635));
#649=CARTESIAN_POINT('',(0.,-0.00338829457759857,0.0634350639163635));
#650=CARTESIAN_POINT('',(0.,0.,0.));
#651=CARTESIAN_POINT('',(0.06,0.00332190982622262,0.0165599275087857));
#652=CARTESIAN_POINT('',(0.04,0.00332190982622262,0.0165599275087857));
#653=CARTESIAN_POINT('',(0.04,4.33680868994202E-18,2.08166817117217E-17));
#654=CARTESIAN_POINT('',(0.04,0.00664381965244525,0.0331198550175713));
#655=CARTESIAN_POINT('',(0.06,4.33680868994202E-18,2.08166817117217E-17));
#656=CARTESIAN_POINT('',(0.06,4.33680868994202E-18,2.08166817117217E-17));
#657=CARTESIAN_POINT('',(0.06,0.00332190982622262,0.0165599275087857));
#658=CARTESIAN_POINT('',(0.06,0.00664381965244525,0.0331198550175713));
#659=CARTESIAN_POINT('',(0.06,0.00664381965244525,0.0331198550175713));
#660=CARTESIAN_POINT('',(0.06,0.00305976481182833,0.));
#661=CARTESIAN_POINT('',(0.04,0.00305976481182833,0.));
#662=CARTESIAN_POINT('',(0.04,0.00611952962365669,0.));
#663=CARTESIAN_POINT('',(0.06,0.00611952962365669,0.));
#664=CARTESIAN_POINT('',(0.06,0.00611952962365669,0.));
#665=CARTESIAN_POINT('',(0.06,0.00305976481182833,0.));
#666=CARTESIAN_POINT('',(0.06,0.0093985890473092,0.0163463155814896));
#667=CARTESIAN_POINT('',(0.04,0.0093985890473092,0.0163463155814896));
#668=CARTESIAN_POINT('',(0.04,0.0126776484709617,0.0326926311629791));
#669=CARTESIAN_POINT('',(0.06,0.0126776484709617,0.0326926311629791));
#670=CARTESIAN_POINT('',(0.06,0.0126776484709617,0.0326926311629791));
#671=CARTESIAN_POINT('',(0.06,0.0093985890473092,0.0163463155814896));
#672=CARTESIAN_POINT('',(0.06,-0.00338829457759857,0.0634350639163635));
#673=CARTESIAN_POINT('',(0.06,0.00966073406170348,0.0329062430902753));
#674=CARTESIAN_POINT('',(0.04,-0.00338829457759857,0.0634350639163635));
#675=CARTESIAN_POINT('',(0.04,0.00966073406170348,0.0329062430902753));
#676=CARTESIAN_POINT('',(0.15,0.00966073406170348,0.0329062430902753));
#677=CARTESIAN_POINT('',(0.15,0.00664381965244525,0.0331198550175713));
#678=CARTESIAN_POINT('',(-0.045,0.00664381965244525,0.0331198550175713));
#679=CARTESIAN_POINT('',(-0.045,0.0166188469339608,0.0324135755169342));
#680=CARTESIAN_POINT('',(-0.045,0.0166188469339608,0.0324135755169342));
#681=CARTESIAN_POINT('',(0.15,0.0166188469339608,0.0324135755169342));
#682=CARTESIAN_POINT('',(0.145,0.0166188469339608,0.0324135755169342));
#683=CARTESIAN_POINT('',(0.145,0.00966073406170348,0.0329062430902753));
#684=CARTESIAN_POINT('',(0.145,0.00664381965244525,0.0331198550175713));
#685=CARTESIAN_POINT('',(0.15,0.00664381965244525,0.0331198550175713));
#686=CARTESIAN_POINT('',(0.15,0.0201502444371466,0.082288711924512));
#687=CARTESIAN_POINT('',(-0.045,0.0169719866842794,0.037401089157692));
#688=CARTESIAN_POINT('',(-0.05,0.0169719866842794,0.037401089157692));
#689=CARTESIAN_POINT('',(-0.05,0.0201502444371466,0.082288711924512));
#690=CARTESIAN_POINT('',(-0.05,0.0233285021900138,0.127176334691332));
#691=CARTESIAN_POINT('',(-0.045,0.0233285021900138,0.127176334691332));
#692=CARTESIAN_POINT('',(-0.045,0.0236816419403325,0.13216384833209));
#693=CARTESIAN_POINT('',(0.15,0.0236816419403325,0.13216384833209));
#694=CARTESIAN_POINT('',(0.145,0.0236816419403325,0.13216384833209));
#695=CARTESIAN_POINT('',(0.145,0.0233285021900138,0.127176334691332));
#696=CARTESIAN_POINT('',(0.15,0.0233285021900138,0.127176334691332));
#697=CARTESIAN_POINT('',(0.15,0.0201502444371466,0.082288711924512));
#698=CARTESIAN_POINT('',(0.15,0.0169719866842794,0.037401089157692));
#699=CARTESIAN_POINT('',(0.145,0.0169719866842794,0.037401089157692));
#700=CARTESIAN_POINT('',(0.15,0.0186941282995747,0.132516988082408));
#701=CARTESIAN_POINT('',(0.15,0.0137066146588169,0.132870127832727));
#702=CARTESIAN_POINT('',(0.145,0.0137066146588169,0.132870127832727));
#703=CARTESIAN_POINT('',(-0.045,0.0137066146588169,0.132870127832727));
#704=CARTESIAN_POINT('',(0.145,0.0186941282995747,0.132516988082408));
#705=CARTESIAN_POINT('',(-0.045,0.0137066146588169,0.132870127832727));
#706=CARTESIAN_POINT('',(0.15,0.0101752171556311,0.0829949914251492));
#707=CARTESIAN_POINT('',(-0.05,0.0101752171556311,0.0829949914251492));
#708=CARTESIAN_POINT('',(-0.05,0.00699695940276383,0.0381073686583291));
#709=CARTESIAN_POINT('',(-0.05,0.0133534749084983,0.127882614191969));
#710=CARTESIAN_POINT('',(-0.045,0.00699695940276383,0.0381073686583291));
#711=CARTESIAN_POINT('',(0.145,0.00699695940276383,0.0381073686583291));
#712=CARTESIAN_POINT('',(0.15,0.00699695940276383,0.0381073686583291));
#713=CARTESIAN_POINT('',(0.15,0.0101752171556311,0.0829949914251492));
#714=CARTESIAN_POINT('',(0.15,0.0133534749084983,0.127882614191969));
#715=CARTESIAN_POINT('',(0.145,0.0133534749084983,0.127882614191969));
#716=CARTESIAN_POINT('',(-0.045,0.0133534749084983,0.127882614191969));
#717=CARTESIAN_POINT('',(0.15,-0.00338829457759857,0.0634350639163635));
#718=CARTESIAN_POINT('',(0.15,-0.00512086570720135,0.0389653684638369));
#719=CARTESIAN_POINT('',(0.15,0.00123564979853319,0.128740613997477));
#720=CARTESIAN_POINT('',(-0.05,-0.00338829457759857,0.0634350639163635));
#721=CARTESIAN_POINT('',(-0.05,0.00699695940276383,0.0381073686583291));
#722=CARTESIAN_POINT('',(-0.05,0.0233285021900138,0.127176334691332));
#723=CARTESIAN_POINT('',(-0.045,-0.00512086570720135,0.0389653684638369));
#724=CARTESIAN_POINT('',(0.145,0.0100138738120221,0.037893756731033));
#725=CARTESIAN_POINT('',(0.145,0.018340988549256,0.127529474441651));
#726=CARTESIAN_POINT('',(-0.045,0.00123564979853319,0.128740613997477));
#727=MECHANICAL_DESIGN_GEOMETRIC_PRESENTATION_REPRESENTATION('',(#432),
#729);
#728=MECHANICAL_DESIGN_GEOMETRIC_PRESENTATION_REPRESENTATION('',(#433),
#730);
#729=(
GEOMETRIC_REPRESENTATION_CONTEXT(3)
GLOBAL_UNCERTAINTY_ASSIGNED_CONTEXT((#731))
GLOBAL_UNIT_ASSIGNED_CONTEXT((#737,#735,#733))
REPRESENTATION_CONTEXT('Part 1','TOP_LEVEL_ASSEMBLY_PART')
);
#730=(
GEOMETRIC_REPRESENTATION_CONTEXT(3)
GLOBAL_UNCERTAINTY_ASSIGNED_CONTEXT((#732))
GLOBAL_UNIT_ASSIGNED_CONTEXT((#738,#736,#734))
REPRESENTATION_CONTEXT('Part 2','TOP_LEVEL_ASSEMBLY_PART')
);
#731=UNCERTAINTY_MEASURE_WITH_UNIT(LENGTH_MEASURE(1.E-8),#737,
'DISTANCE_ACCURACY_VALUE','Maximum Tolerance applied to model');
#732=UNCERTAINTY_MEASURE_WITH_UNIT(LENGTH_MEASURE(1.E-8),#738,
'DISTANCE_ACCURACY_VALUE','Maximum Tolerance applied to model');
#733=(
NAMED_UNIT(*)
SI_UNIT($,.STERADIAN.)
SOLID_ANGLE_UNIT()
);
#734=(
NAMED_UNIT(*)
SI_UNIT($,.STERADIAN.)
SOLID_ANGLE_UNIT()
);
#735=(
NAMED_UNIT(*)
PLANE_ANGLE_UNIT()
SI_UNIT($,.RADIAN.)
);
#736=(
NAMED_UNIT(*)
PLANE_ANGLE_UNIT()
SI_UNIT($,.RADIAN.)
);
#737=(
LENGTH_UNIT()
NAMED_UNIT(*)
SI_UNIT($,.METRE.)
);
#738=(
LENGTH_UNIT()
NAMED_UNIT(*)
SI_UNIT($,.METRE.)
);
#739=PRODUCT_DEFINITION_SHAPE('','',#741);
#740=PRODUCT_DEFINITION_SHAPE('','',#742);
#741=PRODUCT_DEFINITION('','',#745,#743);
#742=PRODUCT_DEFINITION('','',#746,#744);
#743=PRODUCT_DEFINITION_CONTEXT('',#757,'design');
#744=PRODUCT_DEFINITION_CONTEXT('',#758,'design');
#745=PRODUCT_DEFINITION_FORMATION_WITH_SPECIFIED_SOURCE('','',#749,
 .NOT_KNOWN.);
#746=PRODUCT_DEFINITION_FORMATION_WITH_SPECIFIED_SOURCE('','',#750,
 .NOT_KNOWN.);
#747=PRODUCT_RELATED_PRODUCT_CATEGORY('','',(#749));
#748=PRODUCT_RELATED_PRODUCT_CATEGORY('','',(#750));
#749=PRODUCT('Part 1','Part 1','Part 1',(#753));
#750=PRODUCT('Part 2','Part 2','Part 2',(#754));
#751=PRODUCT_CATEGORY('','');
#752=PRODUCT_CATEGORY('','');
#753=PRODUCT_CONTEXT('',#757,'mechanical');
#754=PRODUCT_CONTEXT('',#758,'mechanical');
#755=APPLICATION_PROTOCOL_DEFINITION('international standard',
'ap242_managed_model_based_3d_engineering',2020,#757);
#756=APPLICATION_PROTOCOL_DEFINITION('international standard',
'ap242_managed_model_based_3d_engineering',2020,#758);
#757=APPLICATION_CONTEXT('managed model based 3d engineering');
#758=APPLICATION_CONTEXT('managed model based 3d engineering');
ENDSEC;
END-ISO-10303-21;
