ISO-10303-21;
HEADER;
/* Generated by software containing ST-Developer
 * from STEP Tools, Inc. (www.steptools.com) 
 */
/* OPTION: using custom renumber hook */

FILE_DESCRIPTION(
/* description */ ('STEP AP242 Edition 2',
'CAx-IF Rec.Pracs.---Representation and Presentation of Product Manufa
cturing Information (PMI)---4.0---2014-10-13',
'CAx-IF Rec.Pracs.---3D Tessellated Geometry---0.4---2014-09-14','2;1',
'CAx-IF Rec.Pracs.---User Defined Attributes---1.5---2016-08-15'),
/* implementation_level */ '2;1');

FILE_NAME(
/* name */ 'Part Studio 1 - Part 1',
/* time_stamp */ '2026-09-03T18:16:04Z',
/* author */ (''),
/* organization */ (''),
/* preprocessor_version */ 'ST-DEVELOPER v20',
/* originating_system */ 'ONSHAPE BY PTC INC, 1.220',
/* authorisation */ '  ');

FILE_SCHEMA (('AP242_MANAGED_MODEL_BASED_3D_ENGINEERING_MIM_LF { 1 0 10303 442 3 1 4 }'));
ENDSEC;

DATA;
#10=SHAPE_REPRESENTATION_RELATIONSHIP('','',#813,#11);
#11=ADVANCED_BREP_SHAPE_REPRESENTATION('',(#811),#1319);
#12=ELLIPSE('',#864,0.0176776695296637,0.0125);
#13=ELLIPSE('',#866,0.0176776695296637,0.0125);
#14=ELLIPSE('',#869,0.0176776695296637,0.0125);
#15=ELLIPSE('',#871,0.0176776695296637,0.0125);
#16=CIRCLE('',#819,0.01);
#17=CIRCLE('',#820,0.01);
#18=CIRCLE('',#822,0.01);
#19=CIRCLE('',#823,0.01);
#20=CIRCLE('',#825,0.0125);
#21=CIRCLE('',#826,0.0125);
#22=CIRCLE('',#829,0.0125);
#23=CIRCLE('',#830,0.0125);
#24=CIRCLE('',#831,0.0125);
#25=CIRCLE('',#832,0.0125);
#26=CIRCLE('',#838,0.0125);
#27=CIRCLE('',#839,0.0125);
#28=CYLINDRICAL_SURFACE('',#818,0.01);
#29=CYLINDRICAL_SURFACE('',#821,0.01);
#30=CYLINDRICAL_SURFACE('',#863,0.0125);
#31=CYLINDRICAL_SURFACE('',#865,0.0125);
#32=CYLINDRICAL_SURFACE('',#867,0.0125);
#33=CYLINDRICAL_SURFACE('',#868,0.0125);
#34=CYLINDRICAL_SURFACE('',#870,0.0125);
#35=CYLINDRICAL_SURFACE('',#872,0.0125);
#36=CYLINDRICAL_SURFACE('',#873,0.0125);
#37=CYLINDRICAL_SURFACE('',#874,0.0125);
#38=ORIENTED_EDGE('',*,*,#258,.T.);
#39=ORIENTED_EDGE('',*,*,#259,.T.);
#40=ORIENTED_EDGE('',*,*,#260,.T.);
#41=ORIENTED_EDGE('',*,*,#261,.T.);
#42=ORIENTED_EDGE('',*,*,#262,.T.);
#43=ORIENTED_EDGE('',*,*,#263,.T.);
#44=ORIENTED_EDGE('',*,*,#264,.T.);
#45=ORIENTED_EDGE('',*,*,#265,.T.);
#46=ORIENTED_EDGE('',*,*,#266,.F.);
#47=ORIENTED_EDGE('',*,*,#267,.F.);
#48=ORIENTED_EDGE('',*,*,#268,.F.);
#49=ORIENTED_EDGE('',*,*,#269,.F.);
#50=ORIENTED_EDGE('',*,*,#270,.T.);
#51=ORIENTED_EDGE('',*,*,#271,.T.);
#52=ORIENTED_EDGE('',*,*,#272,.T.);
#53=ORIENTED_EDGE('',*,*,#273,.F.);
#54=ORIENTED_EDGE('',*,*,#274,.F.);
#55=ORIENTED_EDGE('',*,*,#275,.T.);
#56=ORIENTED_EDGE('',*,*,#276,.F.);
#57=ORIENTED_EDGE('',*,*,#277,.T.);
#58=ORIENTED_EDGE('',*,*,#278,.T.);
#59=ORIENTED_EDGE('',*,*,#279,.F.);
#60=ORIENTED_EDGE('',*,*,#280,.F.);
#61=ORIENTED_EDGE('',*,*,#281,.T.);
#62=ORIENTED_EDGE('',*,*,#282,.T.);
#63=ORIENTED_EDGE('',*,*,#283,.F.);
#64=ORIENTED_EDGE('',*,*,#284,.F.);
#65=ORIENTED_EDGE('',*,*,#285,.T.);
#66=ORIENTED_EDGE('',*,*,#286,.T.);
#67=ORIENTED_EDGE('',*,*,#287,.F.);
#68=ORIENTED_EDGE('',*,*,#288,.F.);
#69=ORIENTED_EDGE('',*,*,#289,.T.);
#70=ORIENTED_EDGE('',*,*,#290,.F.);
#71=ORIENTED_EDGE('',*,*,#291,.T.);
#72=ORIENTED_EDGE('',*,*,#292,.F.);
#73=ORIENTED_EDGE('',*,*,#293,.T.);
#74=ORIENTED_EDGE('',*,*,#294,.F.);
#75=ORIENTED_EDGE('',*,*,#295,.T.);
#76=ORIENTED_EDGE('',*,*,#296,.T.);
#77=ORIENTED_EDGE('',*,*,#297,.T.);
#78=ORIENTED_EDGE('',*,*,#274,.T.);
#79=ORIENTED_EDGE('',*,*,#298,.F.);
#80=ORIENTED_EDGE('',*,*,#299,.F.);
#81=ORIENTED_EDGE('',*,*,#300,.T.);
#82=ORIENTED_EDGE('',*,*,#301,.F.);
#83=ORIENTED_EDGE('',*,*,#302,.T.);
#84=ORIENTED_EDGE('',*,*,#303,.T.);
#85=ORIENTED_EDGE('',*,*,#304,.T.);
#86=ORIENTED_EDGE('',*,*,#299,.T.);
#87=ORIENTED_EDGE('',*,*,#305,.T.);
#88=ORIENTED_EDGE('',*,*,#306,.T.);
#89=ORIENTED_EDGE('',*,*,#307,.T.);
#90=ORIENTED_EDGE('',*,*,#262,.F.);
#91=ORIENTED_EDGE('',*,*,#308,.T.);
#92=ORIENTED_EDGE('',*,*,#301,.T.);
#93=ORIENTED_EDGE('',*,*,#309,.T.);
#94=ORIENTED_EDGE('',*,*,#272,.F.);
#95=ORIENTED_EDGE('',*,*,#310,.T.);
#96=ORIENTED_EDGE('',*,*,#260,.F.);
#97=ORIENTED_EDGE('',*,*,#311,.T.);
#98=ORIENTED_EDGE('',*,*,#312,.F.);
#99=ORIENTED_EDGE('',*,*,#293,.F.);
#100=ORIENTED_EDGE('',*,*,#313,.F.);
#101=ORIENTED_EDGE('',*,*,#291,.F.);
#102=ORIENTED_EDGE('',*,*,#298,.T.);
#103=ORIENTED_EDGE('',*,*,#273,.T.);
#104=ORIENTED_EDGE('',*,*,#309,.F.);
#105=ORIENTED_EDGE('',*,*,#305,.F.);
#106=ORIENTED_EDGE('',*,*,#314,.T.);
#107=ORIENTED_EDGE('',*,*,#315,.T.);
#108=ORIENTED_EDGE('',*,*,#306,.F.);
#109=ORIENTED_EDGE('',*,*,#290,.T.);
#110=ORIENTED_EDGE('',*,*,#316,.F.);
#111=ORIENTED_EDGE('',*,*,#317,.T.);
#112=ORIENTED_EDGE('',*,*,#316,.T.);
#113=ORIENTED_EDGE('',*,*,#289,.F.);
#114=ORIENTED_EDGE('',*,*,#318,.T.);
#115=ORIENTED_EDGE('',*,*,#295,.F.);
#116=ORIENTED_EDGE('',*,*,#319,.F.);
#117=ORIENTED_EDGE('',*,*,#320,.F.);
#118=ORIENTED_EDGE('',*,*,#312,.T.);
#119=ORIENTED_EDGE('',*,*,#321,.T.);
#120=ORIENTED_EDGE('',*,*,#322,.F.);
#121=ORIENTED_EDGE('',*,*,#323,.T.);
#122=ORIENTED_EDGE('',*,*,#319,.T.);
#123=ORIENTED_EDGE('',*,*,#294,.T.);
#124=ORIENTED_EDGE('',*,*,#324,.T.);
#125=ORIENTED_EDGE('',*,*,#325,.T.);
#126=ORIENTED_EDGE('',*,*,#264,.F.);
#127=ORIENTED_EDGE('',*,*,#326,.T.);
#128=ORIENTED_EDGE('',*,*,#314,.F.);
#129=ORIENTED_EDGE('',*,*,#327,.T.);
#130=ORIENTED_EDGE('',*,*,#322,.T.);
#131=ORIENTED_EDGE('',*,*,#328,.T.);
#132=ORIENTED_EDGE('',*,*,#258,.F.);
#133=ORIENTED_EDGE('',*,*,#329,.T.);
#134=ORIENTED_EDGE('',*,*,#317,.F.);
#135=ORIENTED_EDGE('',*,*,#320,.T.);
#136=ORIENTED_EDGE('',*,*,#323,.F.);
#137=ORIENTED_EDGE('',*,*,#327,.F.);
#138=ORIENTED_EDGE('',*,*,#313,.T.);
#139=ORIENTED_EDGE('',*,*,#292,.T.);
#140=ORIENTED_EDGE('',*,*,#318,.F.);
#141=ORIENTED_EDGE('',*,*,#288,.T.);
#142=ORIENTED_EDGE('',*,*,#277,.F.);
#143=ORIENTED_EDGE('',*,*,#330,.F.);
#144=ORIENTED_EDGE('',*,*,#331,.T.);
#145=ORIENTED_EDGE('',*,*,#332,.T.);
#146=ORIENTED_EDGE('',*,*,#276,.T.);
#147=ORIENTED_EDGE('',*,*,#333,.F.);
#148=ORIENTED_EDGE('',*,*,#334,.F.);
#149=ORIENTED_EDGE('',*,*,#330,.T.);
#150=ORIENTED_EDGE('',*,*,#279,.T.);
#151=ORIENTED_EDGE('',*,*,#335,.F.);
#152=ORIENTED_EDGE('',*,*,#336,.F.);
#153=ORIENTED_EDGE('',*,*,#333,.T.);
#154=ORIENTED_EDGE('',*,*,#278,.F.);
#155=ORIENTED_EDGE('',*,*,#332,.F.);
#156=ORIENTED_EDGE('',*,*,#337,.T.);
#157=ORIENTED_EDGE('',*,*,#335,.T.);
#158=ORIENTED_EDGE('',*,*,#331,.F.);
#159=ORIENTED_EDGE('',*,*,#334,.T.);
#160=ORIENTED_EDGE('',*,*,#336,.T.);
#161=ORIENTED_EDGE('',*,*,#337,.F.);
#162=ORIENTED_EDGE('',*,*,#281,.F.);
#163=ORIENTED_EDGE('',*,*,#338,.F.);
#164=ORIENTED_EDGE('',*,*,#339,.T.);
#165=ORIENTED_EDGE('',*,*,#340,.T.);
#166=ORIENTED_EDGE('',*,*,#280,.T.);
#167=ORIENTED_EDGE('',*,*,#341,.F.);
#168=ORIENTED_EDGE('',*,*,#342,.F.);
#169=ORIENTED_EDGE('',*,*,#338,.T.);
#170=ORIENTED_EDGE('',*,*,#283,.T.);
#171=ORIENTED_EDGE('',*,*,#343,.F.);
#172=ORIENTED_EDGE('',*,*,#344,.F.);
#173=ORIENTED_EDGE('',*,*,#341,.T.);
#174=ORIENTED_EDGE('',*,*,#282,.F.);
#175=ORIENTED_EDGE('',*,*,#340,.F.);
#176=ORIENTED_EDGE('',*,*,#345,.T.);
#177=ORIENTED_EDGE('',*,*,#343,.T.);
#178=ORIENTED_EDGE('',*,*,#339,.F.);
#179=ORIENTED_EDGE('',*,*,#342,.T.);
#180=ORIENTED_EDGE('',*,*,#344,.T.);
#181=ORIENTED_EDGE('',*,*,#345,.F.);
#182=ORIENTED_EDGE('',*,*,#285,.F.);
#183=ORIENTED_EDGE('',*,*,#346,.F.);
#184=ORIENTED_EDGE('',*,*,#347,.T.);
#185=ORIENTED_EDGE('',*,*,#348,.T.);
#186=ORIENTED_EDGE('',*,*,#284,.T.);
#187=ORIENTED_EDGE('',*,*,#349,.F.);
#188=ORIENTED_EDGE('',*,*,#350,.F.);
#189=ORIENTED_EDGE('',*,*,#346,.T.);
#190=ORIENTED_EDGE('',*,*,#287,.T.);
#191=ORIENTED_EDGE('',*,*,#351,.F.);
#192=ORIENTED_EDGE('',*,*,#352,.F.);
#193=ORIENTED_EDGE('',*,*,#349,.T.);
#194=ORIENTED_EDGE('',*,*,#286,.F.);
#195=ORIENTED_EDGE('',*,*,#348,.F.);
#196=ORIENTED_EDGE('',*,*,#353,.T.);
#197=ORIENTED_EDGE('',*,*,#351,.T.);
#198=ORIENTED_EDGE('',*,*,#347,.F.);
#199=ORIENTED_EDGE('',*,*,#350,.T.);
#200=ORIENTED_EDGE('',*,*,#352,.T.);
#201=ORIENTED_EDGE('',*,*,#353,.F.);
#202=ORIENTED_EDGE('',*,*,#266,.T.);
#203=ORIENTED_EDGE('',*,*,#354,.F.);
#204=ORIENTED_EDGE('',*,*,#355,.F.);
#205=ORIENTED_EDGE('',*,*,#356,.T.);
#206=ORIENTED_EDGE('',*,*,#269,.T.);
#207=ORIENTED_EDGE('',*,*,#357,.F.);
#208=ORIENTED_EDGE('',*,*,#358,.F.);
#209=ORIENTED_EDGE('',*,*,#354,.T.);
#210=ORIENTED_EDGE('',*,*,#268,.T.);
#211=ORIENTED_EDGE('',*,*,#359,.F.);
#212=ORIENTED_EDGE('',*,*,#360,.F.);
#213=ORIENTED_EDGE('',*,*,#357,.T.);
#214=ORIENTED_EDGE('',*,*,#267,.T.);
#215=ORIENTED_EDGE('',*,*,#356,.F.);
#216=ORIENTED_EDGE('',*,*,#361,.F.);
#217=ORIENTED_EDGE('',*,*,#359,.T.);
#218=ORIENTED_EDGE('',*,*,#355,.T.);
#219=ORIENTED_EDGE('',*,*,#358,.T.);
#220=ORIENTED_EDGE('',*,*,#360,.T.);
#221=ORIENTED_EDGE('',*,*,#361,.T.);
#222=ORIENTED_EDGE('',*,*,#324,.F.);
#223=ORIENTED_EDGE('',*,*,#362,.T.);
#224=ORIENTED_EDGE('',*,*,#296,.F.);
#225=ORIENTED_EDGE('',*,*,#363,.T.);
#226=ORIENTED_EDGE('',*,*,#300,.F.);
#227=ORIENTED_EDGE('',*,*,#304,.F.);
#228=ORIENTED_EDGE('',*,*,#364,.F.);
#229=ORIENTED_EDGE('',*,*,#363,.F.);
#230=ORIENTED_EDGE('',*,*,#308,.F.);
#231=ORIENTED_EDGE('',*,*,#265,.F.);
#232=ORIENTED_EDGE('',*,*,#365,.F.);
#233=ORIENTED_EDGE('',*,*,#302,.F.);
#234=ORIENTED_EDGE('',*,*,#364,.T.);
#235=ORIENTED_EDGE('',*,*,#303,.F.);
#236=ORIENTED_EDGE('',*,*,#365,.T.);
#237=ORIENTED_EDGE('',*,*,#325,.F.);
#238=ORIENTED_EDGE('',*,*,#297,.F.);
#239=ORIENTED_EDGE('',*,*,#362,.F.);
#240=ORIENTED_EDGE('',*,*,#366,.F.);
#241=ORIENTED_EDGE('',*,*,#275,.F.);
#242=ORIENTED_EDGE('',*,*,#310,.F.);
#243=ORIENTED_EDGE('',*,*,#271,.F.);
#244=ORIENTED_EDGE('',*,*,#367,.F.);
#245=ORIENTED_EDGE('',*,*,#261,.F.);
#246=ORIENTED_EDGE('',*,*,#366,.T.);
#247=ORIENTED_EDGE('',*,*,#329,.F.);
#248=ORIENTED_EDGE('',*,*,#367,.T.);
#249=ORIENTED_EDGE('',*,*,#270,.F.);
#250=ORIENTED_EDGE('',*,*,#307,.F.);
#251=ORIENTED_EDGE('',*,*,#315,.F.);
#252=ORIENTED_EDGE('',*,*,#326,.F.);
#253=ORIENTED_EDGE('',*,*,#263,.F.);
#254=ORIENTED_EDGE('',*,*,#328,.F.);
#255=ORIENTED_EDGE('',*,*,#321,.F.);
#256=ORIENTED_EDGE('',*,*,#311,.F.);
#257=ORIENTED_EDGE('',*,*,#259,.F.);
#258=EDGE_CURVE('',#368,#369,#440,.T.);
#259=EDGE_CURVE('',#369,#370,#441,.T.);
#260=EDGE_CURVE('',#370,#371,#442,.T.);
#261=EDGE_CURVE('',#371,#368,#443,.F.);
#262=EDGE_CURVE('',#372,#373,#444,.T.);
#263=EDGE_CURVE('',#373,#374,#445,.T.);
#264=EDGE_CURVE('',#374,#375,#446,.T.);
#265=EDGE_CURVE('',#375,#372,#447,.T.);
#266=EDGE_CURVE('',#376,#377,#448,.T.);
#267=EDGE_CURVE('',#378,#376,#449,.T.);
#268=EDGE_CURVE('',#379,#378,#450,.T.);
#269=EDGE_CURVE('',#377,#379,#451,.T.);
#270=EDGE_CURVE('',#380,#381,#452,.T.);
#271=EDGE_CURVE('',#381,#382,#453,.T.);
#272=EDGE_CURVE('',#382,#383,#454,.T.);
#273=EDGE_CURVE('',#384,#383,#455,.T.);
#274=EDGE_CURVE('',#385,#384,#456,.T.);
#275=EDGE_CURVE('',#385,#380,#457,.T.);
#276=EDGE_CURVE('',#386,#387,#458,.T.);
#277=EDGE_CURVE('',#386,#388,#459,.T.);
#278=EDGE_CURVE('',#388,#389,#460,.T.);
#279=EDGE_CURVE('',#387,#389,#461,.T.);
#280=EDGE_CURVE('',#390,#391,#462,.T.);
#281=EDGE_CURVE('',#390,#392,#463,.T.);
#282=EDGE_CURVE('',#392,#393,#464,.T.);
#283=EDGE_CURVE('',#391,#393,#465,.T.);
#284=EDGE_CURVE('',#394,#395,#466,.T.);
#285=EDGE_CURVE('',#394,#396,#467,.T.);
#286=EDGE_CURVE('',#396,#397,#468,.T.);
#287=EDGE_CURVE('',#395,#397,#469,.T.);
#288=EDGE_CURVE('',#398,#399,#470,.T.);
#289=EDGE_CURVE('',#398,#400,#16,.F.);
#290=EDGE_CURVE('',#401,#400,#471,.F.);
#291=EDGE_CURVE('',#401,#399,#17,.F.);
#292=EDGE_CURVE('',#402,#403,#472,.T.);
#293=EDGE_CURVE('',#402,#404,#18,.F.);
#294=EDGE_CURVE('',#405,#404,#473,.F.);
#295=EDGE_CURVE('',#405,#403,#19,.F.);
#296=EDGE_CURVE('',#406,#407,#474,.T.);
#297=EDGE_CURVE('',#407,#385,#20,.T.);
#298=EDGE_CURVE('',#408,#384,#475,.T.);
#299=EDGE_CURVE('',#409,#408,#476,.T.);
#300=EDGE_CURVE('',#409,#406,#21,.T.);
#301=EDGE_CURVE('',#410,#411,#477,.T.);
#302=EDGE_CURVE('',#410,#412,#478,.F.);
#303=EDGE_CURVE('',#412,#413,#479,.F.);
#304=EDGE_CURVE('',#413,#409,#480,.F.);
#305=EDGE_CURVE('',#408,#411,#481,.T.);
#306=EDGE_CURVE('',#401,#414,#482,.T.);
#307=EDGE_CURVE('',#414,#373,#22,.F.);
#308=EDGE_CURVE('',#372,#410,#23,.F.);
#309=EDGE_CURVE('',#411,#383,#483,.T.);
#310=EDGE_CURVE('',#382,#371,#24,.F.);
#311=EDGE_CURVE('',#370,#415,#25,.F.);
#312=EDGE_CURVE('',#404,#415,#484,.T.);
#313=EDGE_CURVE('',#399,#402,#485,.T.);
#314=EDGE_CURVE('',#416,#417,#486,.T.);
#315=EDGE_CURVE('',#417,#414,#487,.F.);
#316=EDGE_CURVE('',#418,#400,#488,.T.);
#317=EDGE_CURVE('',#418,#416,#489,.T.);
#318=EDGE_CURVE('',#398,#403,#490,.T.);
#319=EDGE_CURVE('',#419,#405,#491,.T.);
#320=EDGE_CURVE('',#418,#419,#492,.T.);
#321=EDGE_CURVE('',#415,#420,#493,.F.);
#322=EDGE_CURVE('',#421,#420,#494,.T.);
#323=EDGE_CURVE('',#421,#419,#495,.T.);
#324=EDGE_CURVE('',#422,#423,#496,.T.);
#325=EDGE_CURVE('',#423,#375,#497,.T.);
#326=EDGE_CURVE('',#374,#417,#26,.F.);
#327=EDGE_CURVE('',#416,#421,#498,.T.);
#328=EDGE_CURVE('',#420,#369,#27,.F.);
#329=EDGE_CURVE('',#368,#422,#499,.F.);
#330=EDGE_CURVE('',#424,#386,#500,.T.);
#331=EDGE_CURVE('',#424,#425,#501,.T.);
#332=EDGE_CURVE('',#425,#388,#502,.T.);
#333=EDGE_CURVE('',#426,#387,#503,.T.);
#334=EDGE_CURVE('',#424,#426,#504,.T.);
#335=EDGE_CURVE('',#427,#389,#505,.T.);
#336=EDGE_CURVE('',#426,#427,#506,.T.);
#337=EDGE_CURVE('',#425,#427,#507,.T.);
#338=EDGE_CURVE('',#428,#390,#508,.T.);
#339=EDGE_CURVE('',#428,#429,#509,.T.);
#340=EDGE_CURVE('',#429,#392,#510,.T.);
#341=EDGE_CURVE('',#430,#391,#511,.T.);
#342=EDGE_CURVE('',#428,#430,#512,.T.);
#343=EDGE_CURVE('',#431,#393,#513,.T.);
#344=EDGE_CURVE('',#430,#431,#514,.T.);
#345=EDGE_CURVE('',#429,#431,#515,.T.);
#346=EDGE_CURVE('',#432,#394,#516,.T.);
#347=EDGE_CURVE('',#432,#433,#517,.T.);
#348=EDGE_CURVE('',#433,#396,#518,.T.);
#349=EDGE_CURVE('',#434,#395,#519,.T.);
#350=EDGE_CURVE('',#432,#434,#520,.T.);
#351=EDGE_CURVE('',#435,#397,#521,.T.);
#352=EDGE_CURVE('',#434,#435,#522,.T.);
#353=EDGE_CURVE('',#433,#435,#523,.T.);
#354=EDGE_CURVE('',#436,#377,#524,.T.);
#355=EDGE_CURVE('',#437,#436,#525,.T.);
#356=EDGE_CURVE('',#437,#376,#526,.T.);
#357=EDGE_CURVE('',#438,#379,#527,.T.);
#358=EDGE_CURVE('',#436,#438,#528,.T.);
#359=EDGE_CURVE('',#439,#378,#529,.T.);
#360=EDGE_CURVE('',#438,#439,#530,.T.);
#361=EDGE_CURVE('',#439,#437,#531,.T.);
#362=EDGE_CURVE('',#422,#407,#532,.F.);
#363=EDGE_CURVE('',#406,#423,#533,.T.);
#364=EDGE_CURVE('',#423,#413,#12,.F.);
#365=EDGE_CURVE('',#412,#375,#13,.T.);
#366=EDGE_CURVE('',#380,#422,#14,.T.);
#367=EDGE_CURVE('',#368,#381,#15,.F.);
#368=VERTEX_POINT('',#1094);
#369=VERTEX_POINT('',#1095);
#370=VERTEX_POINT('',#1097);
#371=VERTEX_POINT('',#1099);
#372=VERTEX_POINT('',#1103);
#373=VERTEX_POINT('',#1104);
#374=VERTEX_POINT('',#1106);
#375=VERTEX_POINT('',#1108);
#376=VERTEX_POINT('',#1112);
#377=VERTEX_POINT('',#1113);
#378=VERTEX_POINT('',#1115);
#379=VERTEX_POINT('',#1117);
#380=VERTEX_POINT('',#1120);
#381=VERTEX_POINT('',#1121);
#382=VERTEX_POINT('',#1123);
#383=VERTEX_POINT('',#1125);
#384=VERTEX_POINT('',#1127);
#385=VERTEX_POINT('',#1129);
#386=VERTEX_POINT('',#1132);
#387=VERTEX_POINT('',#1133);
#388=VERTEX_POINT('',#1135);
#389=VERTEX_POINT('',#1137);
#390=VERTEX_POINT('',#1140);
#391=VERTEX_POINT('',#1141);
#392=VERTEX_POINT('',#1143);
#393=VERTEX_POINT('',#1145);
#394=VERTEX_POINT('',#1148);
#395=VERTEX_POINT('',#1149);
#396=VERTEX_POINT('',#1151);
#397=VERTEX_POINT('',#1153);
#398=VERTEX_POINT('',#1157);
#399=VERTEX_POINT('',#1158);
#400=VERTEX_POINT('',#1160);
#401=VERTEX_POINT('',#1162);
#402=VERTEX_POINT('',#1166);
#403=VERTEX_POINT('',#1167);
#404=VERTEX_POINT('',#1169);
#405=VERTEX_POINT('',#1171);
#406=VERTEX_POINT('',#1175);
#407=VERTEX_POINT('',#1176);
#408=VERTEX_POINT('',#1179);
#409=VERTEX_POINT('',#1181);
#410=VERTEX_POINT('',#1185);
#411=VERTEX_POINT('',#1186);
#412=VERTEX_POINT('',#1188);
#413=VERTEX_POINT('',#1190);
#414=VERTEX_POINT('',#1195);
#415=VERTEX_POINT('',#1201);
#416=VERTEX_POINT('',#1207);
#417=VERTEX_POINT('',#1208);
#418=VERTEX_POINT('',#1211);
#419=VERTEX_POINT('',#1216);
#420=VERTEX_POINT('',#1220);
#421=VERTEX_POINT('',#1222);
#422=VERTEX_POINT('',#1226);
#423=VERTEX_POINT('',#1227);
#424=VERTEX_POINT('',#1237);
#425=VERTEX_POINT('',#1239);
#426=VERTEX_POINT('',#1243);
#427=VERTEX_POINT('',#1247);
#428=VERTEX_POINT('',#1254);
#429=VERTEX_POINT('',#1256);
#430=VERTEX_POINT('',#1260);
#431=VERTEX_POINT('',#1264);
#432=VERTEX_POINT('',#1271);
#433=VERTEX_POINT('',#1273);
#434=VERTEX_POINT('',#1277);
#435=VERTEX_POINT('',#1281);
#436=VERTEX_POINT('',#1288);
#437=VERTEX_POINT('',#1290);
#438=VERTEX_POINT('',#1294);
#439=VERTEX_POINT('',#1298);
#440=LINE('',#1093,#534);
#441=LINE('',#1096,#535);
#442=LINE('',#1098,#536);
#443=LINE('',#1100,#537);
#444=LINE('',#1102,#538);
#445=LINE('',#1105,#539);
#446=LINE('',#1107,#540);
#447=LINE('',#1109,#541);
#448=LINE('',#1111,#542);
#449=LINE('',#1114,#543);
#450=LINE('',#1116,#544);
#451=LINE('',#1118,#545);
#452=LINE('',#1119,#546);
#453=LINE('',#1122,#547);
#454=LINE('',#1124,#548);
#455=LINE('',#1126,#549);
#456=LINE('',#1128,#550);
#457=LINE('',#1130,#551);
#458=LINE('',#1131,#552);
#459=LINE('',#1134,#553);
#460=LINE('',#1136,#554);
#461=LINE('',#1138,#555);
#462=LINE('',#1139,#556);
#463=LINE('',#1142,#557);
#464=LINE('',#1144,#558);
#465=LINE('',#1146,#559);
#466=LINE('',#1147,#560);
#467=LINE('',#1150,#561);
#468=LINE('',#1152,#562);
#469=LINE('',#1154,#563);
#470=LINE('',#1156,#564);
#471=LINE('',#1161,#565);
#472=LINE('',#1165,#566);
#473=LINE('',#1170,#567);
#474=LINE('',#1174,#568);
#475=LINE('',#1178,#569);
#476=LINE('',#1180,#570);
#477=LINE('',#1184,#571);
#478=LINE('',#1187,#572);
#479=LINE('',#1189,#573);
#480=LINE('',#1191,#574);
#481=LINE('',#1192,#575);
#482=LINE('',#1194,#576);
#483=LINE('',#1198,#577);
#484=LINE('',#1202,#578);
#485=LINE('',#1203,#579);
#486=LINE('',#1206,#580);
#487=LINE('',#1209,#581);
#488=LINE('',#1210,#582);
#489=LINE('',#1212,#583);
#490=LINE('',#1214,#584);
#491=LINE('',#1215,#585);
#492=LINE('',#1217,#586);
#493=LINE('',#1219,#587);
#494=LINE('',#1221,#588);
#495=LINE('',#1223,#589);
#496=LINE('',#1225,#590);
#497=LINE('',#1228,#591);
#498=LINE('',#1230,#592);
#499=LINE('',#1232,#593);
#500=LINE('',#1236,#594);
#501=LINE('',#1238,#595);
#502=LINE('',#1240,#596);
#503=LINE('',#1242,#597);
#504=LINE('',#1244,#598);
#505=LINE('',#1246,#599);
#506=LINE('',#1248,#600);
#507=LINE('',#1250,#601);
#508=LINE('',#1253,#602);
#509=LINE('',#1255,#603);
#510=LINE('',#1257,#604);
#511=LINE('',#1259,#605);
#512=LINE('',#1261,#606);
#513=LINE('',#1263,#607);
#514=LINE('',#1265,#608);
#515=LINE('',#1267,#609);
#516=LINE('',#1270,#610);
#517=LINE('',#1272,#611);
#518=LINE('',#1274,#612);
#519=LINE('',#1276,#613);
#520=LINE('',#1278,#614);
#521=LINE('',#1280,#615);
#522=LINE('',#1282,#616);
#523=LINE('',#1284,#617);
#524=LINE('',#1287,#618);
#525=LINE('',#1289,#619);
#526=LINE('',#1291,#620);
#527=LINE('',#1293,#621);
#528=LINE('',#1295,#622);
#529=LINE('',#1297,#623);
#530=LINE('',#1299,#624);
#531=LINE('',#1301,#625);
#532=LINE('',#1304,#626);
#533=LINE('',#1305,#627);
#534=VECTOR('',#879,1.);
#535=VECTOR('',#880,1.);
#536=VECTOR('',#881,1.);
#537=VECTOR('',#882,1.);
#538=VECTOR('',#885,1.);
#539=VECTOR('',#886,1.);
#540=VECTOR('',#887,1.);
#541=VECTOR('',#888,1.);
#542=VECTOR('',#891,1.);
#543=VECTOR('',#892,1.);
#544=VECTOR('',#893,1.);
#545=VECTOR('',#894,1.);
#546=VECTOR('',#895,1.);
#547=VECTOR('',#896,1.);
#548=VECTOR('',#897,1.);
#549=VECTOR('',#898,1.);
#550=VECTOR('',#899,1.);
#551=VECTOR('',#900,1.);
#552=VECTOR('',#901,1.);
#553=VECTOR('',#902,1.);
#554=VECTOR('',#903,1.);
#555=VECTOR('',#904,1.);
#556=VECTOR('',#905,1.);
#557=VECTOR('',#906,1.);
#558=VECTOR('',#907,1.);
#559=VECTOR('',#908,1.);
#560=VECTOR('',#909,1.);
#561=VECTOR('',#910,1.);
#562=VECTOR('',#911,1.);
#563=VECTOR('',#912,1.);
#564=VECTOR('',#915,1.);
#565=VECTOR('',#918,1.);
#566=VECTOR('',#923,1.);
#567=VECTOR('',#926,1.);
#568=VECTOR('',#931,1.);
#569=VECTOR('',#934,1.);
#570=VECTOR('',#935,1.);
#571=VECTOR('',#940,1.);
#572=VECTOR('',#941,1.);
#573=VECTOR('',#942,1.);
#574=VECTOR('',#943,1.);
#575=VECTOR('',#944,1.);
#576=VECTOR('',#947,1.);
#577=VECTOR('',#952,1.);
#578=VECTOR('',#957,1.);
#579=VECTOR('',#958,1.);
#580=VECTOR('',#963,1.);
#581=VECTOR('',#964,1.);
#582=VECTOR('',#965,1.);
#583=VECTOR('',#966,1.);
#584=VECTOR('',#969,1.);
#585=VECTOR('',#970,1.);
#586=VECTOR('',#971,1.);
#587=VECTOR('',#974,1.);
#588=VECTOR('',#975,1.);
#589=VECTOR('',#976,1.);
#590=VECTOR('',#979,1.);
#591=VECTOR('',#980,1.);
#592=VECTOR('',#983,1.);
#593=VECTOR('',#986,1.);
#594=VECTOR('',#993,1.);
#595=VECTOR('',#994,1.);
#596=VECTOR('',#995,1.);
#597=VECTOR('',#998,1.);
#598=VECTOR('',#999,1.);
#599=VECTOR('',#1002,1.);
#600=VECTOR('',#1003,1.);
#601=VECTOR('',#1006,1.);
#602=VECTOR('',#1011,1.);
#603=VECTOR('',#1012,1.);
#604=VECTOR('',#1013,1.);
#605=VECTOR('',#1016,1.);
#606=VECTOR('',#1017,1.);
#607=VECTOR('',#1020,1.);
#608=VECTOR('',#1021,1.);
#609=VECTOR('',#1024,1.);
#610=VECTOR('',#1029,1.);
#611=VECTOR('',#1030,1.);
#612=VECTOR('',#1031,1.);
#613=VECTOR('',#1034,1.);
#614=VECTOR('',#1035,1.);
#615=VECTOR('',#1038,1.);
#616=VECTOR('',#1039,1.);
#617=VECTOR('',#1042,1.);
#618=VECTOR('',#1047,1.);
#619=VECTOR('',#1048,1.);
#620=VECTOR('',#1049,1.);
#621=VECTOR('',#1052,1.);
#622=VECTOR('',#1053,1.);
#623=VECTOR('',#1056,1.);
#624=VECTOR('',#1057,1.);
#625=VECTOR('',#1060,1.);
#626=VECTOR('',#1065,1.);
#627=VECTOR('',#1066,1.);
#628=EDGE_LOOP('',(#38,#39,#40,#41));
#629=EDGE_LOOP('',(#42,#43,#44,#45));
#630=EDGE_LOOP('',(#46,#47,#48,#49));
#631=EDGE_LOOP('',(#50,#51,#52,#53,#54,#55));
#632=EDGE_LOOP('',(#56,#57,#58,#59));
#633=EDGE_LOOP('',(#60,#61,#62,#63));
#634=EDGE_LOOP('',(#64,#65,#66,#67));
#635=EDGE_LOOP('',(#68,#69,#70,#71));
#636=EDGE_LOOP('',(#72,#73,#74,#75));
#637=EDGE_LOOP('',(#76,#77,#78,#79,#80,#81));
#638=EDGE_LOOP('',(#82,#83,#84,#85,#86,#87));
#639=EDGE_LOOP('',(#88,#89,#90,#91,#92,#93,#94,#95,#96,#97,#98,#99,#100,
#101));
#640=EDGE_LOOP('',(#102,#103,#104,#105));
#641=EDGE_LOOP('',(#106,#107,#108,#109,#110,#111));
#642=EDGE_LOOP('',(#112,#113,#114,#115,#116,#117));
#643=EDGE_LOOP('',(#118,#119,#120,#121,#122,#123));
#644=EDGE_LOOP('',(#124,#125,#126,#127,#128,#129,#130,#131,#132,#133));
#645=EDGE_LOOP('',(#134,#135,#136,#137));
#646=EDGE_LOOP('',(#138,#139,#140,#141));
#647=EDGE_LOOP('',(#142,#143,#144,#145));
#648=EDGE_LOOP('',(#146,#147,#148,#149));
#649=EDGE_LOOP('',(#150,#151,#152,#153));
#650=EDGE_LOOP('',(#154,#155,#156,#157));
#651=EDGE_LOOP('',(#158,#159,#160,#161));
#652=EDGE_LOOP('',(#162,#163,#164,#165));
#653=EDGE_LOOP('',(#166,#167,#168,#169));
#654=EDGE_LOOP('',(#170,#171,#172,#173));
#655=EDGE_LOOP('',(#174,#175,#176,#177));
#656=EDGE_LOOP('',(#178,#179,#180,#181));
#657=EDGE_LOOP('',(#182,#183,#184,#185));
#658=EDGE_LOOP('',(#186,#187,#188,#189));
#659=EDGE_LOOP('',(#190,#191,#192,#193));
#660=EDGE_LOOP('',(#194,#195,#196,#197));
#661=EDGE_LOOP('',(#198,#199,#200,#201));
#662=EDGE_LOOP('',(#202,#203,#204,#205));
#663=EDGE_LOOP('',(#206,#207,#208,#209));
#664=EDGE_LOOP('',(#210,#211,#212,#213));
#665=EDGE_LOOP('',(#214,#215,#216,#217));
#666=EDGE_LOOP('',(#218,#219,#220,#221));
#667=EDGE_LOOP('',(#222,#223,#224,#225));
#668=EDGE_LOOP('',(#226,#227,#228,#229));
#669=EDGE_LOOP('',(#230,#231,#232,#233));
#670=EDGE_LOOP('',(#234,#235,#236,#237));
#671=EDGE_LOOP('',(#238,#239,#240,#241));
#672=EDGE_LOOP('',(#242,#243,#244,#245));
#673=EDGE_LOOP('',(#246,#247,#248,#249));
#674=EDGE_LOOP('',(#250,#251,#252,#253));
#675=EDGE_LOOP('',(#254,#255,#256,#257));
#676=FACE_BOUND('',#628,.T.);
#677=FACE_BOUND('',#629,.T.);
#678=FACE_BOUND('',#630,.T.);
#679=FACE_BOUND('',#631,.T.);
#680=FACE_BOUND('',#632,.T.);
#681=FACE_BOUND('',#633,.T.);
#682=FACE_BOUND('',#634,.T.);
#683=FACE_BOUND('',#635,.T.);
#684=FACE_BOUND('',#636,.T.);
#685=FACE_BOUND('',#637,.T.);
#686=FACE_BOUND('',#638,.T.);
#687=FACE_BOUND('',#639,.T.);
#688=FACE_BOUND('',#640,.T.);
#689=FACE_BOUND('',#641,.T.);
#690=FACE_BOUND('',#642,.T.);
#691=FACE_BOUND('',#643,.T.);
#692=FACE_BOUND('',#644,.T.);
#693=FACE_BOUND('',#645,.T.);
#694=FACE_BOUND('',#646,.T.);
#695=FACE_BOUND('',#647,.T.);
#696=FACE_BOUND('',#648,.T.);
#697=FACE_BOUND('',#649,.T.);
#698=FACE_BOUND('',#650,.T.);
#699=FACE_BOUND('',#651,.T.);
#700=FACE_BOUND('',#652,.T.);
#701=FACE_BOUND('',#653,.T.);
#702=FACE_BOUND('',#654,.T.);
#703=FACE_BOUND('',#655,.T.);
#704=FACE_BOUND('',#656,.T.);
#705=FACE_BOUND('',#657,.T.);
#706=FACE_BOUND('',#658,.T.);
#707=FACE_BOUND('',#659,.T.);
#708=FACE_BOUND('',#660,.T.);
#709=FACE_BOUND('',#661,.T.);
#710=FACE_BOUND('',#662,.T.);
#711=FACE_BOUND('',#663,.T.);
#712=FACE_BOUND('',#664,.T.);
#713=FACE_BOUND('',#665,.T.);
#714=FACE_BOUND('',#666,.T.);
#715=FACE_BOUND('',#667,.T.);
#716=FACE_BOUND('',#668,.T.);
#717=FACE_BOUND('',#669,.T.);
#718=FACE_BOUND('',#670,.T.);
#719=FACE_BOUND('',#671,.T.);
#720=FACE_BOUND('',#672,.T.);
#721=FACE_BOUND('',#673,.T.);
#722=FACE_BOUND('',#674,.T.);
#723=FACE_BOUND('',#675,.T.);
#724=PLANE('',#815);
#725=PLANE('',#816);
#726=PLANE('',#817);
#727=PLANE('',#824);
#728=PLANE('',#827);
#729=PLANE('',#828);
#730=PLANE('',#833);
#731=PLANE('',#834);
#732=PLANE('',#835);
#733=PLANE('',#836);
#734=PLANE('',#837);
#735=PLANE('',#840);
#736=PLANE('',#841);
#737=PLANE('',#842);
#738=PLANE('',#843);
#739=PLANE('',#844);
#740=PLANE('',#845);
#741=PLANE('',#846);
#742=PLANE('',#847);
#743=PLANE('',#848);
#744=PLANE('',#849);
#745=PLANE('',#850);
#746=PLANE('',#851);
#747=PLANE('',#852);
#748=PLANE('',#853);
#749=PLANE('',#854);
#750=PLANE('',#855);
#751=PLANE('',#856);
#752=PLANE('',#857);
#753=PLANE('',#858);
#754=PLANE('',#859);
#755=PLANE('',#860);
#756=PLANE('',#861);
#757=PLANE('',#862);
#758=ADVANCED_FACE('',(#676),#724,.T.);
#759=ADVANCED_FACE('',(#677),#725,.T.);
#760=ADVANCED_FACE('',(#678,#679,#680,#681,#682),#726,.T.);
#761=ADVANCED_FACE('',(#683),#28,.F.);
#762=ADVANCED_FACE('',(#684),#29,.F.);
#763=ADVANCED_FACE('',(#685),#727,.T.);
#764=ADVANCED_FACE('',(#686),#728,.F.);
#765=ADVANCED_FACE('',(#687),#729,.F.);
#766=ADVANCED_FACE('',(#688),#730,.F.);
#767=ADVANCED_FACE('',(#689),#731,.T.);
#768=ADVANCED_FACE('',(#690),#732,.F.);
#769=ADVANCED_FACE('',(#691),#733,.T.);
#770=ADVANCED_FACE('',(#692),#734,.T.);
#771=ADVANCED_FACE('',(#693),#735,.T.);
#772=ADVANCED_FACE('',(#694),#736,.T.);
#773=ADVANCED_FACE('',(#695),#737,.T.);
#774=ADVANCED_FACE('',(#696),#738,.F.);
#775=ADVANCED_FACE('',(#697),#739,.F.);
#776=ADVANCED_FACE('',(#698),#740,.T.);
#777=ADVANCED_FACE('',(#699),#741,.T.);
#778=ADVANCED_FACE('',(#700),#742,.T.);
#779=ADVANCED_FACE('',(#701),#743,.F.);
#780=ADVANCED_FACE('',(#702),#744,.F.);
#781=ADVANCED_FACE('',(#703),#745,.T.);
#782=ADVANCED_FACE('',(#704),#746,.T.);
#783=ADVANCED_FACE('',(#705),#747,.T.);
#784=ADVANCED_FACE('',(#706),#748,.F.);
#785=ADVANCED_FACE('',(#707),#749,.F.);
#786=ADVANCED_FACE('',(#708),#750,.T.);
#787=ADVANCED_FACE('',(#709),#751,.T.);
#788=ADVANCED_FACE('',(#710),#752,.F.);
#789=ADVANCED_FACE('',(#711),#753,.F.);
#790=ADVANCED_FACE('',(#712),#754,.F.);
#791=ADVANCED_FACE('',(#713),#755,.F.);
#792=ADVANCED_FACE('',(#714),#756,.T.);
#793=ADVANCED_FACE('',(#715),#757,.T.);
#794=ADVANCED_FACE('',(#716),#30,.T.);
#795=ADVANCED_FACE('',(#717),#31,.T.);
#796=ADVANCED_FACE('',(#718),#32,.T.);
#797=ADVANCED_FACE('',(#719),#33,.T.);
#798=ADVANCED_FACE('',(#720),#34,.T.);
#799=ADVANCED_FACE('',(#721),#35,.T.);
#800=ADVANCED_FACE('',(#722),#36,.T.);
#801=ADVANCED_FACE('',(#723),#37,.T.);
#802=CLOSED_SHELL('',(#758,#759,#760,#761,#762,#763,#764,#765,#766,#767,
#768,#769,#770,#771,#772,#773,#774,#775,#776,#777,#778,#779,#780,#781,#782,
#783,#784,#785,#786,#787,#788,#789,#790,#791,#792,#793,#794,#795,#796,#797,
#798,#799,#800,#801));
#803=STYLED_ITEM('',(#804),#811);
#804=PRESENTATION_STYLE_ASSIGNMENT((#805));
#805=SURFACE_STYLE_USAGE(.BOTH.,#806);
#806=SURFACE_SIDE_STYLE('',(#807));
#807=SURFACE_STYLE_FILL_AREA(#808);
#808=FILL_AREA_STYLE('',(#809));
#809=FILL_AREA_STYLE_COLOUR('',#810);
#810=COLOUR_RGB('',0.615686274509804,0.811764705882353,0.929411764705882);
#811=MANIFOLD_SOLID_BREP('Part 1',#802);
#812=SHAPE_DEFINITION_REPRESENTATION(#1324,#813);
#813=SHAPE_REPRESENTATION('Part 1',(#814),#1319);
#814=AXIS2_PLACEMENT_3D('',#1091,#875,#876);
#815=AXIS2_PLACEMENT_3D('',#1092,#877,#878);
#816=AXIS2_PLACEMENT_3D('',#1101,#883,#884);
#817=AXIS2_PLACEMENT_3D('',#1110,#889,#890);
#818=AXIS2_PLACEMENT_3D('',#1155,#913,#914);
#819=AXIS2_PLACEMENT_3D('',#1159,#916,#917);
#820=AXIS2_PLACEMENT_3D('',#1163,#919,#920);
#821=AXIS2_PLACEMENT_3D('',#1164,#921,#922);
#822=AXIS2_PLACEMENT_3D('',#1168,#924,#925);
#823=AXIS2_PLACEMENT_3D('',#1172,#927,#928);
#824=AXIS2_PLACEMENT_3D('',#1173,#929,#930);
#825=AXIS2_PLACEMENT_3D('',#1177,#932,#933);
#826=AXIS2_PLACEMENT_3D('',#1182,#936,#937);
#827=AXIS2_PLACEMENT_3D('',#1183,#938,#939);
#828=AXIS2_PLACEMENT_3D('',#1193,#945,#946);
#829=AXIS2_PLACEMENT_3D('',#1196,#948,#949);
#830=AXIS2_PLACEMENT_3D('',#1197,#950,#951);
#831=AXIS2_PLACEMENT_3D('',#1199,#953,#954);
#832=AXIS2_PLACEMENT_3D('',#1200,#955,#956);
#833=AXIS2_PLACEMENT_3D('',#1204,#959,#960);
#834=AXIS2_PLACEMENT_3D('',#1205,#961,#962);
#835=AXIS2_PLACEMENT_3D('',#1213,#967,#968);
#836=AXIS2_PLACEMENT_3D('',#1218,#972,#973);
#837=AXIS2_PLACEMENT_3D('',#1224,#977,#978);
#838=AXIS2_PLACEMENT_3D('',#1229,#981,#982);
#839=AXIS2_PLACEMENT_3D('',#1231,#984,#985);
#840=AXIS2_PLACEMENT_3D('',#1233,#987,#988);
#841=AXIS2_PLACEMENT_3D('',#1234,#989,#990);
#842=AXIS2_PLACEMENT_3D('',#1235,#991,#992);
#843=AXIS2_PLACEMENT_3D('',#1241,#996,#997);
#844=AXIS2_PLACEMENT_3D('',#1245,#1000,#1001);
#845=AXIS2_PLACEMENT_3D('',#1249,#1004,#1005);
#846=AXIS2_PLACEMENT_3D('',#1251,#1007,#1008);
#847=AXIS2_PLACEMENT_3D('',#1252,#1009,#1010);
#848=AXIS2_PLACEMENT_3D('',#1258,#1014,#1015);
#849=AXIS2_PLACEMENT_3D('',#1262,#1018,#1019);
#850=AXIS2_PLACEMENT_3D('',#1266,#1022,#1023);
#851=AXIS2_PLACEMENT_3D('',#1268,#1025,#1026);
#852=AXIS2_PLACEMENT_3D('',#1269,#1027,#1028);
#853=AXIS2_PLACEMENT_3D('',#1275,#1032,#1033);
#854=AXIS2_PLACEMENT_3D('',#1279,#1036,#1037);
#855=AXIS2_PLACEMENT_3D('',#1283,#1040,#1041);
#856=AXIS2_PLACEMENT_3D('',#1285,#1043,#1044);
#857=AXIS2_PLACEMENT_3D('',#1286,#1045,#1046);
#858=AXIS2_PLACEMENT_3D('',#1292,#1050,#1051);
#859=AXIS2_PLACEMENT_3D('',#1296,#1054,#1055);
#860=AXIS2_PLACEMENT_3D('',#1300,#1058,#1059);
#861=AXIS2_PLACEMENT_3D('',#1302,#1061,#1062);
#862=AXIS2_PLACEMENT_3D('',#1303,#1063,#1064);
#863=AXIS2_PLACEMENT_3D('',#1306,#1067,#1068);
#864=AXIS2_PLACEMENT_3D('',#1307,#1069,#1070);
#865=AXIS2_PLACEMENT_3D('',#1308,#1071,#1072);
#866=AXIS2_PLACEMENT_3D('',#1309,#1073,#1074);
#867=AXIS2_PLACEMENT_3D('',#1310,#1075,#1076);
#868=AXIS2_PLACEMENT_3D('',#1311,#1077,#1078);
#869=AXIS2_PLACEMENT_3D('',#1312,#1079,#1080);
#870=AXIS2_PLACEMENT_3D('',#1313,#1081,#1082);
#871=AXIS2_PLACEMENT_3D('',#1314,#1083,#1084);
#872=AXIS2_PLACEMENT_3D('',#1315,#1085,#1086);
#873=AXIS2_PLACEMENT_3D('',#1316,#1087,#1088);
#874=AXIS2_PLACEMENT_3D('',#1317,#1089,#1090);
#875=DIRECTION('',(0.,0.,1.));
#876=DIRECTION('',(1.,0.,0.));
#877=DIRECTION('',(0.,0.,1.));
#878=DIRECTION('',(1.,0.,0.));
#879=DIRECTION('',(-1.,0.,0.));
#880=DIRECTION('',(3.00060276925718E-16,-1.,0.));
#881=DIRECTION('',(1.,0.,0.));
#882=DIRECTION('',(6.07153216591883E-17,-1.,0.));
#883=DIRECTION('',(0.,0.,1.));
#884=DIRECTION('',(1.,0.,0.));
#885=DIRECTION('',(1.,0.,0.));
#886=DIRECTION('',(-3.00060276925718E-16,1.,0.));
#887=DIRECTION('',(-1.,0.,0.));
#888=DIRECTION('',(0.,-1.,0.));
#889=DIRECTION('',(1.,6.07153216591883E-17,0.));
#890=DIRECTION('',(-6.07153216591883E-17,1.,0.));
#891=DIRECTION('',(0.,0.,-1.));
#892=DIRECTION('',(6.07153216591883E-17,-1.,0.));
#893=DIRECTION('',(0.,0.,1.));
#894=DIRECTION('',(-6.07153216591883E-17,1.,0.));
#895=DIRECTION('',(0.,0.,-1.));
#896=DIRECTION('',(6.07153216591883E-17,-1.,0.));
#897=DIRECTION('',(0.,0.,-1.));
#898=DIRECTION('',(6.07153216591883E-17,-1.,0.));
#899=DIRECTION('',(0.,0.,-1.));
#900=DIRECTION('',(6.07153216591883E-17,-1.,0.));
#901=DIRECTION('',(0.,0.,-1.));
#902=DIRECTION('',(-6.07153216591883E-17,1.,0.));
#903=DIRECTION('',(0.,0.,-1.));
#904=DIRECTION('',(-6.07153216591883E-17,1.,0.));
#905=DIRECTION('',(0.,0.,-1.));
#906=DIRECTION('',(-6.07153216591883E-17,1.,0.));
#907=DIRECTION('',(0.,0.,-1.));
#908=DIRECTION('',(-6.07153216591883E-17,1.,0.));
#909=DIRECTION('',(-3.68635028417869E-33,6.07153216591882E-17,-1.));
#910=DIRECTION('',(-6.07153216591883E-17,1.,0.));
#911=DIRECTION('',(0.,0.,-1.));
#912=DIRECTION('',(-6.07153216591883E-17,1.,0.));
#913=DIRECTION('',(-3.00060276925718E-16,1.,0.));
#914=DIRECTION('',(-1.,-3.00060276925718E-16,0.));
#915=DIRECTION('',(3.00060276925718E-16,-1.,0.));
#916=DIRECTION('',(0.,-1.,0.));
#917=DIRECTION('',(0.,0.,-1.));
#918=DIRECTION('',(3.00060276925718E-16,-1.,0.));
#919=DIRECTION('',(0.,1.,0.));
#920=DIRECTION('',(0.,0.,1.));
#921=DIRECTION('',(3.00060276925718E-16,-1.,0.));
#922=DIRECTION('',(1.,3.00060276925718E-16,0.));
#923=DIRECTION('',(-3.00060276925718E-16,1.,0.));
#924=DIRECTION('',(0.,1.,0.));
#925=DIRECTION('',(0.,0.,1.));
#926=DIRECTION('',(-3.00060276925718E-16,1.,0.));
#927=DIRECTION('',(0.,-1.,0.));
#928=DIRECTION('',(0.,0.,-1.));
#929=DIRECTION('',(0.,1.,0.));
#930=DIRECTION('',(0.,0.,1.));
#931=DIRECTION('',(1.,0.,0.));
#932=DIRECTION('',(0.,1.,0.));
#933=DIRECTION('',(0.,0.,1.));
#934=DIRECTION('',(1.,0.,0.));
#935=DIRECTION('',(0.,0.,-1.));
#936=DIRECTION('',(0.,1.,0.));
#937=DIRECTION('',(0.,0.,1.));
#938=DIRECTION('',(1.,0.,0.));
#939=DIRECTION('',(0.,0.,-1.));
#940=DIRECTION('',(0.,0.,-1.));
#941=DIRECTION('',(0.,-1.,0.));
#942=DIRECTION('',(0.,0.,-1.));
#943=DIRECTION('',(0.,-1.,0.));
#944=DIRECTION('',(0.,-1.,0.));
#945=DIRECTION('',(0.,1.,0.));
#946=DIRECTION('',(0.,0.,1.));
#947=DIRECTION('',(0.,0.,1.));
#948=DIRECTION('',(0.,1.,0.));
#949=DIRECTION('',(0.,0.,1.));
#950=DIRECTION('',(0.,1.,0.));
#951=DIRECTION('',(0.,0.,1.));
#952=DIRECTION('',(1.,0.,0.));
#953=DIRECTION('',(0.,1.,0.));
#954=DIRECTION('',(0.,0.,1.));
#955=DIRECTION('',(0.,1.,0.));
#956=DIRECTION('',(0.,0.,1.));
#957=DIRECTION('',(0.,0.,1.));
#958=DIRECTION('',(1.,0.,0.));
#959=DIRECTION('',(0.,0.,1.));
#960=DIRECTION('',(1.,0.,0.));
#961=DIRECTION('',(1.,3.00060276925718E-16,0.));
#962=DIRECTION('',(-3.00060276925718E-16,1.,0.));
#963=DIRECTION('',(0.,0.,1.));
#964=DIRECTION('',(-3.00060276925718E-16,1.,0.));
#965=DIRECTION('',(0.,0.,1.));
#966=DIRECTION('',(-3.00060276925718E-16,1.,0.));
#967=DIRECTION('',(0.,-1.,0.));
#968=DIRECTION('',(0.,0.,-1.));
#969=DIRECTION('',(1.,0.,0.));
#970=DIRECTION('',(0.,0.,1.));
#971=DIRECTION('',(1.,0.,0.));
#972=DIRECTION('',(-1.,-3.00060276925718E-16,0.));
#973=DIRECTION('',(3.00060276925718E-16,-1.,0.));
#974=DIRECTION('',(3.00060276925718E-16,-1.,0.));
#975=DIRECTION('',(0.,0.,1.));
#976=DIRECTION('',(3.00060276925718E-16,-1.,0.));
#977=DIRECTION('',(0.,-1.,0.));
#978=DIRECTION('',(0.,0.,-1.));
#979=DIRECTION('',(-1.,0.,0.));
#980=DIRECTION('',(0.,0.,-1.));
#981=DIRECTION('',(0.,-1.,0.));
#982=DIRECTION('',(0.,0.,-1.));
#983=DIRECTION('',(1.,0.,0.));
#984=DIRECTION('',(0.,-1.,0.));
#985=DIRECTION('',(0.,0.,-1.));
#986=DIRECTION('',(0.,0.,-1.));
#987=DIRECTION('',(0.,0.,1.));
#988=DIRECTION('',(1.,0.,0.));
#989=DIRECTION('',(0.,0.,1.));
#990=DIRECTION('',(1.,0.,0.));
#991=DIRECTION('',(0.,0.,-1.));
#992=DIRECTION('',(-1.,0.,0.));
#993=DIRECTION('',(1.,6.07153216591883E-17,0.));
#994=DIRECTION('',(-6.07153216591883E-17,1.,0.));
#995=DIRECTION('',(1.,6.07153216591883E-17,0.));
#996=DIRECTION('',(6.07153216591883E-17,-1.,0.));
#997=DIRECTION('',(1.,6.07153216591883E-17,0.));
#998=DIRECTION('',(1.,6.07153216591883E-17,0.));
#999=DIRECTION('',(0.,0.,-1.));
#1000=DIRECTION('',(0.,0.,-1.));
#1001=DIRECTION('',(-1.,0.,0.));
#1002=DIRECTION('',(1.,6.07153216591883E-17,0.));
#1003=DIRECTION('',(-6.07153216591883E-17,1.,0.));
#1004=DIRECTION('',(6.07153216591883E-17,-1.,0.));
#1005=DIRECTION('',(1.,6.07153216591883E-17,0.));
#1006=DIRECTION('',(0.,0.,-1.));
#1007=DIRECTION('',(1.,6.07153216591883E-17,0.));
#1008=DIRECTION('',(-6.07153216591883E-17,1.,0.));
#1009=DIRECTION('',(0.,0.,-1.));
#1010=DIRECTION('',(-1.,0.,0.));
#1011=DIRECTION('',(1.,6.07153216591883E-17,0.));
#1012=DIRECTION('',(-6.07153216591883E-17,1.,0.));
#1013=DIRECTION('',(1.,6.07153216591883E-17,0.));
#1014=DIRECTION('',(6.07153216591883E-17,-1.,0.));
#1015=DIRECTION('',(1.,6.07153216591883E-17,0.));
#1016=DIRECTION('',(1.,6.07153216591883E-17,0.));
#1017=DIRECTION('',(0.,0.,-1.));
#1018=DIRECTION('',(0.,0.,-1.));
#1019=DIRECTION('',(-1.,0.,0.));
#1020=DIRECTION('',(1.,6.07153216591883E-17,0.));
#1021=DIRECTION('',(-6.07153216591883E-17,1.,0.));
#1022=DIRECTION('',(6.07153216591883E-17,-1.,0.));
#1023=DIRECTION('',(1.,6.07153216591883E-17,0.));
#1024=DIRECTION('',(0.,0.,-1.));
#1025=DIRECTION('',(1.,6.07153216591883E-17,0.));
#1026=DIRECTION('',(-6.07153216591883E-17,1.,0.));
#1027=DIRECTION('',(0.,0.,-1.));
#1028=DIRECTION('',(-1.,0.,0.));
#1029=DIRECTION('',(1.,6.07153216591883E-17,0.));
#1030=DIRECTION('',(-6.07153216591883E-17,1.,0.));
#1031=DIRECTION('',(1.,6.07153216591883E-17,0.));
#1032=DIRECTION('',(6.07153216591883E-17,-1.,-6.07153216591882E-17));
#1033=DIRECTION('',(1.,6.07153216591883E-17,0.));
#1034=DIRECTION('',(1.,6.07153216591883E-17,0.));
#1035=DIRECTION('',(-3.68635028417869E-33,6.07153216591882E-17,-1.));
#1036=DIRECTION('',(0.,0.,-1.));
#1037=DIRECTION('',(-1.,0.,0.));
#1038=DIRECTION('',(1.,6.07153216591883E-17,0.));
#1039=DIRECTION('',(-6.07153216591883E-17,1.,0.));
#1040=DIRECTION('',(6.07153216591883E-17,-1.,0.));
#1041=DIRECTION('',(1.,6.07153216591883E-17,0.));
#1042=DIRECTION('',(0.,0.,-1.));
#1043=DIRECTION('',(1.,6.07153216591883E-17,0.));
#1044=DIRECTION('',(-6.07153216591883E-17,1.,0.));
#1045=DIRECTION('',(6.07153216591883E-17,-1.,0.));
#1046=DIRECTION('',(1.,6.07153216591883E-17,0.));
#1047=DIRECTION('',(1.,6.07153216591883E-17,0.));
#1048=DIRECTION('',(0.,0.,-1.));
#1049=DIRECTION('',(1.,6.07153216591883E-17,0.));
#1050=DIRECTION('',(0.,0.,-1.));
#1051=DIRECTION('',(-1.,0.,0.));
#1052=DIRECTION('',(1.,6.07153216591883E-17,0.));
#1053=DIRECTION('',(-6.07153216591883E-17,1.,0.));
#1054=DIRECTION('',(-6.07153216591883E-17,1.,0.));
#1055=DIRECTION('',(-1.,-6.07153216591883E-17,0.));
#1056=DIRECTION('',(1.,6.07153216591883E-17,0.));
#1057=DIRECTION('',(0.,0.,1.));
#1058=DIRECTION('',(0.,0.,1.));
#1059=DIRECTION('',(1.,0.,0.));
#1060=DIRECTION('',(6.07153216591883E-17,-1.,0.));
#1061=DIRECTION('',(1.,6.07153216591883E-17,0.));
#1062=DIRECTION('',(-6.07153216591883E-17,1.,0.));
#1063=DIRECTION('',(0.,0.,1.));
#1064=DIRECTION('',(1.,0.,0.));
#1065=DIRECTION('',(6.07153216591883E-17,-1.,0.));
#1066=DIRECTION('',(0.,-1.,0.));
#1067=DIRECTION('',(0.,1.,0.));
#1068=DIRECTION('',(0.,0.,1.));
#1069=DIRECTION('',(0.,0.707106781186548,0.707106781186548));
#1070=DIRECTION('',(0.,0.707106781186548,-0.707106781186548));
#1071=DIRECTION('',(0.,1.,0.));
#1072=DIRECTION('',(0.,0.,1.));
#1073=DIRECTION('',(0.,0.707106781186548,0.707106781186548));
#1074=DIRECTION('',(0.,-0.707106781186548,0.707106781186548));
#1075=DIRECTION('',(0.,0.,1.));
#1076=DIRECTION('',(1.,0.,0.));
#1077=DIRECTION('',(6.07153216591883E-17,-1.,0.));
#1078=DIRECTION('',(1.,6.07153216591883E-17,0.));
#1079=DIRECTION('',(4.29322156671344E-17,-0.707106781186548,-0.707106781186548));
#1080=DIRECTION('',(4.29322156671344E-17,-0.707106781186548,0.707106781186548));
#1081=DIRECTION('',(6.07153216591883E-17,-1.,0.));
#1082=DIRECTION('',(1.,6.07153216591883E-17,0.));
#1083=DIRECTION('',(4.29322156671344E-17,-0.707106781186548,-0.707106781186548));
#1084=DIRECTION('',(-4.29322156671344E-17,0.707106781186548,-0.707106781186548));
#1085=DIRECTION('',(0.,0.,-1.));
#1086=DIRECTION('',(-1.,0.,0.));
#1087=DIRECTION('',(-3.00060276925718E-16,1.,0.));
#1088=DIRECTION('',(-1.,-3.00060276925718E-16,0.));
#1089=DIRECTION('',(3.00060276925718E-16,-1.,0.));
#1090=DIRECTION('',(1.,3.00060276925718E-16,0.));
#1091=CARTESIAN_POINT('',(0.,0.,0.));
#1092=CARTESIAN_POINT('',(-0.33109624311328,0.378740014135838,0.4));
#1093=CARTESIAN_POINT('',(-0.58609624311328,0.748740014135838,0.4));
#1094=CARTESIAN_POINT('',(-0.0685962431132794,0.748740014135838,0.4));
#1095=CARTESIAN_POINT('',(-0.0835962431132794,0.748740014135838,0.4));
#1096=CARTESIAN_POINT('',(-0.0835962431132792,0.378740014135838,0.4));
#1097=CARTESIAN_POINT('',(-0.0835962431132791,-0.0212599858641625,0.4));
#1098=CARTESIAN_POINT('',(-0.33109624311328,-0.0212599858641625,0.4));
#1099=CARTESIAN_POINT('',(-0.0685962431132793,-0.0212599858641625,0.4));
#1100=CARTESIAN_POINT('',(-0.0685962431132794,0.378740014135838,0.4));
#1101=CARTESIAN_POINT('',(-0.33109624311328,0.378740014135838,0.4));
#1102=CARTESIAN_POINT('',(-0.33109624311328,-0.0212599858641625,0.4));
#1103=CARTESIAN_POINT('',(-0.593596243113279,-0.0212599858641625,0.4));
#1104=CARTESIAN_POINT('',(-0.578596243113279,-0.0212599858641625,0.4));
#1105=CARTESIAN_POINT('',(-0.578596243113279,0.378740014135838,0.4));
#1106=CARTESIAN_POINT('',(-0.57859624311328,0.748740014135838,0.4));
#1107=CARTESIAN_POINT('',(-0.58609624311328,0.748740014135838,0.4));
#1108=CARTESIAN_POINT('',(-0.593596243113279,0.748740014135838,0.4));
#1109=CARTESIAN_POINT('',(-0.593596243113279,-0.0212599858641625,0.4));
#1110=CARTESIAN_POINT('',(-0.0560962431132794,0.378740014135838,0.4));
#1111=CARTESIAN_POINT('',(-0.0560962431132793,0.00374001413583757,0.198887114338463));
#1112=CARTESIAN_POINT('',(-0.0560962431132793,0.00374001413583757,0.247774228676927));
#1113=CARTESIAN_POINT('',(-0.0560962431132793,0.00374001413583757,0.15));
#1114=CARTESIAN_POINT('',(-0.0560962431132794,0.379775644589073,0.247774228676927));
#1115=CARTESIAN_POINT('',(-0.0560962431132794,0.755811275042309,0.247774228676927));
#1116=CARTESIAN_POINT('',(-0.0560962431132794,0.755811275042308,0.198887114338463));
#1117=CARTESIAN_POINT('',(-0.0560962431132794,0.755811275042308,0.15));
#1118=CARTESIAN_POINT('',(-0.0560962431132794,0.379775644589073,0.15));
#1119=CARTESIAN_POINT('',(-0.0560962431132794,0.761240014135838,0.4));
#1120=CARTESIAN_POINT('',(-0.0560962431132794,0.761240014135838,0.5375));
#1121=CARTESIAN_POINT('',(-0.0560962431132794,0.761240014135838,0.3875));
#1122=CARTESIAN_POINT('',(-0.0560962431132794,0.378740014135838,0.3875));
#1123=CARTESIAN_POINT('',(-0.0560962431132793,-0.0212599858641625,0.3875));
#1124=CARTESIAN_POINT('',(-0.0560962431132793,-0.0212599858641625,0.4));
#1125=CARTESIAN_POINT('',(-0.0560962431132793,-0.0212599858641625,0.));
#1126=CARTESIAN_POINT('',(-0.0560962431132794,0.378740014135838,0.));
#1127=CARTESIAN_POINT('',(-0.0560962431132794,0.778740014135838,0.));
#1128=CARTESIAN_POINT('',(-0.0560962431132794,0.778740014135838,0.4));
#1129=CARTESIAN_POINT('',(-0.0560962431132794,0.778740014135838,0.5375));
#1130=CARTESIAN_POINT('',(-0.0560962431132794,0.378740014135838,0.5375));
#1131=CARTESIAN_POINT('',(-0.0560962431132794,0.525403014135838,0.0932055877619191));
#1132=CARTESIAN_POINT('',(-0.0560962431132794,0.525403014135838,0.125));
#1133=CARTESIAN_POINT('',(-0.0560962431132794,0.525403014135838,0.025));
#1134=CARTESIAN_POINT('',(-0.0560962431132794,0.639571514135838,0.125));
#1135=CARTESIAN_POINT('',(-0.0560962431132794,0.753740014135838,0.125));
#1136=CARTESIAN_POINT('',(-0.0560962431132794,0.753740014135838,0.075));
#1137=CARTESIAN_POINT('',(-0.0560962431132794,0.753740014135838,0.025));
#1138=CARTESIAN_POINT('',(-0.0560962431132794,0.639571514135838,0.025));
#1139=CARTESIAN_POINT('',(-0.0560962431132793,0.267070014135838,0.0932055877619191));
#1140=CARTESIAN_POINT('',(-0.0560962431132793,0.267070014135838,0.125));
#1141=CARTESIAN_POINT('',(-0.0560962431132793,0.267070014135838,0.025));
#1142=CARTESIAN_POINT('',(-0.0560962431132794,0.379570014135838,0.125));
#1143=CARTESIAN_POINT('',(-0.0560962431132794,0.492070014135838,0.125));
#1144=CARTESIAN_POINT('',(-0.0560962431132794,0.492070014135838,0.0432055877619191));
#1145=CARTESIAN_POINT('',(-0.0560962431132794,0.492070014135838,0.025));
#1146=CARTESIAN_POINT('',(-0.0560962431132794,0.379570014135838,0.025));
#1147=CARTESIAN_POINT('',(-0.0560962431132793,0.00374001413583758,0.075));
#1148=CARTESIAN_POINT('',(-0.0560962431132793,0.00374001413583757,0.125));
#1149=CARTESIAN_POINT('',(-0.0560962431132793,0.00374001413583758,0.025));
#1150=CARTESIAN_POINT('',(-0.0560962431132793,0.118740014135838,0.125));
#1151=CARTESIAN_POINT('',(-0.0560962431132793,0.233740014135838,0.125));
#1152=CARTESIAN_POINT('',(-0.0560962431132793,0.233740014135838,0.0432055877619191));
#1153=CARTESIAN_POINT('',(-0.0560962431132793,0.233740014135838,0.025));
#1154=CARTESIAN_POINT('',(-0.0560962431132793,0.118740014135838,0.025));
#1155=CARTESIAN_POINT('',(-0.556096243113279,0.378740014135838,0.385));
#1156=CARTESIAN_POINT('',(-0.556096243113279,0.378740014135838,0.375));
#1157=CARTESIAN_POINT('',(-0.556096243113279,0.00874001413583753,0.375));
#1158=CARTESIAN_POINT('',(-0.556096243113279,-0.0212599858641625,0.375));
#1159=CARTESIAN_POINT('',(-0.556096243113279,0.00874001413583753,0.385));
#1160=CARTESIAN_POINT('',(-0.566096243113279,0.00874001413583753,0.385));
#1161=CARTESIAN_POINT('',(-0.566096243113279,0.378740014135838,0.385));
#1162=CARTESIAN_POINT('',(-0.566096243113279,-0.0212599858641625,0.385));
#1163=CARTESIAN_POINT('',(-0.556096243113279,-0.0212599858641625,0.385));
#1164=CARTESIAN_POINT('',(-0.106096243113279,0.378740014135838,0.385));
#1165=CARTESIAN_POINT('',(-0.106096243113279,0.378740014135838,0.375));
#1166=CARTESIAN_POINT('',(-0.106096243113279,-0.0212599858641625,0.375));
#1167=CARTESIAN_POINT('',(-0.106096243113279,0.00874001413583753,0.375));
#1168=CARTESIAN_POINT('',(-0.106096243113279,-0.0212599858641625,0.385));
#1169=CARTESIAN_POINT('',(-0.0960962431132791,-0.0212599858641625,0.385));
#1170=CARTESIAN_POINT('',(-0.0960962431132793,0.378740014135838,0.385));
#1171=CARTESIAN_POINT('',(-0.0960962431132791,0.00874001413583753,0.385));
#1172=CARTESIAN_POINT('',(-0.106096243113279,0.00874001413583753,0.385));
#1173=CARTESIAN_POINT('',(-0.33109624311328,0.778740014135838,0.4));
#1174=CARTESIAN_POINT('',(-0.33109624311328,0.778740014135838,0.55));
#1175=CARTESIAN_POINT('',(-0.593596243113279,0.778740014135838,0.55));
#1176=CARTESIAN_POINT('',(-0.0685962431132794,0.778740014135838,0.55));
#1177=CARTESIAN_POINT('',(-0.0685962431132794,0.778740014135838,0.5375));
#1178=CARTESIAN_POINT('',(-0.33109624311328,0.778740014135838,0.));
#1179=CARTESIAN_POINT('',(-0.606096243113279,0.778740014135838,0.));
#1180=CARTESIAN_POINT('',(-0.606096243113279,0.778740014135838,0.4));
#1181=CARTESIAN_POINT('',(-0.606096243113279,0.778740014135838,0.5375));
#1182=CARTESIAN_POINT('',(-0.593596243113279,0.778740014135838,0.5375));
#1183=CARTESIAN_POINT('',(-0.606096243113279,0.378740014135838,0.4));
#1184=CARTESIAN_POINT('',(-0.606096243113279,-0.0212599858641625,0.4));
#1185=CARTESIAN_POINT('',(-0.606096243113279,-0.0212599858641625,0.3875));
#1186=CARTESIAN_POINT('',(-0.606096243113279,-0.0212599858641625,0.));
#1187=CARTESIAN_POINT('',(-0.606096243113279,0.748740014135838,0.3875));
#1188=CARTESIAN_POINT('',(-0.606096243113279,0.761240014135838,0.3875));
#1189=CARTESIAN_POINT('',(-0.606096243113279,0.761240014135838,0.55));
#1190=CARTESIAN_POINT('',(-0.606096243113279,0.761240014135838,0.5375));
#1191=CARTESIAN_POINT('',(-0.606096243113279,0.778740014135838,0.5375));
#1192=CARTESIAN_POINT('',(-0.606096243113279,0.378740014135838,0.));
#1193=CARTESIAN_POINT('',(-0.33109624311328,-0.0212599858641625,0.4));
#1194=CARTESIAN_POINT('',(-0.566096243113279,-0.0212599858641625,0.375));
#1195=CARTESIAN_POINT('',(-0.566096243113279,-0.0212599858641625,0.3875));
#1196=CARTESIAN_POINT('',(-0.578596243113279,-0.0212599858641625,0.3875));
#1197=CARTESIAN_POINT('',(-0.593596243113279,-0.0212599858641625,0.3875));
#1198=CARTESIAN_POINT('',(-0.33109624311328,-0.0212599858641625,0.));
#1199=CARTESIAN_POINT('',(-0.0685962431132793,-0.0212599858641625,0.3875));
#1200=CARTESIAN_POINT('',(-0.0835962431132791,-0.0212599858641625,0.3875));
#1201=CARTESIAN_POINT('',(-0.0960962431132791,-0.0212599858641625,0.3875));
#1202=CARTESIAN_POINT('',(-0.0960962431132791,-0.0212599858641625,0.375));
#1203=CARTESIAN_POINT('',(-0.33109624311328,-0.0212599858641625,0.375));
#1204=CARTESIAN_POINT('',(-0.33109624311328,0.378740014135838,0.));
#1205=CARTESIAN_POINT('',(-0.566096243113279,0.378740014135838,0.25));
#1206=CARTESIAN_POINT('',(-0.56609624311328,0.748740014135838,0.25));
#1207=CARTESIAN_POINT('',(-0.56609624311328,0.748740014135838,0.25));
#1208=CARTESIAN_POINT('',(-0.56609624311328,0.748740014135838,0.3875));
#1209=CARTESIAN_POINT('',(-0.566096243113279,0.378740014135838,0.3875));
#1210=CARTESIAN_POINT('',(-0.566096243113279,0.00874001413583753,0.25));
#1211=CARTESIAN_POINT('',(-0.566096243113279,0.00874001413583753,0.25));
#1212=CARTESIAN_POINT('',(-0.566096243113279,0.378740014135838,0.25));
#1213=CARTESIAN_POINT('',(-0.33109624311328,0.00874001413583753,0.25));
#1214=CARTESIAN_POINT('',(-0.33109624311328,0.00874001413583753,0.375));
#1215=CARTESIAN_POINT('',(-0.0960962431132791,0.00874001413583758,0.25));
#1216=CARTESIAN_POINT('',(-0.0960962431132791,0.00874001413583758,0.25));
#1217=CARTESIAN_POINT('',(-0.33109624311328,0.00874001413583753,0.25));
#1218=CARTESIAN_POINT('',(-0.0960962431132793,0.378740014135838,0.25));
#1219=CARTESIAN_POINT('',(-0.0960962431132793,0.378740014135838,0.3875));
#1220=CARTESIAN_POINT('',(-0.0960962431132794,0.748740014135838,0.3875));
#1221=CARTESIAN_POINT('',(-0.0960962431132794,0.748740014135838,0.25));
#1222=CARTESIAN_POINT('',(-0.0960962431132794,0.748740014135838,0.25));
#1223=CARTESIAN_POINT('',(-0.0960962431132793,0.378740014135838,0.25));
#1224=CARTESIAN_POINT('',(-0.33109624311328,0.748740014135838,0.25));
#1225=CARTESIAN_POINT('',(-0.58609624311328,0.748740014135838,0.55));
#1226=CARTESIAN_POINT('',(-0.0685962431132794,0.748740014135838,0.55));
#1227=CARTESIAN_POINT('',(-0.593596243113279,0.748740014135838,0.55));
#1228=CARTESIAN_POINT('',(-0.593596243113279,0.748740014135838,0.4));
#1229=CARTESIAN_POINT('',(-0.57859624311328,0.748740014135838,0.3875));
#1230=CARTESIAN_POINT('',(-0.33109624311328,0.748740014135838,0.25));
#1231=CARTESIAN_POINT('',(-0.0835962431132794,0.748740014135838,0.3875));
#1232=CARTESIAN_POINT('',(-0.0685962431132794,0.748740014135838,0.25));
#1233=CARTESIAN_POINT('',(-0.33109624311328,0.378740014135838,0.25));
#1234=CARTESIAN_POINT('',(-0.33109624311328,0.378740014135838,0.375));
#1235=CARTESIAN_POINT('',(-0.306096243113279,0.639571514135838,0.125));
#1236=CARTESIAN_POINT('',(-0.306096243113279,0.525403014135838,0.125));
#1237=CARTESIAN_POINT('',(-0.306096243113279,0.525403014135838,0.125));
#1238=CARTESIAN_POINT('',(-0.306096243113279,0.639571514135838,0.125));
#1239=CARTESIAN_POINT('',(-0.306096243113279,0.753740014135838,0.125));
#1240=CARTESIAN_POINT('',(-0.306096243113279,0.753740014135838,0.125));
#1241=CARTESIAN_POINT('',(-0.306096243113279,0.525403014135838,0.0932055877619191));
#1242=CARTESIAN_POINT('',(-0.306096243113279,0.525403014135838,0.025));
#1243=CARTESIAN_POINT('',(-0.306096243113279,0.525403014135838,0.025));
#1244=CARTESIAN_POINT('',(-0.306096243113279,0.525403014135838,0.0932055877619191));
#1245=CARTESIAN_POINT('',(-0.306096243113279,0.639571514135838,0.025));
#1246=CARTESIAN_POINT('',(-0.306096243113279,0.753740014135838,0.025));
#1247=CARTESIAN_POINT('',(-0.306096243113279,0.753740014135838,0.025));
#1248=CARTESIAN_POINT('',(-0.306096243113279,0.639571514135838,0.025));
#1249=CARTESIAN_POINT('',(-0.306096243113279,0.753740014135838,0.075));
#1250=CARTESIAN_POINT('',(-0.306096243113279,0.753740014135838,0.075));
#1251=CARTESIAN_POINT('',(-0.306096243113279,0.378740014135838,0.2));
#1252=CARTESIAN_POINT('',(-0.306096243113279,0.379570014135838,0.125));
#1253=CARTESIAN_POINT('',(-0.306096243113279,0.267070014135838,0.125));
#1254=CARTESIAN_POINT('',(-0.306096243113279,0.267070014135838,0.125));
#1255=CARTESIAN_POINT('',(-0.306096243113279,0.379570014135838,0.125));
#1256=CARTESIAN_POINT('',(-0.306096243113279,0.492070014135838,0.125));
#1257=CARTESIAN_POINT('',(-0.306096243113279,0.492070014135838,0.125));
#1258=CARTESIAN_POINT('',(-0.306096243113279,0.267070014135838,0.0932055877619191));
#1259=CARTESIAN_POINT('',(-0.306096243113279,0.267070014135838,0.025));
#1260=CARTESIAN_POINT('',(-0.306096243113279,0.267070014135838,0.025));
#1261=CARTESIAN_POINT('',(-0.306096243113279,0.267070014135838,0.0932055877619191));
#1262=CARTESIAN_POINT('',(-0.306096243113279,0.379570014135838,0.025));
#1263=CARTESIAN_POINT('',(-0.306096243113279,0.492070014135838,0.025));
#1264=CARTESIAN_POINT('',(-0.306096243113279,0.492070014135838,0.025));
#1265=CARTESIAN_POINT('',(-0.306096243113279,0.379570014135838,0.025));
#1266=CARTESIAN_POINT('',(-0.306096243113279,0.492070014135838,0.0432055877619191));
#1267=CARTESIAN_POINT('',(-0.306096243113279,0.492070014135838,0.0432055877619191));
#1268=CARTESIAN_POINT('',(-0.306096243113279,0.378740014135838,0.2));
#1269=CARTESIAN_POINT('',(-0.306096243113279,0.118740014135838,0.125));
#1270=CARTESIAN_POINT('',(-0.306096243113279,0.00374001413583756,0.125));
#1271=CARTESIAN_POINT('',(-0.306096243113279,0.00374001413583756,0.125));
#1272=CARTESIAN_POINT('',(-0.306096243113279,0.118740014135838,0.125));
#1273=CARTESIAN_POINT('',(-0.306096243113279,0.233740014135838,0.125));
#1274=CARTESIAN_POINT('',(-0.306096243113279,0.233740014135838,0.125));
#1275=CARTESIAN_POINT('',(-0.306096243113279,0.00374001413583756,0.075));
#1276=CARTESIAN_POINT('',(-0.306096243113279,0.00374001413583756,0.025));
#1277=CARTESIAN_POINT('',(-0.306096243113279,0.00374001413583756,0.025));
#1278=CARTESIAN_POINT('',(-0.306096243113279,0.00374001413583756,0.075));
#1279=CARTESIAN_POINT('',(-0.306096243113279,0.118740014135838,0.025));
#1280=CARTESIAN_POINT('',(-0.306096243113279,0.233740014135838,0.025));
#1281=CARTESIAN_POINT('',(-0.306096243113279,0.233740014135838,0.025));
#1282=CARTESIAN_POINT('',(-0.306096243113279,0.118740014135838,0.025));
#1283=CARTESIAN_POINT('',(-0.306096243113279,0.233740014135838,0.0432055877619191));
#1284=CARTESIAN_POINT('',(-0.306096243113279,0.233740014135838,0.0432055877619191));
#1285=CARTESIAN_POINT('',(-0.306096243113279,0.378740014135838,0.2));
#1286=CARTESIAN_POINT('',(-0.306096243113279,0.00374001413583756,0.198887114338463));
#1287=CARTESIAN_POINT('',(-0.306096243113279,0.00374001413583756,0.15));
#1288=CARTESIAN_POINT('',(-0.306096243113279,0.00374001413583756,0.15));
#1289=CARTESIAN_POINT('',(-0.306096243113279,0.00374001413583756,0.198887114338463));
#1290=CARTESIAN_POINT('',(-0.306096243113279,0.00374001413583756,0.247774228676927));
#1291=CARTESIAN_POINT('',(-0.306096243113279,0.00374001413583756,0.247774228676927));
#1292=CARTESIAN_POINT('',(-0.306096243113279,0.379775644589073,0.15));
#1293=CARTESIAN_POINT('',(-0.306096243113279,0.755811275042308,0.15));
#1294=CARTESIAN_POINT('',(-0.306096243113279,0.755811275042308,0.15));
#1295=CARTESIAN_POINT('',(-0.306096243113279,0.379775644589073,0.15));
#1296=CARTESIAN_POINT('',(-0.306096243113279,0.755811275042308,0.198887114338463));
#1297=CARTESIAN_POINT('',(-0.306096243113279,0.755811275042308,0.247774228676927));
#1298=CARTESIAN_POINT('',(-0.306096243113279,0.755811275042308,0.247774228676927));
#1299=CARTESIAN_POINT('',(-0.306096243113279,0.755811275042308,0.198887114338463));
#1300=CARTESIAN_POINT('',(-0.306096243113279,0.379775644589073,0.247774228676927));
#1301=CARTESIAN_POINT('',(-0.306096243113279,0.379775644589073,0.247774228676927));
#1302=CARTESIAN_POINT('',(-0.306096243113279,0.378740014135838,0.2));
#1303=CARTESIAN_POINT('',(-0.33109624311328,0.378740014135838,0.55));
#1304=CARTESIAN_POINT('',(-0.0685962431132794,0.378740014135838,0.55));
#1305=CARTESIAN_POINT('',(-0.593596243113279,0.748740014135838,0.55));
#1306=CARTESIAN_POINT('',(-0.593596243113279,0.378740014135838,0.5375));
#1307=CARTESIAN_POINT('',(-0.593596243113279,0.761240014135838,0.5375));
#1308=CARTESIAN_POINT('',(-0.593596243113279,0.378740014135838,0.3875));
#1309=CARTESIAN_POINT('',(-0.593596243113279,0.761240014135838,0.3875));
#1310=CARTESIAN_POINT('',(-0.593596243113279,0.761240014135838,0.25));
#1311=CARTESIAN_POINT('',(-0.0685962431132794,0.378740014135838,0.5375));
#1312=CARTESIAN_POINT('',(-0.0685962431132794,0.761240014135838,0.5375));
#1313=CARTESIAN_POINT('',(-0.0685962431132794,0.378740014135838,0.3875));
#1314=CARTESIAN_POINT('',(-0.0685962431132794,0.761240014135838,0.3875));
#1315=CARTESIAN_POINT('',(-0.0685962431132794,0.761240014135838,0.4));
#1316=CARTESIAN_POINT('',(-0.578596243113279,0.378740014135838,0.3875));
#1317=CARTESIAN_POINT('',(-0.0835962431132793,0.378740014135838,0.3875));
#1318=MECHANICAL_DESIGN_GEOMETRIC_PRESENTATION_REPRESENTATION('',(#803),
#1319);
#1319=(
GEOMETRIC_REPRESENTATION_CONTEXT(3)
GLOBAL_UNCERTAINTY_ASSIGNED_CONTEXT((#1320))
GLOBAL_UNIT_ASSIGNED_CONTEXT((#1323,#1322,#1321))
REPRESENTATION_CONTEXT('Part 1','TOP_LEVEL_ASSEMBLY_PART')
);
#1320=UNCERTAINTY_MEASURE_WITH_UNIT(LENGTH_MEASURE(1.E-8),#1323,
'DISTANCE_ACCURACY_VALUE','Maximum Tolerance applied to model');
#1321=(
NAMED_UNIT(*)
SI_UNIT($,.STERADIAN.)
SOLID_ANGLE_UNIT()
);
#1322=(
NAMED_UNIT(*)
PLANE_ANGLE_UNIT()
SI_UNIT($,.RADIAN.)
);
#1323=(
LENGTH_UNIT()
NAMED_UNIT(*)
SI_UNIT($,.METRE.)
);
#1324=PRODUCT_DEFINITION_SHAPE('','',#1325);
#1325=PRODUCT_DEFINITION('','',#1327,#1326);
#1326=PRODUCT_DEFINITION_CONTEXT('',#1333,'design');
#1327=PRODUCT_DEFINITION_FORMATION_WITH_SPECIFIED_SOURCE('','',#1329,
 .NOT_KNOWN.);
#1328=PRODUCT_RELATED_PRODUCT_CATEGORY('','',(#1329));
#1329=PRODUCT('Part 1','Part 1','Part 1',(#1331));
#1330=PRODUCT_CATEGORY('','');
#1331=PRODUCT_CONTEXT('',#1333,'mechanical');
#1332=APPLICATION_PROTOCOL_DEFINITION('international standard',
'ap242_managed_model_based_3d_engineering',2020,#1333);
#1333=APPLICATION_CONTEXT('managed model based 3d engineering');
ENDSEC;
END-ISO-10303-21;
