ISO-10303-21;
HEADER;
/* Generated by software containing ST-Developer
 * from STEP Tools, Inc. (www.steptools.com) 
 */
/* OPTION: using custom renumber hook */

FILE_DESCRIPTION(
/* description */ ('STEP AP242 Edition 2',
'CAx-IF Rec.Pracs.---Representation and Presentation of Product Manufa
cturing Information (PMI)---4.0---2014-10-13',
'CAx-IF Rec.Pracs.---3D Tessellated Geometry---0.4---2014-09-14','2;1',
'CAx-IF Rec.Pracs.---User Defined Attributes---1.5---2016-08-15'),
/* implementation_level */ '2;1');

FILE_NAME(
/* name */ 'Part Studio 1',
/* time_stamp */ '2026-09-03T18:18:35Z',
/* author */ (''),
/* organization */ (''),
/* preprocessor_version */ 'ST-DEVELOPER v20',
/* originating_system */ 'ONSHAPE BY PTC INC, 1.220',
/* authorisation */ '  ');

FILE_SCHEMA (('AP242_MANAGED_MODEL_BASED_3D_ENGINEERING_MIM_LF { 1 0 10303 442 3 1 4 }'));
ENDSEC;

DATA;
#10=SHAPE_REPRESENTATION_RELATIONSHIP('','',#602,#12);
#11=SHAPE_REPRESENTATION_RELATIONSHIP('','',#603,#13);
#12=ADVANCED_BREP_SHAPE_REPRESENTATION('',(#598),#974);
#13=ADVANCED_BREP_SHAPE_REPRESENTATION('',(#599),#975);
#14=CYLINDRICAL_SURFACE('',#627,0.015);
#15=CYLINDRICAL_SURFACE('',#628,0.015);
#16=CYLINDRICAL_SURFACE('',#629,0.015);
#17=CYLINDRICAL_SURFACE('',#630,0.015);
#18=CYLINDRICAL_SURFACE('',#631,0.015);
#19=CYLINDRICAL_SURFACE('',#632,0.015);
#20=CIRCLE('',#614,0.015);
#21=CIRCLE('',#615,0.015);
#22=CIRCLE('',#616,0.015);
#23=CIRCLE('',#617,0.015);
#24=CIRCLE('',#618,0.015);
#25=CIRCLE('',#619,0.015);
#26=CIRCLE('',#621,0.015);
#27=CIRCLE('',#622,0.015);
#28=CIRCLE('',#623,0.015);
#29=CIRCLE('',#624,0.015);
#30=CIRCLE('',#625,0.015);
#31=CIRCLE('',#626,0.015);
#32=ORIENTED_EDGE('',*,*,#188,.T.);
#33=ORIENTED_EDGE('',*,*,#189,.T.);
#34=ORIENTED_EDGE('',*,*,#190,.F.);
#35=ORIENTED_EDGE('',*,*,#191,.T.);
#36=ORIENTED_EDGE('',*,*,#192,.F.);
#37=ORIENTED_EDGE('',*,*,#193,.T.);
#38=ORIENTED_EDGE('',*,*,#194,.T.);
#39=ORIENTED_EDGE('',*,*,#195,.T.);
#40=ORIENTED_EDGE('',*,*,#196,.T.);
#41=ORIENTED_EDGE('',*,*,#197,.T.);
#42=ORIENTED_EDGE('',*,*,#198,.F.);
#43=ORIENTED_EDGE('',*,*,#199,.T.);
#44=ORIENTED_EDGE('',*,*,#200,.T.);
#45=ORIENTED_EDGE('',*,*,#201,.T.);
#46=ORIENTED_EDGE('',*,*,#202,.F.);
#47=ORIENTED_EDGE('',*,*,#203,.F.);
#48=ORIENTED_EDGE('',*,*,#204,.T.);
#49=ORIENTED_EDGE('',*,*,#205,.F.);
#50=ORIENTED_EDGE('',*,*,#206,.F.);
#51=ORIENTED_EDGE('',*,*,#203,.T.);
#52=ORIENTED_EDGE('',*,*,#207,.F.);
#53=ORIENTED_EDGE('',*,*,#208,.T.);
#54=ORIENTED_EDGE('',*,*,#209,.T.);
#55=ORIENTED_EDGE('',*,*,#205,.T.);
#56=ORIENTED_EDGE('',*,*,#210,.F.);
#57=ORIENTED_EDGE('',*,*,#211,.T.);
#58=ORIENTED_EDGE('',*,*,#212,.T.);
#59=ORIENTED_EDGE('',*,*,#213,.T.);
#60=ORIENTED_EDGE('',*,*,#214,.T.);
#61=ORIENTED_EDGE('',*,*,#215,.T.);
#62=ORIENTED_EDGE('',*,*,#216,.F.);
#63=ORIENTED_EDGE('',*,*,#217,.T.);
#64=ORIENTED_EDGE('',*,*,#209,.F.);
#65=ORIENTED_EDGE('',*,*,#218,.T.);
#66=ORIENTED_EDGE('',*,*,#210,.T.);
#67=ORIENTED_EDGE('',*,*,#219,.T.);
#68=ORIENTED_EDGE('',*,*,#200,.F.);
#69=ORIENTED_EDGE('',*,*,#206,.T.);
#70=ORIENTED_EDGE('',*,*,#188,.F.);
#71=ORIENTED_EDGE('',*,*,#220,.T.);
#72=ORIENTED_EDGE('',*,*,#192,.T.);
#73=ORIENTED_EDGE('',*,*,#221,.T.);
#74=ORIENTED_EDGE('',*,*,#198,.T.);
#75=ORIENTED_EDGE('',*,*,#222,.T.);
#76=ORIENTED_EDGE('',*,*,#214,.F.);
#77=ORIENTED_EDGE('',*,*,#223,.T.);
#78=ORIENTED_EDGE('',*,*,#212,.F.);
#79=ORIENTED_EDGE('',*,*,#224,.T.);
#80=ORIENTED_EDGE('',*,*,#207,.T.);
#81=ORIENTED_EDGE('',*,*,#204,.F.);
#82=ORIENTED_EDGE('',*,*,#202,.T.);
#83=ORIENTED_EDGE('',*,*,#225,.T.);
#84=ORIENTED_EDGE('',*,*,#194,.F.);
#85=ORIENTED_EDGE('',*,*,#226,.T.);
#86=ORIENTED_EDGE('',*,*,#190,.T.);
#87=ORIENTED_EDGE('',*,*,#227,.T.);
#88=ORIENTED_EDGE('',*,*,#216,.T.);
#89=ORIENTED_EDGE('',*,*,#228,.T.);
#90=ORIENTED_EDGE('',*,*,#196,.F.);
#91=ORIENTED_EDGE('',*,*,#229,.T.);
#92=ORIENTED_EDGE('',*,*,#218,.F.);
#93=ORIENTED_EDGE('',*,*,#208,.F.);
#94=ORIENTED_EDGE('',*,*,#224,.F.);
#95=ORIENTED_EDGE('',*,*,#211,.F.);
#96=ORIENTED_EDGE('',*,*,#219,.F.);
#97=ORIENTED_EDGE('',*,*,#213,.F.);
#98=ORIENTED_EDGE('',*,*,#225,.F.);
#99=ORIENTED_EDGE('',*,*,#201,.F.);
#100=ORIENTED_EDGE('',*,*,#222,.F.);
#101=ORIENTED_EDGE('',*,*,#197,.F.);
#102=ORIENTED_EDGE('',*,*,#228,.F.);
#103=ORIENTED_EDGE('',*,*,#215,.F.);
#104=ORIENTED_EDGE('',*,*,#223,.F.);
#105=ORIENTED_EDGE('',*,*,#217,.F.);
#106=ORIENTED_EDGE('',*,*,#227,.F.);
#107=ORIENTED_EDGE('',*,*,#189,.F.);
#108=ORIENTED_EDGE('',*,*,#220,.F.);
#109=ORIENTED_EDGE('',*,*,#191,.F.);
#110=ORIENTED_EDGE('',*,*,#226,.F.);
#111=ORIENTED_EDGE('',*,*,#193,.F.);
#112=ORIENTED_EDGE('',*,*,#221,.F.);
#113=ORIENTED_EDGE('',*,*,#195,.F.);
#114=ORIENTED_EDGE('',*,*,#229,.F.);
#115=ORIENTED_EDGE('',*,*,#199,.F.);
#116=ORIENTED_EDGE('',*,*,#230,.T.);
#117=ORIENTED_EDGE('',*,*,#231,.F.);
#118=ORIENTED_EDGE('',*,*,#232,.F.);
#119=ORIENTED_EDGE('',*,*,#233,.T.);
#120=ORIENTED_EDGE('',*,*,#234,.F.);
#121=ORIENTED_EDGE('',*,*,#235,.T.);
#122=ORIENTED_EDGE('',*,*,#236,.T.);
#123=ORIENTED_EDGE('',*,*,#237,.F.);
#124=ORIENTED_EDGE('',*,*,#238,.F.);
#125=ORIENTED_EDGE('',*,*,#239,.T.);
#126=ORIENTED_EDGE('',*,*,#232,.T.);
#127=ORIENTED_EDGE('',*,*,#240,.F.);
#128=ORIENTED_EDGE('',*,*,#241,.F.);
#129=ORIENTED_EDGE('',*,*,#242,.T.);
#130=ORIENTED_EDGE('',*,*,#243,.T.);
#131=ORIENTED_EDGE('',*,*,#244,.F.);
#132=ORIENTED_EDGE('',*,*,#245,.F.);
#133=ORIENTED_EDGE('',*,*,#246,.F.);
#134=ORIENTED_EDGE('',*,*,#238,.T.);
#135=ORIENTED_EDGE('',*,*,#247,.T.);
#136=ORIENTED_EDGE('',*,*,#248,.T.);
#137=ORIENTED_EDGE('',*,*,#233,.F.);
#138=ORIENTED_EDGE('',*,*,#239,.F.);
#139=ORIENTED_EDGE('',*,*,#246,.T.);
#140=ORIENTED_EDGE('',*,*,#249,.F.);
#141=ORIENTED_EDGE('',*,*,#247,.F.);
#142=ORIENTED_EDGE('',*,*,#240,.T.);
#143=ORIENTED_EDGE('',*,*,#231,.T.);
#144=ORIENTED_EDGE('',*,*,#245,.T.);
#145=ORIENTED_EDGE('',*,*,#249,.T.);
#146=ORIENTED_EDGE('',*,*,#230,.F.);
#147=ORIENTED_EDGE('',*,*,#248,.F.);
#148=ORIENTED_EDGE('',*,*,#242,.F.);
#149=ORIENTED_EDGE('',*,*,#250,.F.);
#150=ORIENTED_EDGE('',*,*,#251,.T.);
#151=ORIENTED_EDGE('',*,*,#252,.T.);
#152=ORIENTED_EDGE('',*,*,#241,.T.);
#153=ORIENTED_EDGE('',*,*,#253,.F.);
#154=ORIENTED_EDGE('',*,*,#254,.F.);
#155=ORIENTED_EDGE('',*,*,#250,.T.);
#156=ORIENTED_EDGE('',*,*,#244,.T.);
#157=ORIENTED_EDGE('',*,*,#255,.F.);
#158=ORIENTED_EDGE('',*,*,#256,.F.);
#159=ORIENTED_EDGE('',*,*,#253,.T.);
#160=ORIENTED_EDGE('',*,*,#243,.F.);
#161=ORIENTED_EDGE('',*,*,#252,.F.);
#162=ORIENTED_EDGE('',*,*,#257,.T.);
#163=ORIENTED_EDGE('',*,*,#255,.T.);
#164=ORIENTED_EDGE('',*,*,#251,.F.);
#165=ORIENTED_EDGE('',*,*,#254,.T.);
#166=ORIENTED_EDGE('',*,*,#256,.T.);
#167=ORIENTED_EDGE('',*,*,#257,.F.);
#168=ORIENTED_EDGE('',*,*,#234,.T.);
#169=ORIENTED_EDGE('',*,*,#258,.F.);
#170=ORIENTED_EDGE('',*,*,#259,.F.);
#171=ORIENTED_EDGE('',*,*,#260,.T.);
#172=ORIENTED_EDGE('',*,*,#237,.T.);
#173=ORIENTED_EDGE('',*,*,#261,.F.);
#174=ORIENTED_EDGE('',*,*,#262,.F.);
#175=ORIENTED_EDGE('',*,*,#258,.T.);
#176=ORIENTED_EDGE('',*,*,#236,.F.);
#177=ORIENTED_EDGE('',*,*,#263,.F.);
#178=ORIENTED_EDGE('',*,*,#264,.T.);
#179=ORIENTED_EDGE('',*,*,#261,.T.);
#180=ORIENTED_EDGE('',*,*,#235,.F.);
#181=ORIENTED_EDGE('',*,*,#260,.F.);
#182=ORIENTED_EDGE('',*,*,#265,.T.);
#183=ORIENTED_EDGE('',*,*,#263,.T.);
#184=ORIENTED_EDGE('',*,*,#259,.T.);
#185=ORIENTED_EDGE('',*,*,#262,.T.);
#186=ORIENTED_EDGE('',*,*,#264,.F.);
#187=ORIENTED_EDGE('',*,*,#265,.F.);
#188=EDGE_CURVE('',#266,#267,#318,.T.);
#189=EDGE_CURVE('',#267,#268,#319,.T.);
#190=EDGE_CURVE('',#269,#268,#320,.T.);
#191=EDGE_CURVE('',#269,#266,#321,.F.);
#192=EDGE_CURVE('',#270,#271,#322,.T.);
#193=EDGE_CURVE('',#270,#272,#323,.T.);
#194=EDGE_CURVE('',#272,#273,#324,.T.);
#195=EDGE_CURVE('',#273,#271,#325,.F.);
#196=EDGE_CURVE('',#274,#275,#326,.T.);
#197=EDGE_CURVE('',#275,#276,#327,.F.);
#198=EDGE_CURVE('',#277,#276,#328,.T.);
#199=EDGE_CURVE('',#277,#274,#329,.T.);
#200=EDGE_CURVE('',#278,#279,#330,.T.);
#201=EDGE_CURVE('',#279,#280,#331,.T.);
#202=EDGE_CURVE('',#281,#280,#332,.T.);
#203=EDGE_CURVE('',#278,#281,#333,.T.);
#204=EDGE_CURVE('',#281,#282,#334,.T.);
#205=EDGE_CURVE('',#283,#282,#335,.T.);
#206=EDGE_CURVE('',#278,#283,#336,.T.);
#207=EDGE_CURVE('',#284,#282,#337,.T.);
#208=EDGE_CURVE('',#284,#285,#338,.F.);
#209=EDGE_CURVE('',#285,#283,#339,.T.);
#210=EDGE_CURVE('',#286,#287,#340,.T.);
#211=EDGE_CURVE('',#286,#288,#341,.T.);
#212=EDGE_CURVE('',#288,#289,#342,.T.);
#213=EDGE_CURVE('',#289,#287,#343,.F.);
#214=EDGE_CURVE('',#290,#291,#344,.T.);
#215=EDGE_CURVE('',#291,#292,#345,.T.);
#216=EDGE_CURVE('',#293,#292,#346,.T.);
#217=EDGE_CURVE('',#293,#290,#347,.F.);
#218=EDGE_CURVE('',#285,#286,#20,.T.);
#219=EDGE_CURVE('',#287,#279,#21,.T.);
#220=EDGE_CURVE('',#266,#270,#22,.F.);
#221=EDGE_CURVE('',#271,#277,#23,.F.);
#222=EDGE_CURVE('',#276,#291,#24,.F.);
#223=EDGE_CURVE('',#290,#267,#25,.F.);
#224=EDGE_CURVE('',#288,#284,#26,.F.);
#225=EDGE_CURVE('',#280,#289,#27,.F.);
#226=EDGE_CURVE('',#272,#269,#28,.T.);
#227=EDGE_CURVE('',#268,#293,#29,.T.);
#228=EDGE_CURVE('',#292,#275,#30,.T.);
#229=EDGE_CURVE('',#274,#273,#31,.T.);
#230=EDGE_CURVE('',#294,#295,#348,.T.);
#231=EDGE_CURVE('',#296,#295,#349,.T.);
#232=EDGE_CURVE('',#297,#296,#350,.T.);
#233=EDGE_CURVE('',#297,#294,#351,.T.);
#234=EDGE_CURVE('',#298,#299,#352,.T.);
#235=EDGE_CURVE('',#298,#300,#353,.T.);
#236=EDGE_CURVE('',#300,#301,#354,.T.);
#237=EDGE_CURVE('',#299,#301,#355,.T.);
#238=EDGE_CURVE('',#302,#303,#356,.T.);
#239=EDGE_CURVE('',#302,#297,#357,.T.);
#240=EDGE_CURVE('',#303,#296,#358,.T.);
#241=EDGE_CURVE('',#304,#305,#359,.T.);
#242=EDGE_CURVE('',#304,#306,#360,.T.);
#243=EDGE_CURVE('',#306,#307,#361,.T.);
#244=EDGE_CURVE('',#305,#307,#362,.T.);
#245=EDGE_CURVE('',#308,#309,#363,.T.);
#246=EDGE_CURVE('',#302,#308,#364,.T.);
#247=EDGE_CURVE('',#303,#309,#365,.T.);
#248=EDGE_CURVE('',#308,#294,#366,.T.);
#249=EDGE_CURVE('',#309,#295,#367,.T.);
#250=EDGE_CURVE('',#310,#304,#368,.T.);
#251=EDGE_CURVE('',#310,#311,#369,.T.);
#252=EDGE_CURVE('',#311,#306,#370,.T.);
#253=EDGE_CURVE('',#312,#305,#371,.T.);
#254=EDGE_CURVE('',#310,#312,#372,.T.);
#255=EDGE_CURVE('',#313,#307,#373,.T.);
#256=EDGE_CURVE('',#312,#313,#374,.T.);
#257=EDGE_CURVE('',#311,#313,#375,.T.);
#258=EDGE_CURVE('',#314,#299,#376,.T.);
#259=EDGE_CURVE('',#315,#314,#377,.T.);
#260=EDGE_CURVE('',#315,#298,#378,.T.);
#261=EDGE_CURVE('',#316,#301,#379,.T.);
#262=EDGE_CURVE('',#314,#316,#380,.T.);
#263=EDGE_CURVE('',#317,#300,#381,.T.);
#264=EDGE_CURVE('',#317,#316,#382,.T.);
#265=EDGE_CURVE('',#315,#317,#383,.T.);
#266=VERTEX_POINT('',#811);
#267=VERTEX_POINT('',#812);
#268=VERTEX_POINT('',#814);
#269=VERTEX_POINT('',#816);
#270=VERTEX_POINT('',#820);
#271=VERTEX_POINT('',#821);
#272=VERTEX_POINT('',#823);
#273=VERTEX_POINT('',#825);
#274=VERTEX_POINT('',#829);
#275=VERTEX_POINT('',#830);
#276=VERTEX_POINT('',#832);
#277=VERTEX_POINT('',#834);
#278=VERTEX_POINT('',#838);
#279=VERTEX_POINT('',#839);
#280=VERTEX_POINT('',#841);
#281=VERTEX_POINT('',#843);
#282=VERTEX_POINT('',#847);
#283=VERTEX_POINT('',#849);
#284=VERTEX_POINT('',#853);
#285=VERTEX_POINT('',#855);
#286=VERTEX_POINT('',#859);
#287=VERTEX_POINT('',#860);
#288=VERTEX_POINT('',#862);
#289=VERTEX_POINT('',#864);
#290=VERTEX_POINT('',#868);
#291=VERTEX_POINT('',#869);
#292=VERTEX_POINT('',#871);
#293=VERTEX_POINT('',#873);
#294=VERTEX_POINT('',#898);
#295=VERTEX_POINT('',#899);
#296=VERTEX_POINT('',#901);
#297=VERTEX_POINT('',#903);
#298=VERTEX_POINT('',#906);
#299=VERTEX_POINT('',#907);
#300=VERTEX_POINT('',#909);
#301=VERTEX_POINT('',#911);
#302=VERTEX_POINT('',#915);
#303=VERTEX_POINT('',#916);
#304=VERTEX_POINT('',#920);
#305=VERTEX_POINT('',#921);
#306=VERTEX_POINT('',#923);
#307=VERTEX_POINT('',#925);
#308=VERTEX_POINT('',#929);
#309=VERTEX_POINT('',#930);
#310=VERTEX_POINT('',#940);
#311=VERTEX_POINT('',#942);
#312=VERTEX_POINT('',#946);
#313=VERTEX_POINT('',#950);
#314=VERTEX_POINT('',#957);
#315=VERTEX_POINT('',#959);
#316=VERTEX_POINT('',#963);
#317=VERTEX_POINT('',#967);
#318=LINE('',#810,#384);
#319=LINE('',#813,#385);
#320=LINE('',#815,#386);
#321=LINE('',#817,#387);
#322=LINE('',#819,#388);
#323=LINE('',#822,#389);
#324=LINE('',#824,#390);
#325=LINE('',#826,#391);
#326=LINE('',#828,#392);
#327=LINE('',#831,#393);
#328=LINE('',#833,#394);
#329=LINE('',#835,#395);
#330=LINE('',#837,#396);
#331=LINE('',#840,#397);
#332=LINE('',#842,#398);
#333=LINE('',#844,#399);
#334=LINE('',#846,#400);
#335=LINE('',#848,#401);
#336=LINE('',#850,#402);
#337=LINE('',#852,#403);
#338=LINE('',#854,#404);
#339=LINE('',#856,#405);
#340=LINE('',#858,#406);
#341=LINE('',#861,#407);
#342=LINE('',#863,#408);
#343=LINE('',#865,#409);
#344=LINE('',#867,#410);
#345=LINE('',#870,#411);
#346=LINE('',#872,#412);
#347=LINE('',#874,#413);
#348=LINE('',#897,#414);
#349=LINE('',#900,#415);
#350=LINE('',#902,#416);
#351=LINE('',#904,#417);
#352=LINE('',#905,#418);
#353=LINE('',#908,#419);
#354=LINE('',#910,#420);
#355=LINE('',#912,#421);
#356=LINE('',#914,#422);
#357=LINE('',#917,#423);
#358=LINE('',#918,#424);
#359=LINE('',#919,#425);
#360=LINE('',#922,#426);
#361=LINE('',#924,#427);
#362=LINE('',#926,#428);
#363=LINE('',#928,#429);
#364=LINE('',#931,#430);
#365=LINE('',#932,#431);
#366=LINE('',#934,#432);
#367=LINE('',#936,#433);
#368=LINE('',#939,#434);
#369=LINE('',#941,#435);
#370=LINE('',#943,#436);
#371=LINE('',#945,#437);
#372=LINE('',#947,#438);
#373=LINE('',#949,#439);
#374=LINE('',#951,#440);
#375=LINE('',#953,#441);
#376=LINE('',#956,#442);
#377=LINE('',#958,#443);
#378=LINE('',#960,#444);
#379=LINE('',#962,#445);
#380=LINE('',#964,#446);
#381=LINE('',#966,#447);
#382=LINE('',#968,#448);
#383=LINE('',#970,#449);
#384=VECTOR('',#654,1.);
#385=VECTOR('',#655,1.);
#386=VECTOR('',#656,1.);
#387=VECTOR('',#657,1.);
#388=VECTOR('',#660,1.);
#389=VECTOR('',#661,1.);
#390=VECTOR('',#662,1.);
#391=VECTOR('',#663,1.);
#392=VECTOR('',#666,1.);
#393=VECTOR('',#667,1.);
#394=VECTOR('',#668,1.);
#395=VECTOR('',#669,1.);
#396=VECTOR('',#672,1.);
#397=VECTOR('',#673,1.);
#398=VECTOR('',#674,1.);
#399=VECTOR('',#675,1.);
#400=VECTOR('',#678,1.);
#401=VECTOR('',#679,1.);
#402=VECTOR('',#680,1.);
#403=VECTOR('',#683,1.);
#404=VECTOR('',#684,1.);
#405=VECTOR('',#685,1.);
#406=VECTOR('',#688,1.);
#407=VECTOR('',#689,1.);
#408=VECTOR('',#690,1.);
#409=VECTOR('',#691,1.);
#410=VECTOR('',#694,1.);
#411=VECTOR('',#695,1.);
#412=VECTOR('',#696,1.);
#413=VECTOR('',#697,1.);
#414=VECTOR('',#742,1.);
#415=VECTOR('',#743,1.);
#416=VECTOR('',#744,1.);
#417=VECTOR('',#745,1.);
#418=VECTOR('',#746,1.);
#419=VECTOR('',#747,1.);
#420=VECTOR('',#748,1.);
#421=VECTOR('',#749,1.);
#422=VECTOR('',#752,1.);
#423=VECTOR('',#753,1.);
#424=VECTOR('',#754,1.);
#425=VECTOR('',#755,1.);
#426=VECTOR('',#756,1.);
#427=VECTOR('',#757,1.);
#428=VECTOR('',#758,1.);
#429=VECTOR('',#761,1.);
#430=VECTOR('',#762,1.);
#431=VECTOR('',#763,1.);
#432=VECTOR('',#766,1.);
#433=VECTOR('',#769,1.);
#434=VECTOR('',#774,1.);
#435=VECTOR('',#775,1.);
#436=VECTOR('',#776,1.);
#437=VECTOR('',#779,1.);
#438=VECTOR('',#780,1.);
#439=VECTOR('',#783,1.);
#440=VECTOR('',#784,1.);
#441=VECTOR('',#787,1.);
#442=VECTOR('',#792,1.);
#443=VECTOR('',#793,1.);
#444=VECTOR('',#794,1.);
#445=VECTOR('',#797,1.);
#446=VECTOR('',#798,1.);
#447=VECTOR('',#801,1.);
#448=VECTOR('',#802,1.);
#449=VECTOR('',#805,1.);
#450=EDGE_LOOP('',(#32,#33,#34,#35));
#451=EDGE_LOOP('',(#36,#37,#38,#39));
#452=EDGE_LOOP('',(#40,#41,#42,#43));
#453=EDGE_LOOP('',(#44,#45,#46,#47));
#454=EDGE_LOOP('',(#48,#49,#50,#51));
#455=EDGE_LOOP('',(#52,#53,#54,#55));
#456=EDGE_LOOP('',(#56,#57,#58,#59));
#457=EDGE_LOOP('',(#60,#61,#62,#63));
#458=EDGE_LOOP('',(#64,#65,#66,#67,#68,#69));
#459=EDGE_LOOP('',(#70,#71,#72,#73,#74,#75,#76,#77));
#460=EDGE_LOOP('',(#78,#79,#80,#81,#82,#83));
#461=EDGE_LOOP('',(#84,#85,#86,#87,#88,#89,#90,#91));
#462=EDGE_LOOP('',(#92,#93,#94,#95));
#463=EDGE_LOOP('',(#96,#97,#98,#99));
#464=EDGE_LOOP('',(#100,#101,#102,#103));
#465=EDGE_LOOP('',(#104,#105,#106,#107));
#466=EDGE_LOOP('',(#108,#109,#110,#111));
#467=EDGE_LOOP('',(#112,#113,#114,#115));
#468=EDGE_LOOP('',(#116,#117,#118,#119));
#469=EDGE_LOOP('',(#120,#121,#122,#123));
#470=EDGE_LOOP('',(#124,#125,#126,#127));
#471=EDGE_LOOP('',(#128,#129,#130,#131));
#472=EDGE_LOOP('',(#132,#133,#134,#135));
#473=EDGE_LOOP('',(#136,#137,#138,#139));
#474=EDGE_LOOP('',(#140,#141,#142,#143));
#475=EDGE_LOOP('',(#144,#145,#146,#147));
#476=EDGE_LOOP('',(#148,#149,#150,#151));
#477=EDGE_LOOP('',(#152,#153,#154,#155));
#478=EDGE_LOOP('',(#156,#157,#158,#159));
#479=EDGE_LOOP('',(#160,#161,#162,#163));
#480=EDGE_LOOP('',(#164,#165,#166,#167));
#481=EDGE_LOOP('',(#168,#169,#170,#171));
#482=EDGE_LOOP('',(#172,#173,#174,#175));
#483=EDGE_LOOP('',(#176,#177,#178,#179));
#484=EDGE_LOOP('',(#180,#181,#182,#183));
#485=EDGE_LOOP('',(#184,#185,#186,#187));
#486=FACE_BOUND('',#450,.T.);
#487=FACE_BOUND('',#451,.T.);
#488=FACE_BOUND('',#452,.T.);
#489=FACE_BOUND('',#453,.T.);
#490=FACE_BOUND('',#454,.T.);
#491=FACE_BOUND('',#455,.T.);
#492=FACE_BOUND('',#456,.T.);
#493=FACE_BOUND('',#457,.T.);
#494=FACE_BOUND('',#458,.T.);
#495=FACE_BOUND('',#459,.T.);
#496=FACE_BOUND('',#460,.T.);
#497=FACE_BOUND('',#461,.T.);
#498=FACE_BOUND('',#462,.T.);
#499=FACE_BOUND('',#463,.T.);
#500=FACE_BOUND('',#464,.T.);
#501=FACE_BOUND('',#465,.T.);
#502=FACE_BOUND('',#466,.T.);
#503=FACE_BOUND('',#467,.T.);
#504=FACE_BOUND('',#468,.T.);
#505=FACE_BOUND('',#469,.T.);
#506=FACE_BOUND('',#470,.T.);
#507=FACE_BOUND('',#471,.T.);
#508=FACE_BOUND('',#472,.T.);
#509=FACE_BOUND('',#473,.T.);
#510=FACE_BOUND('',#474,.T.);
#511=FACE_BOUND('',#475,.T.);
#512=FACE_BOUND('',#476,.T.);
#513=FACE_BOUND('',#477,.T.);
#514=FACE_BOUND('',#478,.T.);
#515=FACE_BOUND('',#479,.T.);
#516=FACE_BOUND('',#480,.T.);
#517=FACE_BOUND('',#481,.T.);
#518=FACE_BOUND('',#482,.T.);
#519=FACE_BOUND('',#483,.T.);
#520=FACE_BOUND('',#484,.T.);
#521=FACE_BOUND('',#485,.T.);
#522=PLANE('',#605);
#523=PLANE('',#606);
#524=PLANE('',#607);
#525=PLANE('',#608);
#526=PLANE('',#609);
#527=PLANE('',#610);
#528=PLANE('',#611);
#529=PLANE('',#612);
#530=PLANE('',#613);
#531=PLANE('',#620);
#532=PLANE('',#634);
#533=PLANE('',#635);
#534=PLANE('',#636);
#535=PLANE('',#637);
#536=PLANE('',#638);
#537=PLANE('',#639);
#538=PLANE('',#640);
#539=PLANE('',#641);
#540=PLANE('',#642);
#541=PLANE('',#643);
#542=PLANE('',#644);
#543=PLANE('',#645);
#544=PLANE('',#646);
#545=PLANE('',#647);
#546=PLANE('',#648);
#547=PLANE('',#649);
#548=ADVANCED_FACE('',(#486),#522,.T.);
#549=ADVANCED_FACE('',(#487),#523,.F.);
#550=ADVANCED_FACE('',(#488),#524,.F.);
#551=ADVANCED_FACE('',(#489),#525,.T.);
#552=ADVANCED_FACE('',(#490),#526,.F.);
#553=ADVANCED_FACE('',(#491),#527,.T.);
#554=ADVANCED_FACE('',(#492),#528,.F.);
#555=ADVANCED_FACE('',(#493),#529,.T.);
#556=ADVANCED_FACE('',(#494,#495),#530,.T.);
#557=ADVANCED_FACE('',(#496,#497),#531,.F.);
#558=ADVANCED_FACE('',(#498),#14,.T.);
#559=ADVANCED_FACE('',(#499),#15,.T.);
#560=ADVANCED_FACE('',(#500),#16,.F.);
#561=ADVANCED_FACE('',(#501),#17,.F.);
#562=ADVANCED_FACE('',(#502),#18,.F.);
#563=ADVANCED_FACE('',(#503),#19,.F.);
#564=ADVANCED_FACE('',(#504,#505),#532,.F.);
#565=ADVANCED_FACE('',(#506,#507),#533,.T.);
#566=ADVANCED_FACE('',(#508),#534,.T.);
#567=ADVANCED_FACE('',(#509),#535,.F.);
#568=ADVANCED_FACE('',(#510),#536,.T.);
#569=ADVANCED_FACE('',(#511),#537,.F.);
#570=ADVANCED_FACE('',(#512),#538,.T.);
#571=ADVANCED_FACE('',(#513),#539,.F.);
#572=ADVANCED_FACE('',(#514),#540,.F.);
#573=ADVANCED_FACE('',(#515),#541,.T.);
#574=ADVANCED_FACE('',(#516),#542,.T.);
#575=ADVANCED_FACE('',(#517),#543,.F.);
#576=ADVANCED_FACE('',(#518),#544,.F.);
#577=ADVANCED_FACE('',(#519),#545,.T.);
#578=ADVANCED_FACE('',(#520),#546,.T.);
#579=ADVANCED_FACE('',(#521),#547,.T.);
#580=CLOSED_SHELL('',(#548,#549,#550,#551,#552,#553,#554,#555,#556,#557,
#558,#559,#560,#561,#562,#563));
#581=CLOSED_SHELL('',(#564,#565,#566,#567,#568,#569,#570,#571,#572,#573,
#574,#575,#576,#577,#578,#579));
#582=STYLED_ITEM('',(#584),#598);
#583=STYLED_ITEM('',(#585),#599);
#584=PRESENTATION_STYLE_ASSIGNMENT((#586));
#585=PRESENTATION_STYLE_ASSIGNMENT((#587));
#586=SURFACE_STYLE_USAGE(.BOTH.,#588);
#587=SURFACE_STYLE_USAGE(.BOTH.,#589);
#588=SURFACE_SIDE_STYLE('',(#590));
#589=SURFACE_SIDE_STYLE('',(#591));
#590=SURFACE_STYLE_FILL_AREA(#592);
#591=SURFACE_STYLE_FILL_AREA(#593);
#592=FILL_AREA_STYLE('',(#594));
#593=FILL_AREA_STYLE('',(#595));
#594=FILL_AREA_STYLE_COLOUR('',#596);
#595=FILL_AREA_STYLE_COLOUR('',#597);
#596=COLOUR_RGB('',0.647058823529412,0.647058823529412,0.647058823529412);
#597=COLOUR_RGB('',0.615686274509804,0.811764705882353,0.929411764705882);
#598=MANIFOLD_SOLID_BREP('Part 2',#580);
#599=MANIFOLD_SOLID_BREP('Part 1',#581);
#600=SHAPE_DEFINITION_REPRESENTATION(#984,#602);
#601=SHAPE_DEFINITION_REPRESENTATION(#985,#603);
#602=SHAPE_REPRESENTATION('Part 2',(#604),#974);
#603=SHAPE_REPRESENTATION('Part 1',(#633),#975);
#604=AXIS2_PLACEMENT_3D('',#808,#650,#651);
#605=AXIS2_PLACEMENT_3D('',#809,#652,#653);
#606=AXIS2_PLACEMENT_3D('',#818,#658,#659);
#607=AXIS2_PLACEMENT_3D('',#827,#664,#665);
#608=AXIS2_PLACEMENT_3D('',#836,#670,#671);
#609=AXIS2_PLACEMENT_3D('',#845,#676,#677);
#610=AXIS2_PLACEMENT_3D('',#851,#681,#682);
#611=AXIS2_PLACEMENT_3D('',#857,#686,#687);
#612=AXIS2_PLACEMENT_3D('',#866,#692,#693);
#613=AXIS2_PLACEMENT_3D('',#875,#698,#699);
#614=AXIS2_PLACEMENT_3D('',#876,#700,#701);
#615=AXIS2_PLACEMENT_3D('',#877,#702,#703);
#616=AXIS2_PLACEMENT_3D('',#878,#704,#705);
#617=AXIS2_PLACEMENT_3D('',#879,#706,#707);
#618=AXIS2_PLACEMENT_3D('',#880,#708,#709);
#619=AXIS2_PLACEMENT_3D('',#881,#710,#711);
#620=AXIS2_PLACEMENT_3D('',#882,#712,#713);
#621=AXIS2_PLACEMENT_3D('',#883,#714,#715);
#622=AXIS2_PLACEMENT_3D('',#884,#716,#717);
#623=AXIS2_PLACEMENT_3D('',#885,#718,#719);
#624=AXIS2_PLACEMENT_3D('',#886,#720,#721);
#625=AXIS2_PLACEMENT_3D('',#887,#722,#723);
#626=AXIS2_PLACEMENT_3D('',#888,#724,#725);
#627=AXIS2_PLACEMENT_3D('',#889,#726,#727);
#628=AXIS2_PLACEMENT_3D('',#890,#728,#729);
#629=AXIS2_PLACEMENT_3D('',#891,#730,#731);
#630=AXIS2_PLACEMENT_3D('',#892,#732,#733);
#631=AXIS2_PLACEMENT_3D('',#893,#734,#735);
#632=AXIS2_PLACEMENT_3D('',#894,#736,#737);
#633=AXIS2_PLACEMENT_3D('',#895,#738,#739);
#634=AXIS2_PLACEMENT_3D('',#896,#740,#741);
#635=AXIS2_PLACEMENT_3D('',#913,#750,#751);
#636=AXIS2_PLACEMENT_3D('',#927,#759,#760);
#637=AXIS2_PLACEMENT_3D('',#933,#764,#765);
#638=AXIS2_PLACEMENT_3D('',#935,#767,#768);
#639=AXIS2_PLACEMENT_3D('',#937,#770,#771);
#640=AXIS2_PLACEMENT_3D('',#938,#772,#773);
#641=AXIS2_PLACEMENT_3D('',#944,#777,#778);
#642=AXIS2_PLACEMENT_3D('',#948,#781,#782);
#643=AXIS2_PLACEMENT_3D('',#952,#785,#786);
#644=AXIS2_PLACEMENT_3D('',#954,#788,#789);
#645=AXIS2_PLACEMENT_3D('',#955,#790,#791);
#646=AXIS2_PLACEMENT_3D('',#961,#795,#796);
#647=AXIS2_PLACEMENT_3D('',#965,#799,#800);
#648=AXIS2_PLACEMENT_3D('',#969,#803,#804);
#649=AXIS2_PLACEMENT_3D('',#971,#806,#807);
#650=DIRECTION('',(0.,0.,1.));
#651=DIRECTION('',(1.,0.,0.));
#652=DIRECTION('',(1.,0.,0.));
#653=DIRECTION('',(0.,0.,-1.));
#654=DIRECTION('',(0.,0.,-1.));
#655=DIRECTION('',(0.,1.,0.));
#656=DIRECTION('',(0.,0.,-1.));
#657=DIRECTION('',(0.,1.,0.));
#658=DIRECTION('',(0.,0.,1.));
#659=DIRECTION('',(1.,0.,0.));
#660=DIRECTION('',(1.,0.,0.));
#661=DIRECTION('',(0.,1.,0.));
#662=DIRECTION('',(1.,0.,0.));
#663=DIRECTION('',(0.,1.,0.));
#664=DIRECTION('',(1.,0.,0.));
#665=DIRECTION('',(0.,0.,-1.));
#666=DIRECTION('',(0.,0.,-1.));
#667=DIRECTION('',(0.,1.,0.));
#668=DIRECTION('',(0.,0.,-1.));
#669=DIRECTION('',(0.,1.,0.));
#670=DIRECTION('',(-1.,0.,0.));
#671=DIRECTION('',(0.,0.,1.));
#672=DIRECTION('',(0.,0.,1.));
#673=DIRECTION('',(0.,1.,0.));
#674=DIRECTION('',(0.,0.,1.));
#675=DIRECTION('',(0.,1.,0.));
#676=DIRECTION('',(0.,0.,1.));
#677=DIRECTION('',(1.,0.,0.));
#678=DIRECTION('',(1.,0.,0.));
#679=DIRECTION('',(0.,1.,0.));
#680=DIRECTION('',(1.,0.,0.));
#681=DIRECTION('',(1.,0.,0.));
#682=DIRECTION('',(0.,0.,-1.));
#683=DIRECTION('',(0.,0.,-1.));
#684=DIRECTION('',(0.,1.,0.));
#685=DIRECTION('',(0.,0.,-1.));
#686=DIRECTION('',(0.,0.,-1.));
#687=DIRECTION('',(-1.,0.,0.));
#688=DIRECTION('',(-1.,0.,0.));
#689=DIRECTION('',(0.,1.,0.));
#690=DIRECTION('',(-1.,0.,0.));
#691=DIRECTION('',(0.,1.,0.));
#692=DIRECTION('',(0.,0.,1.));
#693=DIRECTION('',(1.,0.,0.));
#694=DIRECTION('',(1.,0.,0.));
#695=DIRECTION('',(0.,1.,0.));
#696=DIRECTION('',(1.,0.,0.));
#697=DIRECTION('',(0.,1.,0.));
#698=DIRECTION('',(0.,-1.,0.));
#699=DIRECTION('',(1.,0.,0.));
#700=DIRECTION('',(0.,-1.,0.));
#701=DIRECTION('',(0.,0.,-1.));
#702=DIRECTION('',(0.,-1.,0.));
#703=DIRECTION('',(0.,0.,-1.));
#704=DIRECTION('',(0.,-1.,0.));
#705=DIRECTION('',(0.,0.,-1.));
#706=DIRECTION('',(0.,-1.,0.));
#707=DIRECTION('',(0.,0.,-1.));
#708=DIRECTION('',(0.,-1.,0.));
#709=DIRECTION('',(0.,0.,-1.));
#710=DIRECTION('',(0.,-1.,0.));
#711=DIRECTION('',(0.,0.,-1.));
#712=DIRECTION('',(0.,-1.,0.));
#713=DIRECTION('',(1.,0.,0.));
#714=DIRECTION('',(0.,-1.,0.));
#715=DIRECTION('',(0.,0.,-1.));
#716=DIRECTION('',(0.,-1.,0.));
#717=DIRECTION('',(0.,0.,-1.));
#718=DIRECTION('',(0.,-1.,0.));
#719=DIRECTION('',(0.,0.,-1.));
#720=DIRECTION('',(0.,-1.,0.));
#721=DIRECTION('',(0.,0.,-1.));
#722=DIRECTION('',(0.,-1.,0.));
#723=DIRECTION('',(0.,0.,-1.));
#724=DIRECTION('',(0.,-1.,0.));
#725=DIRECTION('',(0.,0.,-1.));
#726=DIRECTION('',(0.,-1.,0.));
#727=DIRECTION('',(0.,0.,-1.));
#728=DIRECTION('',(0.,-1.,0.));
#729=DIRECTION('',(0.,0.,-1.));
#730=DIRECTION('',(0.,1.,0.));
#731=DIRECTION('',(0.,0.,1.));
#732=DIRECTION('',(0.,-1.,0.));
#733=DIRECTION('',(0.,0.,-1.));
#734=DIRECTION('',(0.,1.,0.));
#735=DIRECTION('',(0.,0.,1.));
#736=DIRECTION('',(0.,-1.,0.));
#737=DIRECTION('',(0.,0.,-1.));
#738=DIRECTION('',(0.,0.,1.));
#739=DIRECTION('',(1.,0.,0.));
#740=DIRECTION('',(0.,1.,0.));
#741=DIRECTION('',(0.,0.,1.));
#742=DIRECTION('',(1.,0.,0.));
#743=DIRECTION('',(0.,0.,-1.));
#744=DIRECTION('',(1.,0.,0.));
#745=DIRECTION('',(0.,0.,-1.));
#746=DIRECTION('',(-1.,0.,-1.6326809185664E-16));
#747=DIRECTION('',(0.,0.,-1.));
#748=DIRECTION('',(-1.,0.,-1.6326809185664E-16));
#749=DIRECTION('',(0.,0.,-1.));
#750=DIRECTION('',(0.,0.,1.));
#751=DIRECTION('',(1.,0.,0.));
#752=DIRECTION('',(1.,0.,0.));
#753=DIRECTION('',(5.33761069531325E-17,-1.,0.));
#754=DIRECTION('',(1.06752213906265E-16,-1.,0.));
#755=DIRECTION('',(-2.31296463463574E-16,1.,0.));
#756=DIRECTION('',(-1.,-1.32169407693471E-16,0.));
#757=DIRECTION('',(0.,1.,0.));
#758=DIRECTION('',(-1.,0.,0.));
#759=DIRECTION('',(0.,1.,0.));
#760=DIRECTION('',(0.,0.,1.));
#761=DIRECTION('',(1.,0.,0.));
#762=DIRECTION('',(0.,0.,-1.));
#763=DIRECTION('',(0.,0.,-1.));
#764=DIRECTION('',(1.,5.33761069531325E-17,0.));
#765=DIRECTION('',(-5.33761069531325E-17,1.,0.));
#766=DIRECTION('',(5.33761069531325E-17,-1.,0.));
#767=DIRECTION('',(1.,1.06752213906265E-16,0.));
#768=DIRECTION('',(-1.06752213906265E-16,1.,0.));
#769=DIRECTION('',(1.06752213906265E-16,-1.,0.));
#770=DIRECTION('',(0.,0.,1.));
#771=DIRECTION('',(1.,0.,0.));
#772=DIRECTION('',(-1.32169407693471E-16,1.,0.));
#773=DIRECTION('',(-1.,-1.32169407693471E-16,0.));
#774=DIRECTION('',(0.,0.,1.));
#775=DIRECTION('',(-1.,-1.32169407693471E-16,0.));
#776=DIRECTION('',(0.,0.,1.));
#777=DIRECTION('',(1.,2.31296463463574E-16,0.));
#778=DIRECTION('',(-2.31296463463574E-16,1.,0.));
#779=DIRECTION('',(0.,0.,1.));
#780=DIRECTION('',(-2.31296463463574E-16,1.,0.));
#781=DIRECTION('',(0.,1.,0.));
#782=DIRECTION('',(0.,0.,1.));
#783=DIRECTION('',(0.,0.,1.));
#784=DIRECTION('',(-1.,0.,0.));
#785=DIRECTION('',(1.,0.,0.));
#786=DIRECTION('',(0.,0.,-1.));
#787=DIRECTION('',(0.,1.,0.));
#788=DIRECTION('',(0.,0.,1.));
#789=DIRECTION('',(1.,0.,0.));
#790=DIRECTION('',(1.6326809185664E-16,0.,-1.));
#791=DIRECTION('',(-1.,0.,-1.6326809185664E-16));
#792=DIRECTION('',(0.,1.,0.));
#793=DIRECTION('',(-1.,0.,-1.6326809185664E-16));
#794=DIRECTION('',(0.,1.,0.));
#795=DIRECTION('',(1.,0.,0.));
#796=DIRECTION('',(0.,0.,-1.));
#797=DIRECTION('',(0.,1.,0.));
#798=DIRECTION('',(0.,0.,-1.));
#799=DIRECTION('',(1.6326809185664E-16,0.,-1.));
#800=DIRECTION('',(-1.,0.,-1.6326809185664E-16));
#801=DIRECTION('',(0.,1.,0.));
#802=DIRECTION('',(-1.,0.,-1.6326809185664E-16));
#803=DIRECTION('',(1.,0.,0.));
#804=DIRECTION('',(0.,0.,-1.));
#805=DIRECTION('',(0.,0.,-1.));
#806=DIRECTION('',(0.,-1.,0.));
#807=DIRECTION('',(1.,0.,0.));
#808=CARTESIAN_POINT('',(0.,0.,0.));
#809=CARTESIAN_POINT('',(-0.0600114152007259,-0.27,0.1));
#810=CARTESIAN_POINT('',(-0.0600114152007259,-0.27,0.1));
#811=CARTESIAN_POINT('',(-0.0600114152007259,-0.27,0.085));
#812=CARTESIAN_POINT('',(-0.0600114152007259,-0.27,0.015));
#813=CARTESIAN_POINT('',(-0.0600114152007259,-0.26,0.015));
#814=CARTESIAN_POINT('',(-0.0600114152007259,-0.26,0.015));
#815=CARTESIAN_POINT('',(-0.0600114152007259,-0.26,0.1));
#816=CARTESIAN_POINT('',(-0.0600114152007259,-0.26,0.085));
#817=CARTESIAN_POINT('',(-0.0600114152007259,-0.27,0.085));
#818=CARTESIAN_POINT('',(0.0549885847992741,-0.27,0.1));
#819=CARTESIAN_POINT('',(0.0549885847992741,-0.27,0.1));
#820=CARTESIAN_POINT('',(-0.0450114152007259,-0.27,0.1));
#821=CARTESIAN_POINT('',(0.154988584799274,-0.27,0.1));
#822=CARTESIAN_POINT('',(-0.0450114152007259,-0.27,0.1));
#823=CARTESIAN_POINT('',(-0.0450114152007259,-0.26,0.1));
#824=CARTESIAN_POINT('',(0.0549885847992741,-0.26,0.1));
#825=CARTESIAN_POINT('',(0.154988584799274,-0.26,0.1));
#826=CARTESIAN_POINT('',(0.154988584799274,-0.27,0.1));
#827=CARTESIAN_POINT('',(0.169988584799274,-0.27,0.1));
#828=CARTESIAN_POINT('',(0.169988584799274,-0.26,0.1));
#829=CARTESIAN_POINT('',(0.169988584799274,-0.26,0.085));
#830=CARTESIAN_POINT('',(0.169988584799274,-0.26,0.015));
#831=CARTESIAN_POINT('',(0.169988584799274,-0.27,0.015));
#832=CARTESIAN_POINT('',(0.169988584799274,-0.27,0.015));
#833=CARTESIAN_POINT('',(0.169988584799274,-0.27,0.1));
#834=CARTESIAN_POINT('',(0.169988584799274,-0.27,0.085));
#835=CARTESIAN_POINT('',(0.169988584799274,-0.26,0.085));
#836=CARTESIAN_POINT('',(-0.0700114152007259,-0.27,0.105));
#837=CARTESIAN_POINT('',(-0.0700114152007259,-0.27,0.105));
#838=CARTESIAN_POINT('',(-0.0700114152007259,-0.27,-0.01));
#839=CARTESIAN_POINT('',(-0.0700114152007259,-0.27,0.095));
#840=CARTESIAN_POINT('',(-0.0700114152007259,-0.26,0.095));
#841=CARTESIAN_POINT('',(-0.0700114152007259,-0.26,0.095));
#842=CARTESIAN_POINT('',(-0.0700114152007259,-0.26,0.105));
#843=CARTESIAN_POINT('',(-0.0700114152007259,-0.26,-0.01));
#844=CARTESIAN_POINT('',(-0.0700114152007259,-0.27,-0.01));
#845=CARTESIAN_POINT('',(0.174988584799274,-0.27,-0.01));
#846=CARTESIAN_POINT('',(0.174988584799274,-0.26,-0.01));
#847=CARTESIAN_POINT('',(0.179988584799274,-0.26,-0.01));
#848=CARTESIAN_POINT('',(0.179988584799274,-0.27,-0.01));
#849=CARTESIAN_POINT('',(0.179988584799274,-0.27,-0.01));
#850=CARTESIAN_POINT('',(0.174988584799274,-0.27,-0.01));
#851=CARTESIAN_POINT('',(0.179988584799274,-0.27,-0.005));
#852=CARTESIAN_POINT('',(0.179988584799274,-0.26,-0.005));
#853=CARTESIAN_POINT('',(0.179988584799274,-0.26,0.095));
#854=CARTESIAN_POINT('',(0.179988584799274,-0.27,0.095));
#855=CARTESIAN_POINT('',(0.179988584799274,-0.27,0.095));
#856=CARTESIAN_POINT('',(0.179988584799274,-0.27,-0.005));
#857=CARTESIAN_POINT('',(-0.0650114152007259,-0.27,0.11));
#858=CARTESIAN_POINT('',(-0.0650114152007259,-0.27,0.11));
#859=CARTESIAN_POINT('',(0.164988584799274,-0.27,0.11));
#860=CARTESIAN_POINT('',(-0.0550114152007259,-0.27,0.11));
#861=CARTESIAN_POINT('',(0.164988584799274,-0.26,0.11));
#862=CARTESIAN_POINT('',(0.164988584799274,-0.26,0.11));
#863=CARTESIAN_POINT('',(-0.0650114152007259,-0.26,0.11));
#864=CARTESIAN_POINT('',(-0.0550114152007259,-0.26,0.11));
#865=CARTESIAN_POINT('',(-0.0550114152007259,-0.27,0.11));
#866=CARTESIAN_POINT('',(0.0549885847992741,-0.27,0.));
#867=CARTESIAN_POINT('',(0.0549885847992741,-0.27,0.));
#868=CARTESIAN_POINT('',(-0.0450114152007259,-0.27,0.));
#869=CARTESIAN_POINT('',(0.154988584799274,-0.27,0.));
#870=CARTESIAN_POINT('',(0.154988584799274,-0.27,0.));
#871=CARTESIAN_POINT('',(0.154988584799274,-0.26,0.));
#872=CARTESIAN_POINT('',(0.0549885847992741,-0.26,0.));
#873=CARTESIAN_POINT('',(-0.0450114152007259,-0.26,0.));
#874=CARTESIAN_POINT('',(-0.0450114152007259,-0.27,0.));
#875=CARTESIAN_POINT('',(0.0549885847992741,-0.27,0.05));
#876=CARTESIAN_POINT('',(0.164988584799274,-0.27,0.095));
#877=CARTESIAN_POINT('',(-0.0550114152007259,-0.27,0.095));
#878=CARTESIAN_POINT('',(-0.0450114152007259,-0.27,0.085));
#879=CARTESIAN_POINT('',(0.154988584799274,-0.27,0.085));
#880=CARTESIAN_POINT('',(0.154988584799274,-0.27,0.015));
#881=CARTESIAN_POINT('',(-0.0450114152007259,-0.27,0.015));
#882=CARTESIAN_POINT('',(0.0549885847992741,-0.26,0.05));
#883=CARTESIAN_POINT('',(0.164988584799274,-0.26,0.095));
#884=CARTESIAN_POINT('',(-0.0550114152007259,-0.26,0.095));
#885=CARTESIAN_POINT('',(-0.0450114152007259,-0.26,0.085));
#886=CARTESIAN_POINT('',(-0.0450114152007259,-0.26,0.015));
#887=CARTESIAN_POINT('',(0.154988584799274,-0.26,0.015));
#888=CARTESIAN_POINT('',(0.154988584799274,-0.26,0.085));
#889=CARTESIAN_POINT('',(0.164988584799274,-0.27,0.095));
#890=CARTESIAN_POINT('',(-0.0550114152007259,-0.27,0.095));
#891=CARTESIAN_POINT('',(0.154988584799274,-0.27,0.015));
#892=CARTESIAN_POINT('',(-0.0450114152007259,-0.27,0.015));
#893=CARTESIAN_POINT('',(-0.0450114152007259,-0.27,0.085));
#894=CARTESIAN_POINT('',(0.154988584799274,-0.27,0.085));
#895=CARTESIAN_POINT('',(0.,0.,0.));
#896=CARTESIAN_POINT('',(0.0549885847992741,-0.26,0.1));
#897=CARTESIAN_POINT('',(0.0549885847992741,-0.26,0.));
#898=CARTESIAN_POINT('',(-0.0600114152007259,-0.26,0.));
#899=CARTESIAN_POINT('',(0.169988584799274,-0.26,0.));
#900=CARTESIAN_POINT('',(0.169988584799274,-0.26,0.1));
#901=CARTESIAN_POINT('',(0.169988584799274,-0.26,0.1));
#902=CARTESIAN_POINT('',(0.0549885847992741,-0.26,0.1));
#903=CARTESIAN_POINT('',(-0.0600114152007259,-0.26,0.1));
#904=CARTESIAN_POINT('',(-0.0600114152007259,-0.26,0.1));
#905=CARTESIAN_POINT('',(0.0862385847992741,-0.26,0.0575));
#906=CARTESIAN_POINT('',(0.107488584799274,-0.26,0.0575));
#907=CARTESIAN_POINT('',(0.0224885847992741,-0.26,0.0575));
#908=CARTESIAN_POINT('',(0.107488584799274,-0.26,0.05));
#909=CARTESIAN_POINT('',(0.107488584799274,-0.26,0.0425));
#910=CARTESIAN_POINT('',(0.0649885847992741,-0.26,0.0425));
#911=CARTESIAN_POINT('',(0.0224885847992741,-0.26,0.0425));
#912=CARTESIAN_POINT('',(0.0224885847992741,-0.26,0.04625));
#913=CARTESIAN_POINT('',(0.0549885847992741,-0.13,0.1));
#914=CARTESIAN_POINT('',(0.0549885847992741,0.,0.1));
#915=CARTESIAN_POINT('',(-0.0600114152007259,0.,0.1));
#916=CARTESIAN_POINT('',(0.169988584799274,0.,0.1));
#917=CARTESIAN_POINT('',(-0.0600114152007259,-0.13,0.1));
#918=CARTESIAN_POINT('',(0.169988584799274,-0.13,0.1));
#919=CARTESIAN_POINT('',(0.159988584799274,-0.13,0.1));
#920=CARTESIAN_POINT('',(0.159988584799274,-0.25,0.1));
#921=CARTESIAN_POINT('',(0.159988584799274,-0.01,0.1));
#922=CARTESIAN_POINT('',(0.0549885847992741,-0.25,0.1));
#923=CARTESIAN_POINT('',(-0.0500114152007259,-0.25,0.1));
#924=CARTESIAN_POINT('',(-0.0500114152007259,-0.13,0.1));
#925=CARTESIAN_POINT('',(-0.0500114152007259,-0.01,0.1));
#926=CARTESIAN_POINT('',(0.0549885847992741,-0.01,0.1));
#927=CARTESIAN_POINT('',(0.0549885847992741,0.,0.1));
#928=CARTESIAN_POINT('',(0.0549885847992741,0.,0.));
#929=CARTESIAN_POINT('',(-0.0600114152007259,0.,0.));
#930=CARTESIAN_POINT('',(0.169988584799274,0.,0.));
#931=CARTESIAN_POINT('',(-0.0600114152007259,0.,0.1));
#932=CARTESIAN_POINT('',(0.169988584799274,0.,0.1));
#933=CARTESIAN_POINT('',(-0.0600114152007259,-0.13,0.1));
#934=CARTESIAN_POINT('',(-0.0600114152007259,-0.13,0.));
#935=CARTESIAN_POINT('',(0.169988584799274,-0.13,0.1));
#936=CARTESIAN_POINT('',(0.169988584799274,-0.13,0.));
#937=CARTESIAN_POINT('',(0.0549885847992741,-0.13,0.));
#938=CARTESIAN_POINT('',(0.0549885847992741,-0.25,0.01));
#939=CARTESIAN_POINT('',(0.159988584799274,-0.25,0.01));
#940=CARTESIAN_POINT('',(0.159988584799274,-0.25,0.01));
#941=CARTESIAN_POINT('',(0.0549885847992741,-0.25,0.01));
#942=CARTESIAN_POINT('',(-0.0500114152007259,-0.25,0.01));
#943=CARTESIAN_POINT('',(-0.0500114152007259,-0.25,0.01));
#944=CARTESIAN_POINT('',(0.159988584799274,-0.13,0.01));
#945=CARTESIAN_POINT('',(0.159988584799274,-0.01,0.01));
#946=CARTESIAN_POINT('',(0.159988584799274,-0.01,0.01));
#947=CARTESIAN_POINT('',(0.159988584799274,-0.13,0.01));
#948=CARTESIAN_POINT('',(0.0549885847992741,-0.01,0.01));
#949=CARTESIAN_POINT('',(-0.0500114152007259,-0.01,0.01));
#950=CARTESIAN_POINT('',(-0.0500114152007259,-0.01,0.01));
#951=CARTESIAN_POINT('',(0.0549885847992741,-0.01,0.01));
#952=CARTESIAN_POINT('',(-0.0500114152007259,-0.13,0.01));
#953=CARTESIAN_POINT('',(-0.0500114152007259,-0.13,0.01));
#954=CARTESIAN_POINT('',(0.0549885847992741,-0.13,0.01));
#955=CARTESIAN_POINT('',(0.0862385847992741,-0.2635,0.0575));
#956=CARTESIAN_POINT('',(0.0224885847992741,-0.2635,0.0575));
#957=CARTESIAN_POINT('',(0.0224885847992741,-0.2635,0.0575));
#958=CARTESIAN_POINT('',(0.0862385847992741,-0.2635,0.0575));
#959=CARTESIAN_POINT('',(0.107488584799274,-0.2635,0.0575));
#960=CARTESIAN_POINT('',(0.107488584799274,-0.2635,0.0575));
#961=CARTESIAN_POINT('',(0.0224885847992741,-0.2635,0.04625));
#962=CARTESIAN_POINT('',(0.0224885847992741,-0.2635,0.0425));
#963=CARTESIAN_POINT('',(0.0224885847992741,-0.2635,0.0425));
#964=CARTESIAN_POINT('',(0.0224885847992741,-0.2635,0.04625));
#965=CARTESIAN_POINT('',(0.0649885847992741,-0.2635,0.0425));
#966=CARTESIAN_POINT('',(0.107488584799274,-0.2635,0.0425));
#967=CARTESIAN_POINT('',(0.107488584799274,-0.2635,0.0425));
#968=CARTESIAN_POINT('',(0.0649885847992741,-0.2635,0.0425));
#969=CARTESIAN_POINT('',(0.107488584799274,-0.2635,0.05));
#970=CARTESIAN_POINT('',(0.107488584799274,-0.2635,0.05));
#971=CARTESIAN_POINT('',(0.0549885847992741,-0.2635,0.05));
#972=MECHANICAL_DESIGN_GEOMETRIC_PRESENTATION_REPRESENTATION('',(#582),
#974);
#973=MECHANICAL_DESIGN_GEOMETRIC_PRESENTATION_REPRESENTATION('',(#583),
#975);
#974=(
GEOMETRIC_REPRESENTATION_CONTEXT(3)
GLOBAL_UNCERTAINTY_ASSIGNED_CONTEXT((#976))
GLOBAL_UNIT_ASSIGNED_CONTEXT((#982,#980,#978))
REPRESENTATION_CONTEXT('Part 2','TOP_LEVEL_ASSEMBLY_PART')
);
#975=(
GEOMETRIC_REPRESENTATION_CONTEXT(3)
GLOBAL_UNCERTAINTY_ASSIGNED_CONTEXT((#977))
GLOBAL_UNIT_ASSIGNED_CONTEXT((#983,#981,#979))
REPRESENTATION_CONTEXT('Part 1','TOP_LEVEL_ASSEMBLY_PART')
);
#976=UNCERTAINTY_MEASURE_WITH_UNIT(LENGTH_MEASURE(1.E-8),#982,
'DISTANCE_ACCURACY_VALUE','Maximum Tolerance applied to model');
#977=UNCERTAINTY_MEASURE_WITH_UNIT(LENGTH_MEASURE(1.E-8),#983,
'DISTANCE_ACCURACY_VALUE','Maximum Tolerance applied to model');
#978=(
NAMED_UNIT(*)
SI_UNIT($,.STERADIAN.)
SOLID_ANGLE_UNIT()
);
#979=(
NAMED_UNIT(*)
SI_UNIT($,.STERADIAN.)
SOLID_ANGLE_UNIT()
);
#980=(
NAMED_UNIT(*)
PLANE_ANGLE_UNIT()
SI_UNIT($,.RADIAN.)
);
#981=(
NAMED_UNIT(*)
PLANE_ANGLE_UNIT()
SI_UNIT($,.RADIAN.)
);
#982=(
LENGTH_UNIT()
NAMED_UNIT(*)
SI_UNIT($,.METRE.)
);
#983=(
LENGTH_UNIT()
NAMED_UNIT(*)
SI_UNIT($,.METRE.)
);
#984=PRODUCT_DEFINITION_SHAPE('','',#986);
#985=PRODUCT_DEFINITION_SHAPE('','',#987);
#986=PRODUCT_DEFINITION('','',#990,#988);
#987=PRODUCT_DEFINITION('','',#991,#989);
#988=PRODUCT_DEFINITION_CONTEXT('',#1002,'design');
#989=PRODUCT_DEFINITION_CONTEXT('',#1003,'design');
#990=PRODUCT_DEFINITION_FORMATION_WITH_SPECIFIED_SOURCE('','',#994,
 .NOT_KNOWN.);
#991=PRODUCT_DEFINITION_FORMATION_WITH_SPECIFIED_SOURCE('','',#995,
 .NOT_KNOWN.);
#992=PRODUCT_RELATED_PRODUCT_CATEGORY('','',(#994));
#993=PRODUCT_RELATED_PRODUCT_CATEGORY('','',(#995));
#994=PRODUCT('Part 2','Part 2','Part 2',(#998));
#995=PRODUCT('Part 1','Part 1','Part 1',(#999));
#996=PRODUCT_CATEGORY('','');
#997=PRODUCT_CATEGORY('','');
#998=PRODUCT_CONTEXT('',#1002,'mechanical');
#999=PRODUCT_CONTEXT('',#1003,'mechanical');
#1000=APPLICATION_PROTOCOL_DEFINITION('international standard',
'ap242_managed_model_based_3d_engineering',2020,#1002);
#1001=APPLICATION_PROTOCOL_DEFINITION('international standard',
'ap242_managed_model_based_3d_engineering',2020,#1003);
#1002=APPLICATION_CONTEXT('managed model based 3d engineering');
#1003=APPLICATION_CONTEXT('managed model based 3d engineering');
ENDSEC;
END-ISO-10303-21;
