ISO-10303-21;
HEADER;
/* Generated by software containing ST-Developer
 * from STEP Tools, Inc. (www.steptools.com) 
 */
/* OPTION: using custom renumber hook */

FILE_DESCRIPTION(
/* description */ ('STEP AP242 Edition 2',
'CAx-IF Rec.Pracs.---Representation and Presentation of Product Manufa
cturing Information (PMI)---4.0---2014-10-13',
'CAx-IF Rec.Pracs.---3D Tessellated Geometry---0.4---2014-09-14','2;1',
'CAx-IF Rec.Pracs.---User Defined Attributes---1.5---2016-08-15'),
/* implementation_level */ '2;1');

FILE_NAME(
/* name */ 'Part Studio 1 - Part 1',
/* time_stamp */ '2026-09-03T18:16:44Z',
/* author */ (''),
/* organization */ (''),
/* preprocessor_version */ 'ST-DEVELOPER v20',
/* originating_system */ 'ONSHAPE BY PTC INC, 1.220',
/* authorisation */ '  ');

FILE_SCHEMA (('AP242_MANAGED_MODEL_BASED_3D_ENGINEERING_MIM_LF { 1 0 10303 442 3 1 4 }'));
ENDSEC;

DATA;
#10=SHAPE_REPRESENTATION_RELATIONSHIP('','',#171,#11);
#11=ADVANCED_BREP_SHAPE_REPRESENTATION('',(#169),#277);
#12=PLANE('',#181);
#13=PLANE('',#182);
#14=PLANE('',#183);
#15=PLANE('',#184);
#16=PLANE('',#185);
#17=PLANE('',#186);
#18=LINE('',#238,#34);
#19=LINE('',#242,#35);
#20=LINE('',#244,#36);
#21=LINE('',#248,#37);
#22=LINE('',#250,#38);
#23=LINE('',#254,#39);
#24=LINE('',#256,#40);
#25=LINE('',#257,#41);
#26=LINE('',#259,#42);
#27=LINE('',#261,#43);
#28=LINE('',#263,#44);
#29=LINE('',#265,#45);
#30=LINE('',#267,#46);
#31=LINE('',#269,#47);
#32=LINE('',#271,#48);
#33=LINE('',#273,#49);
#34=VECTOR('',#193,1.);
#35=VECTOR('',#196,1.);
#36=VECTOR('',#199,1.);
#37=VECTOR('',#202,1.);
#38=VECTOR('',#205,1.);
#39=VECTOR('',#208,1.);
#40=VECTOR('',#211,1.);
#41=VECTOR('',#212,1.);
#42=VECTOR('',#215,1.);
#43=VECTOR('',#216,1.);
#44=VECTOR('',#217,1.);
#45=VECTOR('',#220,1.);
#46=VECTOR('',#221,1.);
#47=VECTOR('',#224,1.);
#48=VECTOR('',#225,1.);
#49=VECTOR('',#228,1.);
#50=ORIENTED_EDGE('',*,*,#90,.F.);
#51=ORIENTED_EDGE('',*,*,#91,.F.);
#52=ORIENTED_EDGE('',*,*,#92,.T.);
#53=ORIENTED_EDGE('',*,*,#93,.F.);
#54=ORIENTED_EDGE('',*,*,#92,.F.);
#55=ORIENTED_EDGE('',*,*,#94,.F.);
#56=ORIENTED_EDGE('',*,*,#95,.T.);
#57=ORIENTED_EDGE('',*,*,#96,.F.);
#58=ORIENTED_EDGE('',*,*,#95,.F.);
#59=ORIENTED_EDGE('',*,*,#97,.F.);
#60=ORIENTED_EDGE('',*,*,#98,.T.);
#61=ORIENTED_EDGE('',*,*,#99,.F.);
#62=ORIENTED_EDGE('',*,*,#100,.F.);
#63=ORIENTED_EDGE('',*,*,#90,.T.);
#64=ORIENTED_EDGE('',*,*,#101,.F.);
#65=ORIENTED_EDGE('',*,*,#98,.F.);
#66=ORIENTED_EDGE('',*,*,#102,.F.);
#67=ORIENTED_EDGE('',*,*,#97,.T.);
#68=ORIENTED_EDGE('',*,*,#103,.T.);
#69=ORIENTED_EDGE('',*,*,#104,.F.);
#70=ORIENTED_EDGE('',*,*,#105,.F.);
#71=ORIENTED_EDGE('',*,*,#100,.T.);
#72=ORIENTED_EDGE('',*,*,#102,.T.);
#73=ORIENTED_EDGE('',*,*,#106,.T.);
#74=ORIENTED_EDGE('',*,*,#107,.F.);
#75=ORIENTED_EDGE('',*,*,#91,.T.);
#76=ORIENTED_EDGE('',*,*,#105,.T.);
#77=ORIENTED_EDGE('',*,*,#108,.T.);
#78=ORIENTED_EDGE('',*,*,#103,.F.);
#79=ORIENTED_EDGE('',*,*,#94,.T.);
#80=ORIENTED_EDGE('',*,*,#107,.T.);
#81=ORIENTED_EDGE('',*,*,#109,.F.);
#82=ORIENTED_EDGE('',*,*,#99,.T.);
#83=ORIENTED_EDGE('',*,*,#101,.T.);
#84=ORIENTED_EDGE('',*,*,#93,.T.);
#85=ORIENTED_EDGE('',*,*,#96,.T.);
#86=ORIENTED_EDGE('',*,*,#104,.T.);
#87=ORIENTED_EDGE('',*,*,#109,.T.);
#88=ORIENTED_EDGE('',*,*,#108,.F.);
#89=ORIENTED_EDGE('',*,*,#106,.F.);
#90=EDGE_CURVE('',#110,#111,#122,.F.);
#91=EDGE_CURVE('',#112,#110,#18,.T.);
#92=EDGE_CURVE('',#112,#113,#123,.F.);
#93=EDGE_CURVE('',#111,#113,#19,.F.);
#94=EDGE_CURVE('',#114,#112,#20,.T.);
#95=EDGE_CURVE('',#114,#115,#124,.T.);
#96=EDGE_CURVE('',#113,#115,#21,.F.);
#97=EDGE_CURVE('',#116,#114,#22,.T.);
#98=EDGE_CURVE('',#116,#117,#125,.T.);
#99=EDGE_CURVE('',#115,#117,#23,.F.);
#100=EDGE_CURVE('',#110,#116,#24,.T.);
#101=EDGE_CURVE('',#117,#111,#25,.F.);
#102=EDGE_CURVE('',#116,#118,#26,.T.);
#103=EDGE_CURVE('',#114,#119,#27,.T.);
#104=EDGE_CURVE('',#118,#119,#28,.T.);
#105=EDGE_CURVE('',#110,#120,#29,.T.);
#106=EDGE_CURVE('',#118,#120,#30,.T.);
#107=EDGE_CURVE('',#112,#121,#31,.T.);
#108=EDGE_CURVE('',#120,#121,#32,.T.);
#109=EDGE_CURVE('',#119,#121,#33,.T.);
#110=VERTEX_POINT('',#236);
#111=VERTEX_POINT('',#237);
#112=VERTEX_POINT('',#239);
#113=VERTEX_POINT('',#241);
#114=VERTEX_POINT('',#245);
#115=VERTEX_POINT('',#247);
#116=VERTEX_POINT('',#251);
#117=VERTEX_POINT('',#253);
#118=VERTEX_POINT('',#260);
#119=VERTEX_POINT('',#262);
#120=VERTEX_POINT('',#266);
#121=VERTEX_POINT('',#270);
#122=ELLIPSE('',#174,0.0989949493661166,0.07);
#123=ELLIPSE('',#175,0.0989949493661167,0.07);
#124=ELLIPSE('',#177,0.0989949493661166,0.07);
#125=ELLIPSE('',#179,0.0989949493661166,0.07);
#126=EDGE_LOOP('',(#50,#51,#52,#53));
#127=EDGE_LOOP('',(#54,#55,#56,#57));
#128=EDGE_LOOP('',(#58,#59,#60,#61));
#129=EDGE_LOOP('',(#62,#63,#64,#65));
#130=EDGE_LOOP('',(#66,#67,#68,#69));
#131=EDGE_LOOP('',(#70,#71,#72,#73));
#132=EDGE_LOOP('',(#74,#75,#76,#77));
#133=EDGE_LOOP('',(#78,#79,#80,#81));
#134=EDGE_LOOP('',(#82,#83,#84,#85));
#135=EDGE_LOOP('',(#86,#87,#88,#89));
#136=FACE_BOUND('',#126,.T.);
#137=FACE_BOUND('',#127,.T.);
#138=FACE_BOUND('',#128,.T.);
#139=FACE_BOUND('',#129,.T.);
#140=FACE_BOUND('',#130,.T.);
#141=FACE_BOUND('',#131,.T.);
#142=FACE_BOUND('',#132,.T.);
#143=FACE_BOUND('',#133,.T.);
#144=FACE_BOUND('',#134,.T.);
#145=FACE_BOUND('',#135,.T.);
#146=CYLINDRICAL_SURFACE('',#173,0.07);
#147=CYLINDRICAL_SURFACE('',#176,0.07);
#148=CYLINDRICAL_SURFACE('',#178,0.07);
#149=CYLINDRICAL_SURFACE('',#180,0.07);
#150=ADVANCED_FACE('',(#136),#146,.T.);
#151=ADVANCED_FACE('',(#137),#147,.T.);
#152=ADVANCED_FACE('',(#138),#148,.T.);
#153=ADVANCED_FACE('',(#139),#149,.T.);
#154=ADVANCED_FACE('',(#140),#12,.T.);
#155=ADVANCED_FACE('',(#141),#13,.F.);
#156=ADVANCED_FACE('',(#142),#14,.F.);
#157=ADVANCED_FACE('',(#143),#15,.T.);
#158=ADVANCED_FACE('',(#144),#16,.T.);
#159=ADVANCED_FACE('',(#145),#17,.F.);
#160=CLOSED_SHELL('',(#150,#151,#152,#153,#154,#155,#156,#157,#158,#159));
#161=STYLED_ITEM('',(#162),#169);
#162=PRESENTATION_STYLE_ASSIGNMENT((#163));
#163=SURFACE_STYLE_USAGE(.BOTH.,#164);
#164=SURFACE_SIDE_STYLE('',(#165));
#165=SURFACE_STYLE_FILL_AREA(#166);
#166=FILL_AREA_STYLE('',(#167));
#167=FILL_AREA_STYLE_COLOUR('',#168);
#168=COLOUR_RGB('',0.615686274509804,0.811764705882353,0.929411764705882);
#169=MANIFOLD_SOLID_BREP('Part 1',#160);
#170=SHAPE_DEFINITION_REPRESENTATION(#282,#171);
#171=SHAPE_REPRESENTATION('Part 1',(#172),#277);
#172=AXIS2_PLACEMENT_3D('',#233,#187,#188);
#173=AXIS2_PLACEMENT_3D('',#234,#189,#190);
#174=AXIS2_PLACEMENT_3D('',#235,#191,#192);
#175=AXIS2_PLACEMENT_3D('',#240,#194,#195);
#176=AXIS2_PLACEMENT_3D('',#243,#197,#198);
#177=AXIS2_PLACEMENT_3D('',#246,#200,#201);
#178=AXIS2_PLACEMENT_3D('',#249,#203,#204);
#179=AXIS2_PLACEMENT_3D('',#252,#206,#207);
#180=AXIS2_PLACEMENT_3D('',#255,#209,#210);
#181=AXIS2_PLACEMENT_3D('',#258,#213,#214);
#182=AXIS2_PLACEMENT_3D('',#264,#218,#219);
#183=AXIS2_PLACEMENT_3D('',#268,#222,#223);
#184=AXIS2_PLACEMENT_3D('',#272,#226,#227);
#185=AXIS2_PLACEMENT_3D('',#274,#229,#230);
#186=AXIS2_PLACEMENT_3D('',#275,#231,#232);
#187=DIRECTION('',(0.,0.,1.));
#188=DIRECTION('',(1.,0.,0.));
#189=DIRECTION('',(1.,0.,0.));
#190=DIRECTION('',(0.,0.,-1.));
#191=DIRECTION('',(0.707106781186548,-0.707106781186548,0.));
#192=DIRECTION('',(-0.707106781186548,-0.707106781186548,0.));
#193=DIRECTION('',(-1.,0.,0.));
#194=DIRECTION('',(0.707106781186548,0.707106781186548,0.));
#195=DIRECTION('',(0.707106781186548,-0.707106781186548,0.));
#196=DIRECTION('',(-1.,0.,0.));
#197=DIRECTION('',(7.55253758248406E-17,-1.,0.));
#198=DIRECTION('',(1.,7.55253758248406E-17,0.));
#199=DIRECTION('',(7.55253758248406E-17,-1.,0.));
#200=DIRECTION('',(0.707106781186548,-0.707106781186548,0.));
#201=DIRECTION('',(-0.707106781186548,-0.707106781186548,0.));
#202=DIRECTION('',(7.55253758248406E-17,-1.,0.));
#203=DIRECTION('',(1.,0.,0.));
#204=DIRECTION('',(0.,0.,-1.));
#205=DIRECTION('',(1.,0.,0.));
#206=DIRECTION('',(0.707106781186548,0.707106781186548,0.));
#207=DIRECTION('',(0.707106781186548,-0.707106781186548,0.));
#208=DIRECTION('',(1.,0.,0.));
#209=DIRECTION('',(0.,-1.,0.));
#210=DIRECTION('',(0.,0.,-1.));
#211=DIRECTION('',(0.,1.,0.));
#212=DIRECTION('',(0.,1.,0.));
#213=DIRECTION('',(0.,1.,0.));
#214=DIRECTION('',(0.,0.,1.));
#215=DIRECTION('',(0.,0.,-1.));
#216=DIRECTION('',(0.,0.,-1.));
#217=DIRECTION('',(1.,0.,0.));
#218=DIRECTION('',(1.,0.,0.));
#219=DIRECTION('',(0.,0.,-1.));
#220=DIRECTION('',(0.,0.,-1.));
#221=DIRECTION('',(0.,-1.,0.));
#222=DIRECTION('',(0.,1.,0.));
#223=DIRECTION('',(0.,0.,1.));
#224=DIRECTION('',(0.,0.,-1.));
#225=DIRECTION('',(1.,0.,0.));
#226=DIRECTION('',(1.,7.55253758248406E-17,0.));
#227=DIRECTION('',(-7.55253758248406E-17,1.,0.));
#228=DIRECTION('',(7.55253758248406E-17,-1.,0.));
#229=DIRECTION('',(0.,0.,1.));
#230=DIRECTION('',(1.,0.,0.));
#231=DIRECTION('',(0.,0.,1.));
#232=DIRECTION('',(1.,0.,0.));
#233=CARTESIAN_POINT('',(0.,0.,0.));
#234=CARTESIAN_POINT('',(0.191112218499184,0.07,0.13));
#235=CARTESIAN_POINT('',(0.0286122184991837,0.07,0.13));
#236=CARTESIAN_POINT('',(-0.0413877815008163,0.,0.13));
#237=CARTESIAN_POINT('',(0.0286122184991837,0.07,0.2));
#238=CARTESIAN_POINT('',(0.191112218499184,0.,0.13));
#239=CARTESIAN_POINT('',(0.423612218499183,2.08166817117217E-17,0.13));
#240=CARTESIAN_POINT('',(0.353612218499183,0.07,0.13));
#241=CARTESIAN_POINT('',(0.353612218499183,0.07,0.2));
#242=CARTESIAN_POINT('',(0.191112218499184,0.07,0.2));
#243=CARTESIAN_POINT('',(0.353612218499183,0.3675,0.13));
#244=CARTESIAN_POINT('',(0.423612218499183,0.3675,0.13));
#245=CARTESIAN_POINT('',(0.423612218499183,0.735,0.13));
#246=CARTESIAN_POINT('',(0.353612218499183,0.665,0.13));
#247=CARTESIAN_POINT('',(0.353612218499183,0.665,0.2));
#248=CARTESIAN_POINT('',(0.353612218499183,0.3675,0.2));
#249=CARTESIAN_POINT('',(0.191112218499184,0.665,0.13));
#250=CARTESIAN_POINT('',(0.191112218499184,0.735,0.13));
#251=CARTESIAN_POINT('',(-0.0413877815008164,0.735,0.13));
#252=CARTESIAN_POINT('',(0.0286122184991837,0.665,0.13));
#253=CARTESIAN_POINT('',(0.0286122184991837,0.665,0.2));
#254=CARTESIAN_POINT('',(0.191112218499184,0.665,0.2));
#255=CARTESIAN_POINT('',(0.0286122184991837,0.3675,0.13));
#256=CARTESIAN_POINT('',(-0.0413877815008163,0.3675,0.13));
#257=CARTESIAN_POINT('',(0.0286122184991837,0.3675,0.2));
#258=CARTESIAN_POINT('',(0.191112218499184,0.735,0.2));
#259=CARTESIAN_POINT('',(-0.0413877815008164,0.735,0.2));
#260=CARTESIAN_POINT('',(-0.0413877815008164,0.735,0.));
#261=CARTESIAN_POINT('',(0.423612218499183,0.735,0.2));
#262=CARTESIAN_POINT('',(0.423612218499183,0.735,0.));
#263=CARTESIAN_POINT('',(0.191112218499184,0.735,0.));
#264=CARTESIAN_POINT('',(-0.0413877815008163,0.3675,0.2));
#265=CARTESIAN_POINT('',(-0.0413877815008163,0.,0.2));
#266=CARTESIAN_POINT('',(-0.0413877815008163,0.,0.));
#267=CARTESIAN_POINT('',(-0.0413877815008163,0.3675,0.));
#268=CARTESIAN_POINT('',(0.191112218499184,0.,0.2));
#269=CARTESIAN_POINT('',(0.423612218499183,2.08166817117217E-17,0.2));
#270=CARTESIAN_POINT('',(0.423612218499183,2.08166817117217E-17,0.));
#271=CARTESIAN_POINT('',(0.191112218499184,0.,0.));
#272=CARTESIAN_POINT('',(0.423612218499183,0.3675,0.2));
#273=CARTESIAN_POINT('',(0.423612218499183,0.3675,0.));
#274=CARTESIAN_POINT('',(0.191112218499184,0.3675,0.2));
#275=CARTESIAN_POINT('',(0.191112218499184,0.3675,0.));
#276=MECHANICAL_DESIGN_GEOMETRIC_PRESENTATION_REPRESENTATION('',(#161),
#277);
#277=(
GEOMETRIC_REPRESENTATION_CONTEXT(3)
GLOBAL_UNCERTAINTY_ASSIGNED_CONTEXT((#278))
GLOBAL_UNIT_ASSIGNED_CONTEXT((#281,#280,#279))
REPRESENTATION_CONTEXT('Part 1','TOP_LEVEL_ASSEMBLY_PART')
);
#278=UNCERTAINTY_MEASURE_WITH_UNIT(LENGTH_MEASURE(1.E-8),#281,
'DISTANCE_ACCURACY_VALUE','Maximum Tolerance applied to model');
#279=(
NAMED_UNIT(*)
SI_UNIT($,.STERADIAN.)
SOLID_ANGLE_UNIT()
);
#280=(
NAMED_UNIT(*)
PLANE_ANGLE_UNIT()
SI_UNIT($,.RADIAN.)
);
#281=(
LENGTH_UNIT()
NAMED_UNIT(*)
SI_UNIT($,.METRE.)
);
#282=PRODUCT_DEFINITION_SHAPE('','',#283);
#283=PRODUCT_DEFINITION('','',#285,#284);
#284=PRODUCT_DEFINITION_CONTEXT('',#291,'design');
#285=PRODUCT_DEFINITION_FORMATION_WITH_SPECIFIED_SOURCE('','',#287,
 .NOT_KNOWN.);
#286=PRODUCT_RELATED_PRODUCT_CATEGORY('','',(#287));
#287=PRODUCT('Part 1','Part 1','Part 1',(#289));
#288=PRODUCT_CATEGORY('','');
#289=PRODUCT_CONTEXT('',#291,'mechanical');
#290=APPLICATION_PROTOCOL_DEFINITION('international standard',
'ap242_managed_model_based_3d_engineering',2020,#291);
#291=APPLICATION_CONTEXT('managed model based 3d engineering');
ENDSEC;
END-ISO-10303-21;
