ISO-10303-21;
HEADER;
/* Generated by software containing ST-Developer
 * from STEP Tools, Inc. (www.steptools.com) 
 */
/* OPTION: using custom renumber hook */

FILE_DESCRIPTION(
/* description */ ('STEP AP242 Edition 2',
'CAx-IF Rec.Pracs.---Representation and Presentation of Product Manufa
cturing Information (PMI)---4.0---2014-10-13',
'CAx-IF Rec.Pracs.---3D Tessellated Geometry---0.4---2014-09-14','2;1',
'CAx-IF Rec.Pracs.---User Defined Attributes---1.5---2016-08-15'),
/* implementation_level */ '2;1');

FILE_NAME(
/* name */ 'Part Studio 1 - Part 1',
/* time_stamp */ '2026-09-03T18:18:04Z',
/* author */ (''),
/* organization */ (''),
/* preprocessor_version */ 'ST-DEVELOPER v20',
/* originating_system */ 'ONSHAPE BY PTC INC, 1.220',
/* authorisation */ '  ');

FILE_SCHEMA (('AP242_MANAGED_MODEL_BASED_3D_ENGINEERING_MIM_LF { 1 0 10303 442 3 1 4 }'));
ENDSEC;

DATA;
#10=SHAPE_REPRESENTATION_RELATIONSHIP('','',#143,#11);
#11=ADVANCED_BREP_SHAPE_REPRESENTATION('',(#141),#245);
#12=CYLINDRICAL_SURFACE('',#150,0.0125);
#13=CYLINDRICAL_SURFACE('',#152,0.0125);
#14=CYLINDRICAL_SURFACE('',#158,0.0125);
#15=CYLINDRICAL_SURFACE('',#160,0.0125);
#16=CIRCLE('',#148,0.0125);
#17=CIRCLE('',#149,0.0125);
#18=CIRCLE('',#151,0.0125);
#19=CIRCLE('',#153,0.0125);
#20=CIRCLE('',#155,0.0125);
#21=CIRCLE('',#157,0.0125);
#22=CIRCLE('',#159,0.0125);
#23=CIRCLE('',#161,0.0125);
#24=SPHERICAL_SURFACE('',#147,0.0125);
#25=SPHERICAL_SURFACE('',#154,0.0125);
#26=SPHERICAL_SURFACE('',#156,0.0125);
#27=SPHERICAL_SURFACE('',#162,0.0125);
#28=ORIENTED_EDGE('',*,*,#60,.T.);
#29=ORIENTED_EDGE('',*,*,#61,.T.);
#30=ORIENTED_EDGE('',*,*,#62,.T.);
#31=ORIENTED_EDGE('',*,*,#63,.T.);
#32=ORIENTED_EDGE('',*,*,#64,.T.);
#33=ORIENTED_EDGE('',*,*,#65,.T.);
#34=ORIENTED_EDGE('',*,*,#66,.T.);
#35=ORIENTED_EDGE('',*,*,#67,.T.);
#36=ORIENTED_EDGE('',*,*,#68,.F.);
#37=ORIENTED_EDGE('',*,*,#69,.F.);
#38=ORIENTED_EDGE('',*,*,#63,.F.);
#39=ORIENTED_EDGE('',*,*,#69,.T.);
#40=ORIENTED_EDGE('',*,*,#67,.F.);
#41=ORIENTED_EDGE('',*,*,#70,.F.);
#42=ORIENTED_EDGE('',*,*,#71,.F.);
#43=ORIENTED_EDGE('',*,*,#64,.F.);
#44=ORIENTED_EDGE('',*,*,#68,.T.);
#45=ORIENTED_EDGE('',*,*,#62,.F.);
#46=ORIENTED_EDGE('',*,*,#70,.T.);
#47=ORIENTED_EDGE('',*,*,#72,.F.);
#48=ORIENTED_EDGE('',*,*,#73,.F.);
#49=ORIENTED_EDGE('',*,*,#71,.T.);
#50=ORIENTED_EDGE('',*,*,#60,.F.);
#51=ORIENTED_EDGE('',*,*,#72,.T.);
#52=ORIENTED_EDGE('',*,*,#66,.F.);
#53=ORIENTED_EDGE('',*,*,#74,.F.);
#54=ORIENTED_EDGE('',*,*,#75,.F.);
#55=ORIENTED_EDGE('',*,*,#65,.F.);
#56=ORIENTED_EDGE('',*,*,#73,.T.);
#57=ORIENTED_EDGE('',*,*,#61,.F.);
#58=ORIENTED_EDGE('',*,*,#75,.T.);
#59=ORIENTED_EDGE('',*,*,#74,.T.);
#60=EDGE_CURVE('',#76,#77,#84,.F.);
#61=EDGE_CURVE('',#77,#78,#85,.T.);
#62=EDGE_CURVE('',#78,#79,#86,.T.);
#63=EDGE_CURVE('',#79,#76,#87,.F.);
#64=EDGE_CURVE('',#80,#81,#88,.F.);
#65=EDGE_CURVE('',#81,#82,#89,.F.);
#66=EDGE_CURVE('',#82,#83,#90,.T.);
#67=EDGE_CURVE('',#83,#80,#91,.T.);
#68=EDGE_CURVE('',#80,#79,#16,.F.);
#69=EDGE_CURVE('',#79,#80,#17,.F.);
#70=EDGE_CURVE('',#76,#83,#18,.T.);
#71=EDGE_CURVE('',#81,#78,#19,.T.);
#72=EDGE_CURVE('',#76,#83,#20,.F.);
#73=EDGE_CURVE('',#81,#78,#21,.F.);
#74=EDGE_CURVE('',#77,#82,#22,.T.);
#75=EDGE_CURVE('',#82,#77,#23,.T.);
#76=VERTEX_POINT('',#212);
#77=VERTEX_POINT('',#213);
#78=VERTEX_POINT('',#215);
#79=VERTEX_POINT('',#217);
#80=VERTEX_POINT('',#221);
#81=VERTEX_POINT('',#222);
#82=VERTEX_POINT('',#224);
#83=VERTEX_POINT('',#226);
#84=LINE('',#211,#92);
#85=LINE('',#214,#93);
#86=LINE('',#216,#94);
#87=LINE('',#218,#95);
#88=LINE('',#220,#96);
#89=LINE('',#223,#97);
#90=LINE('',#225,#98);
#91=LINE('',#227,#99);
#92=VECTOR('',#167,1.);
#93=VECTOR('',#168,1.);
#94=VECTOR('',#169,1.);
#95=VECTOR('',#170,1.);
#96=VECTOR('',#173,1.);
#97=VECTOR('',#174,1.);
#98=VECTOR('',#175,1.);
#99=VECTOR('',#176,1.);
#100=EDGE_LOOP('',(#28,#29,#30,#31));
#101=EDGE_LOOP('',(#32,#33,#34,#35));
#102=EDGE_LOOP('',(#36,#37));
#103=EDGE_LOOP('',(#38,#39,#40,#41));
#104=EDGE_LOOP('',(#42,#43,#44,#45));
#105=EDGE_LOOP('',(#46,#47));
#106=EDGE_LOOP('',(#48,#49));
#107=EDGE_LOOP('',(#50,#51,#52,#53));
#108=EDGE_LOOP('',(#54,#55,#56,#57));
#109=EDGE_LOOP('',(#58,#59));
#110=FACE_BOUND('',#100,.T.);
#111=FACE_BOUND('',#101,.T.);
#112=FACE_BOUND('',#102,.T.);
#113=FACE_BOUND('',#103,.T.);
#114=FACE_BOUND('',#104,.T.);
#115=FACE_BOUND('',#105,.T.);
#116=FACE_BOUND('',#106,.T.);
#117=FACE_BOUND('',#107,.T.);
#118=FACE_BOUND('',#108,.T.);
#119=FACE_BOUND('',#109,.T.);
#120=PLANE('',#145);
#121=PLANE('',#146);
#122=ADVANCED_FACE('',(#110),#120,.T.);
#123=ADVANCED_FACE('',(#111),#121,.F.);
#124=ADVANCED_FACE('',(#112),#24,.T.);
#125=ADVANCED_FACE('',(#113),#12,.T.);
#126=ADVANCED_FACE('',(#114),#13,.T.);
#127=ADVANCED_FACE('',(#115),#25,.T.);
#128=ADVANCED_FACE('',(#116),#26,.T.);
#129=ADVANCED_FACE('',(#117),#14,.T.);
#130=ADVANCED_FACE('',(#118),#15,.T.);
#131=ADVANCED_FACE('',(#119),#27,.T.);
#132=CLOSED_SHELL('',(#122,#123,#124,#125,#126,#127,#128,#129,#130,#131));
#133=STYLED_ITEM('',(#134),#141);
#134=PRESENTATION_STYLE_ASSIGNMENT((#135));
#135=SURFACE_STYLE_USAGE(.BOTH.,#136);
#136=SURFACE_SIDE_STYLE('',(#137));
#137=SURFACE_STYLE_FILL_AREA(#138);
#138=FILL_AREA_STYLE('',(#139));
#139=FILL_AREA_STYLE_COLOUR('',#140);
#140=COLOUR_RGB('',0.615686274509804,0.811764705882353,0.929411764705882);
#141=MANIFOLD_SOLID_BREP('Part 1',#132);
#142=SHAPE_DEFINITION_REPRESENTATION(#250,#143);
#143=SHAPE_REPRESENTATION('Part 1',(#144),#245);
#144=AXIS2_PLACEMENT_3D('',#209,#163,#164);
#145=AXIS2_PLACEMENT_3D('',#210,#165,#166);
#146=AXIS2_PLACEMENT_3D('',#219,#171,#172);
#147=AXIS2_PLACEMENT_3D('',#228,#177,#178);
#148=AXIS2_PLACEMENT_3D('',#229,#179,#180);
#149=AXIS2_PLACEMENT_3D('',#230,#181,#182);
#150=AXIS2_PLACEMENT_3D('',#231,#183,#184);
#151=AXIS2_PLACEMENT_3D('',#232,#185,#186);
#152=AXIS2_PLACEMENT_3D('',#233,#187,#188);
#153=AXIS2_PLACEMENT_3D('',#234,#189,#190);
#154=AXIS2_PLACEMENT_3D('',#235,#191,#192);
#155=AXIS2_PLACEMENT_3D('',#236,#193,#194);
#156=AXIS2_PLACEMENT_3D('',#237,#195,#196);
#157=AXIS2_PLACEMENT_3D('',#238,#197,#198);
#158=AXIS2_PLACEMENT_3D('',#239,#199,#200);
#159=AXIS2_PLACEMENT_3D('',#240,#201,#202);
#160=AXIS2_PLACEMENT_3D('',#241,#203,#204);
#161=AXIS2_PLACEMENT_3D('',#242,#205,#206);
#162=AXIS2_PLACEMENT_3D('',#243,#207,#208);
#163=DIRECTION('',(0.,0.,1.));
#164=DIRECTION('',(1.,0.,0.));
#165=DIRECTION('',(0.,0.,1.));
#166=DIRECTION('',(1.,0.,0.));
#167=DIRECTION('',(1.,0.,0.));
#168=DIRECTION('',(0.,-1.,0.));
#169=DIRECTION('',(1.,0.,0.));
#170=DIRECTION('',(6.93889390390723E-17,-1.,0.));
#171=DIRECTION('',(0.,0.,1.));
#172=DIRECTION('',(1.,0.,0.));
#173=DIRECTION('',(1.,0.,0.));
#174=DIRECTION('',(0.,-1.,0.));
#175=DIRECTION('',(1.,0.,0.));
#176=DIRECTION('',(6.93889390390723E-17,-1.,0.));
#177=DIRECTION('',(1.,0.,0.));
#178=DIRECTION('',(0.,0.,-1.));
#179=DIRECTION('',(1.,0.,0.));
#180=DIRECTION('',(0.,0.,-1.));
#181=DIRECTION('',(0.,-1.,0.));
#182=DIRECTION('',(0.,0.,-1.));
#183=DIRECTION('',(6.93889390390723E-17,-1.,0.));
#184=DIRECTION('',(1.,6.93889390390723E-17,0.));
#185=DIRECTION('',(0.,1.,0.));
#186=DIRECTION('',(0.,0.,1.));
#187=DIRECTION('',(-1.,0.,0.));
#188=DIRECTION('',(0.,0.,1.));
#189=DIRECTION('',(-1.,0.,0.));
#190=DIRECTION('',(0.,0.,1.));
#191=DIRECTION('',(1.,0.,0.));
#192=DIRECTION('',(0.,0.,-1.));
#193=DIRECTION('',(1.,0.,-4.85722573273506E-16));
#194=DIRECTION('',(-4.85722573273506E-16,0.,-1.));
#195=DIRECTION('',(0.,-1.,0.));
#196=DIRECTION('',(0.,0.,-1.));
#197=DIRECTION('',(0.,-1.,0.));
#198=DIRECTION('',(0.,0.,-1.));
#199=DIRECTION('',(1.,0.,0.));
#200=DIRECTION('',(0.,0.,-1.));
#201=DIRECTION('',(-1.,0.,0.));
#202=DIRECTION('',(0.,0.,1.));
#203=DIRECTION('',(0.,1.,0.));
#204=DIRECTION('',(0.,0.,1.));
#205=DIRECTION('',(0.,1.,0.));
#206=DIRECTION('',(0.,0.,1.));
#207=DIRECTION('',(0.,0.,1.));
#208=DIRECTION('',(1.,0.,0.));
#209=CARTESIAN_POINT('',(0.,0.,0.));
#210=CARTESIAN_POINT('',(-0.199827527180436,-0.00230104178190235,0.025));
#211=CARTESIAN_POINT('',(-0.199827527180436,0.0351989582180976,0.025));
#212=CARTESIAN_POINT('',(-0.00232752718043594,0.0351989582180976,0.025));
#213=CARTESIAN_POINT('',(-0.397327527180436,0.0351989582180976,0.025));
#214=CARTESIAN_POINT('',(-0.397327527180436,-0.0523010417819024,0.025));
#215=CARTESIAN_POINT('',(-0.397327527180436,-0.0398010417819024,0.025));
#216=CARTESIAN_POINT('',(0.0101724728195641,-0.0398010417819024,0.025));
#217=CARTESIAN_POINT('',(-0.00232752718043593,-0.0398010417819024,0.025));
#218=CARTESIAN_POINT('',(-0.00232752718043594,-0.00230104178190233,0.025));
#219=CARTESIAN_POINT('',(-0.199827527180436,-0.00230104178190235,0.));
#220=CARTESIAN_POINT('',(-0.199827527180436,-0.0398010417819024,0.));
#221=CARTESIAN_POINT('',(-0.00232752718043594,-0.0398010417819024,0.));
#222=CARTESIAN_POINT('',(-0.397327527180436,-0.0398010417819024,0.));
#223=CARTESIAN_POINT('',(-0.397327527180436,-0.00230104178190235,0.));
#224=CARTESIAN_POINT('',(-0.397327527180436,0.0351989582180976,0.));
#225=CARTESIAN_POINT('',(0.0101724728195641,0.0351989582180976,0.));
#226=CARTESIAN_POINT('',(-0.00232752718043595,0.0351989582180976,0.));
#227=CARTESIAN_POINT('',(-0.00232752718043594,-0.0523010417819024,0.));
#228=CARTESIAN_POINT('',(-0.00232752718043593,-0.0398010417819024,0.0125));
#229=CARTESIAN_POINT('',(-0.00232752718043593,-0.0398010417819024,0.0125));
#230=CARTESIAN_POINT('',(-0.00232752718043593,-0.0398010417819024,0.0125));
#231=CARTESIAN_POINT('',(-0.00232752718043593,-0.00230104178190236,0.0125));
#232=CARTESIAN_POINT('',(-0.00232752718043594,0.0351989582180976,0.0125));
#233=CARTESIAN_POINT('',(-0.199827527180436,-0.0398010417819024,0.0125));
#234=CARTESIAN_POINT('',(-0.397327527180436,-0.0398010417819024,0.0125));
#235=CARTESIAN_POINT('',(-0.00232752718043594,0.0351989582180976,0.0125));
#236=CARTESIAN_POINT('',(-0.00232752718043594,0.0351989582180976,0.0125));
#237=CARTESIAN_POINT('',(-0.397327527180436,-0.0398010417819024,0.0125));
#238=CARTESIAN_POINT('',(-0.397327527180436,-0.0398010417819024,0.0125));
#239=CARTESIAN_POINT('',(-0.199827527180436,0.0351989582180976,0.0125));
#240=CARTESIAN_POINT('',(-0.397327527180436,0.0351989582180976,0.0125));
#241=CARTESIAN_POINT('',(-0.397327527180436,-0.00230104178190235,0.0125));
#242=CARTESIAN_POINT('',(-0.397327527180436,0.0351989582180976,0.0125));
#243=CARTESIAN_POINT('',(-0.397327527180436,0.0351989582180976,0.0125));
#244=MECHANICAL_DESIGN_GEOMETRIC_PRESENTATION_REPRESENTATION('',(#133),
#245);
#245=(
GEOMETRIC_REPRESENTATION_CONTEXT(3)
GLOBAL_UNCERTAINTY_ASSIGNED_CONTEXT((#246))
GLOBAL_UNIT_ASSIGNED_CONTEXT((#249,#248,#247))
REPRESENTATION_CONTEXT('Part 1','TOP_LEVEL_ASSEMBLY_PART')
);
#246=UNCERTAINTY_MEASURE_WITH_UNIT(LENGTH_MEASURE(1.E-8),#249,
'DISTANCE_ACCURACY_VALUE','Maximum Tolerance applied to model');
#247=(
NAMED_UNIT(*)
SI_UNIT($,.STERADIAN.)
SOLID_ANGLE_UNIT()
);
#248=(
NAMED_UNIT(*)
PLANE_ANGLE_UNIT()
SI_UNIT($,.RADIAN.)
);
#249=(
LENGTH_UNIT()
NAMED_UNIT(*)
SI_UNIT($,.METRE.)
);
#250=PRODUCT_DEFINITION_SHAPE('','',#251);
#251=PRODUCT_DEFINITION('','',#253,#252);
#252=PRODUCT_DEFINITION_CONTEXT('',#259,'design');
#253=PRODUCT_DEFINITION_FORMATION_WITH_SPECIFIED_SOURCE('','',#255,
 .NOT_KNOWN.);
#254=PRODUCT_RELATED_PRODUCT_CATEGORY('','',(#255));
#255=PRODUCT('Part 1','Part 1','Part 1',(#257));
#256=PRODUCT_CATEGORY('','');
#257=PRODUCT_CONTEXT('',#259,'mechanical');
#258=APPLICATION_PROTOCOL_DEFINITION('international standard',
'ap242_managed_model_based_3d_engineering',2020,#259);
#259=APPLICATION_CONTEXT('managed model based 3d engineering');
ENDSEC;
END-ISO-10303-21;
