ISO-10303-21;
HEADER;
/* Generated by software containing ST-Developer
 * from STEP Tools, Inc. (www.steptools.com) 
 */
/* OPTION: using custom renumber hook */

FILE_DESCRIPTION(
/* description */ ('STEP AP242 Edition 2',
'CAx-IF Rec.Pracs.---Representation and Presentation of Product Manufa
cturing Information (PMI)---4.0---2014-10-13',
'CAx-IF Rec.Pracs.---3D Tessellated Geometry---0.4---2014-09-14','2;1',
'CAx-IF Rec.Pracs.---User Defined Attributes---1.5---2016-08-15'),
/* implementation_level */ '2;1');

FILE_NAME(
/* name */ 'Part Studio 1 - Part 1',
/* time_stamp */ '2026-09-03T18:12:37Z',
/* author */ (''),
/* organization */ (''),
/* preprocessor_version */ 'ST-DEVELOPER v20',
/* originating_system */ 'ONSHAPE BY PTC INC, 1.220',
/* authorisation */ '  ');

FILE_SCHEMA (('AP242_MANAGED_MODEL_BASED_3D_ENGINEERING_MIM_LF { 1 0 10303 442 3 1 4 }'));
ENDSEC;

DATA;
#10=SHAPE_REPRESENTATION_RELATIONSHIP('','',#461,#11);
#11=ADVANCED_BREP_SHAPE_REPRESENTATION('',(#459),#743);
#12=PLANE('',#469);
#13=PLANE('',#476);
#14=PLANE('',#477);
#15=PLANE('',#478);
#16=PLANE('',#479);
#17=PLANE('',#480);
#18=PLANE('',#481);
#19=PLANE('',#482);
#20=PLANE('',#483);
#21=PLANE('',#484);
#22=PLANE('',#485);
#23=PLANE('',#486);
#24=PLANE('',#487);
#25=PLANE('',#488);
#26=PLANE('',#489);
#27=PLANE('',#490);
#28=PLANE('',#491);
#29=PLANE('',#492);
#30=PLANE('',#493);
#31=PLANE('',#494);
#32=PLANE('',#495);
#33=CIRCLE('',#464,0.005);
#34=CIRCLE('',#465,0.005);
#35=CIRCLE('',#467,0.005);
#36=CIRCLE('',#468,0.005);
#37=CIRCLE('',#471,0.007);
#38=CIRCLE('',#472,0.007);
#39=CIRCLE('',#474,0.007);
#40=CIRCLE('',#475,0.007);
#41=ORIENTED_EDGE('',*,*,#161,.F.);
#42=ORIENTED_EDGE('',*,*,#162,.T.);
#43=ORIENTED_EDGE('',*,*,#163,.F.);
#44=ORIENTED_EDGE('',*,*,#164,.F.);
#45=ORIENTED_EDGE('',*,*,#165,.F.);
#46=ORIENTED_EDGE('',*,*,#166,.F.);
#47=ORIENTED_EDGE('',*,*,#167,.F.);
#48=ORIENTED_EDGE('',*,*,#168,.T.);
#49=ORIENTED_EDGE('',*,*,#169,.F.);
#50=ORIENTED_EDGE('',*,*,#170,.T.);
#51=ORIENTED_EDGE('',*,*,#171,.T.);
#52=ORIENTED_EDGE('',*,*,#172,.F.);
#53=ORIENTED_EDGE('',*,*,#173,.F.);
#54=ORIENTED_EDGE('',*,*,#174,.T.);
#55=ORIENTED_EDGE('',*,*,#175,.T.);
#56=ORIENTED_EDGE('',*,*,#176,.F.);
#57=ORIENTED_EDGE('',*,*,#177,.F.);
#58=ORIENTED_EDGE('',*,*,#178,.F.);
#59=ORIENTED_EDGE('',*,*,#179,.F.);
#60=ORIENTED_EDGE('',*,*,#180,.F.);
#61=ORIENTED_EDGE('',*,*,#181,.F.);
#62=ORIENTED_EDGE('',*,*,#182,.F.);
#63=ORIENTED_EDGE('',*,*,#183,.F.);
#64=ORIENTED_EDGE('',*,*,#184,.F.);
#65=ORIENTED_EDGE('',*,*,#185,.T.);
#66=ORIENTED_EDGE('',*,*,#186,.F.);
#67=ORIENTED_EDGE('',*,*,#170,.F.);
#68=ORIENTED_EDGE('',*,*,#187,.T.);
#69=ORIENTED_EDGE('',*,*,#188,.T.);
#70=ORIENTED_EDGE('',*,*,#189,.F.);
#71=ORIENTED_EDGE('',*,*,#171,.F.);
#72=ORIENTED_EDGE('',*,*,#186,.T.);
#73=ORIENTED_EDGE('',*,*,#190,.F.);
#74=ORIENTED_EDGE('',*,*,#191,.F.);
#75=ORIENTED_EDGE('',*,*,#172,.T.);
#76=ORIENTED_EDGE('',*,*,#189,.T.);
#77=ORIENTED_EDGE('',*,*,#192,.T.);
#78=ORIENTED_EDGE('',*,*,#190,.T.);
#79=ORIENTED_EDGE('',*,*,#188,.F.);
#80=ORIENTED_EDGE('',*,*,#185,.F.);
#81=ORIENTED_EDGE('',*,*,#193,.F.);
#82=ORIENTED_EDGE('',*,*,#194,.F.);
#83=ORIENTED_EDGE('',*,*,#195,.T.);
#84=ORIENTED_EDGE('',*,*,#196,.T.);
#85=ORIENTED_EDGE('',*,*,#197,.T.);
#86=ORIENTED_EDGE('',*,*,#179,.T.);
#87=ORIENTED_EDGE('',*,*,#198,.F.);
#88=ORIENTED_EDGE('',*,*,#194,.T.);
#89=ORIENTED_EDGE('',*,*,#199,.T.);
#90=ORIENTED_EDGE('',*,*,#177,.T.);
#91=ORIENTED_EDGE('',*,*,#200,.F.);
#92=ORIENTED_EDGE('',*,*,#181,.T.);
#93=ORIENTED_EDGE('',*,*,#201,.F.);
#94=ORIENTED_EDGE('',*,*,#183,.T.);
#95=ORIENTED_EDGE('',*,*,#202,.T.);
#96=ORIENTED_EDGE('',*,*,#196,.F.);
#97=ORIENTED_EDGE('',*,*,#162,.F.);
#98=ORIENTED_EDGE('',*,*,#203,.T.);
#99=ORIENTED_EDGE('',*,*,#168,.F.);
#100=ORIENTED_EDGE('',*,*,#204,.F.);
#101=ORIENTED_EDGE('',*,*,#205,.F.);
#102=ORIENTED_EDGE('',*,*,#206,.T.);
#103=ORIENTED_EDGE('',*,*,#198,.T.);
#104=ORIENTED_EDGE('',*,*,#178,.T.);
#105=ORIENTED_EDGE('',*,*,#199,.F.);
#106=ORIENTED_EDGE('',*,*,#184,.T.);
#107=ORIENTED_EDGE('',*,*,#201,.T.);
#108=ORIENTED_EDGE('',*,*,#195,.F.);
#109=ORIENTED_EDGE('',*,*,#192,.F.);
#110=ORIENTED_EDGE('',*,*,#187,.F.);
#111=ORIENTED_EDGE('',*,*,#169,.T.);
#112=ORIENTED_EDGE('',*,*,#191,.T.);
#113=ORIENTED_EDGE('',*,*,#200,.T.);
#114=ORIENTED_EDGE('',*,*,#180,.T.);
#115=ORIENTED_EDGE('',*,*,#197,.F.);
#116=ORIENTED_EDGE('',*,*,#193,.T.);
#117=ORIENTED_EDGE('',*,*,#202,.F.);
#118=ORIENTED_EDGE('',*,*,#182,.T.);
#119=ORIENTED_EDGE('',*,*,#174,.F.);
#120=ORIENTED_EDGE('',*,*,#207,.F.);
#121=ORIENTED_EDGE('',*,*,#208,.T.);
#122=ORIENTED_EDGE('',*,*,#209,.T.);
#123=ORIENTED_EDGE('',*,*,#173,.T.);
#124=ORIENTED_EDGE('',*,*,#210,.F.);
#125=ORIENTED_EDGE('',*,*,#211,.F.);
#126=ORIENTED_EDGE('',*,*,#207,.T.);
#127=ORIENTED_EDGE('',*,*,#176,.T.);
#128=ORIENTED_EDGE('',*,*,#212,.F.);
#129=ORIENTED_EDGE('',*,*,#213,.F.);
#130=ORIENTED_EDGE('',*,*,#210,.T.);
#131=ORIENTED_EDGE('',*,*,#175,.F.);
#132=ORIENTED_EDGE('',*,*,#209,.F.);
#133=ORIENTED_EDGE('',*,*,#214,.T.);
#134=ORIENTED_EDGE('',*,*,#212,.T.);
#135=ORIENTED_EDGE('',*,*,#208,.F.);
#136=ORIENTED_EDGE('',*,*,#211,.T.);
#137=ORIENTED_EDGE('',*,*,#213,.T.);
#138=ORIENTED_EDGE('',*,*,#214,.F.);
#139=ORIENTED_EDGE('',*,*,#204,.T.);
#140=ORIENTED_EDGE('',*,*,#167,.T.);
#141=ORIENTED_EDGE('',*,*,#215,.T.);
#142=ORIENTED_EDGE('',*,*,#216,.T.);
#143=ORIENTED_EDGE('',*,*,#217,.F.);
#144=ORIENTED_EDGE('',*,*,#165,.T.);
#145=ORIENTED_EDGE('',*,*,#203,.F.);
#146=ORIENTED_EDGE('',*,*,#161,.T.);
#147=ORIENTED_EDGE('',*,*,#218,.F.);
#148=ORIENTED_EDGE('',*,*,#163,.T.);
#149=ORIENTED_EDGE('',*,*,#206,.F.);
#150=ORIENTED_EDGE('',*,*,#219,.F.);
#151=ORIENTED_EDGE('',*,*,#219,.T.);
#152=ORIENTED_EDGE('',*,*,#205,.T.);
#153=ORIENTED_EDGE('',*,*,#216,.F.);
#154=ORIENTED_EDGE('',*,*,#220,.T.);
#155=ORIENTED_EDGE('',*,*,#215,.F.);
#156=ORIENTED_EDGE('',*,*,#166,.T.);
#157=ORIENTED_EDGE('',*,*,#217,.T.);
#158=ORIENTED_EDGE('',*,*,#164,.T.);
#159=ORIENTED_EDGE('',*,*,#218,.T.);
#160=ORIENTED_EDGE('',*,*,#220,.F.);
#161=EDGE_CURVE('',#221,#222,#261,.T.);
#162=EDGE_CURVE('',#221,#223,#33,.T.);
#163=EDGE_CURVE('',#224,#223,#262,.F.);
#164=EDGE_CURVE('',#222,#224,#34,.T.);
#165=EDGE_CURVE('',#225,#226,#263,.T.);
#166=EDGE_CURVE('',#227,#225,#35,.T.);
#167=EDGE_CURVE('',#228,#227,#264,.F.);
#168=EDGE_CURVE('',#228,#226,#36,.T.);
#169=EDGE_CURVE('',#229,#230,#265,.T.);
#170=EDGE_CURVE('',#229,#231,#266,.T.);
#171=EDGE_CURVE('',#231,#232,#267,.T.);
#172=EDGE_CURVE('',#230,#232,#268,.T.);
#173=EDGE_CURVE('',#233,#234,#269,.T.);
#174=EDGE_CURVE('',#233,#235,#270,.T.);
#175=EDGE_CURVE('',#235,#236,#271,.T.);
#176=EDGE_CURVE('',#234,#236,#272,.T.);
#177=EDGE_CURVE('',#237,#238,#273,.T.);
#178=EDGE_CURVE('',#239,#237,#37,.T.);
#179=EDGE_CURVE('',#240,#239,#274,.F.);
#180=EDGE_CURVE('',#238,#240,#38,.F.);
#181=EDGE_CURVE('',#241,#242,#275,.T.);
#182=EDGE_CURVE('',#243,#241,#39,.F.);
#183=EDGE_CURVE('',#244,#243,#276,.F.);
#184=EDGE_CURVE('',#242,#244,#40,.T.);
#185=EDGE_CURVE('',#245,#246,#277,.T.);
#186=EDGE_CURVE('',#231,#246,#278,.T.);
#187=EDGE_CURVE('',#229,#245,#279,.T.);
#188=EDGE_CURVE('',#246,#247,#280,.T.);
#189=EDGE_CURVE('',#232,#247,#281,.T.);
#190=EDGE_CURVE('',#248,#247,#282,.T.);
#191=EDGE_CURVE('',#230,#248,#283,.T.);
#192=EDGE_CURVE('',#245,#248,#284,.T.);
#193=EDGE_CURVE('',#249,#250,#285,.T.);
#194=EDGE_CURVE('',#251,#249,#286,.T.);
#195=EDGE_CURVE('',#251,#252,#287,.T.);
#196=EDGE_CURVE('',#252,#250,#288,.T.);
#197=EDGE_CURVE('',#249,#240,#289,.T.);
#198=EDGE_CURVE('',#251,#239,#290,.T.);
#199=EDGE_CURVE('',#242,#237,#291,.T.);
#200=EDGE_CURVE('',#241,#238,#292,.T.);
#201=EDGE_CURVE('',#244,#252,#293,.T.);
#202=EDGE_CURVE('',#243,#250,#294,.T.);
#203=EDGE_CURVE('',#221,#226,#295,.T.);
#204=EDGE_CURVE('',#253,#228,#296,.T.);
#205=EDGE_CURVE('',#254,#253,#297,.T.);
#206=EDGE_CURVE('',#254,#223,#298,.T.);
#207=EDGE_CURVE('',#255,#233,#299,.T.);
#208=EDGE_CURVE('',#255,#256,#300,.T.);
#209=EDGE_CURVE('',#256,#235,#301,.T.);
#210=EDGE_CURVE('',#257,#234,#302,.T.);
#211=EDGE_CURVE('',#255,#257,#303,.T.);
#212=EDGE_CURVE('',#258,#236,#304,.T.);
#213=EDGE_CURVE('',#257,#258,#305,.T.);
#214=EDGE_CURVE('',#256,#258,#306,.T.);
#215=EDGE_CURVE('',#227,#259,#307,.T.);
#216=EDGE_CURVE('',#259,#253,#308,.T.);
#217=EDGE_CURVE('',#225,#222,#309,.T.);
#218=EDGE_CURVE('',#224,#260,#310,.T.);
#219=EDGE_CURVE('',#260,#254,#311,.T.);
#220=EDGE_CURVE('',#259,#260,#312,.T.);
#221=VERTEX_POINT('',#619);
#222=VERTEX_POINT('',#620);
#223=VERTEX_POINT('',#622);
#224=VERTEX_POINT('',#624);
#225=VERTEX_POINT('',#628);
#226=VERTEX_POINT('',#629);
#227=VERTEX_POINT('',#631);
#228=VERTEX_POINT('',#633);
#229=VERTEX_POINT('',#637);
#230=VERTEX_POINT('',#638);
#231=VERTEX_POINT('',#640);
#232=VERTEX_POINT('',#642);
#233=VERTEX_POINT('',#645);
#234=VERTEX_POINT('',#646);
#235=VERTEX_POINT('',#648);
#236=VERTEX_POINT('',#650);
#237=VERTEX_POINT('',#654);
#238=VERTEX_POINT('',#655);
#239=VERTEX_POINT('',#657);
#240=VERTEX_POINT('',#659);
#241=VERTEX_POINT('',#663);
#242=VERTEX_POINT('',#664);
#243=VERTEX_POINT('',#666);
#244=VERTEX_POINT('',#668);
#245=VERTEX_POINT('',#672);
#246=VERTEX_POINT('',#673);
#247=VERTEX_POINT('',#678);
#248=VERTEX_POINT('',#682);
#249=VERTEX_POINT('',#688);
#250=VERTEX_POINT('',#689);
#251=VERTEX_POINT('',#691);
#252=VERTEX_POINT('',#693);
#253=VERTEX_POINT('',#707);
#254=VERTEX_POINT('',#709);
#255=VERTEX_POINT('',#714);
#256=VERTEX_POINT('',#716);
#257=VERTEX_POINT('',#720);
#258=VERTEX_POINT('',#724);
#259=VERTEX_POINT('',#731);
#260=VERTEX_POINT('',#737);
#261=LINE('',#618,#313);
#262=LINE('',#623,#314);
#263=LINE('',#627,#315);
#264=LINE('',#632,#316);
#265=LINE('',#636,#317);
#266=LINE('',#639,#318);
#267=LINE('',#641,#319);
#268=LINE('',#643,#320);
#269=LINE('',#644,#321);
#270=LINE('',#647,#322);
#271=LINE('',#649,#323);
#272=LINE('',#651,#324);
#273=LINE('',#653,#325);
#274=LINE('',#658,#326);
#275=LINE('',#662,#327);
#276=LINE('',#667,#328);
#277=LINE('',#671,#329);
#278=LINE('',#674,#330);
#279=LINE('',#675,#331);
#280=LINE('',#677,#332);
#281=LINE('',#679,#333);
#282=LINE('',#681,#334);
#283=LINE('',#683,#335);
#284=LINE('',#685,#336);
#285=LINE('',#687,#337);
#286=LINE('',#690,#338);
#287=LINE('',#692,#339);
#288=LINE('',#694,#340);
#289=LINE('',#696,#341);
#290=LINE('',#697,#342);
#291=LINE('',#699,#343);
#292=LINE('',#700,#344);
#293=LINE('',#702,#345);
#294=LINE('',#703,#346);
#295=LINE('',#705,#347);
#296=LINE('',#706,#348);
#297=LINE('',#708,#349);
#298=LINE('',#710,#350);
#299=LINE('',#713,#351);
#300=LINE('',#715,#352);
#301=LINE('',#717,#353);
#302=LINE('',#719,#354);
#303=LINE('',#721,#355);
#304=LINE('',#723,#356);
#305=LINE('',#725,#357);
#306=LINE('',#727,#358);
#307=LINE('',#730,#359);
#308=LINE('',#732,#360);
#309=LINE('',#734,#361);
#310=LINE('',#736,#362);
#311=LINE('',#738,#363);
#312=LINE('',#740,#364);
#313=VECTOR('',#500,1.);
#314=VECTOR('',#503,1.);
#315=VECTOR('',#508,1.);
#316=VECTOR('',#511,1.);
#317=VECTOR('',#516,1.);
#318=VECTOR('',#517,1.);
#319=VECTOR('',#518,1.);
#320=VECTOR('',#519,1.);
#321=VECTOR('',#520,1.);
#322=VECTOR('',#521,1.);
#323=VECTOR('',#522,1.);
#324=VECTOR('',#523,1.);
#325=VECTOR('',#526,1.);
#326=VECTOR('',#529,1.);
#327=VECTOR('',#534,1.);
#328=VECTOR('',#537,1.);
#329=VECTOR('',#542,1.);
#330=VECTOR('',#543,1.);
#331=VECTOR('',#544,1.);
#332=VECTOR('',#547,1.);
#333=VECTOR('',#548,1.);
#334=VECTOR('',#551,1.);
#335=VECTOR('',#552,1.);
#336=VECTOR('',#555,1.);
#337=VECTOR('',#558,1.);
#338=VECTOR('',#559,1.);
#339=VECTOR('',#560,1.);
#340=VECTOR('',#561,1.);
#341=VECTOR('',#564,1.);
#342=VECTOR('',#565,1.);
#343=VECTOR('',#568,1.);
#344=VECTOR('',#569,1.);
#345=VECTOR('',#572,1.);
#346=VECTOR('',#573,1.);
#347=VECTOR('',#576,1.);
#348=VECTOR('',#577,1.);
#349=VECTOR('',#578,1.);
#350=VECTOR('',#579,1.);
#351=VECTOR('',#584,1.);
#352=VECTOR('',#585,1.);
#353=VECTOR('',#586,1.);
#354=VECTOR('',#589,1.);
#355=VECTOR('',#590,1.);
#356=VECTOR('',#593,1.);
#357=VECTOR('',#594,1.);
#358=VECTOR('',#597,1.);
#359=VECTOR('',#602,1.);
#360=VECTOR('',#603,1.);
#361=VECTOR('',#606,1.);
#362=VECTOR('',#609,1.);
#363=VECTOR('',#610,1.);
#364=VECTOR('',#613,1.);
#365=EDGE_LOOP('',(#41,#42,#43,#44));
#366=EDGE_LOOP('',(#45,#46,#47,#48));
#367=EDGE_LOOP('',(#49,#50,#51,#52));
#368=EDGE_LOOP('',(#53,#54,#55,#56));
#369=EDGE_LOOP('',(#57,#58,#59,#60));
#370=EDGE_LOOP('',(#61,#62,#63,#64));
#371=EDGE_LOOP('',(#65,#66,#67,#68));
#372=EDGE_LOOP('',(#69,#70,#71,#72));
#373=EDGE_LOOP('',(#73,#74,#75,#76));
#374=EDGE_LOOP('',(#77,#78,#79,#80));
#375=EDGE_LOOP('',(#81,#82,#83,#84));
#376=EDGE_LOOP('',(#85,#86,#87,#88));
#377=EDGE_LOOP('',(#89,#90,#91,#92));
#378=EDGE_LOOP('',(#93,#94,#95,#96));
#379=EDGE_LOOP('',(#97,#98,#99,#100,#101,#102));
#380=EDGE_LOOP('',(#103,#104,#105,#106,#107,#108));
#381=EDGE_LOOP('',(#109,#110,#111,#112));
#382=EDGE_LOOP('',(#113,#114,#115,#116,#117,#118));
#383=EDGE_LOOP('',(#119,#120,#121,#122));
#384=EDGE_LOOP('',(#123,#124,#125,#126));
#385=EDGE_LOOP('',(#127,#128,#129,#130));
#386=EDGE_LOOP('',(#131,#132,#133,#134));
#387=EDGE_LOOP('',(#135,#136,#137,#138));
#388=EDGE_LOOP('',(#139,#140,#141,#142));
#389=EDGE_LOOP('',(#143,#144,#145,#146));
#390=EDGE_LOOP('',(#147,#148,#149,#150));
#391=EDGE_LOOP('',(#151,#152,#153,#154));
#392=EDGE_LOOP('',(#155,#156,#157,#158,#159,#160));
#393=FACE_BOUND('',#365,.T.);
#394=FACE_BOUND('',#366,.T.);
#395=FACE_BOUND('',#367,.T.);
#396=FACE_BOUND('',#368,.T.);
#397=FACE_BOUND('',#369,.T.);
#398=FACE_BOUND('',#370,.T.);
#399=FACE_BOUND('',#371,.T.);
#400=FACE_BOUND('',#372,.T.);
#401=FACE_BOUND('',#373,.T.);
#402=FACE_BOUND('',#374,.T.);
#403=FACE_BOUND('',#375,.T.);
#404=FACE_BOUND('',#376,.T.);
#405=FACE_BOUND('',#377,.T.);
#406=FACE_BOUND('',#378,.T.);
#407=FACE_BOUND('',#379,.T.);
#408=FACE_BOUND('',#380,.T.);
#409=FACE_BOUND('',#381,.T.);
#410=FACE_BOUND('',#382,.T.);
#411=FACE_BOUND('',#383,.T.);
#412=FACE_BOUND('',#384,.T.);
#413=FACE_BOUND('',#385,.T.);
#414=FACE_BOUND('',#386,.T.);
#415=FACE_BOUND('',#387,.T.);
#416=FACE_BOUND('',#388,.T.);
#417=FACE_BOUND('',#389,.T.);
#418=FACE_BOUND('',#390,.T.);
#419=FACE_BOUND('',#391,.T.);
#420=FACE_BOUND('',#392,.T.);
#421=CYLINDRICAL_SURFACE('',#463,0.005);
#422=CYLINDRICAL_SURFACE('',#466,0.005);
#423=CYLINDRICAL_SURFACE('',#470,0.007);
#424=CYLINDRICAL_SURFACE('',#473,0.007);
#425=ADVANCED_FACE('',(#393),#421,.T.);
#426=ADVANCED_FACE('',(#394),#422,.T.);
#427=ADVANCED_FACE('',(#395,#396),#12,.T.);
#428=ADVANCED_FACE('',(#397),#423,.T.);
#429=ADVANCED_FACE('',(#398),#424,.T.);
#430=ADVANCED_FACE('',(#399),#13,.F.);
#431=ADVANCED_FACE('',(#400),#14,.F.);
#432=ADVANCED_FACE('',(#401),#15,.T.);
#433=ADVANCED_FACE('',(#402),#16,.F.);
#434=ADVANCED_FACE('',(#403),#17,.T.);
#435=ADVANCED_FACE('',(#404),#18,.F.);
#436=ADVANCED_FACE('',(#405),#19,.T.);
#437=ADVANCED_FACE('',(#406),#20,.F.);
#438=ADVANCED_FACE('',(#407,#408),#21,.T.);
#439=ADVANCED_FACE('',(#409,#410),#22,.F.);
#440=ADVANCED_FACE('',(#411),#23,.T.);
#441=ADVANCED_FACE('',(#412),#24,.F.);
#442=ADVANCED_FACE('',(#413),#25,.F.);
#443=ADVANCED_FACE('',(#414),#26,.T.);
#444=ADVANCED_FACE('',(#415),#27,.T.);
#445=ADVANCED_FACE('',(#416),#28,.T.);
#446=ADVANCED_FACE('',(#417),#29,.F.);
#447=ADVANCED_FACE('',(#418),#30,.F.);
#448=ADVANCED_FACE('',(#419),#31,.T.);
#449=ADVANCED_FACE('',(#420),#32,.T.);
#450=CLOSED_SHELL('',(#425,#426,#427,#428,#429,#430,#431,#432,#433,#434,
#435,#436,#437,#438,#439,#440,#441,#442,#443,#444,#445,#446,#447,#448,#449));
#451=STYLED_ITEM('',(#452),#459);
#452=PRESENTATION_STYLE_ASSIGNMENT((#453));
#453=SURFACE_STYLE_USAGE(.BOTH.,#454);
#454=SURFACE_SIDE_STYLE('',(#455));
#455=SURFACE_STYLE_FILL_AREA(#456);
#456=FILL_AREA_STYLE('',(#457));
#457=FILL_AREA_STYLE_COLOUR('',#458);
#458=COLOUR_RGB('',0.615686274509804,0.811764705882353,0.929411764705882);
#459=MANIFOLD_SOLID_BREP('Part 1',#450);
#460=SHAPE_DEFINITION_REPRESENTATION(#748,#461);
#461=SHAPE_REPRESENTATION('Part 1',(#462),#743);
#462=AXIS2_PLACEMENT_3D('',#616,#496,#497);
#463=AXIS2_PLACEMENT_3D('',#617,#498,#499);
#464=AXIS2_PLACEMENT_3D('',#621,#501,#502);
#465=AXIS2_PLACEMENT_3D('',#625,#504,#505);
#466=AXIS2_PLACEMENT_3D('',#626,#506,#507);
#467=AXIS2_PLACEMENT_3D('',#630,#509,#510);
#468=AXIS2_PLACEMENT_3D('',#634,#512,#513);
#469=AXIS2_PLACEMENT_3D('',#635,#514,#515);
#470=AXIS2_PLACEMENT_3D('',#652,#524,#525);
#471=AXIS2_PLACEMENT_3D('',#656,#527,#528);
#472=AXIS2_PLACEMENT_3D('',#660,#530,#531);
#473=AXIS2_PLACEMENT_3D('',#661,#532,#533);
#474=AXIS2_PLACEMENT_3D('',#665,#535,#536);
#475=AXIS2_PLACEMENT_3D('',#669,#538,#539);
#476=AXIS2_PLACEMENT_3D('',#670,#540,#541);
#477=AXIS2_PLACEMENT_3D('',#676,#545,#546);
#478=AXIS2_PLACEMENT_3D('',#680,#549,#550);
#479=AXIS2_PLACEMENT_3D('',#684,#553,#554);
#480=AXIS2_PLACEMENT_3D('',#686,#556,#557);
#481=AXIS2_PLACEMENT_3D('',#695,#562,#563);
#482=AXIS2_PLACEMENT_3D('',#698,#566,#567);
#483=AXIS2_PLACEMENT_3D('',#701,#570,#571);
#484=AXIS2_PLACEMENT_3D('',#704,#574,#575);
#485=AXIS2_PLACEMENT_3D('',#711,#580,#581);
#486=AXIS2_PLACEMENT_3D('',#712,#582,#583);
#487=AXIS2_PLACEMENT_3D('',#718,#587,#588);
#488=AXIS2_PLACEMENT_3D('',#722,#591,#592);
#489=AXIS2_PLACEMENT_3D('',#726,#595,#596);
#490=AXIS2_PLACEMENT_3D('',#728,#598,#599);
#491=AXIS2_PLACEMENT_3D('',#729,#600,#601);
#492=AXIS2_PLACEMENT_3D('',#733,#604,#605);
#493=AXIS2_PLACEMENT_3D('',#735,#607,#608);
#494=AXIS2_PLACEMENT_3D('',#739,#611,#612);
#495=AXIS2_PLACEMENT_3D('',#741,#614,#615);
#496=DIRECTION('',(0.,0.,1.));
#497=DIRECTION('',(1.,0.,0.));
#498=DIRECTION('',(0.,1.,0.));
#499=DIRECTION('',(0.,0.,1.));
#500=DIRECTION('',(0.,1.,0.));
#501=DIRECTION('',(0.,1.,0.));
#502=DIRECTION('',(0.,0.,1.));
#503=DIRECTION('',(0.,1.,0.));
#504=DIRECTION('',(0.,1.,0.));
#505=DIRECTION('',(0.,0.,1.));
#506=DIRECTION('',(0.,1.,0.));
#507=DIRECTION('',(0.,0.,1.));
#508=DIRECTION('',(0.,-1.,0.));
#509=DIRECTION('',(0.,1.,0.));
#510=DIRECTION('',(0.,0.,1.));
#511=DIRECTION('',(0.,-1.,0.));
#512=DIRECTION('',(0.,1.,0.));
#513=DIRECTION('',(0.,0.,1.));
#514=DIRECTION('',(0.,0.,1.));
#515=DIRECTION('',(1.,0.,0.));
#516=DIRECTION('',(1.,0.,0.));
#517=DIRECTION('',(5.33761069531325E-17,-1.,0.));
#518=DIRECTION('',(1.,0.,0.));
#519=DIRECTION('',(0.,-1.,0.));
#520=DIRECTION('',(0.,1.,0.));
#521=DIRECTION('',(-1.,0.,0.));
#522=DIRECTION('',(0.,1.,0.));
#523=DIRECTION('',(-1.,0.,0.));
#524=DIRECTION('',(0.,1.,0.));
#525=DIRECTION('',(0.,0.,1.));
#526=DIRECTION('',(0.,-1.,0.));
#527=DIRECTION('',(0.,1.,0.));
#528=DIRECTION('',(0.,0.,1.));
#529=DIRECTION('',(0.,-1.,0.));
#530=DIRECTION('',(0.,1.,0.));
#531=DIRECTION('',(0.,0.,1.));
#532=DIRECTION('',(0.,-1.,0.));
#533=DIRECTION('',(0.,0.,-1.));
#534=DIRECTION('',(0.,1.,0.));
#535=DIRECTION('',(0.,1.,0.));
#536=DIRECTION('',(0.,0.,1.));
#537=DIRECTION('',(0.,1.,0.));
#538=DIRECTION('',(0.,1.,0.));
#539=DIRECTION('',(0.,0.,1.));
#540=DIRECTION('',(1.,5.33761069531325E-17,0.));
#541=DIRECTION('',(-5.33761069531325E-17,1.,0.));
#542=DIRECTION('',(5.33761069531325E-17,-1.,0.));
#543=DIRECTION('',(0.,0.,-1.));
#544=DIRECTION('',(0.,0.,-1.));
#545=DIRECTION('',(0.,1.,0.));
#546=DIRECTION('',(0.,0.,1.));
#547=DIRECTION('',(1.,0.,0.));
#548=DIRECTION('',(0.,0.,-1.));
#549=DIRECTION('',(1.,0.,0.));
#550=DIRECTION('',(0.,0.,-1.));
#551=DIRECTION('',(0.,-1.,0.));
#552=DIRECTION('',(0.,0.,-1.));
#553=DIRECTION('',(0.,0.,1.));
#554=DIRECTION('',(1.,0.,0.));
#555=DIRECTION('',(1.,0.,0.));
#556=DIRECTION('',(-1.7347234759768E-16,0.,-1.));
#557=DIRECTION('',(-1.,0.,1.7347234759768E-16));
#558=DIRECTION('',(1.,0.,-1.7347234759768E-16));
#559=DIRECTION('',(0.,-1.,0.));
#560=DIRECTION('',(1.,0.,-1.7347234759768E-16));
#561=DIRECTION('',(0.,-1.,0.));
#562=DIRECTION('',(1.,0.,0.));
#563=DIRECTION('',(0.,0.,-1.));
#564=DIRECTION('',(0.,0.,1.));
#565=DIRECTION('',(0.,0.,1.));
#566=DIRECTION('',(0.,0.,1.));
#567=DIRECTION('',(1.,0.,0.));
#568=DIRECTION('',(-1.,0.,0.));
#569=DIRECTION('',(-1.,0.,0.));
#570=DIRECTION('',(-1.,0.,0.));
#571=DIRECTION('',(0.,0.,1.));
#572=DIRECTION('',(0.,0.,-1.));
#573=DIRECTION('',(0.,0.,-1.));
#574=DIRECTION('',(0.,1.,0.));
#575=DIRECTION('',(-1.,0.,0.));
#576=DIRECTION('',(-1.,0.,0.));
#577=DIRECTION('',(1.38777878078144E-16,0.,1.));
#578=DIRECTION('',(-1.,0.,0.));
#579=DIRECTION('',(0.,0.,1.));
#580=DIRECTION('',(0.,1.,0.));
#581=DIRECTION('',(-1.,0.,0.));
#582=DIRECTION('',(0.,1.,0.));
#583=DIRECTION('',(0.,0.,1.));
#584=DIRECTION('',(0.,0.,1.));
#585=DIRECTION('',(-1.,0.,0.));
#586=DIRECTION('',(0.,0.,1.));
#587=DIRECTION('',(1.,0.,0.));
#588=DIRECTION('',(0.,0.,-1.));
#589=DIRECTION('',(0.,0.,1.));
#590=DIRECTION('',(0.,1.,0.));
#591=DIRECTION('',(0.,1.,0.));
#592=DIRECTION('',(0.,0.,1.));
#593=DIRECTION('',(0.,0.,1.));
#594=DIRECTION('',(-1.,0.,0.));
#595=DIRECTION('',(1.,0.,0.));
#596=DIRECTION('',(0.,0.,-1.));
#597=DIRECTION('',(0.,1.,0.));
#598=DIRECTION('',(0.,0.,1.));
#599=DIRECTION('',(1.,0.,0.));
#600=DIRECTION('',(-1.,0.,1.38777878078144E-16));
#601=DIRECTION('',(1.38777878078144E-16,0.,1.));
#602=DIRECTION('',(-1.38777878078144E-16,0.,-1.));
#603=DIRECTION('',(0.,-1.,0.));
#604=DIRECTION('',(0.,0.,-1.));
#605=DIRECTION('',(-1.,0.,0.));
#606=DIRECTION('',(1.,0.,0.));
#607=DIRECTION('',(-1.,0.,0.));
#608=DIRECTION('',(0.,0.,1.));
#609=DIRECTION('',(0.,0.,-1.));
#610=DIRECTION('',(0.,-1.,0.));
#611=DIRECTION('',(0.,0.,-1.));
#612=DIRECTION('',(-1.,0.,0.));
#613=DIRECTION('',(1.,0.,0.));
#614=DIRECTION('',(0.,1.,0.));
#615=DIRECTION('',(-1.,0.,0.));
#616=CARTESIAN_POINT('',(0.,0.,0.));
#617=CARTESIAN_POINT('',(0.0847074430292755,0.0921324282180876,0.045));
#618=CARTESIAN_POINT('',(0.0847074430292755,0.0921324282180876,0.05));
#619=CARTESIAN_POINT('',(0.0847074430292755,0.0881324282180876,0.05));
#620=CARTESIAN_POINT('',(0.0847074430292755,0.0921324282180876,0.05));
#621=CARTESIAN_POINT('',(0.0847074430292755,0.0881324282180876,0.045));
#622=CARTESIAN_POINT('',(0.0897074430292755,0.0881324282180876,0.045));
#623=CARTESIAN_POINT('',(0.0897074430292755,0.0921324282180876,0.045));
#624=CARTESIAN_POINT('',(0.0897074430292755,0.0921324282180876,0.045));
#625=CARTESIAN_POINT('',(0.0847074430292755,0.0921324282180876,0.045));
#626=CARTESIAN_POINT('',(-0.0082925569707245,0.0921324282180876,0.045));
#627=CARTESIAN_POINT('',(-0.0082925569707245,0.0921324282180876,0.05));
#628=CARTESIAN_POINT('',(-0.0082925569707245,0.0921324282180876,0.05));
#629=CARTESIAN_POINT('',(-0.0082925569707245,0.0881324282180876,0.05));
#630=CARTESIAN_POINT('',(-0.0082925569707245,0.0921324282180876,0.045));
#631=CARTESIAN_POINT('',(-0.0132925569707245,0.0921324282180876,0.045));
#632=CARTESIAN_POINT('',(-0.0132925569707245,0.0921324282180876,0.045));
#633=CARTESIAN_POINT('',(-0.0132925569707245,0.0881324282180876,0.045));
#634=CARTESIAN_POINT('',(-0.0082925569707245,0.0881324282180876,0.045));
#635=CARTESIAN_POINT('',(0.0382074430292755,0.0131324282180876,0.075));
#636=CARTESIAN_POINT('',(0.0382074430292755,0.0781324282180877,0.075));
#637=CARTESIAN_POINT('',(-0.0457925569707245,0.0781324282180877,0.075));
#638=CARTESIAN_POINT('',(0.122207443029275,0.0781324282180877,0.075));
#639=CARTESIAN_POINT('',(-0.0457925569707245,0.0131324282180876,0.075));
#640=CARTESIAN_POINT('',(-0.0457925569707245,-0.0518675717819124,0.075));
#641=CARTESIAN_POINT('',(0.0382074430292755,-0.0518675717819124,0.075));
#642=CARTESIAN_POINT('',(0.122207443029275,-0.0518675717819124,0.075));
#643=CARTESIAN_POINT('',(0.122207443029275,0.0131324282180876,0.075));
#644=CARTESIAN_POINT('',(0.117207443029275,0.0136737240797088,0.075));
#645=CARTESIAN_POINT('',(0.117207443029275,-0.04578498005867,0.075));
#646=CARTESIAN_POINT('',(0.117207443029275,0.0731324282180876,0.075));
#647=CARTESIAN_POINT('',(0.0382074430292755,-0.04578498005867,0.075));
#648=CARTESIAN_POINT('',(-0.0407925569707245,-0.04578498005867,0.075));
#649=CARTESIAN_POINT('',(-0.0407925569707245,0.0136737240797088,0.075));
#650=CARTESIAN_POINT('',(-0.0407925569707245,0.0731324282180876,0.075));
#651=CARTESIAN_POINT('',(0.0382074430292755,0.0731324282180876,0.075));
#652=CARTESIAN_POINT('',(-0.0437925569707245,0.0881324282180876,0.073));
#653=CARTESIAN_POINT('',(-0.0437925569707245,0.0881324282180876,0.08));
#654=CARTESIAN_POINT('',(-0.0437925569707245,0.0881324282180876,0.08));
#655=CARTESIAN_POINT('',(-0.0437925569707245,0.0781324282180877,0.08));
#656=CARTESIAN_POINT('',(-0.0437925569707245,0.0881324282180876,0.073));
#657=CARTESIAN_POINT('',(-0.0507925569707245,0.0881324282180876,0.073));
#658=CARTESIAN_POINT('',(-0.0507925569707245,0.0881324282180876,0.073));
#659=CARTESIAN_POINT('',(-0.0507925569707245,0.0781324282180877,0.073));
#660=CARTESIAN_POINT('',(-0.0437925569707245,0.0781324282180877,0.073));
#661=CARTESIAN_POINT('',(0.120207443029275,0.0881324282180876,0.073));
#662=CARTESIAN_POINT('',(0.120207443029275,0.0881324282180876,0.08));
#663=CARTESIAN_POINT('',(0.120207443029275,0.0781324282180877,0.08));
#664=CARTESIAN_POINT('',(0.120207443029275,0.0881324282180876,0.08));
#665=CARTESIAN_POINT('',(0.120207443029275,0.0781324282180877,0.073));
#666=CARTESIAN_POINT('',(0.127207443029275,0.0781324282180877,0.073));
#667=CARTESIAN_POINT('',(0.127207443029275,0.0881324282180876,0.073));
#668=CARTESIAN_POINT('',(0.127207443029275,0.0881324282180876,0.073));
#669=CARTESIAN_POINT('',(0.120207443029275,0.0881324282180876,0.073));
#670=CARTESIAN_POINT('',(-0.0457925569707245,0.0131324282180876,0.075));
#671=CARTESIAN_POINT('',(-0.0457925569707245,0.0131324282180876,0.));
#672=CARTESIAN_POINT('',(-0.0457925569707245,0.0781324282180877,0.));
#673=CARTESIAN_POINT('',(-0.0457925569707245,-0.0518675717819124,0.));
#674=CARTESIAN_POINT('',(-0.0457925569707245,-0.0518675717819124,0.075));
#675=CARTESIAN_POINT('',(-0.0457925569707245,0.0781324282180877,0.075));
#676=CARTESIAN_POINT('',(0.0382074430292755,-0.0518675717819124,0.075));
#677=CARTESIAN_POINT('',(0.0382074430292755,-0.0518675717819124,0.));
#678=CARTESIAN_POINT('',(0.122207443029275,-0.0518675717819124,0.));
#679=CARTESIAN_POINT('',(0.122207443029275,-0.0518675717819124,0.075));
#680=CARTESIAN_POINT('',(0.122207443029275,0.0131324282180876,0.075));
#681=CARTESIAN_POINT('',(0.122207443029275,0.0131324282180876,0.));
#682=CARTESIAN_POINT('',(0.122207443029275,0.0781324282180877,0.));
#683=CARTESIAN_POINT('',(0.122207443029275,0.0781324282180877,0.075));
#684=CARTESIAN_POINT('',(0.0382074430292755,0.0131324282180876,0.));
#685=CARTESIAN_POINT('',(0.0382074430292755,0.0781324282180877,0.));
#686=CARTESIAN_POINT('',(0.124707443029275,0.0881324282180876,-0.005));
#687=CARTESIAN_POINT('',(0.124707443029275,0.0781324282180877,-0.005));
#688=CARTESIAN_POINT('',(-0.0507925569707245,0.0781324282180877,-0.005));
#689=CARTESIAN_POINT('',(0.127207443029275,0.0781324282180877,-0.005));
#690=CARTESIAN_POINT('',(-0.0507925569707245,0.0881324282180876,-0.005));
#691=CARTESIAN_POINT('',(-0.0507925569707245,0.0881324282180876,-0.005));
#692=CARTESIAN_POINT('',(0.124707443029275,0.0881324282180876,-0.005));
#693=CARTESIAN_POINT('',(0.127207443029275,0.0881324282180876,-0.005));
#694=CARTESIAN_POINT('',(0.127207443029275,0.0881324282180876,-0.005));
#695=CARTESIAN_POINT('',(-0.0507925569707245,0.0881324282180876,0.0775));
#696=CARTESIAN_POINT('',(-0.0507925569707245,0.0781324282180877,0.0775));
#697=CARTESIAN_POINT('',(-0.0507925569707245,0.0881324282180876,0.0775));
#698=CARTESIAN_POINT('',(-0.0482925569707245,0.0881324282180876,0.08));
#699=CARTESIAN_POINT('',(-0.0482925569707245,0.0881324282180876,0.08));
#700=CARTESIAN_POINT('',(-0.0482925569707245,0.0781324282180877,0.08));
#701=CARTESIAN_POINT('',(0.127207443029275,0.0881324282180876,-0.0025));
#702=CARTESIAN_POINT('',(0.127207443029275,0.0881324282180876,-0.0025));
#703=CARTESIAN_POINT('',(0.127207443029275,0.0781324282180877,-0.0025));
#704=CARTESIAN_POINT('',(0.0382074430292755,0.0881324282180876,0.0375));
#705=CARTESIAN_POINT('',(0.0382074430292755,0.0881324282180876,0.05));
#706=CARTESIAN_POINT('',(-0.0132925569707245,0.0881324282180876,0.0375));
#707=CARTESIAN_POINT('',(-0.0132925569707245,0.0881324282180876,0.025));
#708=CARTESIAN_POINT('',(0.0382074430292755,0.0881324282180876,0.025));
#709=CARTESIAN_POINT('',(0.0897074430292755,0.0881324282180876,0.025));
#710=CARTESIAN_POINT('',(0.0897074430292755,0.0881324282180876,0.0375));
#711=CARTESIAN_POINT('',(0.0382074430292755,0.0781324282180877,0.0375));
#712=CARTESIAN_POINT('',(0.0382074430292755,-0.04578498005867,0.005));
#713=CARTESIAN_POINT('',(0.117207443029275,-0.04578498005867,0.005));
#714=CARTESIAN_POINT('',(0.117207443029275,-0.04578498005867,0.005));
#715=CARTESIAN_POINT('',(0.0382074430292755,-0.04578498005867,0.005));
#716=CARTESIAN_POINT('',(-0.0407925569707245,-0.04578498005867,0.005));
#717=CARTESIAN_POINT('',(-0.0407925569707245,-0.04578498005867,0.005));
#718=CARTESIAN_POINT('',(0.117207443029275,0.0136737240797088,0.005));
#719=CARTESIAN_POINT('',(0.117207443029275,0.0731324282180876,0.005));
#720=CARTESIAN_POINT('',(0.117207443029275,0.0731324282180876,0.005));
#721=CARTESIAN_POINT('',(0.117207443029275,0.0136737240797088,0.005));
#722=CARTESIAN_POINT('',(0.0382074430292755,0.0731324282180876,0.005));
#723=CARTESIAN_POINT('',(-0.0407925569707245,0.0731324282180876,0.005));
#724=CARTESIAN_POINT('',(-0.0407925569707245,0.0731324282180876,0.005));
#725=CARTESIAN_POINT('',(0.0382074430292755,0.0731324282180876,0.005));
#726=CARTESIAN_POINT('',(-0.0407925569707245,0.0136737240797088,0.005));
#727=CARTESIAN_POINT('',(-0.0407925569707245,0.0136737240797088,0.005));
#728=CARTESIAN_POINT('',(0.0382074430292755,0.0131324282180876,0.005));
#729=CARTESIAN_POINT('',(-0.0132925569707245,0.0921324282180876,0.0375));
#730=CARTESIAN_POINT('',(-0.0132925569707245,0.0921324282180876,0.0375));
#731=CARTESIAN_POINT('',(-0.0132925569707245,0.0921324282180876,0.025));
#732=CARTESIAN_POINT('',(-0.0132925569707245,0.0921324282180876,0.025));
#733=CARTESIAN_POINT('',(0.0382074430292755,0.0921324282180876,0.05));
#734=CARTESIAN_POINT('',(0.0382074430292755,0.0921324282180876,0.05));
#735=CARTESIAN_POINT('',(0.0897074430292755,0.0921324282180876,0.0375));
#736=CARTESIAN_POINT('',(0.0897074430292755,0.0921324282180876,0.0375));
#737=CARTESIAN_POINT('',(0.0897074430292755,0.0921324282180876,0.025));
#738=CARTESIAN_POINT('',(0.0897074430292755,0.0921324282180876,0.025));
#739=CARTESIAN_POINT('',(0.0382074430292755,0.0921324282180876,0.025));
#740=CARTESIAN_POINT('',(0.0382074430292755,0.0921324282180876,0.025));
#741=CARTESIAN_POINT('',(0.0382074430292755,0.0921324282180876,0.0375));
#742=MECHANICAL_DESIGN_GEOMETRIC_PRESENTATION_REPRESENTATION('',(#451),
#743);
#743=(
GEOMETRIC_REPRESENTATION_CONTEXT(3)
GLOBAL_UNCERTAINTY_ASSIGNED_CONTEXT((#744))
GLOBAL_UNIT_ASSIGNED_CONTEXT((#747,#746,#745))
REPRESENTATION_CONTEXT('Part 1','TOP_LEVEL_ASSEMBLY_PART')
);
#744=UNCERTAINTY_MEASURE_WITH_UNIT(LENGTH_MEASURE(1.E-8),#747,
'DISTANCE_ACCURACY_VALUE','Maximum Tolerance applied to model');
#745=(
NAMED_UNIT(*)
SI_UNIT($,.STERADIAN.)
SOLID_ANGLE_UNIT()
);
#746=(
NAMED_UNIT(*)
PLANE_ANGLE_UNIT()
SI_UNIT($,.RADIAN.)
);
#747=(
LENGTH_UNIT()
NAMED_UNIT(*)
SI_UNIT($,.METRE.)
);
#748=PRODUCT_DEFINITION_SHAPE('','',#749);
#749=PRODUCT_DEFINITION('','',#751,#750);
#750=PRODUCT_DEFINITION_CONTEXT('',#757,'design');
#751=PRODUCT_DEFINITION_FORMATION_WITH_SPECIFIED_SOURCE('','',#753,
 .NOT_KNOWN.);
#752=PRODUCT_RELATED_PRODUCT_CATEGORY('','',(#753));
#753=PRODUCT('Part 1','Part 1','Part 1',(#755));
#754=PRODUCT_CATEGORY('','');
#755=PRODUCT_CONTEXT('',#757,'mechanical');
#756=APPLICATION_PROTOCOL_DEFINITION('international standard',
'ap242_managed_model_based_3d_engineering',2020,#757);
#757=APPLICATION_CONTEXT('managed model based 3d engineering');
ENDSEC;
END-ISO-10303-21;
