ISO-10303-21;
HEADER;
/* Generated by software containing ST-Developer
 * from STEP Tools, Inc. (www.steptools.com) 
 */
/* OPTION: using custom renumber hook */

FILE_DESCRIPTION(
/* description */ ('STEP AP242 Edition 2',
'CAx-IF Rec.Pracs.---Representation and Presentation of Product Manufa
cturing Information (PMI)---4.0---2014-10-13',
'CAx-IF Rec.Pracs.---3D Tessellated Geometry---0.4---2014-09-14','2;1',
'CAx-IF Rec.Pracs.---User Defined Attributes---1.5---2016-08-15'),
/* implementation_level */ '2;1');

FILE_NAME(
/* name */ 'Part Studio 1 - Part 1',
/* time_stamp */ '2026-09-03T18:13:04Z',
/* author */ (''),
/* organization */ (''),
/* preprocessor_version */ 'ST-DEVELOPER v20',
/* originating_system */ 'ONSHAPE BY PTC INC, 1.220',
/* authorisation */ '  ');

FILE_SCHEMA (('AP242_MANAGED_MODEL_BASED_3D_ENGINEERING_MIM_LF { 1 0 10303 442 3 1 4 }'));
ENDSEC;

DATA;
#10=SHAPE_REPRESENTATION_RELATIONSHIP('','',#385,#11);
#11=ADVANCED_BREP_SHAPE_REPRESENTATION('',(#383),#603);
#12=ORIENTED_EDGE('',*,*,#108,.T.);
#13=ORIENTED_EDGE('',*,*,#109,.T.);
#14=ORIENTED_EDGE('',*,*,#110,.F.);
#15=ORIENTED_EDGE('',*,*,#111,.F.);
#16=ORIENTED_EDGE('',*,*,#112,.T.);
#17=ORIENTED_EDGE('',*,*,#113,.F.);
#18=ORIENTED_EDGE('',*,*,#114,.F.);
#19=ORIENTED_EDGE('',*,*,#115,.T.);
#20=ORIENTED_EDGE('',*,*,#116,.T.);
#21=ORIENTED_EDGE('',*,*,#117,.T.);
#22=ORIENTED_EDGE('',*,*,#118,.T.);
#23=ORIENTED_EDGE('',*,*,#119,.T.);
#24=ORIENTED_EDGE('',*,*,#120,.T.);
#25=ORIENTED_EDGE('',*,*,#121,.T.);
#26=ORIENTED_EDGE('',*,*,#122,.F.);
#27=ORIENTED_EDGE('',*,*,#123,.F.);
#28=ORIENTED_EDGE('',*,*,#124,.F.);
#29=ORIENTED_EDGE('',*,*,#125,.F.);
#30=ORIENTED_EDGE('',*,*,#126,.T.);
#31=ORIENTED_EDGE('',*,*,#127,.T.);
#32=ORIENTED_EDGE('',*,*,#128,.T.);
#33=ORIENTED_EDGE('',*,*,#115,.F.);
#34=ORIENTED_EDGE('',*,*,#129,.F.);
#35=ORIENTED_EDGE('',*,*,#125,.T.);
#36=ORIENTED_EDGE('',*,*,#130,.F.);
#37=ORIENTED_EDGE('',*,*,#127,.F.);
#38=ORIENTED_EDGE('',*,*,#131,.T.);
#39=ORIENTED_EDGE('',*,*,#113,.T.);
#40=ORIENTED_EDGE('',*,*,#126,.F.);
#41=ORIENTED_EDGE('',*,*,#129,.T.);
#42=ORIENTED_EDGE('',*,*,#114,.T.);
#43=ORIENTED_EDGE('',*,*,#131,.F.);
#44=ORIENTED_EDGE('',*,*,#124,.T.);
#45=ORIENTED_EDGE('',*,*,#130,.T.);
#46=ORIENTED_EDGE('',*,*,#112,.F.);
#47=ORIENTED_EDGE('',*,*,#128,.F.);
#48=ORIENTED_EDGE('',*,*,#116,.F.);
#49=ORIENTED_EDGE('',*,*,#132,.F.);
#50=ORIENTED_EDGE('',*,*,#133,.T.);
#51=ORIENTED_EDGE('',*,*,#134,.T.);
#52=ORIENTED_EDGE('',*,*,#119,.F.);
#53=ORIENTED_EDGE('',*,*,#135,.F.);
#54=ORIENTED_EDGE('',*,*,#136,.T.);
#55=ORIENTED_EDGE('',*,*,#132,.T.);
#56=ORIENTED_EDGE('',*,*,#118,.F.);
#57=ORIENTED_EDGE('',*,*,#137,.F.);
#58=ORIENTED_EDGE('',*,*,#138,.T.);
#59=ORIENTED_EDGE('',*,*,#135,.T.);
#60=ORIENTED_EDGE('',*,*,#117,.F.);
#61=ORIENTED_EDGE('',*,*,#134,.F.);
#62=ORIENTED_EDGE('',*,*,#139,.T.);
#63=ORIENTED_EDGE('',*,*,#137,.T.);
#64=ORIENTED_EDGE('',*,*,#133,.F.);
#65=ORIENTED_EDGE('',*,*,#136,.F.);
#66=ORIENTED_EDGE('',*,*,#138,.F.);
#67=ORIENTED_EDGE('',*,*,#139,.F.);
#68=ORIENTED_EDGE('',*,*,#120,.F.);
#69=ORIENTED_EDGE('',*,*,#140,.F.);
#70=ORIENTED_EDGE('',*,*,#141,.T.);
#71=ORIENTED_EDGE('',*,*,#142,.T.);
#72=ORIENTED_EDGE('',*,*,#123,.T.);
#73=ORIENTED_EDGE('',*,*,#143,.F.);
#74=ORIENTED_EDGE('',*,*,#144,.F.);
#75=ORIENTED_EDGE('',*,*,#140,.T.);
#76=ORIENTED_EDGE('',*,*,#122,.T.);
#77=ORIENTED_EDGE('',*,*,#145,.F.);
#78=ORIENTED_EDGE('',*,*,#146,.F.);
#79=ORIENTED_EDGE('',*,*,#143,.T.);
#80=ORIENTED_EDGE('',*,*,#141,.F.);
#81=ORIENTED_EDGE('',*,*,#144,.T.);
#82=ORIENTED_EDGE('',*,*,#146,.T.);
#83=ORIENTED_EDGE('',*,*,#147,.F.);
#84=ORIENTED_EDGE('',*,*,#108,.F.);
#85=ORIENTED_EDGE('',*,*,#148,.F.);
#86=ORIENTED_EDGE('',*,*,#149,.T.);
#87=ORIENTED_EDGE('',*,*,#150,.T.);
#88=ORIENTED_EDGE('',*,*,#111,.T.);
#89=ORIENTED_EDGE('',*,*,#151,.F.);
#90=ORIENTED_EDGE('',*,*,#152,.F.);
#91=ORIENTED_EDGE('',*,*,#148,.T.);
#92=ORIENTED_EDGE('',*,*,#110,.T.);
#93=ORIENTED_EDGE('',*,*,#153,.F.);
#94=ORIENTED_EDGE('',*,*,#154,.F.);
#95=ORIENTED_EDGE('',*,*,#151,.T.);
#96=ORIENTED_EDGE('',*,*,#149,.F.);
#97=ORIENTED_EDGE('',*,*,#152,.T.);
#98=ORIENTED_EDGE('',*,*,#154,.T.);
#99=ORIENTED_EDGE('',*,*,#155,.F.);
#100=ORIENTED_EDGE('',*,*,#109,.F.);
#101=ORIENTED_EDGE('',*,*,#150,.F.);
#102=ORIENTED_EDGE('',*,*,#155,.T.);
#103=ORIENTED_EDGE('',*,*,#153,.T.);
#104=ORIENTED_EDGE('',*,*,#121,.F.);
#105=ORIENTED_EDGE('',*,*,#142,.F.);
#106=ORIENTED_EDGE('',*,*,#147,.T.);
#107=ORIENTED_EDGE('',*,*,#145,.T.);
#108=EDGE_CURVE('',#156,#157,#188,.T.);
#109=EDGE_CURVE('',#157,#158,#189,.T.);
#110=EDGE_CURVE('',#159,#158,#190,.T.);
#111=EDGE_CURVE('',#156,#159,#191,.T.);
#112=EDGE_CURVE('',#160,#161,#192,.T.);
#113=EDGE_CURVE('',#162,#161,#193,.T.);
#114=EDGE_CURVE('',#163,#162,#194,.T.);
#115=EDGE_CURVE('',#163,#160,#195,.T.);
#116=EDGE_CURVE('',#164,#165,#196,.T.);
#117=EDGE_CURVE('',#165,#166,#197,.T.);
#118=EDGE_CURVE('',#166,#167,#198,.T.);
#119=EDGE_CURVE('',#167,#164,#199,.T.);
#120=EDGE_CURVE('',#168,#169,#200,.T.);
#121=EDGE_CURVE('',#169,#170,#201,.T.);
#122=EDGE_CURVE('',#171,#170,#202,.T.);
#123=EDGE_CURVE('',#168,#171,#203,.T.);
#124=EDGE_CURVE('',#172,#173,#204,.T.);
#125=EDGE_CURVE('',#174,#172,#205,.T.);
#126=EDGE_CURVE('',#174,#175,#206,.T.);
#127=EDGE_CURVE('',#175,#173,#207,.T.);
#128=EDGE_CURVE('',#172,#160,#208,.T.);
#129=EDGE_CURVE('',#174,#163,#209,.T.);
#130=EDGE_CURVE('',#173,#161,#210,.T.);
#131=EDGE_CURVE('',#175,#162,#211,.T.);
#132=EDGE_CURVE('',#176,#164,#212,.T.);
#133=EDGE_CURVE('',#176,#177,#213,.T.);
#134=EDGE_CURVE('',#177,#165,#214,.T.);
#135=EDGE_CURVE('',#178,#167,#215,.T.);
#136=EDGE_CURVE('',#178,#176,#216,.T.);
#137=EDGE_CURVE('',#179,#166,#217,.T.);
#138=EDGE_CURVE('',#179,#178,#218,.T.);
#139=EDGE_CURVE('',#177,#179,#219,.T.);
#140=EDGE_CURVE('',#180,#168,#220,.T.);
#141=EDGE_CURVE('',#180,#181,#221,.T.);
#142=EDGE_CURVE('',#181,#169,#222,.T.);
#143=EDGE_CURVE('',#182,#171,#223,.T.);
#144=EDGE_CURVE('',#180,#182,#224,.T.);
#145=EDGE_CURVE('',#183,#170,#225,.T.);
#146=EDGE_CURVE('',#182,#183,#226,.T.);
#147=EDGE_CURVE('',#181,#183,#227,.T.);
#148=EDGE_CURVE('',#184,#156,#228,.T.);
#149=EDGE_CURVE('',#184,#185,#229,.T.);
#150=EDGE_CURVE('',#185,#157,#230,.T.);
#151=EDGE_CURVE('',#186,#159,#231,.T.);
#152=EDGE_CURVE('',#184,#186,#232,.T.);
#153=EDGE_CURVE('',#187,#158,#233,.T.);
#154=EDGE_CURVE('',#186,#187,#234,.T.);
#155=EDGE_CURVE('',#185,#187,#235,.T.);
#156=VERTEX_POINT('',#503);
#157=VERTEX_POINT('',#504);
#158=VERTEX_POINT('',#506);
#159=VERTEX_POINT('',#508);
#160=VERTEX_POINT('',#511);
#161=VERTEX_POINT('',#512);
#162=VERTEX_POINT('',#514);
#163=VERTEX_POINT('',#516);
#164=VERTEX_POINT('',#519);
#165=VERTEX_POINT('',#520);
#166=VERTEX_POINT('',#522);
#167=VERTEX_POINT('',#524);
#168=VERTEX_POINT('',#527);
#169=VERTEX_POINT('',#528);
#170=VERTEX_POINT('',#530);
#171=VERTEX_POINT('',#532);
#172=VERTEX_POINT('',#536);
#173=VERTEX_POINT('',#537);
#174=VERTEX_POINT('',#539);
#175=VERTEX_POINT('',#541);
#176=VERTEX_POINT('',#553);
#177=VERTEX_POINT('',#555);
#178=VERTEX_POINT('',#559);
#179=VERTEX_POINT('',#563);
#180=VERTEX_POINT('',#570);
#181=VERTEX_POINT('',#572);
#182=VERTEX_POINT('',#576);
#183=VERTEX_POINT('',#580);
#184=VERTEX_POINT('',#586);
#185=VERTEX_POINT('',#588);
#186=VERTEX_POINT('',#592);
#187=VERTEX_POINT('',#596);
#188=LINE('',#502,#236);
#189=LINE('',#505,#237);
#190=LINE('',#507,#238);
#191=LINE('',#509,#239);
#192=LINE('',#510,#240);
#193=LINE('',#513,#241);
#194=LINE('',#515,#242);
#195=LINE('',#517,#243);
#196=LINE('',#518,#244);
#197=LINE('',#521,#245);
#198=LINE('',#523,#246);
#199=LINE('',#525,#247);
#200=LINE('',#526,#248);
#201=LINE('',#529,#249);
#202=LINE('',#531,#250);
#203=LINE('',#533,#251);
#204=LINE('',#535,#252);
#205=LINE('',#538,#253);
#206=LINE('',#540,#254);
#207=LINE('',#542,#255);
#208=LINE('',#544,#256);
#209=LINE('',#545,#257);
#210=LINE('',#547,#258);
#211=LINE('',#548,#259);
#212=LINE('',#552,#260);
#213=LINE('',#554,#261);
#214=LINE('',#556,#262);
#215=LINE('',#558,#263);
#216=LINE('',#560,#264);
#217=LINE('',#562,#265);
#218=LINE('',#564,#266);
#219=LINE('',#566,#267);
#220=LINE('',#569,#268);
#221=LINE('',#571,#269);
#222=LINE('',#573,#270);
#223=LINE('',#575,#271);
#224=LINE('',#577,#272);
#225=LINE('',#579,#273);
#226=LINE('',#581,#274);
#227=LINE('',#583,#275);
#228=LINE('',#585,#276);
#229=LINE('',#587,#277);
#230=LINE('',#589,#278);
#231=LINE('',#591,#279);
#232=LINE('',#593,#280);
#233=LINE('',#595,#281);
#234=LINE('',#597,#282);
#235=LINE('',#599,#283);
#236=VECTOR('',#412,1.);
#237=VECTOR('',#413,1.);
#238=VECTOR('',#414,1.);
#239=VECTOR('',#415,1.);
#240=VECTOR('',#416,1.);
#241=VECTOR('',#417,1.);
#242=VECTOR('',#418,1.);
#243=VECTOR('',#419,1.);
#244=VECTOR('',#420,1.);
#245=VECTOR('',#421,1.);
#246=VECTOR('',#422,1.);
#247=VECTOR('',#423,1.);
#248=VECTOR('',#424,1.);
#249=VECTOR('',#425,1.);
#250=VECTOR('',#426,1.);
#251=VECTOR('',#427,1.);
#252=VECTOR('',#430,1.);
#253=VECTOR('',#431,1.);
#254=VECTOR('',#432,1.);
#255=VECTOR('',#433,1.);
#256=VECTOR('',#436,1.);
#257=VECTOR('',#437,1.);
#258=VECTOR('',#440,1.);
#259=VECTOR('',#441,1.);
#260=VECTOR('',#448,1.);
#261=VECTOR('',#449,1.);
#262=VECTOR('',#450,1.);
#263=VECTOR('',#453,1.);
#264=VECTOR('',#454,1.);
#265=VECTOR('',#457,1.);
#266=VECTOR('',#458,1.);
#267=VECTOR('',#461,1.);
#268=VECTOR('',#466,1.);
#269=VECTOR('',#467,1.);
#270=VECTOR('',#468,1.);
#271=VECTOR('',#471,1.);
#272=VECTOR('',#472,1.);
#273=VECTOR('',#475,1.);
#274=VECTOR('',#476,1.);
#275=VECTOR('',#479,1.);
#276=VECTOR('',#482,1.);
#277=VECTOR('',#483,1.);
#278=VECTOR('',#484,1.);
#279=VECTOR('',#487,1.);
#280=VECTOR('',#488,1.);
#281=VECTOR('',#491,1.);
#282=VECTOR('',#492,1.);
#283=VECTOR('',#495,1.);
#284=EDGE_LOOP('',(#12,#13,#14,#15));
#285=EDGE_LOOP('',(#16,#17,#18,#19));
#286=EDGE_LOOP('',(#20,#21,#22,#23));
#287=EDGE_LOOP('',(#24,#25,#26,#27));
#288=EDGE_LOOP('',(#28,#29,#30,#31));
#289=EDGE_LOOP('',(#32,#33,#34,#35));
#290=EDGE_LOOP('',(#36,#37,#38,#39));
#291=EDGE_LOOP('',(#40,#41,#42,#43));
#292=EDGE_LOOP('',(#44,#45,#46,#47));
#293=EDGE_LOOP('',(#48,#49,#50,#51));
#294=EDGE_LOOP('',(#52,#53,#54,#55));
#295=EDGE_LOOP('',(#56,#57,#58,#59));
#296=EDGE_LOOP('',(#60,#61,#62,#63));
#297=EDGE_LOOP('',(#64,#65,#66,#67));
#298=EDGE_LOOP('',(#68,#69,#70,#71));
#299=EDGE_LOOP('',(#72,#73,#74,#75));
#300=EDGE_LOOP('',(#76,#77,#78,#79));
#301=EDGE_LOOP('',(#80,#81,#82,#83));
#302=EDGE_LOOP('',(#84,#85,#86,#87));
#303=EDGE_LOOP('',(#88,#89,#90,#91));
#304=EDGE_LOOP('',(#92,#93,#94,#95));
#305=EDGE_LOOP('',(#96,#97,#98,#99));
#306=EDGE_LOOP('',(#100,#101,#102,#103));
#307=EDGE_LOOP('',(#104,#105,#106,#107));
#308=FACE_BOUND('',#284,.T.);
#309=FACE_BOUND('',#285,.T.);
#310=FACE_BOUND('',#286,.T.);
#311=FACE_BOUND('',#287,.T.);
#312=FACE_BOUND('',#288,.T.);
#313=FACE_BOUND('',#289,.T.);
#314=FACE_BOUND('',#290,.T.);
#315=FACE_BOUND('',#291,.T.);
#316=FACE_BOUND('',#292,.T.);
#317=FACE_BOUND('',#293,.T.);
#318=FACE_BOUND('',#294,.T.);
#319=FACE_BOUND('',#295,.T.);
#320=FACE_BOUND('',#296,.T.);
#321=FACE_BOUND('',#297,.T.);
#322=FACE_BOUND('',#298,.T.);
#323=FACE_BOUND('',#299,.T.);
#324=FACE_BOUND('',#300,.T.);
#325=FACE_BOUND('',#301,.T.);
#326=FACE_BOUND('',#302,.T.);
#327=FACE_BOUND('',#303,.T.);
#328=FACE_BOUND('',#304,.T.);
#329=FACE_BOUND('',#305,.T.);
#330=FACE_BOUND('',#306,.T.);
#331=FACE_BOUND('',#307,.T.);
#332=PLANE('',#387);
#333=PLANE('',#388);
#334=PLANE('',#389);
#335=PLANE('',#390);
#336=PLANE('',#391);
#337=PLANE('',#392);
#338=PLANE('',#393);
#339=PLANE('',#394);
#340=PLANE('',#395);
#341=PLANE('',#396);
#342=PLANE('',#397);
#343=PLANE('',#398);
#344=PLANE('',#399);
#345=PLANE('',#400);
#346=PLANE('',#401);
#347=PLANE('',#402);
#348=PLANE('',#403);
#349=PLANE('',#404);
#350=PLANE('',#405);
#351=PLANE('',#406);
#352=PLANE('',#407);
#353=ADVANCED_FACE('',(#308,#309,#310,#311),#332,.F.);
#354=ADVANCED_FACE('',(#312),#333,.T.);
#355=ADVANCED_FACE('',(#313),#334,.F.);
#356=ADVANCED_FACE('',(#314),#335,.T.);
#357=ADVANCED_FACE('',(#315),#336,.T.);
#358=ADVANCED_FACE('',(#316),#337,.F.);
#359=ADVANCED_FACE('',(#317),#338,.T.);
#360=ADVANCED_FACE('',(#318),#339,.T.);
#361=ADVANCED_FACE('',(#319),#340,.T.);
#362=ADVANCED_FACE('',(#320),#341,.T.);
#363=ADVANCED_FACE('',(#321),#342,.T.);
#364=ADVANCED_FACE('',(#322),#343,.T.);
#365=ADVANCED_FACE('',(#323),#344,.F.);
#366=ADVANCED_FACE('',(#324),#345,.F.);
#367=ADVANCED_FACE('',(#325),#346,.T.);
#368=ADVANCED_FACE('',(#326),#347,.T.);
#369=ADVANCED_FACE('',(#327),#348,.F.);
#370=ADVANCED_FACE('',(#328),#349,.F.);
#371=ADVANCED_FACE('',(#329),#350,.T.);
#372=ADVANCED_FACE('',(#330),#351,.T.);
#373=ADVANCED_FACE('',(#331),#352,.T.);
#374=CLOSED_SHELL('',(#353,#354,#355,#356,#357,#358,#359,#360,#361,#362,
#363,#364,#365,#366,#367,#368,#369,#370,#371,#372,#373));
#375=STYLED_ITEM('',(#376),#383);
#376=PRESENTATION_STYLE_ASSIGNMENT((#377));
#377=SURFACE_STYLE_USAGE(.BOTH.,#378);
#378=SURFACE_SIDE_STYLE('',(#379));
#379=SURFACE_STYLE_FILL_AREA(#380);
#380=FILL_AREA_STYLE('',(#381));
#381=FILL_AREA_STYLE_COLOUR('',#382);
#382=COLOUR_RGB('',0.615686274509804,0.811764705882353,0.929411764705882);
#383=MANIFOLD_SOLID_BREP('Part 1',#374);
#384=SHAPE_DEFINITION_REPRESENTATION(#608,#385);
#385=SHAPE_REPRESENTATION('Part 1',(#386),#603);
#386=AXIS2_PLACEMENT_3D('',#500,#408,#409);
#387=AXIS2_PLACEMENT_3D('',#501,#410,#411);
#388=AXIS2_PLACEMENT_3D('',#534,#428,#429);
#389=AXIS2_PLACEMENT_3D('',#543,#434,#435);
#390=AXIS2_PLACEMENT_3D('',#546,#438,#439);
#391=AXIS2_PLACEMENT_3D('',#549,#442,#443);
#392=AXIS2_PLACEMENT_3D('',#550,#444,#445);
#393=AXIS2_PLACEMENT_3D('',#551,#446,#447);
#394=AXIS2_PLACEMENT_3D('',#557,#451,#452);
#395=AXIS2_PLACEMENT_3D('',#561,#455,#456);
#396=AXIS2_PLACEMENT_3D('',#565,#459,#460);
#397=AXIS2_PLACEMENT_3D('',#567,#462,#463);
#398=AXIS2_PLACEMENT_3D('',#568,#464,#465);
#399=AXIS2_PLACEMENT_3D('',#574,#469,#470);
#400=AXIS2_PLACEMENT_3D('',#578,#473,#474);
#401=AXIS2_PLACEMENT_3D('',#582,#477,#478);
#402=AXIS2_PLACEMENT_3D('',#584,#480,#481);
#403=AXIS2_PLACEMENT_3D('',#590,#485,#486);
#404=AXIS2_PLACEMENT_3D('',#594,#489,#490);
#405=AXIS2_PLACEMENT_3D('',#598,#493,#494);
#406=AXIS2_PLACEMENT_3D('',#600,#496,#497);
#407=AXIS2_PLACEMENT_3D('',#601,#498,#499);
#408=DIRECTION('',(0.,0.,1.));
#409=DIRECTION('',(1.,0.,0.));
#410=DIRECTION('',(0.,1.,0.));
#411=DIRECTION('',(0.,0.,1.));
#412=DIRECTION('',(1.,0.,0.));
#413=DIRECTION('',(0.,0.,-1.));
#414=DIRECTION('',(1.,0.,0.));
#415=DIRECTION('',(0.,0.,-1.));
#416=DIRECTION('',(1.,0.,0.));
#417=DIRECTION('',(0.,0.,-1.));
#418=DIRECTION('',(1.,0.,0.));
#419=DIRECTION('',(0.,0.,-1.));
#420=DIRECTION('',(1.,0.,0.));
#421=DIRECTION('',(0.,0.,-1.));
#422=DIRECTION('',(-1.,0.,0.));
#423=DIRECTION('',(0.,0.,1.));
#424=DIRECTION('',(1.,0.,0.));
#425=DIRECTION('',(0.,0.,-1.));
#426=DIRECTION('',(1.,0.,0.));
#427=DIRECTION('',(0.,0.,-1.));
#428=DIRECTION('',(0.,1.,0.));
#429=DIRECTION('',(0.,0.,1.));
#430=DIRECTION('',(1.,0.,0.));
#431=DIRECTION('',(0.,0.,-1.));
#432=DIRECTION('',(1.,0.,0.));
#433=DIRECTION('',(0.,0.,-1.));
#434=DIRECTION('',(1.,0.,0.));
#435=DIRECTION('',(0.,0.,-1.));
#436=DIRECTION('',(0.,-1.,0.));
#437=DIRECTION('',(0.,-1.,0.));
#438=DIRECTION('',(1.,0.,0.));
#439=DIRECTION('',(0.,0.,-1.));
#440=DIRECTION('',(0.,-1.,0.));
#441=DIRECTION('',(0.,-1.,0.));
#442=DIRECTION('',(0.,0.,1.));
#443=DIRECTION('',(1.,0.,0.));
#444=DIRECTION('',(0.,0.,1.));
#445=DIRECTION('',(1.,0.,0.));
#446=DIRECTION('',(0.,0.,-1.));
#447=DIRECTION('',(-1.,0.,0.));
#448=DIRECTION('',(0.,-1.,0.));
#449=DIRECTION('',(1.,0.,0.));
#450=DIRECTION('',(0.,-1.,0.));
#451=DIRECTION('',(1.,0.,0.));
#452=DIRECTION('',(0.,0.,-1.));
#453=DIRECTION('',(0.,-1.,0.));
#454=DIRECTION('',(0.,0.,1.));
#455=DIRECTION('',(0.,0.,1.));
#456=DIRECTION('',(1.,0.,0.));
#457=DIRECTION('',(0.,-1.,0.));
#458=DIRECTION('',(-1.,0.,0.));
#459=DIRECTION('',(-1.,0.,0.));
#460=DIRECTION('',(0.,0.,1.));
#461=DIRECTION('',(0.,0.,-1.));
#462=DIRECTION('',(0.,-1.,0.));
#463=DIRECTION('',(1.,0.,0.));
#464=DIRECTION('',(0.,0.,-1.));
#465=DIRECTION('',(-1.,0.,0.));
#466=DIRECTION('',(0.,-1.,0.));
#467=DIRECTION('',(1.,0.,0.));
#468=DIRECTION('',(0.,-1.,0.));
#469=DIRECTION('',(-1.,0.,0.));
#470=DIRECTION('',(0.,0.,1.));
#471=DIRECTION('',(0.,-1.,0.));
#472=DIRECTION('',(0.,0.,-1.));
#473=DIRECTION('',(0.,0.,-1.));
#474=DIRECTION('',(-1.,0.,0.));
#475=DIRECTION('',(0.,-1.,0.));
#476=DIRECTION('',(1.,0.,0.));
#477=DIRECTION('',(0.,-1.,0.));
#478=DIRECTION('',(1.,0.,0.));
#479=DIRECTION('',(0.,0.,-1.));
#480=DIRECTION('',(0.,0.,-1.));
#481=DIRECTION('',(-1.,0.,0.));
#482=DIRECTION('',(0.,-1.,0.));
#483=DIRECTION('',(1.,0.,0.));
#484=DIRECTION('',(0.,-1.,0.));
#485=DIRECTION('',(-1.,0.,0.));
#486=DIRECTION('',(0.,0.,1.));
#487=DIRECTION('',(0.,-1.,0.));
#488=DIRECTION('',(0.,0.,-1.));
#489=DIRECTION('',(0.,0.,-1.));
#490=DIRECTION('',(-1.,0.,0.));
#491=DIRECTION('',(0.,-1.,0.));
#492=DIRECTION('',(1.,0.,0.));
#493=DIRECTION('',(0.,-1.,0.));
#494=DIRECTION('',(1.,0.,0.));
#495=DIRECTION('',(0.,0.,-1.));
#496=DIRECTION('',(-1.,0.,0.));
#497=DIRECTION('',(0.,0.,1.));
#498=DIRECTION('',(-1.,0.,0.));
#499=DIRECTION('',(0.,0.,1.));
#500=CARTESIAN_POINT('',(0.,0.,0.));
#501=CARTESIAN_POINT('',(0.0393540906392414,-0.0592053305437959,0.45));
#502=CARTESIAN_POINT('',(-0.0396459093607586,-0.0592053305437959,0.225));
#503=CARTESIAN_POINT('',(-0.0446459093607586,-0.0592053305437959,0.225));
#504=CARTESIAN_POINT('',(0.123354090639241,-0.0592053305437959,0.225));
#505=CARTESIAN_POINT('',(0.123354090639241,-0.0592053305437959,0.1875));
#506=CARTESIAN_POINT('',(0.123354090639241,-0.0592053305437959,0.15));
#507=CARTESIAN_POINT('',(-0.0333568521952235,-0.0592053305437959,0.15));
#508=CARTESIAN_POINT('',(-0.0446459093607586,-0.0592053305437959,0.15));
#509=CARTESIAN_POINT('',(-0.0446459093607586,-0.0592053305437959,0.1875));
#510=CARTESIAN_POINT('',(0.0393540906392414,-0.0592053305437959,0.));
#511=CARTESIAN_POINT('',(-0.0596459093607587,-0.0592053305437959,0.));
#512=CARTESIAN_POINT('',(0.138354090639241,-0.0592053305437959,0.));
#513=CARTESIAN_POINT('',(0.138354090639241,-0.0592053305437959,0.45));
#514=CARTESIAN_POINT('',(0.138354090639241,-0.0592053305437959,0.45));
#515=CARTESIAN_POINT('',(0.0393540906392414,-0.0592053305437959,0.45));
#516=CARTESIAN_POINT('',(-0.0596459093607587,-0.0592053305437959,0.45));
#517=CARTESIAN_POINT('',(-0.0596459093607587,-0.0592053305437959,0.45));
#518=CARTESIAN_POINT('',(0.0393540906392414,-0.0592053305437959,0.435));
#519=CARTESIAN_POINT('',(-0.0446459093607586,-0.0592053305437959,0.435));
#520=CARTESIAN_POINT('',(0.123354090639241,-0.0592053305437959,0.435));
#521=CARTESIAN_POINT('',(0.123354090639241,-0.0592053305437959,0.335));
#522=CARTESIAN_POINT('',(0.123354090639241,-0.0592053305437959,0.235));
#523=CARTESIAN_POINT('',(0.0393540906392414,-0.0592053305437959,0.235));
#524=CARTESIAN_POINT('',(-0.0446459093607586,-0.0592053305437959,0.235));
#525=CARTESIAN_POINT('',(-0.0446459093607586,-0.0592053305437959,0.335));
#526=CARTESIAN_POINT('',(-0.0333568521952235,-0.0592053305437959,0.14));
#527=CARTESIAN_POINT('',(-0.0446459093607586,-0.0592053305437959,0.14));
#528=CARTESIAN_POINT('',(0.123354090639241,-0.0592053305437959,0.14));
#529=CARTESIAN_POINT('',(0.123354090639241,-0.0592053305437959,0.1025));
#530=CARTESIAN_POINT('',(0.123354090639241,-0.0592053305437959,0.065));
#531=CARTESIAN_POINT('',(0.0384262513287203,-0.0592053305437959,0.065));
#532=CARTESIAN_POINT('',(-0.0446459093607586,-0.0592053305437959,0.065));
#533=CARTESIAN_POINT('',(-0.0446459093607586,-0.0592053305437959,0.1025));
#534=CARTESIAN_POINT('',(0.0393540906392414,0.0787946694562041,0.45));
#535=CARTESIAN_POINT('',(0.0393540906392414,0.0787946694562041,0.));
#536=CARTESIAN_POINT('',(-0.0596459093607587,0.0787946694562041,0.));
#537=CARTESIAN_POINT('',(0.138354090639241,0.0787946694562041,0.));
#538=CARTESIAN_POINT('',(-0.0596459093607587,0.0787946694562041,0.45));
#539=CARTESIAN_POINT('',(-0.0596459093607587,0.0787946694562041,0.45));
#540=CARTESIAN_POINT('',(0.0393540906392414,0.0787946694562041,0.45));
#541=CARTESIAN_POINT('',(0.138354090639241,0.0787946694562041,0.45));
#542=CARTESIAN_POINT('',(0.138354090639241,0.0787946694562041,0.45));
#543=CARTESIAN_POINT('',(-0.0596459093607587,0.00979466945620413,0.45));
#544=CARTESIAN_POINT('',(-0.0596459093607587,0.00979466945620413,0.));
#545=CARTESIAN_POINT('',(-0.0596459093607587,0.00979466945620413,0.45));
#546=CARTESIAN_POINT('',(0.138354090639241,0.00979466945620412,0.45));
#547=CARTESIAN_POINT('',(0.138354090639241,0.00979466945620412,0.));
#548=CARTESIAN_POINT('',(0.138354090639241,0.00979466945620412,0.45));
#549=CARTESIAN_POINT('',(0.0393540906392414,0.00979466945620414,0.45));
#550=CARTESIAN_POINT('',(0.0393540906392414,0.00979466945620414,0.));
#551=CARTESIAN_POINT('',(0.0393540906392414,0.0607946694562041,0.435));
#552=CARTESIAN_POINT('',(-0.0446459093607586,0.0607946694562041,0.435));
#553=CARTESIAN_POINT('',(-0.0446459093607586,0.0607946694562041,0.435));
#554=CARTESIAN_POINT('',(0.0393540906392414,0.0607946694562041,0.435));
#555=CARTESIAN_POINT('',(0.123354090639241,0.0607946694562041,0.435));
#556=CARTESIAN_POINT('',(0.123354090639241,0.0607946694562041,0.435));
#557=CARTESIAN_POINT('',(-0.0446459093607586,0.0607946694562041,0.335));
#558=CARTESIAN_POINT('',(-0.0446459093607586,0.0607946694562041,0.235));
#559=CARTESIAN_POINT('',(-0.0446459093607586,0.0607946694562041,0.235));
#560=CARTESIAN_POINT('',(-0.0446459093607586,0.0607946694562041,0.335));
#561=CARTESIAN_POINT('',(0.0393540906392414,0.0607946694562041,0.235));
#562=CARTESIAN_POINT('',(0.123354090639241,0.0607946694562041,0.235));
#563=CARTESIAN_POINT('',(0.123354090639241,0.0607946694562041,0.235));
#564=CARTESIAN_POINT('',(0.0393540906392414,0.0607946694562041,0.235));
#565=CARTESIAN_POINT('',(0.123354090639241,0.0607946694562041,0.335));
#566=CARTESIAN_POINT('',(0.123354090639241,0.0607946694562041,0.335));
#567=CARTESIAN_POINT('',(0.0393540906392414,0.0607946694562041,0.225));
#568=CARTESIAN_POINT('',(-0.0333568521952235,0.0707946694562041,0.14));
#569=CARTESIAN_POINT('',(-0.0446459093607586,0.0707946694562041,0.14));
#570=CARTESIAN_POINT('',(-0.0446459093607586,0.0707946694562041,0.14));
#571=CARTESIAN_POINT('',(-0.0333568521952235,0.0707946694562041,0.14));
#572=CARTESIAN_POINT('',(0.123354090639241,0.0707946694562041,0.14));
#573=CARTESIAN_POINT('',(0.123354090639241,0.0707946694562041,0.14));
#574=CARTESIAN_POINT('',(-0.0446459093607586,0.0707946694562041,0.1025));
#575=CARTESIAN_POINT('',(-0.0446459093607586,0.0707946694562041,0.065));
#576=CARTESIAN_POINT('',(-0.0446459093607586,0.0707946694562041,0.065));
#577=CARTESIAN_POINT('',(-0.0446459093607586,0.0707946694562041,0.1025));
#578=CARTESIAN_POINT('',(0.0384262513287203,0.0707946694562041,0.065));
#579=CARTESIAN_POINT('',(0.123354090639241,0.0707946694562041,0.065));
#580=CARTESIAN_POINT('',(0.123354090639241,0.0707946694562041,0.065));
#581=CARTESIAN_POINT('',(0.0384262513287203,0.0707946694562041,0.065));
#582=CARTESIAN_POINT('',(0.0393540906392414,0.0707946694562041,0.225));
#583=CARTESIAN_POINT('',(0.123354090639241,0.0707946694562041,0.1025));
#584=CARTESIAN_POINT('',(-0.0396459093607586,0.0707946694562041,0.225));
#585=CARTESIAN_POINT('',(-0.0446459093607586,0.0707946694562041,0.225));
#586=CARTESIAN_POINT('',(-0.0446459093607586,0.0707946694562041,0.225));
#587=CARTESIAN_POINT('',(-0.0396459093607586,0.0707946694562041,0.225));
#588=CARTESIAN_POINT('',(0.123354090639241,0.0707946694562041,0.225));
#589=CARTESIAN_POINT('',(0.123354090639241,0.0707946694562041,0.225));
#590=CARTESIAN_POINT('',(-0.0446459093607586,0.0707946694562041,0.1875));
#591=CARTESIAN_POINT('',(-0.0446459093607586,0.0707946694562041,0.15));
#592=CARTESIAN_POINT('',(-0.0446459093607586,0.0707946694562041,0.15));
#593=CARTESIAN_POINT('',(-0.0446459093607586,0.0707946694562041,0.1875));
#594=CARTESIAN_POINT('',(-0.0333568521952235,0.0707946694562041,0.15));
#595=CARTESIAN_POINT('',(0.123354090639241,0.0707946694562041,0.15));
#596=CARTESIAN_POINT('',(0.123354090639241,0.0707946694562041,0.15));
#597=CARTESIAN_POINT('',(-0.0333568521952235,0.0707946694562041,0.15));
#598=CARTESIAN_POINT('',(0.0393540906392414,0.0707946694562041,0.225));
#599=CARTESIAN_POINT('',(0.123354090639241,0.0707946694562041,0.1875));
#600=CARTESIAN_POINT('',(0.123354090639241,0.0707946694562041,0.1875));
#601=CARTESIAN_POINT('',(0.123354090639241,0.0707946694562041,0.1025));
#602=MECHANICAL_DESIGN_GEOMETRIC_PRESENTATION_REPRESENTATION('',(#375),
#603);
#603=(
GEOMETRIC_REPRESENTATION_CONTEXT(3)
GLOBAL_UNCERTAINTY_ASSIGNED_CONTEXT((#604))
GLOBAL_UNIT_ASSIGNED_CONTEXT((#607,#606,#605))
REPRESENTATION_CONTEXT('Part 1','TOP_LEVEL_ASSEMBLY_PART')
);
#604=UNCERTAINTY_MEASURE_WITH_UNIT(LENGTH_MEASURE(1.E-8),#607,
'DISTANCE_ACCURACY_VALUE','Maximum Tolerance applied to model');
#605=(
NAMED_UNIT(*)
SI_UNIT($,.STERADIAN.)
SOLID_ANGLE_UNIT()
);
#606=(
NAMED_UNIT(*)
PLANE_ANGLE_UNIT()
SI_UNIT($,.RADIAN.)
);
#607=(
LENGTH_UNIT()
NAMED_UNIT(*)
SI_UNIT($,.METRE.)
);
#608=PRODUCT_DEFINITION_SHAPE('','',#609);
#609=PRODUCT_DEFINITION('','',#611,#610);
#610=PRODUCT_DEFINITION_CONTEXT('',#617,'design');
#611=PRODUCT_DEFINITION_FORMATION_WITH_SPECIFIED_SOURCE('','',#613,
 .NOT_KNOWN.);
#612=PRODUCT_RELATED_PRODUCT_CATEGORY('','',(#613));
#613=PRODUCT('Part 1','Part 1','Part 1',(#615));
#614=PRODUCT_CATEGORY('','');
#615=PRODUCT_CONTEXT('',#617,'mechanical');
#616=APPLICATION_PROTOCOL_DEFINITION('international standard',
'ap242_managed_model_based_3d_engineering',2020,#617);
#617=APPLICATION_CONTEXT('managed model based 3d engineering');
ENDSEC;
END-ISO-10303-21;
