ISO-10303-21;
HEADER;
/* Generated by software containing ST-Developer
 * from STEP Tools, Inc. (www.steptools.com) 
 */
/* OPTION: using custom renumber hook */

FILE_DESCRIPTION(
/* description */ ('STEP AP242 Edition 2',
'CAx-IF Rec.Pracs.---Representation and Presentation of Product Manufa
cturing Information (PMI)---4.0---2014-10-13',
'CAx-IF Rec.Pracs.---3D Tessellated Geometry---0.4---2014-09-14','2;1',
'CAx-IF Rec.Pracs.---User Defined Attributes---1.5---2016-08-15'),
/* implementation_level */ '2;1');

FILE_NAME(
/* name */ 'Part Studio 1 - Part 1',
/* time_stamp */ '2026-09-03T18:11:56Z',
/* author */ (''),
/* organization */ (''),
/* preprocessor_version */ 'ST-DEVELOPER v20',
/* originating_system */ 'ONSHAPE BY PTC INC, 1.220',
/* authorisation */ '  ');

FILE_SCHEMA (('AP242_MANAGED_MODEL_BASED_3D_ENGINEERING_MIM_LF { 1 0 10303 442 3 1 4 }'));
ENDSEC;

DATA;
#10=SHAPE_REPRESENTATION_RELATIONSHIP('','',#395,#11);
#11=ADVANCED_BREP_SHAPE_REPRESENTATION('',(#393),#655);
#12=CYLINDRICAL_SURFACE('',#405,0.014);
#13=CYLINDRICAL_SURFACE('',#407,0.014);
#14=CYLINDRICAL_SURFACE('',#416,0.0178340676572626);
#15=CYLINDRICAL_SURFACE('',#419,0.02);
#16=CYLINDRICAL_SURFACE('',#422,0.02);
#17=CYLINDRICAL_SURFACE('',#430,0.02);
#18=CYLINDRICAL_SURFACE('',#433,0.02);
#19=LINE('',#554,#51);
#20=LINE('',#559,#52);
#21=LINE('',#563,#53);
#22=LINE('',#565,#54);
#23=LINE('',#567,#55);
#24=LINE('',#569,#56);
#25=LINE('',#576,#57);
#26=LINE('',#579,#58);
#27=LINE('',#581,#59);
#28=LINE('',#583,#60);
#29=LINE('',#585,#61);
#30=LINE('',#587,#62);
#31=LINE('',#591,#63);
#32=LINE('',#593,#64);
#33=LINE('',#597,#65);
#34=LINE('',#599,#66);
#35=LINE('',#601,#67);
#36=LINE('',#603,#68);
#37=LINE('',#605,#69);
#38=LINE('',#607,#70);
#39=LINE('',#609,#71);
#40=LINE('',#611,#72);
#41=LINE('',#613,#73);
#42=LINE('',#615,#74);
#43=LINE('',#630,#75);
#44=LINE('',#632,#76);
#45=LINE('',#634,#77);
#46=LINE('',#636,#78);
#47=LINE('',#638,#79);
#48=LINE('',#640,#80);
#49=LINE('',#642,#81);
#50=LINE('',#644,#82);
#51=VECTOR('',#444,1.);
#52=VECTOR('',#447,1.);
#53=VECTOR('',#450,1.);
#54=VECTOR('',#451,1.);
#55=VECTOR('',#452,1.);
#56=VECTOR('',#453,1.);
#57=VECTOR('',#460,1.);
#58=VECTOR('',#461,1.);
#59=VECTOR('',#462,1.);
#60=VECTOR('',#463,1.);
#61=VECTOR('',#466,1.);
#62=VECTOR('',#467,1.);
#63=VECTOR('',#472,1.);
#64=VECTOR('',#473,1.);
#65=VECTOR('',#478,1.);
#66=VECTOR('',#479,1.);
#67=VECTOR('',#480,1.);
#68=VECTOR('',#483,1.);
#69=VECTOR('',#484,1.);
#70=VECTOR('',#487,1.);
#71=VECTOR('',#488,1.);
#72=VECTOR('',#491,1.);
#73=VECTOR('',#494,1.);
#74=VECTOR('',#497,1.);
#75=VECTOR('',#520,1.);
#76=VECTOR('',#521,1.);
#77=VECTOR('',#522,1.);
#78=VECTOR('',#525,1.);
#79=VECTOR('',#526,1.);
#80=VECTOR('',#529,1.);
#81=VECTOR('',#530,1.);
#82=VECTOR('',#533,1.);
#83=ORIENTED_EDGE('',*,*,#175,.F.);
#84=ORIENTED_EDGE('',*,*,#176,.F.);
#85=ORIENTED_EDGE('',*,*,#177,.T.);
#86=ORIENTED_EDGE('',*,*,#178,.T.);
#87=ORIENTED_EDGE('',*,*,#179,.F.);
#88=ORIENTED_EDGE('',*,*,#180,.F.);
#89=ORIENTED_EDGE('',*,*,#181,.F.);
#90=ORIENTED_EDGE('',*,*,#182,.F.);
#91=ORIENTED_EDGE('',*,*,#183,.T.);
#92=ORIENTED_EDGE('',*,*,#184,.T.);
#93=ORIENTED_EDGE('',*,*,#185,.F.);
#94=ORIENTED_EDGE('',*,*,#186,.F.);
#95=ORIENTED_EDGE('',*,*,#187,.F.);
#96=ORIENTED_EDGE('',*,*,#188,.T.);
#97=ORIENTED_EDGE('',*,*,#189,.T.);
#98=ORIENTED_EDGE('',*,*,#190,.F.);
#99=ORIENTED_EDGE('',*,*,#191,.F.);
#100=ORIENTED_EDGE('',*,*,#192,.F.);
#101=ORIENTED_EDGE('',*,*,#178,.F.);
#102=ORIENTED_EDGE('',*,*,#193,.F.);
#103=ORIENTED_EDGE('',*,*,#194,.F.);
#104=ORIENTED_EDGE('',*,*,#195,.F.);
#105=ORIENTED_EDGE('',*,*,#180,.T.);
#106=ORIENTED_EDGE('',*,*,#196,.F.);
#107=ORIENTED_EDGE('',*,*,#197,.T.);
#108=ORIENTED_EDGE('',*,*,#184,.F.);
#109=ORIENTED_EDGE('',*,*,#198,.F.);
#110=ORIENTED_EDGE('',*,*,#199,.T.);
#111=ORIENTED_EDGE('',*,*,#200,.T.);
#112=ORIENTED_EDGE('',*,*,#183,.F.);
#113=ORIENTED_EDGE('',*,*,#201,.F.);
#114=ORIENTED_EDGE('',*,*,#202,.T.);
#115=ORIENTED_EDGE('',*,*,#198,.T.);
#116=ORIENTED_EDGE('',*,*,#182,.T.);
#117=ORIENTED_EDGE('',*,*,#203,.F.);
#118=ORIENTED_EDGE('',*,*,#204,.F.);
#119=ORIENTED_EDGE('',*,*,#201,.T.);
#120=ORIENTED_EDGE('',*,*,#181,.T.);
#121=ORIENTED_EDGE('',*,*,#195,.T.);
#122=ORIENTED_EDGE('',*,*,#205,.F.);
#123=ORIENTED_EDGE('',*,*,#203,.T.);
#124=ORIENTED_EDGE('',*,*,#179,.T.);
#125=ORIENTED_EDGE('',*,*,#192,.T.);
#126=ORIENTED_EDGE('',*,*,#206,.F.);
#127=ORIENTED_EDGE('',*,*,#196,.T.);
#128=ORIENTED_EDGE('',*,*,#207,.T.);
#129=ORIENTED_EDGE('',*,*,#193,.T.);
#130=ORIENTED_EDGE('',*,*,#177,.F.);
#131=ORIENTED_EDGE('',*,*,#200,.F.);
#132=ORIENTED_EDGE('',*,*,#206,.T.);
#133=ORIENTED_EDGE('',*,*,#194,.T.);
#134=ORIENTED_EDGE('',*,*,#207,.F.);
#135=ORIENTED_EDGE('',*,*,#199,.F.);
#136=ORIENTED_EDGE('',*,*,#202,.F.);
#137=ORIENTED_EDGE('',*,*,#204,.T.);
#138=ORIENTED_EDGE('',*,*,#205,.T.);
#139=ORIENTED_EDGE('',*,*,#197,.F.);
#140=ORIENTED_EDGE('',*,*,#208,.F.);
#141=ORIENTED_EDGE('',*,*,#185,.T.);
#142=ORIENTED_EDGE('',*,*,#208,.T.);
#143=ORIENTED_EDGE('',*,*,#209,.F.);
#144=ORIENTED_EDGE('',*,*,#186,.T.);
#145=ORIENTED_EDGE('',*,*,#209,.T.);
#146=ORIENTED_EDGE('',*,*,#210,.F.);
#147=ORIENTED_EDGE('',*,*,#187,.T.);
#148=ORIENTED_EDGE('',*,*,#210,.T.);
#149=ORIENTED_EDGE('',*,*,#188,.F.);
#150=ORIENTED_EDGE('',*,*,#211,.F.);
#151=ORIENTED_EDGE('',*,*,#212,.T.);
#152=ORIENTED_EDGE('',*,*,#213,.T.);
#153=ORIENTED_EDGE('',*,*,#191,.T.);
#154=ORIENTED_EDGE('',*,*,#214,.F.);
#155=ORIENTED_EDGE('',*,*,#215,.F.);
#156=ORIENTED_EDGE('',*,*,#211,.T.);
#157=ORIENTED_EDGE('',*,*,#190,.T.);
#158=ORIENTED_EDGE('',*,*,#216,.F.);
#159=ORIENTED_EDGE('',*,*,#217,.F.);
#160=ORIENTED_EDGE('',*,*,#214,.T.);
#161=ORIENTED_EDGE('',*,*,#189,.F.);
#162=ORIENTED_EDGE('',*,*,#213,.F.);
#163=ORIENTED_EDGE('',*,*,#218,.T.);
#164=ORIENTED_EDGE('',*,*,#216,.T.);
#165=ORIENTED_EDGE('',*,*,#212,.F.);
#166=ORIENTED_EDGE('',*,*,#215,.T.);
#167=ORIENTED_EDGE('',*,*,#217,.T.);
#168=ORIENTED_EDGE('',*,*,#218,.F.);
#169=ORIENTED_EDGE('',*,*,#219,.F.);
#170=ORIENTED_EDGE('',*,*,#176,.T.);
#171=ORIENTED_EDGE('',*,*,#219,.T.);
#172=ORIENTED_EDGE('',*,*,#220,.F.);
#173=ORIENTED_EDGE('',*,*,#175,.T.);
#174=ORIENTED_EDGE('',*,*,#220,.T.);
#175=EDGE_CURVE('',#221,#221,#255,.T.);
#176=EDGE_CURVE('',#222,#222,#256,.T.);
#177=EDGE_CURVE('',#223,#224,#19,.T.);
#178=EDGE_CURVE('',#224,#225,#257,.F.);
#179=EDGE_CURVE('',#226,#225,#20,.T.);
#180=EDGE_CURVE('',#227,#226,#258,.F.);
#181=EDGE_CURVE('',#228,#227,#21,.T.);
#182=EDGE_CURVE('',#229,#228,#22,.T.);
#183=EDGE_CURVE('',#229,#230,#23,.T.);
#184=EDGE_CURVE('',#230,#223,#24,.T.);
#185=EDGE_CURVE('',#231,#231,#259,.T.);
#186=EDGE_CURVE('',#232,#232,#260,.T.);
#187=EDGE_CURVE('',#233,#233,#261,.T.);
#188=EDGE_CURVE('',#234,#235,#25,.T.);
#189=EDGE_CURVE('',#235,#236,#26,.T.);
#190=EDGE_CURVE('',#237,#236,#27,.T.);
#191=EDGE_CURVE('',#234,#237,#28,.T.);
#192=EDGE_CURVE('',#225,#238,#29,.T.);
#193=EDGE_CURVE('',#239,#224,#30,.F.);
#194=EDGE_CURVE('',#238,#239,#262,.T.);
#195=EDGE_CURVE('',#227,#240,#31,.T.);
#196=EDGE_CURVE('',#241,#226,#32,.F.);
#197=EDGE_CURVE('',#241,#240,#263,.T.);
#198=EDGE_CURVE('',#242,#230,#33,.T.);
#199=EDGE_CURVE('',#242,#243,#34,.T.);
#200=EDGE_CURVE('',#243,#223,#35,.T.);
#201=EDGE_CURVE('',#244,#229,#36,.T.);
#202=EDGE_CURVE('',#244,#242,#37,.T.);
#203=EDGE_CURVE('',#245,#228,#38,.T.);
#204=EDGE_CURVE('',#244,#245,#39,.T.);
#205=EDGE_CURVE('',#245,#240,#40,.T.);
#206=EDGE_CURVE('',#241,#238,#41,.T.);
#207=EDGE_CURVE('',#243,#239,#42,.T.);
#208=EDGE_CURVE('',#246,#246,#264,.T.);
#209=EDGE_CURVE('',#247,#247,#265,.T.);
#210=EDGE_CURVE('',#248,#248,#266,.T.);
#211=EDGE_CURVE('',#249,#234,#43,.T.);
#212=EDGE_CURVE('',#249,#250,#44,.T.);
#213=EDGE_CURVE('',#250,#235,#45,.T.);
#214=EDGE_CURVE('',#251,#237,#46,.T.);
#215=EDGE_CURVE('',#249,#251,#47,.T.);
#216=EDGE_CURVE('',#252,#236,#48,.T.);
#217=EDGE_CURVE('',#251,#252,#49,.T.);
#218=EDGE_CURVE('',#250,#252,#50,.T.);
#219=EDGE_CURVE('',#253,#253,#267,.T.);
#220=EDGE_CURVE('',#254,#254,#268,.T.);
#221=VERTEX_POINT('',#551);
#222=VERTEX_POINT('',#553);
#223=VERTEX_POINT('',#555);
#224=VERTEX_POINT('',#556);
#225=VERTEX_POINT('',#558);
#226=VERTEX_POINT('',#560);
#227=VERTEX_POINT('',#562);
#228=VERTEX_POINT('',#564);
#229=VERTEX_POINT('',#566);
#230=VERTEX_POINT('',#568);
#231=VERTEX_POINT('',#571);
#232=VERTEX_POINT('',#573);
#233=VERTEX_POINT('',#575);
#234=VERTEX_POINT('',#577);
#235=VERTEX_POINT('',#578);
#236=VERTEX_POINT('',#580);
#237=VERTEX_POINT('',#582);
#238=VERTEX_POINT('',#586);
#239=VERTEX_POINT('',#588);
#240=VERTEX_POINT('',#592);
#241=VERTEX_POINT('',#594);
#242=VERTEX_POINT('',#598);
#243=VERTEX_POINT('',#600);
#244=VERTEX_POINT('',#604);
#245=VERTEX_POINT('',#608);
#246=VERTEX_POINT('',#619);
#247=VERTEX_POINT('',#623);
#248=VERTEX_POINT('',#627);
#249=VERTEX_POINT('',#631);
#250=VERTEX_POINT('',#633);
#251=VERTEX_POINT('',#637);
#252=VERTEX_POINT('',#641);
#253=VERTEX_POINT('',#648);
#254=VERTEX_POINT('',#652);
#255=CIRCLE('',#398,0.02);
#256=CIRCLE('',#399,0.02);
#257=CIRCLE('',#400,0.014);
#258=CIRCLE('',#401,0.014);
#259=CIRCLE('',#402,0.0178340676572626);
#260=CIRCLE('',#403,0.02);
#261=CIRCLE('',#404,0.02);
#262=CIRCLE('',#406,0.014);
#263=CIRCLE('',#408,0.014);
#264=CIRCLE('',#417,0.0178340676572626);
#265=CIRCLE('',#420,0.02);
#266=CIRCLE('',#423,0.02);
#267=CIRCLE('',#431,0.02);
#268=CIRCLE('',#434,0.02);
#269=EDGE_LOOP('',(#83));
#270=EDGE_LOOP('',(#84));
#271=EDGE_LOOP('',(#85,#86,#87,#88,#89,#90,#91,#92));
#272=EDGE_LOOP('',(#93));
#273=EDGE_LOOP('',(#94));
#274=EDGE_LOOP('',(#95));
#275=EDGE_LOOP('',(#96,#97,#98,#99));
#276=EDGE_LOOP('',(#100,#101,#102,#103));
#277=EDGE_LOOP('',(#104,#105,#106,#107));
#278=EDGE_LOOP('',(#108,#109,#110,#111));
#279=EDGE_LOOP('',(#112,#113,#114,#115));
#280=EDGE_LOOP('',(#116,#117,#118,#119));
#281=EDGE_LOOP('',(#120,#121,#122,#123));
#282=EDGE_LOOP('',(#124,#125,#126,#127));
#283=EDGE_LOOP('',(#128,#129,#130,#131));
#284=EDGE_LOOP('',(#132,#133,#134,#135,#136,#137,#138,#139));
#285=EDGE_LOOP('',(#140));
#286=EDGE_LOOP('',(#141));
#287=EDGE_LOOP('',(#142));
#288=EDGE_LOOP('',(#143));
#289=EDGE_LOOP('',(#144));
#290=EDGE_LOOP('',(#145));
#291=EDGE_LOOP('',(#146));
#292=EDGE_LOOP('',(#147));
#293=EDGE_LOOP('',(#148));
#294=EDGE_LOOP('',(#149,#150,#151,#152));
#295=EDGE_LOOP('',(#153,#154,#155,#156));
#296=EDGE_LOOP('',(#157,#158,#159,#160));
#297=EDGE_LOOP('',(#161,#162,#163,#164));
#298=EDGE_LOOP('',(#165,#166,#167,#168));
#299=EDGE_LOOP('',(#169));
#300=EDGE_LOOP('',(#170));
#301=EDGE_LOOP('',(#171));
#302=EDGE_LOOP('',(#172));
#303=EDGE_LOOP('',(#173));
#304=EDGE_LOOP('',(#174));
#305=FACE_BOUND('',#269,.T.);
#306=FACE_BOUND('',#270,.T.);
#307=FACE_BOUND('',#271,.T.);
#308=FACE_BOUND('',#272,.T.);
#309=FACE_BOUND('',#273,.T.);
#310=FACE_BOUND('',#274,.T.);
#311=FACE_BOUND('',#275,.T.);
#312=FACE_BOUND('',#276,.T.);
#313=FACE_BOUND('',#277,.T.);
#314=FACE_BOUND('',#278,.T.);
#315=FACE_BOUND('',#279,.T.);
#316=FACE_BOUND('',#280,.T.);
#317=FACE_BOUND('',#281,.T.);
#318=FACE_BOUND('',#282,.T.);
#319=FACE_BOUND('',#283,.T.);
#320=FACE_BOUND('',#284,.T.);
#321=FACE_BOUND('',#285,.T.);
#322=FACE_BOUND('',#286,.T.);
#323=FACE_BOUND('',#287,.T.);
#324=FACE_BOUND('',#288,.T.);
#325=FACE_BOUND('',#289,.T.);
#326=FACE_BOUND('',#290,.T.);
#327=FACE_BOUND('',#291,.T.);
#328=FACE_BOUND('',#292,.T.);
#329=FACE_BOUND('',#293,.T.);
#330=FACE_BOUND('',#294,.T.);
#331=FACE_BOUND('',#295,.T.);
#332=FACE_BOUND('',#296,.T.);
#333=FACE_BOUND('',#297,.T.);
#334=FACE_BOUND('',#298,.T.);
#335=FACE_BOUND('',#299,.T.);
#336=FACE_BOUND('',#300,.T.);
#337=FACE_BOUND('',#301,.T.);
#338=FACE_BOUND('',#302,.T.);
#339=FACE_BOUND('',#303,.T.);
#340=FACE_BOUND('',#304,.T.);
#341=PLANE('',#397);
#342=PLANE('',#409);
#343=PLANE('',#410);
#344=PLANE('',#411);
#345=PLANE('',#412);
#346=PLANE('',#413);
#347=PLANE('',#414);
#348=PLANE('',#415);
#349=PLANE('',#418);
#350=PLANE('',#421);
#351=PLANE('',#424);
#352=PLANE('',#425);
#353=PLANE('',#426);
#354=PLANE('',#427);
#355=PLANE('',#428);
#356=PLANE('',#429);
#357=PLANE('',#432);
#358=PLANE('',#435);
#359=ADVANCED_FACE('',(#305,#306,#307,#308,#309,#310,#311),#341,.F.);
#360=ADVANCED_FACE('',(#312),#12,.T.);
#361=ADVANCED_FACE('',(#313),#13,.F.);
#362=ADVANCED_FACE('',(#314),#342,.T.);
#363=ADVANCED_FACE('',(#315),#343,.T.);
#364=ADVANCED_FACE('',(#316),#344,.F.);
#365=ADVANCED_FACE('',(#317),#345,.F.);
#366=ADVANCED_FACE('',(#318),#346,.F.);
#367=ADVANCED_FACE('',(#319),#347,.T.);
#368=ADVANCED_FACE('',(#320),#348,.T.);
#369=ADVANCED_FACE('',(#321,#322),#14,.F.);
#370=ADVANCED_FACE('',(#323),#349,.T.);
#371=ADVANCED_FACE('',(#324,#325),#15,.F.);
#372=ADVANCED_FACE('',(#326),#350,.T.);
#373=ADVANCED_FACE('',(#327,#328),#16,.F.);
#374=ADVANCED_FACE('',(#329),#351,.T.);
#375=ADVANCED_FACE('',(#330),#352,.T.);
#376=ADVANCED_FACE('',(#331),#353,.F.);
#377=ADVANCED_FACE('',(#332),#354,.F.);
#378=ADVANCED_FACE('',(#333),#355,.T.);
#379=ADVANCED_FACE('',(#334),#356,.T.);
#380=ADVANCED_FACE('',(#335,#336),#17,.F.);
#381=ADVANCED_FACE('',(#337),#357,.T.);
#382=ADVANCED_FACE('',(#338,#339),#18,.F.);
#383=ADVANCED_FACE('',(#340),#358,.T.);
#384=CLOSED_SHELL('',(#359,#360,#361,#362,#363,#364,#365,#366,#367,#368,
#369,#370,#371,#372,#373,#374,#375,#376,#377,#378,#379,#380,#381,#382,#383));
#385=STYLED_ITEM('',(#386),#393);
#386=PRESENTATION_STYLE_ASSIGNMENT((#387));
#387=SURFACE_STYLE_USAGE(.BOTH.,#388);
#388=SURFACE_SIDE_STYLE('',(#389));
#389=SURFACE_STYLE_FILL_AREA(#390);
#390=FILL_AREA_STYLE('',(#391));
#391=FILL_AREA_STYLE_COLOUR('',#392);
#392=COLOUR_RGB('',0.615686274509804,0.811764705882353,0.929411764705882);
#393=MANIFOLD_SOLID_BREP('Part 1',#384);
#394=SHAPE_DEFINITION_REPRESENTATION(#660,#395);
#395=SHAPE_REPRESENTATION('Part 1',(#396),#655);
#396=AXIS2_PLACEMENT_3D('',#548,#436,#437);
#397=AXIS2_PLACEMENT_3D('',#549,#438,#439);
#398=AXIS2_PLACEMENT_3D('',#550,#440,#441);
#399=AXIS2_PLACEMENT_3D('',#552,#442,#443);
#400=AXIS2_PLACEMENT_3D('',#557,#445,#446);
#401=AXIS2_PLACEMENT_3D('',#561,#448,#449);
#402=AXIS2_PLACEMENT_3D('',#570,#454,#455);
#403=AXIS2_PLACEMENT_3D('',#572,#456,#457);
#404=AXIS2_PLACEMENT_3D('',#574,#458,#459);
#405=AXIS2_PLACEMENT_3D('',#584,#464,#465);
#406=AXIS2_PLACEMENT_3D('',#589,#468,#469);
#407=AXIS2_PLACEMENT_3D('',#590,#470,#471);
#408=AXIS2_PLACEMENT_3D('',#595,#474,#475);
#409=AXIS2_PLACEMENT_3D('',#596,#476,#477);
#410=AXIS2_PLACEMENT_3D('',#602,#481,#482);
#411=AXIS2_PLACEMENT_3D('',#606,#485,#486);
#412=AXIS2_PLACEMENT_3D('',#610,#489,#490);
#413=AXIS2_PLACEMENT_3D('',#612,#492,#493);
#414=AXIS2_PLACEMENT_3D('',#614,#495,#496);
#415=AXIS2_PLACEMENT_3D('',#616,#498,#499);
#416=AXIS2_PLACEMENT_3D('',#617,#500,#501);
#417=AXIS2_PLACEMENT_3D('',#618,#502,#503);
#418=AXIS2_PLACEMENT_3D('',#620,#504,#505);
#419=AXIS2_PLACEMENT_3D('',#621,#506,#507);
#420=AXIS2_PLACEMENT_3D('',#622,#508,#509);
#421=AXIS2_PLACEMENT_3D('',#624,#510,#511);
#422=AXIS2_PLACEMENT_3D('',#625,#512,#513);
#423=AXIS2_PLACEMENT_3D('',#626,#514,#515);
#424=AXIS2_PLACEMENT_3D('',#628,#516,#517);
#425=AXIS2_PLACEMENT_3D('',#629,#518,#519);
#426=AXIS2_PLACEMENT_3D('',#635,#523,#524);
#427=AXIS2_PLACEMENT_3D('',#639,#527,#528);
#428=AXIS2_PLACEMENT_3D('',#643,#531,#532);
#429=AXIS2_PLACEMENT_3D('',#645,#534,#535);
#430=AXIS2_PLACEMENT_3D('',#646,#536,#537);
#431=AXIS2_PLACEMENT_3D('',#647,#538,#539);
#432=AXIS2_PLACEMENT_3D('',#649,#540,#541);
#433=AXIS2_PLACEMENT_3D('',#650,#542,#543);
#434=AXIS2_PLACEMENT_3D('',#651,#544,#545);
#435=AXIS2_PLACEMENT_3D('',#653,#546,#547);
#436=DIRECTION('',(0.,0.,1.));
#437=DIRECTION('',(1.,0.,0.));
#438=DIRECTION('',(0.,0.,1.));
#439=DIRECTION('',(1.,0.,0.));
#440=DIRECTION('',(0.,0.,-1.));
#441=DIRECTION('',(-1.,0.,0.));
#442=DIRECTION('',(0.,0.,-1.));
#443=DIRECTION('',(-1.,0.,0.));
#444=DIRECTION('',(0.,-1.,0.));
#445=DIRECTION('',(0.,0.,1.));
#446=DIRECTION('',(1.,0.,0.));
#447=DIRECTION('',(1.,0.,0.));
#448=DIRECTION('',(0.,0.,1.));
#449=DIRECTION('',(1.,0.,0.));
#450=DIRECTION('',(-1.93082265152201E-16,1.,0.));
#451=DIRECTION('',(1.,0.,0.));
#452=DIRECTION('',(0.,1.,0.));
#453=DIRECTION('',(1.,0.,0.));
#454=DIRECTION('',(0.,0.,-1.));
#455=DIRECTION('',(-1.,0.,0.));
#456=DIRECTION('',(0.,0.,-1.));
#457=DIRECTION('',(-1.,0.,0.));
#458=DIRECTION('',(0.,0.,-1.));
#459=DIRECTION('',(-1.,0.,0.));
#460=DIRECTION('',(2.77555756156289E-16,1.,0.));
#461=DIRECTION('',(-1.,0.,0.));
#462=DIRECTION('',(3.03576608295942E-16,1.,0.));
#463=DIRECTION('',(-1.,0.,0.));
#464=DIRECTION('',(0.,0.,-1.));
#465=DIRECTION('',(-1.,0.,0.));
#466=DIRECTION('',(0.,0.,1.));
#467=DIRECTION('',(0.,0.,1.));
#468=DIRECTION('',(0.,0.,1.));
#469=DIRECTION('',(1.,0.,0.));
#470=DIRECTION('',(0.,0.,-1.));
#471=DIRECTION('',(-1.,0.,0.));
#472=DIRECTION('',(0.,0.,1.));
#473=DIRECTION('',(0.,0.,1.));
#474=DIRECTION('',(0.,0.,1.));
#475=DIRECTION('',(1.,0.,0.));
#476=DIRECTION('',(0.,1.,0.));
#477=DIRECTION('',(0.,0.,1.));
#478=DIRECTION('',(0.,0.,-1.));
#479=DIRECTION('',(1.,0.,0.));
#480=DIRECTION('',(0.,0.,-1.));
#481=DIRECTION('',(-1.,0.,0.));
#482=DIRECTION('',(0.,0.,1.));
#483=DIRECTION('',(0.,0.,-1.));
#484=DIRECTION('',(0.,1.,0.));
#485=DIRECTION('',(0.,1.,0.));
#486=DIRECTION('',(0.,0.,1.));
#487=DIRECTION('',(0.,0.,-1.));
#488=DIRECTION('',(1.,0.,0.));
#489=DIRECTION('',(-1.,-1.93082265152201E-16,0.));
#490=DIRECTION('',(1.93082265152201E-16,-1.,0.));
#491=DIRECTION('',(-1.93082265152201E-16,1.,0.));
#492=DIRECTION('',(0.,1.,0.));
#493=DIRECTION('',(0.,0.,1.));
#494=DIRECTION('',(1.,0.,0.));
#495=DIRECTION('',(1.,0.,0.));
#496=DIRECTION('',(0.,0.,-1.));
#497=DIRECTION('',(0.,-1.,0.));
#498=DIRECTION('',(0.,0.,1.));
#499=DIRECTION('',(1.,0.,0.));
#500=DIRECTION('',(0.,0.,-1.));
#501=DIRECTION('',(-1.,0.,0.));
#502=DIRECTION('',(0.,0.,-1.));
#503=DIRECTION('',(-1.,0.,0.));
#504=DIRECTION('',(0.,0.,-1.));
#505=DIRECTION('',(1.,0.,0.));
#506=DIRECTION('',(0.,0.,-1.));
#507=DIRECTION('',(-1.,0.,0.));
#508=DIRECTION('',(0.,0.,-1.));
#509=DIRECTION('',(-1.,0.,0.));
#510=DIRECTION('',(0.,0.,-1.));
#511=DIRECTION('',(1.,0.,0.));
#512=DIRECTION('',(0.,0.,-1.));
#513=DIRECTION('',(-1.,0.,0.));
#514=DIRECTION('',(0.,0.,-1.));
#515=DIRECTION('',(-1.,0.,0.));
#516=DIRECTION('',(0.,0.,-1.));
#517=DIRECTION('',(1.,0.,0.));
#518=DIRECTION('',(-1.,2.77555756156289E-16,0.));
#519=DIRECTION('',(-2.77555756156289E-16,-1.,0.));
#520=DIRECTION('',(0.,0.,-1.));
#521=DIRECTION('',(2.77555756156289E-16,1.,0.));
#522=DIRECTION('',(0.,0.,-1.));
#523=DIRECTION('',(0.,-1.,0.));
#524=DIRECTION('',(0.,0.,-1.));
#525=DIRECTION('',(0.,0.,-1.));
#526=DIRECTION('',(-1.,0.,0.));
#527=DIRECTION('',(-1.,3.03576608295942E-16,0.));
#528=DIRECTION('',(-3.03576608295942E-16,-1.,0.));
#529=DIRECTION('',(0.,0.,-1.));
#530=DIRECTION('',(3.03576608295942E-16,1.,0.));
#531=DIRECTION('',(0.,-1.,0.));
#532=DIRECTION('',(0.,0.,-1.));
#533=DIRECTION('',(-1.,0.,0.));
#534=DIRECTION('',(0.,0.,-1.));
#535=DIRECTION('',(1.,0.,0.));
#536=DIRECTION('',(0.,0.,-1.));
#537=DIRECTION('',(-1.,0.,0.));
#538=DIRECTION('',(0.,0.,-1.));
#539=DIRECTION('',(-1.,0.,0.));
#540=DIRECTION('',(0.,0.,-1.));
#541=DIRECTION('',(1.,0.,0.));
#542=DIRECTION('',(0.,0.,-1.));
#543=DIRECTION('',(-1.,0.,0.));
#544=DIRECTION('',(0.,0.,-1.));
#545=DIRECTION('',(-1.,0.,0.));
#546=DIRECTION('',(0.,0.,-1.));
#547=DIRECTION('',(1.,0.,0.));
#548=CARTESIAN_POINT('',(0.,0.,0.));
#549=CARTESIAN_POINT('',(0.35297939328124,0.607310958953348,0.));
#550=CARTESIAN_POINT('',(0.12297939328124,-0.0376890410466516,0.));
#551=CARTESIAN_POINT('',(0.10297939328124,-0.0376890410466516,0.));
#552=CARTESIAN_POINT('',(-0.0170206067187598,-0.0376890410466517,0.));
#553=CARTESIAN_POINT('',(-0.0370206067187598,-0.0376890410466517,0.));
#554=CARTESIAN_POINT('',(0.75297939328124,1.18231095895335,0.));
#555=CARTESIAN_POINT('',(0.75297939328124,1.28231095895335,0.));
#556=CARTESIAN_POINT('',(0.75297939328124,1.09631095895335,0.));
#557=CARTESIAN_POINT('',(0.73897939328124,1.09631095895335,0.));
#558=CARTESIAN_POINT('',(0.73897939328124,1.08231095895335,0.));
#559=CARTESIAN_POINT('',(0.45297939328124,1.08231095895335,0.));
#560=CARTESIAN_POINT('',(0.16697939328124,1.08231095895335,0.));
#561=CARTESIAN_POINT('',(0.16697939328124,1.06831095895335,0.));
#562=CARTESIAN_POINT('',(0.15297939328124,1.06831095895335,0.));
#563=CARTESIAN_POINT('',(0.15297939328124,0.507310958953348,0.));
#564=CARTESIAN_POINT('',(0.15297939328124,-0.0676890410466517,0.));
#565=CARTESIAN_POINT('',(0.0529793932812404,-0.0676890410466517,0.));
#566=CARTESIAN_POINT('',(-0.0470206067187598,-0.0676890410466517,0.));
#567=CARTESIAN_POINT('',(-0.0470206067187598,0.607310958953348,0.));
#568=CARTESIAN_POINT('',(-0.0470206067187598,1.28231095895335,0.));
#569=CARTESIAN_POINT('',(0.0529793932812402,1.28231095895335,0.));
#570=CARTESIAN_POINT('',(0.728356743340442,1.12131095895335,0.));
#571=CARTESIAN_POINT('',(0.710522675683179,1.12131095895335,0.));
#572=CARTESIAN_POINT('',(0.72297939328124,1.25231095895335,0.));
#573=CARTESIAN_POINT('',(0.70297939328124,1.25231095895335,0.));
#574=CARTESIAN_POINT('',(-0.0170206067187598,1.25231095895335,0.));
#575=CARTESIAN_POINT('',(-0.0370206067187598,1.25231095895335,0.));
#576=CARTESIAN_POINT('',(0.147979393281241,0.582310958953348,0.));
#577=CARTESIAN_POINT('',(0.147979393281241,0.482310958953348,0.));
#578=CARTESIAN_POINT('',(0.147979393281241,0.682310958953348,0.));
#579=CARTESIAN_POINT('',(0.0779793932812407,0.682310958953348,0.));
#580=CARTESIAN_POINT('',(0.00797939328124064,0.682310958953348,0.));
#581=CARTESIAN_POINT('',(0.00797939328124063,0.582310958953348,0.));
#582=CARTESIAN_POINT('',(0.0079793932812406,0.482310958953348,0.));
#583=CARTESIAN_POINT('',(0.0779793932812406,0.482310958953348,0.));
#584=CARTESIAN_POINT('',(0.73897939328124,1.09631095895335,0.02));
#585=CARTESIAN_POINT('',(0.73897939328124,1.08231095895335,0.02));
#586=CARTESIAN_POINT('',(0.73897939328124,1.08231095895335,0.02));
#587=CARTESIAN_POINT('',(0.75297939328124,1.09631095895335,0.02));
#588=CARTESIAN_POINT('',(0.75297939328124,1.09631095895335,0.02));
#589=CARTESIAN_POINT('',(0.73897939328124,1.09631095895335,0.02));
#590=CARTESIAN_POINT('',(0.16697939328124,1.06831095895335,0.02));
#591=CARTESIAN_POINT('',(0.15297939328124,1.06831095895335,0.02));
#592=CARTESIAN_POINT('',(0.15297939328124,1.06831095895335,0.02));
#593=CARTESIAN_POINT('',(0.16697939328124,1.08231095895335,0.02));
#594=CARTESIAN_POINT('',(0.16697939328124,1.08231095895335,0.02));
#595=CARTESIAN_POINT('',(0.16697939328124,1.06831095895335,0.02));
#596=CARTESIAN_POINT('',(0.0529793932812402,1.28231095895335,0.02));
#597=CARTESIAN_POINT('',(-0.0470206067187598,1.28231095895335,0.02));
#598=CARTESIAN_POINT('',(-0.0470206067187598,1.28231095895335,0.02));
#599=CARTESIAN_POINT('',(0.0529793932812402,1.28231095895335,0.02));
#600=CARTESIAN_POINT('',(0.75297939328124,1.28231095895335,0.02));
#601=CARTESIAN_POINT('',(0.75297939328124,1.28231095895335,0.02));
#602=CARTESIAN_POINT('',(-0.0470206067187598,0.607310958953348,0.02));
#603=CARTESIAN_POINT('',(-0.0470206067187598,-0.0676890410466517,0.02));
#604=CARTESIAN_POINT('',(-0.0470206067187598,-0.0676890410466517,0.02));
#605=CARTESIAN_POINT('',(-0.0470206067187598,0.607310958953348,0.02));
#606=CARTESIAN_POINT('',(0.0529793932812404,-0.0676890410466517,0.02));
#607=CARTESIAN_POINT('',(0.15297939328124,-0.0676890410466517,0.02));
#608=CARTESIAN_POINT('',(0.15297939328124,-0.0676890410466517,0.02));
#609=CARTESIAN_POINT('',(0.0529793932812404,-0.0676890410466517,0.02));
#610=CARTESIAN_POINT('',(0.15297939328124,0.507310958953348,0.02));
#611=CARTESIAN_POINT('',(0.15297939328124,0.507310958953348,0.02));
#612=CARTESIAN_POINT('',(0.45297939328124,1.08231095895335,0.02));
#613=CARTESIAN_POINT('',(0.45297939328124,1.08231095895335,0.02));
#614=CARTESIAN_POINT('',(0.75297939328124,1.18231095895335,0.02));
#615=CARTESIAN_POINT('',(0.75297939328124,1.18231095895335,0.02));
#616=CARTESIAN_POINT('',(0.35297939328124,0.607310958953348,0.02));
#617=CARTESIAN_POINT('',(0.728356743340442,1.12131095895335,0.005));
#618=CARTESIAN_POINT('',(0.728356743340442,1.12131095895335,0.005));
#619=CARTESIAN_POINT('',(0.710522675683179,1.12131095895335,0.005));
#620=CARTESIAN_POINT('',(0.35297939328124,0.607310958953348,0.005));
#621=CARTESIAN_POINT('',(0.72297939328124,1.25231095895335,0.005));
#622=CARTESIAN_POINT('',(0.72297939328124,1.25231095895335,0.005));
#623=CARTESIAN_POINT('',(0.70297939328124,1.25231095895335,0.005));
#624=CARTESIAN_POINT('',(0.35297939328124,0.607310958953348,0.005));
#625=CARTESIAN_POINT('',(-0.0170206067187598,1.25231095895335,0.005));
#626=CARTESIAN_POINT('',(-0.0170206067187598,1.25231095895335,0.005));
#627=CARTESIAN_POINT('',(-0.0370206067187598,1.25231095895335,0.005));
#628=CARTESIAN_POINT('',(0.35297939328124,0.607310958953348,0.005));
#629=CARTESIAN_POINT('',(0.147979393281241,0.582310958953348,0.005));
#630=CARTESIAN_POINT('',(0.147979393281241,0.482310958953348,0.005));
#631=CARTESIAN_POINT('',(0.147979393281241,0.482310958953348,0.005));
#632=CARTESIAN_POINT('',(0.147979393281241,0.582310958953348,0.005));
#633=CARTESIAN_POINT('',(0.147979393281241,0.682310958953348,0.005));
#634=CARTESIAN_POINT('',(0.147979393281241,0.682310958953348,0.005));
#635=CARTESIAN_POINT('',(0.0779793932812406,0.482310958953348,0.005));
#636=CARTESIAN_POINT('',(0.0079793932812406,0.482310958953348,0.005));
#637=CARTESIAN_POINT('',(0.0079793932812406,0.482310958953348,0.005));
#638=CARTESIAN_POINT('',(0.0779793932812406,0.482310958953348,0.005));
#639=CARTESIAN_POINT('',(0.00797939328124063,0.582310958953348,0.005));
#640=CARTESIAN_POINT('',(0.00797939328124066,0.682310958953348,0.005));
#641=CARTESIAN_POINT('',(0.00797939328124066,0.682310958953348,0.005));
#642=CARTESIAN_POINT('',(0.00797939328124063,0.582310958953348,0.005));
#643=CARTESIAN_POINT('',(0.0779793932812407,0.682310958953348,0.005));
#644=CARTESIAN_POINT('',(0.0779793932812407,0.682310958953348,0.005));
#645=CARTESIAN_POINT('',(0.35297939328124,0.607310958953348,0.005));
#646=CARTESIAN_POINT('',(-0.0170206067187598,-0.0376890410466517,0.005));
#647=CARTESIAN_POINT('',(-0.0170206067187598,-0.0376890410466517,0.005));
#648=CARTESIAN_POINT('',(-0.0370206067187598,-0.0376890410466517,0.005));
#649=CARTESIAN_POINT('',(0.35297939328124,0.607310958953348,0.005));
#650=CARTESIAN_POINT('',(0.12297939328124,-0.0376890410466516,0.005));
#651=CARTESIAN_POINT('',(0.12297939328124,-0.0376890410466516,0.005));
#652=CARTESIAN_POINT('',(0.10297939328124,-0.0376890410466516,0.005));
#653=CARTESIAN_POINT('',(0.35297939328124,0.607310958953348,0.005));
#654=MECHANICAL_DESIGN_GEOMETRIC_PRESENTATION_REPRESENTATION('',(#385),
#655);
#655=(
GEOMETRIC_REPRESENTATION_CONTEXT(3)
GLOBAL_UNCERTAINTY_ASSIGNED_CONTEXT((#656))
GLOBAL_UNIT_ASSIGNED_CONTEXT((#659,#658,#657))
REPRESENTATION_CONTEXT('Part 1','TOP_LEVEL_ASSEMBLY_PART')
);
#656=UNCERTAINTY_MEASURE_WITH_UNIT(LENGTH_MEASURE(1.E-8),#659,
'DISTANCE_ACCURACY_VALUE','Maximum Tolerance applied to model');
#657=(
NAMED_UNIT(*)
SI_UNIT($,.STERADIAN.)
SOLID_ANGLE_UNIT()
);
#658=(
NAMED_UNIT(*)
PLANE_ANGLE_UNIT()
SI_UNIT($,.RADIAN.)
);
#659=(
LENGTH_UNIT()
NAMED_UNIT(*)
SI_UNIT($,.METRE.)
);
#660=PRODUCT_DEFINITION_SHAPE('','',#661);
#661=PRODUCT_DEFINITION('','',#663,#662);
#662=PRODUCT_DEFINITION_CONTEXT('',#669,'design');
#663=PRODUCT_DEFINITION_FORMATION_WITH_SPECIFIED_SOURCE('','',#665,
 .NOT_KNOWN.);
#664=PRODUCT_RELATED_PRODUCT_CATEGORY('','',(#665));
#665=PRODUCT('Part 1','Part 1','Part 1',(#667));
#666=PRODUCT_CATEGORY('','');
#667=PRODUCT_CONTEXT('',#669,'mechanical');
#668=APPLICATION_PROTOCOL_DEFINITION('international standard',
'ap242_managed_model_based_3d_engineering',2020,#669);
#669=APPLICATION_CONTEXT('managed model based 3d engineering');
ENDSEC;
END-ISO-10303-21;
